<svg baseProfile="tiny" height="300mm" version="1.2" viewBox="0,0,120.0,120.0" width="300.0mm" xmlns="http://www.w3.org/2000/svg" xmlns:ev="http://www.w3.org/2001/xml-events" xmlns:xlink="http://www.w3.org/1999/xlink"><metadata><generated_with>https://piebro.github.io/factorio-blueprint-visualizer/</generated_with><settings>[['meta', {'background': '#ff6666'}], ['default-svg-properties', {'stroke': '#ccff66', 'stroke-width': 0.8, 'stroke-linecap': 'round'}], ['connected-underground-belt', {}], ['connected-pipe-to-ground', {}], ['bbox', {'deny': ['connected-stuff'], 'fill': '#ff6666', 'stroke': '#ccff66', 'stroke-width': 0.2, 'bbox-scale': 1, 'bbox-rx': 0.15, 'bbox-ry': 0.15}], ['default-svg-properties', {'stroke': '#ccff66', 'stroke-width': 0.8, 'stroke-linecap': 'round'}], ['connected-belt', {}], ['connected-pipe', {}], ['connected-inserter', {}], ['connected-rail', {}]]</settings></metadata><rect fill="#ff6666" height="10000" width="10000" x="-100" y="-100" /><g stroke="#ccff66" stroke-width="0.8" stroke-linecap="round"><path d=""/><path d="M19.5 15.5 23.5 15.5M24.5 15.5 31.5 15.5M31.5 14.5 41.5 14.5M32.5 15.5 42.5 15.5M40.5 14.5 40.5 5.5M42.5 14.5 52.5 14.5M43.5 15.5 53.5 15.5M53.5 14.5 62.5 14.5M55.5 15.5 65.5 15.5M63.5 14.5 70.5 14.5M66.5 15.5 76.5 15.5M71.5 14.5 81.5 14.5M90.5 14.5 90.5 5.5M24.5 16.5 33.5 16.5M28.5 17.5 35.5 17.5M34.5 16.5 43.5 16.5M36.5 17.5 46.5 17.5M44.5 16.5 54.5 16.5M47.5 17.5 57.5 17.5M55.5 16.5 65.5 16.5M59.5 17.5 61.5 17.5M66.5 16.5 74.5 16.5M69.5 17.5 74.5 17.5M75.5 16.5 85.5 16.5M75.5 17.5 83.5 17.5M85.5 17.5 93.5 17.5M86.5 16.5 89.5 16.5M90.5 17.5 90.5 15.5M18.5 19.5 18.5 16.5M30.5 18.5 30.5 15.5M31.5 19.5 41.5 19.5M62.5 19.5 62.5 18.5M79.5 19.5 89.5 19.5M84.5 18.5 91.5 18.5M31.5 21.5 35.5 21.5M36.5 21.5 45.5 21.5M40.5 20.5 40.5 15.5M46.5 21.5 51.5 21.5M75.5 20.5 84.5 20.5M79.5 21.5 83.5 21.5M84.5 21.5 91.5 21.5M88.5 20.5 91.5 20.5M31.5 22.5 41.5 22.5M33.5 22.5 33.5 19.5M46.5 23.5 46.5 20.5M51.5 22.5 51.5 18.5M57.5 23.5 57.5 19.5M63.5 23.5 63.5 19.5M69.5 23.5 74.5 23.5M75.5 23.5 83.5 23.5M79.5 22.5 89.5 22.5M84.5 23.5 93.5 23.5M94.5 22.5 94.5 18.5M23.5 25.5 23.5 17.5M31.5 25.5 41.5 25.5M50.5 24.5 50.5 20.5M58.5 25.5 58.5 21.5M62.5 25.5 62.5 21.5M70.5 24.5 70.5 20.5M74.5 25.5 74.5 22.5M79.5 25.5 89.5 25.5M79.5 24.5 83.5 24.5M84.5 24.5 91.5 24.5M31.5 27.5 35.5 27.5M36.5 27.5 45.5 27.5M46.5 27.5 51.5 27.5M69.5 26.5 69.5 22.5M75.5 26.5 83.5 26.5M79.5 27.5 83.5 27.5M84.5 27.5 91.5 27.5M88.5 26.5 91.5 26.5M31.5 28.5 41.5 28.5M33.5 28.5 33.5 24.5M35.5 29.5 45.5 29.5M46.5 28.5 46.5 25.5M51.5 28.5 51.5 24.5M57.5 29.5 57.5 25.5M63.5 29.5 63.5 25.5M69.5 29.5 74.5 29.5M75.5 29.5 83.5 29.5M79.5 28.5 89.5 28.5M84.5 29.5 93.5 29.5M94.5 28.5 94.5 24.5M18.5 30.5 18.5 20.5M27.5 30.5 27.5 20.5M31.5 31.5 41.5 31.5M50.5 30.5 50.5 26.5M58.5 31.5 58.5 27.5M62.5 31.5 62.5 27.5M70.5 30.5 70.5 26.5M74.5 31.5 74.5 28.5M79.5 31.5 89.5 31.5M79.5 30.5 83.5 30.5M84.5 30.5 91.5 30.5M31.5 33.5 37.5 33.5M38.5 33.5 45.5 33.5M46.5 33.5 51.5 33.5M69.5 32.5 69.5 28.5M75.5 32.5 84.5 32.5M88.5 32.5 91.5 32.5M31.5 34.5 41.5 34.5M46.5 35.5 46.5 31.5M51.5 34.5 51.5 30.5M57.5 35.5 57.5 31.5M63.5 35.5 63.5 31.5M69.5 35.5 74.5 35.5M75.5 35.5 81.5 35.5M79.5 34.5 89.5 34.5M82.5 35.5 87.5 35.5M88.5 35.5 93.5 35.5M94.5 34.5 94.5 30.5M23.5 36.5 23.5 26.5M31.5 37.5 41.5 37.5M50.5 36.5 50.5 32.5M58.5 37.5 58.5 33.5M62.5 37.5 62.5 33.5M70.5 36.5 70.5 32.5M74.5 37.5 74.5 34.5M79.5 37.5 89.5 37.5M79.5 36.5 81.5 36.5M82.5 36.5 91.5 36.5M31.5 39.5 35.5 39.5M36.5 39.5 45.5 39.5M46.5 39.5 51.5 39.5M69.5 38.5 69.5 34.5M75.5 38.5 84.5 38.5M79.5 39.5 83.5 39.5M84.5 39.5 91.5 39.5M18.5 41.5 18.5 31.5M27.5 41.5 27.5 31.5M31.5 40.5 41.5 40.5M33.5 40.5 33.5 30.5M46.5 41.5 46.5 37.5M51.5 40.5 51.5 36.5M57.5 41.5 57.5 37.5M63.5 41.5 63.5 37.5M69.5 41.5 74.5 41.5M75.5 41.5 83.5 41.5M79.5 40.5 89.5 40.5M84.5 41.5 93.5 41.5M94.5 40.5 94.5 36.5M31.5 43.5 41.5 43.5M50.5 42.5 50.5 38.5M58.5 43.5 58.5 39.5M62.5 43.5 62.5 39.5M70.5 42.5 70.5 38.5M74.5 43.5 74.5 40.5M79.5 43.5 89.5 43.5M79.5 42.5 83.5 42.5M84.5 42.5 91.5 42.5M88.5 43.5 88.5 41.5M31.5 45.5 35.5 45.5M36.5 45.5 45.5 45.5M46.5 45.5 51.5 45.5M69.5 44.5 69.5 40.5M75.5 44.5 84.5 44.5M79.5 45.5 83.5 45.5M84.5 45.5 91.5 45.5M89.5 44.5 91.5 44.5M23.5 47.5 23.5 37.5M31.5 46.5 41.5 46.5M33.5 46.5 33.5 42.5M46.5 47.5 46.5 43.5M51.5 46.5 51.5 42.5M57.5 47.5 57.5 43.5M63.5 47.5 63.5 43.5M69.5 47.5 74.5 47.5M75.5 47.5 83.5 47.5M79.5 46.5 89.5 46.5M84.5 47.5 93.5 47.5M94.5 46.5 94.5 42.5M31.5 49.5 41.5 49.5M50.5 48.5 50.5 44.5M58.5 49.5 58.5 45.5M62.5 49.5 62.5 45.5M70.5 48.5 70.5 44.5M74.5 49.5 74.5 46.5M79.5 49.5 89.5 49.5M79.5 48.5 83.5 48.5M84.5 48.5 91.5 48.5M88.5 49.5 88.5 45.5M31.5 51.5 35.5 51.5M36.5 51.5 45.5 51.5M46.5 51.5 51.5 51.5M69.5 50.5 69.5 46.5M75.5 50.5 84.5 50.5M79.5 51.5 83.5 51.5M84.5 51.5 91.5 51.5M89.5 50.5 91.5 50.5M18.5 52.5 18.5 42.5M27.5 52.5 27.5 42.5M31.5 52.5 41.5 52.5M33.5 52.5 33.5 48.5M46.5 52.5 46.5 49.5M51.5 52.5 51.5 48.5M57.5 53.5 57.5 49.5M63.5 53.5 63.5 49.5M69.5 53.5 74.5 53.5M75.5 53.5 83.5 53.5M79.5 52.5 89.5 52.5M84.5 53.5 93.5 53.5M94.5 52.5 94.5 48.5M33.5 55.5 41.5 55.5M50.5 54.5 50.5 50.5M58.5 55.5 58.5 51.5M62.5 55.5 62.5 51.5M70.5 54.5 70.5 50.5M74.5 55.5 74.5 52.5M79.5 55.5 89.5 55.5M79.5 54.5 83.5 54.5M84.5 54.5 91.5 54.5M88.5 55.5 88.5 51.5M23.5 57.5 23.5 48.5M30.5 56.5 30.5 53.5M31.5 57.5 35.5 57.5M36.5 57.5 45.5 57.5M46.5 57.5 51.5 57.5M69.5 56.5 69.5 52.5M75.5 56.5 83.5 56.5M79.5 57.5 83.5 57.5M84.5 57.5 91.5 57.5M89.5 56.5 91.5 56.5M24.5 58.5 31.5 58.5M33.5 58.5 41.5 58.5M46.5 59.5 46.5 56.5M51.5 58.5 51.5 54.5M57.5 59.5 57.5 55.5M63.5 59.5 63.5 55.5M69.5 59.5 74.5 59.5M75.5 59.5 83.5 59.5M79.5 58.5 89.5 58.5M84.5 59.5 93.5 59.5M94.5 58.5 94.5 54.5M33.5 61.5 41.5 61.5M50.5 60.5 50.5 56.5M58.5 61.5 58.5 57.5M62.5 61.5 62.5 57.5M70.5 60.5 70.5 56.5M74.5 61.5 74.5 58.5M79.5 61.5 89.5 61.5M79.5 60.5 83.5 60.5M84.5 60.5 91.5 60.5M88.5 61.5 88.5 57.5M18.5 63.5 18.5 53.5M27.5 62.5 27.5 53.5M31.5 63.5 35.5 63.5M30.5 62.5 30.5 58.5M36.5 63.5 45.5 63.5M46.5 63.5 51.5 63.5M69.5 62.5 69.5 58.5M75.5 62.5 83.5 62.5M79.5 63.5 83.5 63.5M84.5 63.5 91.5 63.5M89.5 62.5 91.5 62.5M33.5 64.5 41.5 64.5M45.5 64.5 45.5 54.5M46.5 65.5 46.5 61.5M51.5 64.5 51.5 60.5M57.5 65.5 57.5 61.5M63.5 65.5 63.5 61.5M69.5 65.5 74.5 65.5M75.5 65.5 83.5 65.5M79.5 64.5 89.5 64.5M84.5 65.5 93.5 65.5M94.5 64.5 94.5 60.5M33.5 67.5 41.5 67.5M50.5 66.5 50.5 62.5M58.5 67.5 58.5 63.5M62.5 67.5 62.5 63.5M70.5 66.5 70.5 62.5M74.5 67.5 74.5 64.5M79.5 67.5 89.5 67.5M79.5 66.5 83.5 66.5M84.5 66.5 91.5 66.5M88.5 67.5 88.5 63.5M31.5 69.5 35.5 69.5M30.5 68.5 30.5 64.5M36.5 69.5 45.5 69.5M46.5 69.5 51.5 69.5M69.5 68.5 69.5 64.5M75.5 68.5 83.5 68.5M79.5 69.5 83.5 69.5M84.5 69.5 91.5 69.5M89.5 68.5 91.5 68.5M33.5 70.5 41.5 70.5M45.5 70.5 45.5 65.5M46.5 71.5 46.5 67.5M51.5 70.5 51.5 66.5M57.5 71.5 57.5 67.5M63.5 71.5 63.5 67.5M69.5 71.5 74.5 71.5M75.5 71.5 83.5 71.5M79.5 70.5 89.5 70.5M84.5 71.5 93.5 71.5M94.5 70.5 94.5 66.5M27.5 73.5 27.5 63.5M33.5 73.5 41.5 73.5M50.5 72.5 50.5 68.5M58.5 73.5 58.5 69.5M62.5 73.5 62.5 69.5M70.5 72.5 70.5 68.5M74.5 73.5 74.5 70.5M79.5 72.5 83.5 72.5M79.5 73.5 89.5 73.5M84.5 72.5 91.5 72.5M88.5 73.5 88.5 69.5M30.5 74.5 30.5 70.5M31.5 75.5 35.5 75.5M36.5 75.5 45.5 75.5M46.5 75.5 51.5 75.5M69.5 74.5 69.5 70.5M75.5 74.5 84.5 74.5M79.5 75.5 83.5 75.5M84.5 75.5 91.5 75.5M89.5 74.5 91.5 74.5M33.5 76.5 41.5 76.5M45.5 76.5 45.5 71.5M46.5 77.5 46.5 73.5M51.5 76.5 51.5 72.5M57.5 77.5 57.5 73.5M63.5 77.5 63.5 73.5M69.5 77.5 74.5 77.5M75.5 77.5 83.5 77.5M79.5 76.5 89.5 76.5M84.5 77.5 93.5 77.5M94.5 76.5 94.5 72.5M33.5 79.5 41.5 79.5M50.5 78.5 50.5 74.5M58.5 79.5 58.5 75.5M62.5 79.5 62.5 75.5M70.5 78.5 70.5 74.5M74.5 79.5 74.5 76.5M79.5 78.5 83.5 78.5M79.5 79.5 89.5 79.5M84.5 78.5 91.5 78.5M88.5 79.5 88.5 75.5M30.5 80.5 30.5 76.5M31.5 81.5 37.5 81.5M39.5 81.5 45.5 81.5M46.5 81.5 51.5 81.5M69.5 80.5 69.5 76.5M75.5 80.5 84.5 80.5M79.5 81.5 83.5 81.5M84.5 81.5 91.5 81.5M89.5 80.5 91.5 80.5M45.5 83.5 45.5 77.5M51.5 82.5 51.5 78.5M57.5 83.5 57.5 79.5M63.5 83.5 63.5 79.5M69.5 83.5 74.5 83.5M75.5 83.5 81.5 83.5M79.5 82.5 89.5 82.5M82.5 83.5 87.5 83.5M88.5 83.5 93.5 83.5M94.5 82.5 94.5 78.5M17.5 85.5 17.5 82.5M27.5 84.5 27.5 74.5M50.5 84.5 50.5 80.5M58.5 85.5 58.5 81.5M62.5 85.5 62.5 81.5M70.5 84.5 70.5 80.5M79.5 84.5 87.5 84.5M79.5 85.5 89.5 85.5M88.5 84.5 91.5 84.5M39.5 87.5 43.5 87.5M38.5 86.5 38.5 82.5M46.5 87.5 51.5 87.5M69.5 86.5 69.5 82.5M74.5 86.5 74.5 82.5M79.5 87.5 83.5 87.5M84.5 87.5 91.5 87.5M102.5 86.5 102.5 80.5M46.5 89.5 46.5 79.5M51.5 88.5 51.5 84.5M57.5 89.5 57.5 85.5M63.5 89.5 63.5 85.5M69.5 89.5 74.5 89.5M75.5 89.5 83.5 89.5M79.5 88.5 89.5 88.5M84.5 89.5 93.5 89.5M94.5 88.5 94.5 84.5M29.5 91.5 33.5 91.5M35.5 90.5 45.5 90.5M41.5 90.5 41.5 84.5M50.5 90.5 50.5 86.5M58.5 91.5 58.5 87.5M62.5 91.5 62.5 87.5M70.5 90.5 70.5 86.5M74.5 91.5 74.5 88.5M79.5 91.5 89.5 91.5M79.5 90.5 83.5 90.5M84.5 90.5 91.5 90.5M88.5 91.5 88.5 81.5M105.5 90.5 105.5 82.5M17.5 93.5 17.5 86.5M39.5 93.5 45.5 93.5M38.5 92.5 38.5 88.5M40.5 93.5 40.5 83.5M46.5 93.5 51.5 93.5M57.5 93.5 57.5 91.5M63.5 93.5 63.5 91.5M69.5 92.5 69.5 88.5M75.5 92.5 84.5 92.5M79.5 93.5 83.5 93.5M84.5 93.5 91.5 93.5M89.5 92.5 91.5 92.5M103.5 93.5 103.5 90.5M27.5 95.5 27.5 85.5M39.5 95.5 43.5 95.5M45.5 95.5 45.5 86.5M51.5 94.5 51.5 90.5M58.5 95.5 58.5 93.5M62.5 95.5 62.5 93.5M69.5 95.5 74.5 95.5M75.5 95.5 83.5 95.5M79.5 94.5 89.5 94.5M84.5 95.5 93.5 95.5M94.5 94.5 94.5 90.5M20.5 97.5 20.5 93.5M50.5 96.5 50.5 92.5M70.5 96.5 70.5 92.5M74.5 97.5 74.5 94.5M79.5 97.5 89.5 97.5M79.5 96.5 83.5 96.5M84.5 96.5 91.5 96.5M88.5 97.5 88.5 93.5M102.5 97.5 102.5 87.5M105.5 96.5 105.5 91.5M39.5 99.5 45.5 99.5M38.5 98.5 38.5 96.5M41.5 98.5 41.5 92.5M46.5 99.5 51.5 99.5M57.5 99.5 57.5 97.5M69.5 98.5 69.5 94.5M75.5 98.5 84.5 98.5M79.5 99.5 83.5 99.5M84.5 99.5 91.5 99.5M89.5 98.5 91.5 98.5M100.5 99.5 105.5 99.5M40.5 100.5 50.5 100.5M45.5 100.5 45.5 96.5M46.5 101.5 51.5 101.5M51.5 100.5 54.5 100.5M50.5 101.5 50.5 98.5M54.5 101.5 64.5 101.5M58.5 101.5 58.5 99.5M58.5 100.5 62.5 100.5M65.5 101.5 68.5 101.5M69.5 101.5 75.5 101.5M68.5 100.5 74.5 100.5M70.5 101.5 70.5 98.5M76.5 101.5 86.5 101.5M87.5 101.5 95.5 101.5M20.5 103.5 24.5 103.5M25.5 102.5 32.5 102.5M30.5 102.5 30.5 95.5M31.5 103.5 41.5 103.5M42.5 103.5 52.5 103.5M54.5 102.5 64.5 102.5M56.5 103.5 66.5 103.5M65.5 102.5 75.5 102.5M67.5 102.5 67.5 101.5M70.5 103.5 75.5 103.5M76.5 103.5 86.5 103.5M76.5 102.5 86.5 102.5M87.5 103.5 95.5 103.5M87.5 102.5 95.5 102.5M96.5 103.5 103.5 103.5M96.5 102.5 100.5 102.5M99.5 103.5 99.5 100.5M104.5 102.5 104.5 92.5M17.5 104.5 17.5 94.5M18.5 104.5 18.5 102.5M20.5 104.5 20.5 98.5M22.5 104.5 30.5 104.5M27.5 104.5 27.5 96.5M29.5 104.5 29.5 102.5M30.5 105.5 37.5 105.5M31.5 104.5 41.5 104.5M39.5 104.5 39.5 101.5M38.5 105.5 48.5 105.5M40.5 104.5 40.5 94.5M42.5 104.5 52.5 104.5M51.5 104.5 51.5 96.5M55.5 104.5 65.5 104.5M57.5 104.5 57.5 101.5M63.5 104.5 63.5 97.5M62.5 104.5 62.5 99.5M64.5 105.5 71.5 105.5M69.5 104.5 69.5 100.5M72.5 105.5 82.5 105.5M86.5 104.5 88.5 104.5M90.5 104.5 90.5 98.5M101.5 104.5 101.5 95.5M102.5 104.5 102.5 98.5M17.5 114.5 17.5 105.5M18.5 114.5 18.5 105.5M19.5 114.5 19.5 105.5M20.5 114.5 20.5 105.5M23.5 114.5 23.5 105.5M27.5 114.5 27.5 105.5M39.5 114.5 39.5 105.5M40.5 114.5 40.5 105.5M57.5 114.5 57.5 105.5M62.5 114.5 62.5 105.5M89.5 114.5 89.5 105.5M90.5 114.5 90.5 105.5M101.5 114.5 101.5 105.5M100.5 114.5 100.5 105.5M102.5 114.5 102.5 105.5"/><g deny="['connected-stuff']" fill="#ff6666" stroke="#ccff66" stroke-width="0.2"><rect height="1" width="1" x="5.0" y="3.0" rx="0.15"  ry="0.15" /><rect height="1" width="1" x="14.0" y="3.0" rx="0.15"  ry="0.15" /><rect height="1" width="1" x="105.0" y="3.0" rx="0.15"  ry="0.15" /><rect height="1" width="1" x="114.0" y="3.0" rx="0.15"  ry="0.15" /><rect height="1" width="1" x="3.0" y="5.0" rx="0.15"  ry="0.15" /><rect height="2" width="2" x="4.0" y="4.0" rx="0.15"  ry="0.15" /><rect height="2" width="2" x="14.0" y="4.0" rx="0.15"  ry="0.15" /><rect height="1" width="1" x="16.0" y="5.0" rx="0.15"  ry="0.15" /><rect height="1" width="1" x="43.0" y="5.0" rx="0.15"  ry="0.15" /><rect height="2" width="2" x="44.0" y="4.0" rx="0.15"  ry="0.15" /><rect height="1" width="1" x="46.0" y="5.0" rx="0.15"  ry="0.15" /><rect height="1" width="1" x="73.0" y="5.0" rx="0.15"  ry="0.15" /><rect height="2" width="2" x="74.0" y="4.0" rx="0.15"  ry="0.15" /><rect height="1" width="1" x="76.0" y="5.0" rx="0.15"  ry="0.15" /><rect height="1" width="1" x="103.0" y="5.0" rx="0.15"  ry="0.15" /><rect height="2" width="2" x="104.0" y="4.0" rx="0.15"  ry="0.15" /><rect height="2" width="2" x="114.0" y="4.0" rx="0.15"  ry="0.15" /><rect height="1" width="1" x="116.0" y="5.0" rx="0.15"  ry="0.15" /><rect height="1" width="1" x="40.0" y="12.0" rx="0.15"  ry="0.15" /><rect height="1" width="1" x="90.0" y="12.0" rx="0.15"  ry="0.15" /><rect height="1" width="1" x="3.0" y="14.0" rx="0.15"  ry="0.15" /><rect height="2" width="2" x="4.0" y="14.0" rx="0.15"  ry="0.15" /><rect height="2" width="2" x="14.0" y="14.0" rx="0.15"  ry="0.15" /><rect height="1" width="1" x="16.0" y="14.0" rx="0.15"  ry="0.15" /><rect height="1" width="1" x="25.0" y="14.0" rx="0.15"  ry="0.15" /><rect height="1" width="1" x="34.0" y="14.0" rx="0.15"  ry="0.15" /><rect height="3" width="3" x="37.0" y="15.0" rx="0.15"  ry="0.15" /><rect height="1" width="1" x="43.0" y="14.0" rx="0.15"  ry="0.15" /><rect height="2" width="2" x="44.0" y="14.0" rx="0.15"  ry="0.15" /><rect height="3" width="3" x="47.0" y="14.0" rx="0.15"  ry="0.15" /><rect height="1" width="1" x="46.0" y="14.0" rx="0.15"  ry="0.15" /><rect height="1" width="1" x="55.0" y="14.0" rx="0.15"  ry="0.15" /><rect height="3" width="3" x="59.0" y="14.0" rx="0.15"  ry="0.15" /><rect height="1" width="1" x="64.0" y="14.0" rx="0.15"  ry="0.15" /><rect height="3" width="3" x="71.0" y="15.0" rx="0.15"  ry="0.15" /><rect height="1" width="1" x="73.0" y="14.0" rx="0.15"  ry="0.15" /><rect height="2" width="2" x="74.0" y="14.0" rx="0.15"  ry="0.15" /><rect height="1" width="1" x="76.0" y="14.0" rx="0.15"  ry="0.15" /><rect height="1" width="2" x="82.0" y="14.0" rx="0.15"  ry="0.15" /><rect height="1" width="1" x="85.0" y="14.0" rx="0.15"  ry="0.15" /><rect height="1" width="1" x="86.0" y="14.0" rx="0.15"  ry="0.15" /><rect height="1" width="1" x="92.0" y="14.0" rx="0.15"  ry="0.15" /><rect height="1" width="1" x="94.0" y="14.0" rx="0.15"  ry="0.15" /><rect height="1" width="1" x="103.0" y="14.0" rx="0.15"  ry="0.15" /><rect height="2" width="2" x="104.0" y="14.0" rx="0.15"  ry="0.15" /><rect height="2" width="2" x="114.0" y="14.0" rx="0.15"  ry="0.15" /><rect height="1" width="1" x="116.0" y="14.0" rx="0.15"  ry="0.15" /><rect height="1" width="1" x="5.0" y="16.0" rx="0.15"  ry="0.15" /><rect height="1" width="1" x="14.0" y="16.0" rx="0.15"  ry="0.15" /><rect height="1" width="1" x="28.0" y="16.0" rx="0.15"  ry="0.15" /><rect height="1" width="1" x="35.0" y="16.0" rx="0.15"  ry="0.15" /><rect height="1" width="1" x="36.0" y="16.0" rx="0.15"  ry="0.15" /><rect height="1" width="1" x="45.0" y="16.0" rx="0.15"  ry="0.15" /><rect height="1" width="1" x="50.0" y="16.0" rx="0.15"  ry="0.15" /><rect height="1" width="1" x="53.0" y="16.0" rx="0.15"  ry="0.15" /><rect height="5" width="5" x="52.0" y="17.0" rx="0.15"  ry="0.15" /><rect height="1" width="1" x="56.0" y="16.0" rx="0.15"  ry="0.15" /><rect height="5" width="5" x="64.0" y="17.0" rx="0.15"  ry="0.15" /><rect height="1" width="1" x="64.0" y="16.0" rx="0.15"  ry="0.15" /><rect height="1" width="1" x="67.0" y="16.0" rx="0.15"  ry="0.15" /><rect height="3" width="3" x="80.0" y="17.0" rx="0.15"  ry="0.15" /><rect height="1" width="2" x="90.0" y="16.0" rx="0.15"  ry="0.15" /><rect height="1" width="1" x="105.0" y="16.0" rx="0.15"  ry="0.15" /><rect height="1" width="1" x="114.0" y="16.0" rx="0.15"  ry="0.15" /><rect height="2" width="1" x="27.0" y="18.0" rx="0.15"  ry="0.15" /><rect height="3" width="3" x="34.0" y="18.0" rx="0.15"  ry="0.15" /><rect height="3" width="3" x="37.0" y="18.0" rx="0.15"  ry="0.15" /><rect height="3" width="3" x="42.0" y="19.0" rx="0.15"  ry="0.15" /><rect height="3" width="3" x="47.0" y="18.0" rx="0.15"  ry="0.15" /><rect height="3" width="3" x="59.0" y="18.0" rx="0.15"  ry="0.15" /><rect height="3" width="3" x="71.0" y="18.0" rx="0.15"  ry="0.15" /><rect height="1" width="2" x="75.0" y="18.0" rx="0.15"  ry="0.15" /><rect height="1" width="1" x="75.0" y="19.0" rx="0.15"  ry="0.15" /><rect height="3" width="3" x="76.0" y="19.0" rx="0.15"  ry="0.15" /><rect height="1" width="1" x="83.0" y="19.0" rx="0.15"  ry="0.15" /><rect height="1" width="1" x="84.0" y="19.0" rx="0.15"  ry="0.15" /><rect height="3" width="3" x="85.0" y="18.0" rx="0.15"  ry="0.15" /><rect height="3" width="3" x="37.0" y="21.0" rx="0.15"  ry="0.15" /><rect height="3" width="3" x="47.0" y="21.0" rx="0.15"  ry="0.15" /><rect height="3" width="3" x="59.0" y="21.0" rx="0.15"  ry="0.15" /><rect height="3" width="3" x="71.0" y="21.0" rx="0.15"  ry="0.15" /><rect height="3" width="3" x="80.0" y="20.0" rx="0.15"  ry="0.15" /><rect height="3" width="3" x="34.0" y="23.0" rx="0.15"  ry="0.15" /><rect height="1" width="1" x="35.0" y="22.0" rx="0.15"  ry="0.15" /><rect height="1" width="1" x="36.0" y="22.0" rx="0.15"  ry="0.15" /><rect height="3" width="3" x="42.0" y="22.0" rx="0.15"  ry="0.15" /><rect height="1" width="1" x="45.0" y="23.0" rx="0.15"  ry="0.15" /><rect height="1" width="1" x="53.0" y="22.0" rx="0.15"  ry="0.15" /><rect height="5" width="5" x="52.0" y="23.0" rx="0.15"  ry="0.15" /><rect height="1" width="1" x="56.0" y="22.0" rx="0.15"  ry="0.15" /><rect height="5" width="5" x="64.0" y="23.0" rx="0.15"  ry="0.15" /><rect height="1" width="1" x="64.0" y="22.0" rx="0.15"  ry="0.15" /><rect height="1" width="1" x="67.0" y="22.0" rx="0.15"  ry="0.15" /><rect height="3" width="3" x="76.0" y="22.0" rx="0.15"  ry="0.15" /><rect height="3" width="3" x="80.0" y="23.0" rx="0.15"  ry="0.15" /><rect height="3" width="3" x="37.0" y="24.0" rx="0.15"  ry="0.15" /><rect height="3" width="3" x="42.0" y="25.0" rx="0.15"  ry="0.15" /><rect height="3" width="3" x="47.0" y="24.0" rx="0.15"  ry="0.15" /><rect height="3" width="3" x="59.0" y="24.0" rx="0.15"  ry="0.15" /><rect height="3" width="3" x="71.0" y="24.0" rx="0.15"  ry="0.15" /><rect height="1" width="1" x="75.0" y="25.0" rx="0.15"  ry="0.15" /><rect height="3" width="3" x="76.0" y="25.0" rx="0.15"  ry="0.15" /><rect height="1" width="1" x="83.0" y="25.0" rx="0.15"  ry="0.15" /><rect height="1" width="1" x="84.0" y="25.0" rx="0.15"  ry="0.15" /><rect height="3" width="3" x="85.0" y="24.0" rx="0.15"  ry="0.15" /><rect height="3" width="3" x="37.0" y="27.0" rx="0.15"  ry="0.15" /><rect height="3" width="3" x="47.0" y="27.0" rx="0.15"  ry="0.15" /><rect height="3" width="3" x="59.0" y="27.0" rx="0.15"  ry="0.15" /><rect height="3" width="3" x="71.0" y="27.0" rx="0.15"  ry="0.15" /><rect height="3" width="3" x="80.0" y="26.0" rx="0.15"  ry="0.15" /><rect height="1" width="1" x="35.0" y="28.0" rx="0.15"  ry="0.15" /><rect height="1" width="1" x="36.0" y="28.0" rx="0.15"  ry="0.15" /><rect height="3" width="3" x="42.0" y="28.0" rx="0.15"  ry="0.15" /><rect height="1" width="1" x="53.0" y="28.0" rx="0.15"  ry="0.15" /><rect height="5" width="5" x="52.0" y="29.0" rx="0.15"  ry="0.15" /><rect height="1" width="1" x="56.0" y="28.0" rx="0.15"  ry="0.15" /><rect height="5" width="5" x="64.0" y="29.0" rx="0.15"  ry="0.15" /><rect height="1" width="1" x="64.0" y="28.0" rx="0.15"  ry="0.15" /><rect height="1" width="1" x="67.0" y="28.0" rx="0.15"  ry="0.15" /><rect height="3" width="3" x="76.0" y="28.0" rx="0.15"  ry="0.15" /><rect height="3" width="3" x="80.0" y="29.0" rx="0.15"  ry="0.15" /><rect height="2" width="2" x="35.0" y="31.0" rx="0.15"  ry="0.15" /><rect height="3" width="3" x="37.0" y="30.0" rx="0.15"  ry="0.15" /><rect height="3" width="3" x="42.0" y="31.0" rx="0.15"  ry="0.15" /><rect height="3" width="3" x="47.0" y="30.0" rx="0.15"  ry="0.15" /><rect height="3" width="3" x="59.0" y="30.0" rx="0.15"  ry="0.15" /><rect height="3" width="3" x="71.0" y="30.0" rx="0.15"  ry="0.15" /><rect height="1" width="1" x="75.0" y="31.0" rx="0.15"  ry="0.15" /><rect height="3" width="3" x="76.0" y="31.0" rx="0.15"  ry="0.15" /><rect height="1" width="1" x="83.0" y="31.0" rx="0.15"  ry="0.15" /><rect height="3" width="3" x="85.0" y="30.0" rx="0.15"  ry="0.15" /><rect height="1" width="1" x="84.0" y="31.0" rx="0.15"  ry="0.15" /><rect height="4" width="4" x="33.0" y="33.0" rx="0.15"  ry="0.15" /><rect height="1" width="1" x="45.0" y="32.0" rx="0.15"  ry="0.15" /><rect height="3" width="3" x="47.0" y="33.0" rx="0.15"  ry="0.15" /><rect height="3" width="3" x="59.0" y="33.0" rx="0.15"  ry="0.15" /><rect height="3" width="3" x="71.0" y="33.0" rx="0.15"  ry="0.15" /><rect height="3" width="3" x="80.0" y="32.0" rx="0.15"  ry="0.15" /><rect height="4" width="4" x="83.0" y="33.0" rx="0.15"  ry="0.15" /><rect height="3" width="3" x="42.0" y="34.0" rx="0.15"  ry="0.15" /><rect height="1" width="1" x="53.0" y="34.0" rx="0.15"  ry="0.15" /><rect height="5" width="5" x="52.0" y="35.0" rx="0.15"  ry="0.15" /><rect height="1" width="1" x="56.0" y="34.0" rx="0.15"  ry="0.15" /><rect height="5" width="5" x="64.0" y="35.0" rx="0.15"  ry="0.15" /><rect height="1" width="1" x="64.0" y="34.0" rx="0.15"  ry="0.15" /><rect height="1" width="1" x="67.0" y="34.0" rx="0.15"  ry="0.15" /><rect height="3" width="3" x="76.0" y="34.0" rx="0.15"  ry="0.15" /><rect height="3" width="3" x="37.0" y="36.0" rx="0.15"  ry="0.15" /><rect height="3" width="3" x="42.0" y="37.0" rx="0.15"  ry="0.15" /><rect height="3" width="3" x="47.0" y="36.0" rx="0.15"  ry="0.15" /><rect height="3" width="3" x="59.0" y="36.0" rx="0.15"  ry="0.15" /><rect height="3" width="3" x="71.0" y="36.0" rx="0.15"  ry="0.15" /><rect height="1" width="1" x="75.0" y="37.0" rx="0.15"  ry="0.15" /><rect height="3" width="3" x="76.0" y="37.0" rx="0.15"  ry="0.15" /><rect height="1" width="1" x="83.0" y="37.0" rx="0.15"  ry="0.15" /><rect height="1" width="1" x="84.0" y="37.0" rx="0.15"  ry="0.15" /><rect height="3" width="3" x="37.0" y="39.0" rx="0.15"  ry="0.15" /><rect height="3" width="3" x="47.0" y="39.0" rx="0.15"  ry="0.15" /><rect height="3" width="3" x="59.0" y="39.0" rx="0.15"  ry="0.15" /><rect height="3" width="3" x="71.0" y="39.0" rx="0.15"  ry="0.15" /><rect height="3" width="3" x="80.0" y="38.0" rx="0.15"  ry="0.15" /><rect height="3" width="3" x="85.0" y="38.0" rx="0.15"  ry="0.15" /><rect height="3" width="3" x="34.0" y="41.0" rx="0.15"  ry="0.15" /><rect height="1" width="1" x="35.0" y="40.0" rx="0.15"  ry="0.15" /><rect height="1" width="1" x="36.0" y="40.0" rx="0.15"  ry="0.15" /><rect height="3" width="3" x="42.0" y="40.0" rx="0.15"  ry="0.15" /><rect height="1" width="1" x="45.0" y="41.0" rx="0.15"  ry="0.15" /><rect height="1" width="1" x="53.0" y="40.0" rx="0.15"  ry="0.15" /><rect height="5" width="5" x="52.0" y="41.0" rx="0.15"  ry="0.15" /><rect height="1" width="1" x="56.0" y="40.0" rx="0.15"  ry="0.15" /><rect height="5" width="5" x="64.0" y="41.0" rx="0.15"  ry="0.15" /><rect height="1" width="1" x="64.0" y="40.0" rx="0.15"  ry="0.15" /><rect height="1" width="1" x="67.0" y="40.0" rx="0.15"  ry="0.15" /><rect height="3" width="3" x="76.0" y="40.0" rx="0.15"  ry="0.15" /><rect height="3" width="3" x="80.0" y="41.0" rx="0.15"  ry="0.15" /><rect height="1" width="1" x="5.0" y="43.0" rx="0.15"  ry="0.15" /><rect height="1" width="1" x="14.0" y="43.0" rx="0.15"  ry="0.15" /><rect height="3" width="3" x="37.0" y="42.0" rx="0.15"  ry="0.15" /><rect height="3" width="3" x="42.0" y="43.0" rx="0.15"  ry="0.15" /><rect height="3" width="3" x="47.0" y="42.0" rx="0.15"  ry="0.15" /><rect height="3" width="3" x="59.0" y="42.0" rx="0.15"  ry="0.15" /><rect height="3" width="3" x="71.0" y="42.0" rx="0.15"  ry="0.15" /><rect height="1" width="1" x="75.0" y="43.0" rx="0.15"  ry="0.15" /><rect height="3" width="3" x="76.0" y="43.0" rx="0.15"  ry="0.15" /><rect height="1" width="1" x="83.0" y="43.0" rx="0.15"  ry="0.15" /><rect height="1" width="1" x="84.0" y="43.0" rx="0.15"  ry="0.15" /><rect height="3" width="3" x="85.0" y="42.0" rx="0.15"  ry="0.15" /><rect height="1" width="1" x="91.0" y="43.0" rx="0.15"  ry="0.15" /><rect height="1" width="1" x="94.0" y="43.0" rx="0.15"  ry="0.15" /><rect height="1" width="1" x="105.0" y="43.0" rx="0.15"  ry="0.15" /><rect height="1" width="1" x="114.0" y="43.0" rx="0.15"  ry="0.15" /><rect height="2" width="2" x="4.0" y="44.0" rx="0.15"  ry="0.15" /><rect height="2" width="2" x="14.0" y="44.0" rx="0.15"  ry="0.15" /><rect height="3" width="3" x="37.0" y="45.0" rx="0.15"  ry="0.15" /><rect height="3" width="3" x="47.0" y="45.0" rx="0.15"  ry="0.15" /><rect height="3" width="3" x="59.0" y="45.0" rx="0.15"  ry="0.15" /><rect height="3" width="3" x="71.0" y="45.0" rx="0.15"  ry="0.15" /><rect height="3" width="3" x="80.0" y="44.0" rx="0.15"  ry="0.15" /><rect height="2" width="2" x="104.0" y="44.0" rx="0.15"  ry="0.15" /><rect height="2" width="2" x="114.0" y="44.0" rx="0.15"  ry="0.15" /><rect height="1" width="1" x="5.0" y="46.0" rx="0.15"  ry="0.15" /><rect height="1" width="1" x="14.0" y="46.0" rx="0.15"  ry="0.15" /><rect height="3" width="3" x="34.0" y="47.0" rx="0.15"  ry="0.15" /><rect height="1" width="1" x="35.0" y="46.0" rx="0.15"  ry="0.15" /><rect height="1" width="1" x="36.0" y="46.0" rx="0.15"  ry="0.15" /><rect height="3" width="3" x="42.0" y="46.0" rx="0.15"  ry="0.15" /><rect height="1" width="1" x="53.0" y="46.0" rx="0.15"  ry="0.15" /><rect height="5" width="5" x="52.0" y="47.0" rx="0.15"  ry="0.15" /><rect height="1" width="1" x="56.0" y="46.0" rx="0.15"  ry="0.15" /><rect height="5" width="5" x="64.0" y="47.0" rx="0.15"  ry="0.15" /><rect height="1" width="1" x="64.0" y="46.0" rx="0.15"  ry="0.15" /><rect height="1" width="1" x="67.0" y="46.0" rx="0.15"  ry="0.15" /><rect height="3" width="3" x="76.0" y="46.0" rx="0.15"  ry="0.15" /><rect height="3" width="3" x="80.0" y="47.0" rx="0.15"  ry="0.15" /><rect height="2" width="1" x="92.0" y="46.0" rx="0.15"  ry="0.15" /><rect height="1" width="1" x="105.0" y="46.0" rx="0.15"  ry="0.15" /><rect height="1" width="1" x="114.0" y="46.0" rx="0.15"  ry="0.15" /><rect height="3" width="3" x="37.0" y="48.0" rx="0.15"  ry="0.15" /><rect height="3" width="3" x="42.0" y="49.0" rx="0.15"  ry="0.15" /><rect height="3" width="3" x="47.0" y="48.0" rx="0.15"  ry="0.15" /><rect height="3" width="3" x="59.0" y="48.0" rx="0.15"  ry="0.15" /><rect height="3" width="3" x="71.0" y="48.0" rx="0.15"  ry="0.15" /><rect height="1" width="1" x="75.0" y="49.0" rx="0.15"  ry="0.15" /><rect height="3" width="3" x="76.0" y="49.0" rx="0.15"  ry="0.15" /><rect height="1" width="1" x="83.0" y="49.0" rx="0.15"  ry="0.15" /><rect height="1" width="1" x="84.0" y="49.0" rx="0.15"  ry="0.15" /><rect height="3" width="3" x="85.0" y="48.0" rx="0.15"  ry="0.15" /><rect height="3" width="3" x="37.0" y="51.0" rx="0.15"  ry="0.15" /><rect height="1" width="1" x="45.0" y="50.0" rx="0.15"  ry="0.15" /><rect height="3" width="3" x="47.0" y="51.0" rx="0.15"  ry="0.15" /><rect height="3" width="3" x="59.0" y="51.0" rx="0.15"  ry="0.15" /><rect height="3" width="3" x="71.0" y="51.0" rx="0.15"  ry="0.15" /><rect height="3" width="3" x="80.0" y="50.0" rx="0.15"  ry="0.15" /><rect height="1" width="1" x="29.0" y="52.0" rx="0.15"  ry="0.15" /><rect height="3" width="3" x="34.0" y="53.0" rx="0.15"  ry="0.15" /><rect height="1" width="1" x="35.0" y="52.0" rx="0.15"  ry="0.15" /><rect height="1" width="1" x="36.0" y="52.0" rx="0.15"  ry="0.15" /><rect height="3" width="3" x="42.0" y="52.0" rx="0.15"  ry="0.15" /><rect height="1" width="1" x="53.0" y="52.0" rx="0.15"  ry="0.15" /><rect height="5" width="5" x="52.0" y="53.0" rx="0.15"  ry="0.15" /><rect height="1" width="1" x="56.0" y="52.0" rx="0.15"  ry="0.15" /><rect height="5" width="5" x="64.0" y="53.0" rx="0.15"  ry="0.15" /><rect height="1" width="1" x="64.0" y="52.0" rx="0.15"  ry="0.15" /><rect height="1" width="1" x="67.0" y="52.0" rx="0.15"  ry="0.15" /><rect height="3" width="3" x="76.0" y="52.0" rx="0.15"  ry="0.15" /><rect height="3" width="3" x="80.0" y="53.0" rx="0.15"  ry="0.15" /><rect height="1" width="1" x="30.0" y="54.0" rx="0.15"  ry="0.15" /><rect height="3" width="3" x="37.0" y="54.0" rx="0.15"  ry="0.15" /><rect height="3" width="3" x="42.0" y="55.0" rx="0.15"  ry="0.15" /><rect height="3" width="3" x="47.0" y="54.0" rx="0.15"  ry="0.15" /><rect height="3" width="3" x="59.0" y="54.0" rx="0.15"  ry="0.15" /><rect height="3" width="3" x="71.0" y="54.0" rx="0.15"  ry="0.15" /><rect height="1" width="1" x="75.0" y="55.0" rx="0.15"  ry="0.15" /><rect height="3" width="3" x="76.0" y="55.0" rx="0.15"  ry="0.15" /><rect height="1" width="1" x="83.0" y="55.0" rx="0.15"  ry="0.15" /><rect height="3" width="3" x="85.0" y="54.0" rx="0.15"  ry="0.15" /><rect height="1" width="1" x="84.0" y="55.0" rx="0.15"  ry="0.15" /><rect height="1" width="1" x="19.0" y="57.0" rx="0.15"  ry="0.15" /><rect height="1" width="1" x="27.0" y="57.0" rx="0.15"  ry="0.15" /><rect height="3" width="3" x="37.0" y="57.0" rx="0.15"  ry="0.15" /><rect height="3" width="3" x="47.0" y="57.0" rx="0.15"  ry="0.15" /><rect height="3" width="3" x="59.0" y="57.0" rx="0.15"  ry="0.15" /><rect height="3" width="3" x="71.0" y="57.0" rx="0.15"  ry="0.15" /><rect height="3" width="3" x="80.0" y="56.0" rx="0.15"  ry="0.15" /><rect height="1" width="1" x="95.0" y="56.0" rx="0.15"  ry="0.15" /><rect height="1" width="1" x="101.0" y="56.0" rx="0.15"  ry="0.15" /><rect height="1" width="1" x="29.0" y="58.0" rx="0.15"  ry="0.15" /><rect height="1" width="1" x="35.0" y="58.0" rx="0.15"  ry="0.15" /><rect height="1" width="1" x="36.0" y="58.0" rx="0.15"  ry="0.15" /><rect height="3" width="3" x="42.0" y="58.0" rx="0.15"  ry="0.15" /><rect height="1" width="1" x="45.0" y="59.0" rx="0.15"  ry="0.15" /><rect height="1" width="1" x="53.0" y="58.0" rx="0.15"  ry="0.15" /><rect height="5" width="5" x="52.0" y="59.0" rx="0.15"  ry="0.15" /><rect height="1" width="1" x="56.0" y="58.0" rx="0.15"  ry="0.15" /><rect height="5" width="5" x="64.0" y="59.0" rx="0.15"  ry="0.15" /><rect height="1" width="1" x="64.0" y="58.0" rx="0.15"  ry="0.15" /><rect height="1" width="1" x="67.0" y="58.0" rx="0.15"  ry="0.15" /><rect height="3" width="3" x="76.0" y="58.0" rx="0.15"  ry="0.15" /><rect height="3" width="3" x="80.0" y="59.0" rx="0.15"  ry="0.15" /><rect height="1" width="1" x="98.0" y="59.0" rx="0.15"  ry="0.15" /><rect height="1" width="1" x="22.0" y="60.0" rx="0.15"  ry="0.15" /><rect height="3" width="3" x="37.0" y="60.0" rx="0.15"  ry="0.15" /><rect height="3" width="3" x="42.0" y="61.0" rx="0.15"  ry="0.15" /><rect height="3" width="3" x="47.0" y="60.0" rx="0.15"  ry="0.15" /><rect height="3" width="3" x="59.0" y="60.0" rx="0.15"  ry="0.15" /><rect height="3" width="3" x="71.0" y="60.0" rx="0.15"  ry="0.15" /><rect height="1" width="1" x="75.0" y="61.0" rx="0.15"  ry="0.15" /><rect height="3" width="3" x="76.0" y="61.0" rx="0.15"  ry="0.15" /><rect height="1" width="1" x="83.0" y="61.0" rx="0.15"  ry="0.15" /><rect height="3" width="3" x="85.0" y="60.0" rx="0.15"  ry="0.15" /><rect height="1" width="1" x="84.0" y="61.0" rx="0.15"  ry="0.15" /><rect height="1" width="2" x="94.0" y="61.0" rx="0.15"  ry="0.15" /><rect height="3" width="3" x="96.0" y="61.0" rx="0.15"  ry="0.15" /><rect height="3" width="3" x="99.0" y="61.0" rx="0.15"  ry="0.15" /><rect height="1" width="2" x="98.0" y="60.0" rx="0.15"  ry="0.15" /><rect height="1" width="2" x="23.0" y="63.0" rx="0.15"  ry="0.15" /><rect height="3" width="3" x="37.0" y="63.0" rx="0.15"  ry="0.15" /><rect height="3" width="3" x="47.0" y="63.0" rx="0.15"  ry="0.15" /><rect height="3" width="3" x="59.0" y="63.0" rx="0.15"  ry="0.15" /><rect height="3" width="3" x="71.0" y="63.0" rx="0.15"  ry="0.15" /><rect height="3" width="3" x="80.0" y="62.0" rx="0.15"  ry="0.15" /><rect height="1" width="2" x="19.0" y="64.0" rx="0.15"  ry="0.15" /><rect height="3" width="3" x="21.0" y="64.0" rx="0.15"  ry="0.15" /><rect height="3" width="3" x="24.0" y="64.0" rx="0.15"  ry="0.15" /><rect height="1" width="1" x="35.0" y="64.0" rx="0.15"  ry="0.15" /><rect height="3" width="3" x="42.0" y="64.0" rx="0.15"  ry="0.15" /><rect height="1" width="1" x="53.0" y="64.0" rx="0.15"  ry="0.15" /><rect height="5" width="5" x="52.0" y="65.0" rx="0.15"  ry="0.15" /><rect height="1" width="1" x="56.0" y="64.0" rx="0.15"  ry="0.15" /><rect height="5" width="5" x="64.0" y="65.0" rx="0.15"  ry="0.15" /><rect height="1" width="1" x="64.0" y="64.0" rx="0.15"  ry="0.15" /><rect height="1" width="1" x="67.0" y="64.0" rx="0.15"  ry="0.15" /><rect height="3" width="3" x="76.0" y="64.0" rx="0.15"  ry="0.15" /><rect height="3" width="3" x="80.0" y="65.0" rx="0.15"  ry="0.15" /><rect height="1" width="1" x="97.0" y="64.0" rx="0.15"  ry="0.15" /><rect height="2" width="1" x="99.0" y="64.0" rx="0.15"  ry="0.15" /><rect height="2" width="1" x="98.0" y="64.0" rx="0.15"  ry="0.15" /><rect height="1" width="1" x="22.0" y="67.0" rx="0.15"  ry="0.15" /><rect height="2" width="1" x="23.0" y="67.0" rx="0.15"  ry="0.15" /><rect height="2" width="1" x="24.0" y="67.0" rx="0.15"  ry="0.15" /><rect height="1" width="1" x="36.0" y="67.0" rx="0.15"  ry="0.15" /><rect height="3" width="3" x="37.0" y="66.0" rx="0.15"  ry="0.15" /><rect height="3" width="3" x="42.0" y="67.0" rx="0.15"  ry="0.15" /><rect height="3" width="3" x="47.0" y="66.0" rx="0.15"  ry="0.15" /><rect height="3" width="3" x="59.0" y="66.0" rx="0.15"  ry="0.15" /><rect height="3" width="3" x="71.0" y="66.0" rx="0.15"  ry="0.15" /><rect height="1" width="1" x="75.0" y="67.0" rx="0.15"  ry="0.15" /><rect height="3" width="3" x="76.0" y="67.0" rx="0.15"  ry="0.15" /><rect height="1" width="1" x="83.0" y="67.0" rx="0.15"  ry="0.15" /><rect height="3" width="3" x="85.0" y="66.0" rx="0.15"  ry="0.15" /><rect height="1" width="1" x="84.0" y="67.0" rx="0.15"  ry="0.15" /><rect height="1" width="1" x="94.0" y="67.0" rx="0.15"  ry="0.15" /><rect height="3" width="3" x="96.0" y="66.0" rx="0.15"  ry="0.15" /><rect height="3" width="3" x="99.0" y="66.0" rx="0.15"  ry="0.15" /><rect height="3" width="3" x="21.0" y="69.0" rx="0.15"  ry="0.15" /><rect height="3" width="3" x="24.0" y="69.0" rx="0.15"  ry="0.15" /><rect height="3" width="3" x="37.0" y="69.0" rx="0.15"  ry="0.15" /><rect height="1" width="1" x="45.0" y="68.0" rx="0.15"  ry="0.15" /><rect height="3" width="3" x="47.0" y="69.0" rx="0.15"  ry="0.15" /><rect height="3" width="3" x="59.0" y="69.0" rx="0.15"  ry="0.15" /><rect height="3" width="3" x="71.0" y="69.0" rx="0.15"  ry="0.15" /><rect height="3" width="3" x="80.0" y="68.0" rx="0.15"  ry="0.15" /><rect height="1" width="2" x="94.0" y="68.0" rx="0.15"  ry="0.15" /><rect height="2" width="1" x="96.0" y="69.0" rx="0.15"  ry="0.15" /><rect height="1" width="1" x="98.0" y="69.0" rx="0.15"  ry="0.15" /><rect height="2" width="1" x="101.0" y="69.0" rx="0.15"  ry="0.15" /><rect height="1" width="1" x="35.0" y="70.0" rx="0.15"  ry="0.15" /><rect height="3" width="3" x="42.0" y="70.0" rx="0.15"  ry="0.15" /><rect height="1" width="1" x="53.0" y="70.0" rx="0.15"  ry="0.15" /><rect height="5" width="5" x="52.0" y="71.0" rx="0.15"  ry="0.15" /><rect height="1" width="1" x="56.0" y="70.0" rx="0.15"  ry="0.15" /><rect height="5" width="5" x="64.0" y="71.0" rx="0.15"  ry="0.15" /><rect height="1" width="1" x="64.0" y="70.0" rx="0.15"  ry="0.15" /><rect height="1" width="1" x="67.0" y="70.0" rx="0.15"  ry="0.15" /><rect height="3" width="3" x="76.0" y="70.0" rx="0.15"  ry="0.15" /><rect height="3" width="3" x="80.0" y="71.0" rx="0.15"  ry="0.15" /><rect height="3" width="3" x="96.0" y="71.0" rx="0.15"  ry="0.15" /><rect height="3" width="3" x="99.0" y="71.0" rx="0.15"  ry="0.15" /><rect height="1" width="1" x="5.0" y="73.0" rx="0.15"  ry="0.15" /><rect height="1" width="1" x="14.0" y="73.0" rx="0.15"  ry="0.15" /><rect height="2" width="1" x="21.0" y="72.0" rx="0.15"  ry="0.15" /><rect height="1" width="1" x="23.0" y="72.0" rx="0.15"  ry="0.15" /><rect height="2" width="1" x="26.0" y="72.0" rx="0.15"  ry="0.15" /><rect height="3" width="3" x="37.0" y="72.0" rx="0.15"  ry="0.15" /><rect height="3" width="3" x="42.0" y="73.0" rx="0.15"  ry="0.15" /><rect height="3" width="3" x="47.0" y="72.0" rx="0.15"  ry="0.15" /><rect height="3" width="3" x="59.0" y="72.0" rx="0.15"  ry="0.15" /><rect height="3" width="3" x="71.0" y="72.0" rx="0.15"  ry="0.15" /><rect height="1" width="1" x="75.0" y="73.0" rx="0.15"  ry="0.15" /><rect height="3" width="3" x="76.0" y="73.0" rx="0.15"  ry="0.15" /><rect height="1" width="1" x="83.0" y="73.0" rx="0.15"  ry="0.15" /><rect height="1" width="1" x="84.0" y="73.0" rx="0.15"  ry="0.15" /><rect height="3" width="3" x="85.0" y="72.0" rx="0.15"  ry="0.15" /><rect height="1" width="1" x="91.0" y="73.0" rx="0.15"  ry="0.15" /><rect height="2" width="1" x="92.0" y="73.0" rx="0.15"  ry="0.15" /><rect height="1" width="1" x="94.0" y="73.0" rx="0.15"  ry="0.15" /><rect height="1" width="1" x="105.0" y="73.0" rx="0.15"  ry="0.15" /><rect height="1" width="1" x="114.0" y="73.0" rx="0.15"  ry="0.15" /><rect height="2" width="2" x="4.0" y="74.0" rx="0.15"  ry="0.15" /><rect height="2" width="2" x="14.0" y="74.0" rx="0.15"  ry="0.15" /><rect height="3" width="3" x="21.0" y="74.0" rx="0.15"  ry="0.15" /><rect height="3" width="3" x="24.0" y="74.0" rx="0.15"  ry="0.15" /><rect height="3" width="3" x="37.0" y="75.0" rx="0.15"  ry="0.15" /><rect height="1" width="1" x="45.0" y="74.0" rx="0.15"  ry="0.15" /><rect height="3" width="3" x="47.0" y="75.0" rx="0.15"  ry="0.15" /><rect height="3" width="3" x="59.0" y="75.0" rx="0.15"  ry="0.15" /><rect height="3" width="3" x="71.0" y="75.0" rx="0.15"  ry="0.15" /><rect height="3" width="3" x="80.0" y="74.0" rx="0.15"  ry="0.15" /><rect height="1" width="1" x="97.0" y="74.0" rx="0.15"  ry="0.15" /><rect height="2" width="1" x="99.0" y="74.0" rx="0.15"  ry="0.15" /><rect height="2" width="1" x="98.0" y="74.0" rx="0.15"  ry="0.15" /><rect height="2" width="2" x="104.0" y="74.0" rx="0.15"  ry="0.15" /><rect height="2" width="2" x="114.0" y="74.0" rx="0.15"  ry="0.15" /><rect height="1" width="1" x="5.0" y="76.0" rx="0.15"  ry="0.15" /><rect height="1" width="1" x="14.0" y="76.0" rx="0.15"  ry="0.15" /><rect height="1" width="1" x="19.0" y="76.0" rx="0.15"  ry="0.15" /><rect height="1" width="1" x="22.0" y="77.0" rx="0.15"  ry="0.15" /><rect height="2" width="1" x="23.0" y="77.0" rx="0.15"  ry="0.15" /><rect height="2" width="1" x="24.0" y="77.0" rx="0.15"  ry="0.15" /><rect height="1" width="1" x="28.0" y="76.0" rx="0.15"  ry="0.15" /><rect height="1" width="1" x="29.0" y="77.0" rx="0.15"  ry="0.15" /><rect height="1" width="1" x="35.0" y="76.0" rx="0.15"  ry="0.15" /><rect height="1" width="1" x="36.0" y="76.0" rx="0.15"  ry="0.15" /><rect height="3" width="3" x="42.0" y="76.0" rx="0.15"  ry="0.15" /><rect height="1" width="1" x="53.0" y="76.0" rx="0.15"  ry="0.15" /><rect height="5" width="5" x="52.0" y="77.0" rx="0.15"  ry="0.15" /><rect height="1" width="1" x="56.0" y="76.0" rx="0.15"  ry="0.15" /><rect height="5" width="5" x="64.0" y="77.0" rx="0.15"  ry="0.15" /><rect height="1" width="1" x="64.0" y="76.0" rx="0.15"  ry="0.15" /><rect height="1" width="1" x="67.0" y="76.0" rx="0.15"  ry="0.15" /><rect height="3" width="3" x="76.0" y="76.0" rx="0.15"  ry="0.15" /><rect height="3" width="3" x="80.0" y="77.0" rx="0.15"  ry="0.15" /><rect height="3" width="3" x="96.0" y="76.0" rx="0.15"  ry="0.15" /><rect height="3" width="3" x="99.0" y="76.0" rx="0.15"  ry="0.15" /><rect height="1" width="1" x="105.0" y="76.0" rx="0.15"  ry="0.15" /><rect height="1" width="1" x="114.0" y="76.0" rx="0.15"  ry="0.15" /><rect height="3" width="3" x="21.0" y="79.0" rx="0.15"  ry="0.15" /><rect height="3" width="3" x="24.0" y="79.0" rx="0.15"  ry="0.15" /><rect height="3" width="3" x="37.0" y="78.0" rx="0.15"  ry="0.15" /><rect height="3" width="3" x="42.0" y="79.0" rx="0.15"  ry="0.15" /><rect height="3" width="3" x="47.0" y="78.0" rx="0.15"  ry="0.15" /><rect height="3" width="3" x="59.0" y="78.0" rx="0.15"  ry="0.15" /><rect height="3" width="3" x="71.0" y="78.0" rx="0.15"  ry="0.15" /><rect height="1" width="1" x="75.0" y="79.0" rx="0.15"  ry="0.15" /><rect height="3" width="3" x="76.0" y="79.0" rx="0.15"  ry="0.15" /><rect height="1" width="1" x="83.0" y="79.0" rx="0.15"  ry="0.15" /><rect height="1" width="1" x="84.0" y="79.0" rx="0.15"  ry="0.15" /><rect height="3" width="3" x="85.0" y="78.0" rx="0.15"  ry="0.15" /><rect height="1" width="1" x="91.0" y="79.0" rx="0.15"  ry="0.15" /><rect height="1" width="1" x="94.0" y="79.0" rx="0.15"  ry="0.15" /><rect height="2" width="1" x="96.0" y="79.0" rx="0.15"  ry="0.15" /><rect height="1" width="1" x="98.0" y="79.0" rx="0.15"  ry="0.15" /><rect height="2" width="1" x="101.0" y="79.0" rx="0.15"  ry="0.15" /><rect height="1" width="2" x="102.0" y="78.0" rx="0.15"  ry="0.15" /><rect height="1" width="1" x="105.0" y="78.0" rx="0.15"  ry="0.15" /><rect height="1" width="2" x="19.0" y="81.0" rx="0.15"  ry="0.15" /><rect height="3" width="3" x="47.0" y="81.0" rx="0.15"  ry="0.15" /><rect height="3" width="3" x="59.0" y="81.0" rx="0.15"  ry="0.15" /><rect height="3" width="3" x="71.0" y="81.0" rx="0.15"  ry="0.15" /><rect height="3" width="3" x="80.0" y="80.0" rx="0.15"  ry="0.15" /><rect height="1" width="2" x="94.0" y="81.0" rx="0.15"  ry="0.15" /><rect height="3" width="3" x="96.0" y="81.0" rx="0.15"  ry="0.15" /><rect height="3" width="3" x="99.0" y="81.0" rx="0.15"  ry="0.15" /><rect height="1" width="2" x="102.0" y="81.0" rx="0.15"  ry="0.15" /><rect height="2" width="1" x="21.0" y="82.0" rx="0.15"  ry="0.15" /><rect height="1" width="1" x="23.0" y="82.0" rx="0.15"  ry="0.15" /><rect height="2" width="1" x="26.0" y="82.0" rx="0.15"  ry="0.15" /><rect height="4" width="4" x="33.0" y="83.0" rx="0.15"  ry="0.15" /><rect height="1" width="1" x="36.0" y="82.0" rx="0.15"  ry="0.15" /><rect height="1" width="1" x="45.0" y="82.0" rx="0.15"  ry="0.15" /><rect height="1" width="1" x="53.0" y="82.0" rx="0.15"  ry="0.15" /><rect height="5" width="5" x="52.0" y="83.0" rx="0.15"  ry="0.15" /><rect height="1" width="1" x="56.0" y="82.0" rx="0.15"  ry="0.15" /><rect height="5" width="5" x="64.0" y="83.0" rx="0.15"  ry="0.15" /><rect height="1" width="1" x="64.0" y="82.0" rx="0.15"  ry="0.15" /><rect height="1" width="1" x="67.0" y="82.0" rx="0.15"  ry="0.15" /><rect height="3" width="3" x="76.0" y="82.0" rx="0.15"  ry="0.15" /><rect height="4" width="4" x="83.0" y="83.0" rx="0.15"  ry="0.15" /><rect height="1" width="1" x="14.0" y="85.0" rx="0.15"  ry="0.15" /><rect height="1" width="1" x="16.0" y="85.0" rx="0.15"  ry="0.15" /><rect height="3" width="3" x="21.0" y="84.0" rx="0.15"  ry="0.15" /><rect height="3" width="3" x="24.0" y="84.0" rx="0.15"  ry="0.15" /><rect height="3" width="3" x="42.0" y="84.0" rx="0.15"  ry="0.15" /><rect height="2" width="1" x="45.0" y="84.0" rx="0.15"  ry="0.15" /><rect height="3" width="3" x="47.0" y="84.0" rx="0.15"  ry="0.15" /><rect height="3" width="3" x="59.0" y="84.0" rx="0.15"  ry="0.15" /><rect height="3" width="3" x="71.0" y="84.0" rx="0.15"  ry="0.15" /><rect height="3" width="3" x="76.0" y="85.0" rx="0.15"  ry="0.15" /><rect height="3" width="3" x="80.0" y="84.0" rx="0.15"  ry="0.15" /><rect height="2" width="1" x="92.0" y="85.0" rx="0.15"  ry="0.15" /><rect height="1" width="1" x="97.0" y="84.0" rx="0.15"  ry="0.15" /><rect height="2" width="1" x="99.0" y="84.0" rx="0.15"  ry="0.15" /><rect height="2" width="1" x="98.0" y="84.0" rx="0.15"  ry="0.15" /><rect height="1" width="1" x="105.0" y="85.0" rx="0.15"  ry="0.15" /><rect height="2" width="1" x="23.0" y="87.0" rx="0.15"  ry="0.15" /><rect height="1" width="1" x="22.0" y="87.0" rx="0.15"  ry="0.15" /><rect height="2" width="1" x="24.0" y="87.0" rx="0.15"  ry="0.15" /><rect height="1" width="1" x="30.0" y="86.0" rx="0.15"  ry="0.15" /><rect height="2" width="2" x="31.0" y="87.0" rx="0.15"  ry="0.15" /><rect height="3" width="3" x="47.0" y="87.0" rx="0.15"  ry="0.15" /><rect height="3" width="3" x="59.0" y="87.0" rx="0.15"  ry="0.15" /><rect height="3" width="3" x="71.0" y="87.0" rx="0.15"  ry="0.15" /><rect height="1" width="1" x="75.0" y="86.0" rx="0.15"  ry="0.15" /><rect height="3" width="3" x="80.0" y="87.0" rx="0.15"  ry="0.15" /><rect height="1" width="1" x="94.0" y="87.0" rx="0.15"  ry="0.15" /><rect height="3" width="3" x="96.0" y="86.0" rx="0.15"  ry="0.15" /><rect height="3" width="3" x="99.0" y="86.0" rx="0.15"  ry="0.15" /><rect height="1" width="1" x="105.0" y="86.0" rx="0.15"  ry="0.15" /><rect height="3" width="3" x="21.0" y="89.0" rx="0.15"  ry="0.15" /><rect height="3" width="3" x="24.0" y="89.0" rx="0.15"  ry="0.15" /><rect height="3" width="3" x="42.0" y="88.0" rx="0.15"  ry="0.15" /><rect height="1" width="1" x="45.0" y="88.0" rx="0.15"  ry="0.15" /><rect height="1" width="1" x="53.0" y="88.0" rx="0.15"  ry="0.15" /><rect height="5" width="5" x="52.0" y="89.0" rx="0.15"  ry="0.15" /><rect height="1" width="1" x="56.0" y="88.0" rx="0.15"  ry="0.15" /><rect height="5" width="5" x="64.0" y="89.0" rx="0.15"  ry="0.15" /><rect height="1" width="1" x="64.0" y="88.0" rx="0.15"  ry="0.15" /><rect height="1" width="1" x="67.0" y="88.0" rx="0.15"  ry="0.15" /><rect height="3" width="3" x="76.0" y="88.0" rx="0.15"  ry="0.15" /><rect height="1" width="1" x="83.0" y="88.0" rx="0.15"  ry="0.15" /><rect height="1" width="1" x="84.0" y="88.0" rx="0.15"  ry="0.15" /><rect height="1" width="1" x="91.0" y="88.0" rx="0.15"  ry="0.15" /><rect height="2" width="1" x="96.0" y="89.0" rx="0.15"  ry="0.15" /><rect height="1" width="1" x="98.0" y="89.0" rx="0.15"  ry="0.15" /><rect height="2" width="1" x="101.0" y="89.0" rx="0.15"  ry="0.15" /><rect height="1" width="2" x="102.0" y="88.0" rx="0.15"  ry="0.15" /><rect height="1" width="2" x="19.0" y="91.0" rx="0.15"  ry="0.15" /><rect height="1" width="2" x="27.0" y="91.0" rx="0.15"  ry="0.15" /><rect height="3" width="3" x="35.0" y="91.0" rx="0.15"  ry="0.15" /><rect height="1" width="2" x="38.0" y="91.0" rx="0.15"  ry="0.15" /><rect height="3" width="3" x="47.0" y="90.0" rx="0.15"  ry="0.15" /><rect height="3" width="3" x="59.0" y="90.0" rx="0.15"  ry="0.15" /><rect height="3" width="3" x="71.0" y="90.0" rx="0.15"  ry="0.15" /><rect height="1" width="1" x="75.0" y="91.0" rx="0.15"  ry="0.15" /><rect height="3" width="3" x="76.0" y="91.0" rx="0.15"  ry="0.15" /><rect height="3" width="3" x="80.0" y="90.0" rx="0.15"  ry="0.15" /><rect height="3" width="3" x="85.0" y="90.0" rx="0.15"  ry="0.15" /><rect height="1" width="2" x="94.0" y="91.0" rx="0.15"  ry="0.15" /><rect height="3" width="3" x="96.0" y="91.0" rx="0.15"  ry="0.15" /><rect height="3" width="3" x="99.0" y="91.0" rx="0.15"  ry="0.15" /><rect height="1" width="2" x="102.0" y="91.0" rx="0.15"  ry="0.15" /><rect height="1" width="1" x="16.0" y="93.0" rx="0.15"  ry="0.15" /><rect height="2" width="1" x="21.0" y="92.0" rx="0.15"  ry="0.15" /><rect height="1" width="1" x="23.0" y="92.0" rx="0.15"  ry="0.15" /><rect height="2" width="1" x="26.0" y="92.0" rx="0.15"  ry="0.15" /><rect height="1" width="1" x="31.0" y="93.0" rx="0.15"  ry="0.15" /><rect height="1" width="1" x="41.0" y="93.0" rx="0.15"  ry="0.15" /><rect height="3" width="3" x="42.0" y="92.0" rx="0.15"  ry="0.15" /><rect height="3" width="3" x="47.0" y="93.0" rx="0.15"  ry="0.15" /><rect height="3" width="3" x="59.0" y="93.0" rx="0.15"  ry="0.15" /><rect height="3" width="3" x="71.0" y="93.0" rx="0.15"  ry="0.15" /><rect height="3" width="3" x="80.0" y="93.0" rx="0.15"  ry="0.15" /><rect height="1" width="1" x="94.0" y="93.0" rx="0.15"  ry="0.15" /><rect height="1" width="1" x="105.0" y="92.0" rx="0.15"  ry="0.15" /><rect height="1" width="1" x="14.0" y="94.0" rx="0.15"  ry="0.15" /><rect height="3" width="3" x="21.0" y="94.0" rx="0.15"  ry="0.15" /><rect height="3" width="3" x="24.0" y="94.0" rx="0.15"  ry="0.15" /><rect height="1" width="2" x="27.0" y="94.0" rx="0.15"  ry="0.15" /><rect height="3" width="3" x="35.0" y="94.0" rx="0.15"  ry="0.15" /><rect height="1" width="1" x="34.0" y="94.0" rx="0.15"  ry="0.15" /><rect height="1" width="1" x="45.0" y="94.0" rx="0.15"  ry="0.15" /><rect height="1" width="1" x="53.0" y="94.0" rx="0.15"  ry="0.15" /><rect height="5" width="5" x="52.0" y="95.0" rx="0.15"  ry="0.15" /><rect height="2" width="1" x="57.0" y="94.0" rx="0.15"  ry="0.15" /><rect height="1" width="1" x="56.0" y="94.0" rx="0.15"  ry="0.15" /><rect height="2" width="1" x="63.0" y="94.0" rx="0.15"  ry="0.15" /><rect height="5" width="5" x="64.0" y="95.0" rx="0.15"  ry="0.15" /><rect height="1" width="1" x="64.0" y="94.0" rx="0.15"  ry="0.15" /><rect height="1" width="1" x="67.0" y="94.0" rx="0.15"  ry="0.15" /><rect height="3" width="3" x="76.0" y="94.0" rx="0.15"  ry="0.15" /><rect height="1" width="1" x="83.0" y="94.0" rx="0.15"  ry="0.15" /><rect height="1" width="1" x="84.0" y="94.0" rx="0.15"  ry="0.15" /><rect height="1" width="1" x="91.0" y="94.0" rx="0.15"  ry="0.15" /><rect height="1" width="1" x="97.0" y="94.0" rx="0.15"  ry="0.15" /><rect height="2" width="1" x="99.0" y="94.0" rx="0.15"  ry="0.15" /><rect height="2" width="1" x="98.0" y="94.0" rx="0.15"  ry="0.15" /><rect height="1" width="1" x="105.0" y="94.0" rx="0.15"  ry="0.15" /><rect height="2" width="1" x="23.0" y="97.0" rx="0.15"  ry="0.15" /><rect height="1" width="1" x="22.0" y="97.0" rx="0.15"  ry="0.15" /><rect height="2" width="1" x="24.0" y="97.0" rx="0.15"  ry="0.15" /><rect height="3" width="3" x="35.0" y="97.0" rx="0.15"  ry="0.15" /><rect height="3" width="3" x="42.0" y="96.0" rx="0.15"  ry="0.15" /><rect height="3" width="3" x="47.0" y="96.0" rx="0.15"  ry="0.15" /><rect height="2" width="1" x="58.0" y="96.0" rx="0.15"  ry="0.15" /><rect height="3" width="3" x="59.0" y="96.0" rx="0.15"  ry="0.15" /><rect height="2" width="1" x="62.0" y="96.0" rx="0.15"  ry="0.15" /><rect height="3" width="3" x="71.0" y="96.0" rx="0.15"  ry="0.15" /><rect height="1" width="1" x="75.0" y="97.0" rx="0.15"  ry="0.15" /><rect height="3" width="3" x="76.0" y="97.0" rx="0.15"  ry="0.15" /><rect height="3" width="3" x="80.0" y="96.0" rx="0.15"  ry="0.15" /><rect height="3" width="3" x="85.0" y="96.0" rx="0.15"  ry="0.15" /><rect height="1" width="1" x="91.0" y="97.0" rx="0.15"  ry="0.15" /><rect height="3" width="3" x="96.0" y="96.0" rx="0.15"  ry="0.15" /><rect height="3" width="3" x="99.0" y="96.0" rx="0.15"  ry="0.15" /><rect height="3" width="3" x="21.0" y="99.0" rx="0.15"  ry="0.15" /><rect height="3" width="3" x="24.0" y="99.0" rx="0.15"  ry="0.15" /><rect height="3" width="3" x="47.0" y="99.0" rx="0.15"  ry="0.15" /><rect height="3" width="3" x="59.0" y="99.0" rx="0.15"  ry="0.15" /><rect height="3" width="3" x="71.0" y="99.0" rx="0.15"  ry="0.15" /><rect height="3" width="3" x="80.0" y="99.0" rx="0.15"  ry="0.15" /><rect height="1" width="2" x="94.0" y="98.0" rx="0.15"  ry="0.15" /><rect height="2" width="1" x="96.0" y="99.0" rx="0.15"  ry="0.15" /><rect height="2" width="1" x="101.0" y="99.0" rx="0.15"  ry="0.15" /><rect height="1" width="2" x="19.0" y="101.0" rx="0.15"  ry="0.15" /><rect height="1" width="2" x="27.0" y="101.0" rx="0.15"  ry="0.15" /><rect height="3" width="3" x="35.0" y="100.0" rx="0.15"  ry="0.15" /><rect height="1" width="2" x="52.0" y="101.0" rx="0.15"  ry="0.15" /><rect height="1" width="1" x="53.0" y="100.0" rx="0.15"  ry="0.15" /><rect height="1" width="1" x="56.0" y="100.0" rx="0.15"  ry="0.15" /><rect height="1" width="1" x="64.0" y="100.0" rx="0.15"  ry="0.15" /><rect height="1" width="1" x="83.0" y="100.0" rx="0.15"  ry="0.15" /><rect height="1" width="2" x="92.0" y="101.0" rx="0.15"  ry="0.15" /><rect height="1" width="2" x="92.0" y="100.0" rx="0.15"  ry="0.15" /><rect height="1" width="1" x="94.0" y="100.0" rx="0.15"  ry="0.15" /><rect height="1" width="1" x="105.0" y="101.0" rx="0.15"  ry="0.15" /><rect height="1" width="1" x="5.0" y="103.0" rx="0.15"  ry="0.15" /><rect height="1" width="1" x="14.0" y="103.0" rx="0.15"  ry="0.15" /><rect height="1" width="1" x="16.0" y="102.0" rx="0.15"  ry="0.15" /><rect height="2" width="1" x="21.0" y="102.0" rx="0.15"  ry="0.15" /><rect height="2" width="1" x="23.0" y="103.0" rx="0.15"  ry="0.15" /><rect height="2" width="1" x="26.0" y="102.0" rx="0.15"  ry="0.15" /><rect height="1" width="1" x="31.0" y="102.0" rx="0.15"  ry="0.15" /><rect height="1" width="2" x="35.0" y="103.0" rx="0.15"  ry="0.15" /><rect height="1" width="1" x="39.0" y="102.0" rx="0.15"  ry="0.15" /><rect height="1" width="1" x="45.0" y="103.0" rx="0.15"  ry="0.15" /><rect height="3" width="3" x="47.0" y="102.0" rx="0.15"  ry="0.15" /><rect height="1" width="2" x="52.0" y="102.0" rx="0.15"  ry="0.15" /><rect height="1" width="2" x="54.0" y="103.0" rx="0.15"  ry="0.15" /><rect height="1" width="2" x="56.0" y="102.0" rx="0.15"  ry="0.15" /><rect height="3" width="3" x="59.0" y="102.0" rx="0.15"  ry="0.15" /><rect height="3" width="3" x="71.0" y="102.0" rx="0.15"  ry="0.15" /><rect height="1" width="1" x="77.0" y="103.0" rx="0.15"  ry="0.15" /><rect height="1" width="1" x="84.0" y="102.0" rx="0.15"  ry="0.15" /><rect height="1" width="1" x="91.0" y="102.0" rx="0.15"  ry="0.15" /><rect height="1" width="2" x="92.0" y="102.0" rx="0.15"  ry="0.15" /><rect height="1" width="1" x="98.0" y="102.0" rx="0.15"  ry="0.15" /><rect height="1" width="1" x="105.0" y="103.0" rx="0.15"  ry="0.15" /><rect height="1" width="1" x="114.0" y="103.0" rx="0.15"  ry="0.15" /><rect height="1" width="1" x="3.0" y="105.0" rx="0.15"  ry="0.15" /><rect height="2" width="2" x="4.0" y="104.0" rx="0.15"  ry="0.15" /><rect height="2" width="2" x="14.0" y="104.0" rx="0.15"  ry="0.15" /><rect height="1" width="1" x="16.0" y="105.0" rx="0.15"  ry="0.15" /><rect height="1" width="1" x="24.0" y="104.0" rx="0.15"  ry="0.15" /><rect height="1" width="1" x="25.0" y="105.0" rx="0.15"  ry="0.15" /><rect height="1" width="1" x="34.0" y="105.0" rx="0.15"  ry="0.15" /><rect height="1" width="1" x="43.0" y="105.0" rx="0.15"  ry="0.15" /><rect height="2" width="2" x="44.0" y="104.0" rx="0.15"  ry="0.15" /><rect height="1" width="1" x="46.0" y="105.0" rx="0.15"  ry="0.15" /><rect height="1" width="2" x="49.0" y="105.0" rx="0.15"  ry="0.15" /><rect height="1" width="1" x="50.0" y="104.0" rx="0.15"  ry="0.15" /><rect height="1" width="2" x="53.0" y="104.0" rx="0.15"  ry="0.15" /><rect height="1" width="1" x="55.0" y="105.0" rx="0.15"  ry="0.15" /><rect height="1" width="1" x="56.0" y="104.0" rx="0.15"  ry="0.15" /><rect height="1" width="1" x="65.0" y="105.0" rx="0.15"  ry="0.15" /><rect height="1" width="1" x="64.0" y="104.0" rx="0.15"  ry="0.15" /><rect height="1" width="2" x="67.0" y="105.0" rx="0.15"  ry="0.15" /><rect height="1" width="1" x="70.0" y="104.0" rx="0.15"  ry="0.15" /><rect height="1" width="1" x="73.0" y="105.0" rx="0.15"  ry="0.15" /><rect height="2" width="2" x="74.0" y="104.0" rx="0.15"  ry="0.15" /><rect height="1" width="1" x="76.0" y="105.0" rx="0.15"  ry="0.15" /><rect height="1" width="2" x="84.0" y="104.0" rx="0.15"  ry="0.15" /><rect height="1" width="1" x="85.0" y="105.0" rx="0.15"  ry="0.15" /><rect height="1" width="1" x="94.0" y="105.0" rx="0.15"  ry="0.15" /><rect height="1" width="1" x="103.0" y="105.0" rx="0.15"  ry="0.15" /><rect height="2" width="2" x="104.0" y="104.0" rx="0.15"  ry="0.15" /><rect height="2" width="2" x="114.0" y="104.0" rx="0.15"  ry="0.15" /><rect height="1" width="1" x="116.0" y="105.0" rx="0.15"  ry="0.15" /><rect height="1" width="1" x="17.0" y="107.0" rx="0.15"  ry="0.15" /><rect height="1" width="1" x="19.0" y="107.0" rx="0.15"  ry="0.15" /><rect height="1" width="1" x="18.0" y="107.0" rx="0.15"  ry="0.15" /><rect height="1" width="1" x="20.0" y="107.0" rx="0.15"  ry="0.15" /><rect height="1" width="1" x="23.0" y="107.0" rx="0.15"  ry="0.15" /><rect height="1" width="1" x="27.0" y="107.0" rx="0.15"  ry="0.15" /><rect height="1" width="1" x="39.0" y="107.0" rx="0.15"  ry="0.15" /><rect height="1" width="1" x="40.0" y="107.0" rx="0.15"  ry="0.15" /><rect height="1" width="1" x="57.0" y="107.0" rx="0.15"  ry="0.15" /><rect height="1" width="1" x="62.0" y="107.0" rx="0.15"  ry="0.15" /><rect height="1" width="1" x="89.0" y="107.0" rx="0.15"  ry="0.15" /><rect height="1" width="1" x="90.0" y="107.0" rx="0.15"  ry="0.15" /><rect height="1" width="1" x="101.0" y="107.0" rx="0.15"  ry="0.15" /><rect height="1" width="1" x="100.0" y="107.0" rx="0.15"  ry="0.15" /><rect height="1" width="1" x="102.0" y="107.0" rx="0.15"  ry="0.15" /><rect height="1" width="1" x="3.0" y="114.0" rx="0.15"  ry="0.15" /><rect height="2" width="2" x="4.0" y="114.0" rx="0.15"  ry="0.15" /><rect height="2" width="2" x="14.0" y="114.0" rx="0.15"  ry="0.15" /><rect height="1" width="1" x="16.0" y="114.0" rx="0.15"  ry="0.15" /><rect height="1" width="1" x="43.0" y="114.0" rx="0.15"  ry="0.15" /><rect height="2" width="2" x="44.0" y="114.0" rx="0.15"  ry="0.15" /><rect height="1" width="1" x="46.0" y="114.0" rx="0.15"  ry="0.15" /><rect height="1" width="1" x="73.0" y="114.0" rx="0.15"  ry="0.15" /><rect height="2" width="2" x="74.0" y="114.0" rx="0.15"  ry="0.15" /><rect height="1" width="1" x="76.0" y="114.0" rx="0.15"  ry="0.15" /><rect height="1" width="1" x="103.0" y="114.0" rx="0.15"  ry="0.15" /><rect height="2" width="2" x="104.0" y="114.0" rx="0.15"  ry="0.15" /><rect height="2" width="2" x="114.0" y="114.0" rx="0.15"  ry="0.15" /><rect height="1" width="1" x="116.0" y="114.0" rx="0.15"  ry="0.15" /><rect height="1" width="1" x="5.0" y="116.0" rx="0.15"  ry="0.15" /><rect height="1" width="1" x="14.0" y="116.0" rx="0.15"  ry="0.15" /><rect height="1" width="1" x="105.0" y="116.0" rx="0.15"  ry="0.15" /><rect height="1" width="1" x="114.0" y="116.0" rx="0.15"  ry="0.15" /></g><g stroke="#ccff66" stroke-width="0.8" stroke-linecap="round"><path d="M32.5 21.5 32.5 22.5M32.5 20.5 32.5 21.5M32.5 23.5 32.5 24.5M32.5 22.5 32.5 23.5M32.5 25.5 32.5 26.5M32.5 24.5 32.5 25.5M32.5 27.5 32.5 28.5M32.5 26.5 32.5 27.5M32.5 29.5 32.5 30.5M32.5 28.5 32.5 29.5M32.5 31.5 32.5 32.5M32.5 30.5 32.5 31.5M32.5 33.5 32.5 34.5M32.5 32.5 32.5 33.5M32.5 35.5 32.5 36.5M32.5 34.5 32.5 35.5M32.5 37.5 32.5 38.5M32.5 36.5 32.5 37.5M32.5 39.5 32.5 40.5M32.5 38.5 32.5 39.5M32.5 41.5 32.5 42.5M32.5 40.5 32.5 41.5M32.5 43.5 32.5 44.5M32.5 42.5 32.5 43.5M32.5 45.5 32.5 46.5M32.5 44.5 32.5 45.5M32.5 47.5 32.5 48.5M32.5 46.5 32.5 47.5M32.5 49.5 32.5 50.5M32.5 48.5 32.5 49.5M32.5 51.5 32.5 52.5M32.5 50.5 32.5 51.5M32.5 53.5 32.5 54.5M32.5 52.5 32.5 53.5"/><path d="M40.5 4.5 40.5 5.5M90.5 5.5 90.5 4.5M19.5 15.5 18.5 15.5M18.5 15.5 18.5 16.5M23.5 15.5 24.5 15.5M31.5 15.5 32.5 15.5M30.5 14.5 31.5 14.5M30.5 14.5 30.5 15.5M41.5 14.5 42.5 14.5M40.5 15.5 40.5 14.5M42.5 15.5 43.5 15.5M53.5 14.5 52.5 14.5M53.5 15.5 54.5 15.5M54.5 15.5 55.5 15.5M63.5 14.5 62.5 14.5M65.5 15.5 66.5 15.5M70.5 14.5 71.5 14.5M76.5 15.5 77.5 15.5M77.5 15.5 77.5 16.5M84.5 15.5 84.5 14.5M84.5 15.5 84.5 16.5M90.5 14.5 90.5 15.5M23.5 17.5 23.5 16.5M23.5 16.5 24.5 16.5M27.5 17.5 28.5 17.5M33.5 16.5 34.5 16.5M35.5 17.5 36.5 17.5M43.5 16.5 44.5 16.5M47.5 17.5 46.5 17.5M51.5 17.5 52.5 17.5M51.5 17.5 51.5 18.5M52.5 21.5 51.5 21.5M52.5 19.5 51.5 19.5M56.5 20.5 57.5 20.5M56.5 18.5 57.5 18.5M55.5 16.5 54.5 16.5M57.5 17.5 58.5 17.5M59.5 17.5 58.5 17.5M58.5 17.5 58.5 18.5M61.5 17.5 62.5 17.5M62.5 17.5 62.5 18.5M63.5 17.5 63.5 18.5M65.5 16.5 66.5 16.5M68.5 17.5 69.5 17.5M68.5 19.5 69.5 19.5M68.5 21.5 69.5 21.5M64.5 18.5 63.5 18.5M64.5 20.5 63.5 20.5M75.5 16.5 74.5 16.5M74.5 17.5 75.5 17.5M77.5 16.5 77.5 17.5M77.5 17.5 77.5 18.5M83.5 17.5 84.5 17.5M85.5 16.5 86.5 16.5M85.5 17.5 84.5 17.5M84.5 16.5 84.5 17.5M90.5 17.5 90.5 18.5M92.5 16.5 92.5 17.5M92.5 17.5 92.5 18.5M93.5 17.5 94.5 17.5M94.5 17.5 94.5 18.5M18.5 19.5 18.5 20.5M30.5 18.5 30.5 19.5M31.5 19.5 30.5 19.5M30.5 19.5 30.5 20.5M33.5 18.5 34.5 18.5M33.5 18.5 33.5 19.5M41.5 19.5 42.5 19.5M42.5 21.5 41.5 21.5M44.5 19.5 45.5 19.5M45.5 19.5 46.5 19.5M46.5 19.5 46.5 20.5M50.5 19.5 51.5 19.5M50.5 19.5 50.5 20.5M57.5 19.5 57.5 18.5M57.5 18.5 58.5 18.5M58.5 19.5 58.5 20.5M62.5 19.5 62.5 20.5M63.5 19.5 63.5 18.5M69.5 19.5 70.5 19.5M70.5 19.5 70.5 20.5M74.5 18.5 74.5 19.5M74.5 19.5 74.5 20.5M78.5 19.5 79.5 19.5M78.5 21.5 79.5 21.5M76.5 21.5 75.5 21.5M83.5 18.5 84.5 18.5M87.5 18.5 88.5 18.5M87.5 20.5 88.5 20.5M85.5 20.5 84.5 20.5M89.5 19.5 90.5 19.5M89.5 18.5 90.5 18.5M89.5 18.5 88.5 18.5M90.5 18.5 90.5 19.5M91.5 18.5 92.5 18.5M90.5 19.5 90.5 20.5M92.5 19.5 92.5 18.5M92.5 19.5 92.5 20.5M31.5 21.5 30.5 21.5M30.5 21.5 30.5 20.5M30.5 21.5 30.5 22.5M35.5 21.5 36.5 21.5M40.5 20.5 40.5 21.5M41.5 21.5 40.5 21.5M40.5 21.5 40.5 22.5M45.5 21.5 46.5 21.5M57.5 20.5 58.5 20.5M58.5 21.5 58.5 20.5M62.5 21.5 62.5 20.5M63.5 20.5 62.5 20.5M69.5 20.5 69.5 21.5M69.5 21.5 69.5 22.5M74.5 20.5 75.5 20.5M74.5 20.5 74.5 21.5M74.5 21.5 75.5 21.5M74.5 21.5 74.5 22.5M75.5 21.5 75.5 22.5M83.5 21.5 84.5 21.5M91.5 20.5 92.5 20.5M91.5 21.5 92.5 21.5M90.5 20.5 90.5 21.5M90.5 21.5 90.5 22.5M92.5 20.5 92.5 21.5M92.5 21.5 92.5 22.5M31.5 22.5 30.5 22.5M30.5 23.5 30.5 22.5M30.5 23.5 30.5 24.5M33.5 23.5 33.5 22.5M33.5 23.5 34.5 23.5M33.5 23.5 33.5 24.5M40.5 23.5 40.5 22.5M40.5 23.5 40.5 24.5M41.5 22.5 42.5 22.5M42.5 24.5 41.5 24.5M44.5 24.5 45.5 24.5M46.5 23.5 46.5 24.5M51.5 22.5 51.5 23.5M51.5 23.5 52.5 23.5M51.5 23.5 51.5 24.5M52.5 27.5 51.5 27.5M52.5 25.5 51.5 25.5M56.5 26.5 57.5 26.5M56.5 24.5 57.5 24.5M57.5 23.5 57.5 24.5M63.5 23.5 63.5 24.5M68.5 23.5 69.5 23.5M68.5 25.5 69.5 25.5M68.5 27.5 69.5 27.5M64.5 24.5 63.5 24.5M64.5 26.5 63.5 26.5M75.5 22.5 76.5 22.5M74.5 23.5 75.5 23.5M78.5 22.5 79.5 22.5M78.5 24.5 79.5 24.5M83.5 23.5 84.5 23.5M89.5 22.5 90.5 22.5M90.5 23.5 90.5 22.5M90.5 23.5 90.5 24.5M93.5 23.5 94.5 23.5M92.5 22.5 92.5 23.5M92.5 23.5 92.5 24.5M94.5 22.5 94.5 23.5M94.5 23.5 94.5 24.5M23.5 25.5 23.5 26.5M31.5 25.5 30.5 25.5M30.5 24.5 30.5 25.5M30.5 25.5 30.5 26.5M41.5 25.5 42.5 25.5M41.5 24.5 40.5 24.5M40.5 24.5 40.5 25.5M40.5 25.5 40.5 26.5M42.5 27.5 41.5 27.5M44.5 25.5 45.5 25.5M45.5 25.5 45.5 24.5M45.5 24.5 46.5 24.5M46.5 25.5 46.5 24.5M50.5 24.5 50.5 25.5M51.5 25.5 50.5 25.5M50.5 25.5 50.5 26.5M57.5 25.5 57.5 24.5M58.5 25.5 58.5 26.5M62.5 25.5 62.5 26.5M63.5 25.5 63.5 24.5M69.5 25.5 70.5 25.5M70.5 24.5 70.5 25.5M70.5 25.5 70.5 26.5M74.5 25.5 74.5 26.5M78.5 25.5 79.5 25.5M78.5 27.5 79.5 27.5M76.5 27.5 75.5 27.5M83.5 24.5 84.5 24.5M87.5 24.5 88.5 24.5M87.5 26.5 88.5 26.5M85.5 26.5 84.5 26.5M89.5 24.5 90.5 24.5M89.5 24.5 88.5 24.5M89.5 25.5 90.5 25.5M91.5 24.5 92.5 24.5M90.5 24.5 90.5 25.5M90.5 25.5 90.5 26.5M92.5 25.5 92.5 24.5M92.5 25.5 92.5 26.5M31.5 27.5 30.5 27.5M30.5 27.5 30.5 26.5M30.5 27.5 30.5 28.5M35.5 27.5 36.5 27.5M41.5 27.5 40.5 27.5M40.5 27.5 40.5 26.5M40.5 27.5 40.5 28.5M45.5 27.5 46.5 27.5M57.5 26.5 58.5 26.5M58.5 27.5 58.5 26.5M62.5 27.5 62.5 26.5M62.5 26.5 63.5 26.5M69.5 26.5 69.5 27.5M69.5 27.5 69.5 28.5M74.5 26.5 75.5 26.5M74.5 26.5 74.5 27.5M75.5 27.5 75.5 28.5M75.5 27.5 74.5 27.5M74.5 27.5 74.5 28.5M83.5 26.5 84.5 26.5M83.5 27.5 84.5 27.5M91.5 26.5 92.5 26.5M91.5 27.5 92.5 27.5M90.5 26.5 90.5 27.5M90.5 27.5 90.5 28.5M92.5 26.5 92.5 27.5M92.5 27.5 92.5 28.5M31.5 28.5 30.5 28.5M30.5 29.5 30.5 28.5M30.5 29.5 30.5 30.5M33.5 29.5 33.5 28.5M33.5 29.5 34.5 29.5M33.5 29.5 33.5 30.5M35.5 29.5 34.5 29.5M40.5 29.5 40.5 28.5M40.5 29.5 40.5 30.5M41.5 28.5 42.5 28.5M42.5 30.5 41.5 30.5M44.5 30.5 45.5 30.5M45.5 29.5 46.5 29.5M46.5 29.5 46.5 28.5M46.5 29.5 46.5 30.5M51.5 29.5 51.5 28.5M51.5 29.5 52.5 29.5M51.5 29.5 51.5 30.5M52.5 33.5 51.5 33.5M52.5 31.5 51.5 31.5M56.5 32.5 57.5 32.5M56.5 30.5 57.5 30.5M57.5 29.5 57.5 30.5M63.5 29.5 63.5 30.5M68.5 29.5 69.5 29.5M68.5 31.5 69.5 31.5M68.5 33.5 69.5 33.5M64.5 30.5 63.5 30.5M64.5 32.5 63.5 32.5M75.5 28.5 76.5 28.5M74.5 29.5 75.5 29.5M78.5 28.5 79.5 28.5M78.5 30.5 79.5 30.5M83.5 29.5 84.5 29.5M89.5 28.5 90.5 28.5M90.5 29.5 90.5 28.5M90.5 29.5 90.5 30.5M93.5 29.5 94.5 29.5M92.5 28.5 92.5 29.5M92.5 29.5 92.5 30.5M94.5 28.5 94.5 29.5M94.5 29.5 94.5 30.5M18.5 30.5 18.5 31.5M27.5 31.5 27.5 30.5M31.5 30.5 30.5 30.5M31.5 31.5 30.5 31.5M30.5 30.5 30.5 31.5M30.5 31.5 30.5 32.5M41.5 31.5 42.5 31.5M41.5 30.5 40.5 30.5M40.5 30.5 40.5 31.5M40.5 31.5 40.5 32.5M42.5 33.5 41.5 33.5M44.5 31.5 45.5 31.5M45.5 30.5 46.5 30.5M45.5 30.5 45.5 31.5M46.5 30.5 46.5 31.5M50.5 31.5 50.5 30.5M50.5 31.5 51.5 31.5M50.5 31.5 50.5 32.5M57.5 31.5 57.5 30.5M58.5 31.5 58.5 32.5M63.5 31.5 63.5 30.5M62.5 31.5 62.5 32.5M69.5 31.5 70.5 31.5M70.5 30.5 70.5 31.5M70.5 31.5 70.5 32.5M74.5 31.5 74.5 32.5M78.5 31.5 79.5 31.5M78.5 33.5 79.5 33.5M76.5 33.5 75.5 33.5M83.5 30.5 84.5 30.5M87.5 30.5 88.5 30.5M87.5 32.5 88.5 32.5M85.5 32.5 84.5 32.5M89.5 30.5 90.5 30.5M89.5 30.5 88.5 30.5M89.5 31.5 90.5 31.5M91.5 30.5 92.5 30.5M90.5 30.5 90.5 31.5M90.5 31.5 90.5 32.5M92.5 31.5 92.5 30.5M92.5 31.5 92.5 32.5M31.5 33.5 30.5 33.5M30.5 32.5 30.5 33.5M30.5 33.5 30.5 34.5M37.5 33.5 38.5 33.5M41.5 33.5 40.5 33.5M40.5 33.5 40.5 32.5M40.5 33.5 40.5 34.5M45.5 33.5 46.5 33.5M57.5 32.5 58.5 32.5M58.5 33.5 58.5 32.5M62.5 33.5 62.5 32.5M63.5 32.5 62.5 32.5M69.5 32.5 69.5 33.5M69.5 33.5 69.5 34.5M74.5 32.5 75.5 32.5M74.5 32.5 74.5 33.5M75.5 33.5 75.5 34.5M75.5 33.5 74.5 33.5M74.5 33.5 74.5 34.5M91.5 32.5 92.5 32.5M91.5 33.5 92.5 33.5M90.5 32.5 90.5 33.5M90.5 33.5 90.5 34.5M92.5 32.5 92.5 33.5M92.5 33.5 92.5 34.5M31.5 34.5 30.5 34.5M30.5 34.5 30.5 35.5M30.5 35.5 30.5 36.5M40.5 35.5 40.5 34.5M40.5 35.5 40.5 36.5M41.5 34.5 42.5 34.5M42.5 36.5 41.5 36.5M44.5 36.5 45.5 36.5M46.5 35.5 46.5 36.5M51.5 35.5 51.5 34.5M51.5 35.5 52.5 35.5M51.5 35.5 51.5 36.5M52.5 39.5 51.5 39.5M52.5 37.5 51.5 37.5M56.5 38.5 57.5 38.5M56.5 36.5 57.5 36.5M57.5 35.5 57.5 36.5M63.5 35.5 63.5 36.5M68.5 35.5 69.5 35.5M68.5 37.5 69.5 37.5M68.5 39.5 69.5 39.5M64.5 36.5 63.5 36.5M64.5 38.5 63.5 38.5M75.5 34.5 76.5 34.5M75.5 35.5 74.5 35.5M78.5 34.5 79.5 34.5M78.5 36.5 79.5 36.5M81.5 35.5 82.5 35.5M87.5 35.5 88.5 35.5M89.5 34.5 90.5 34.5M90.5 35.5 90.5 34.5M90.5 35.5 90.5 36.5M93.5 35.5 94.5 35.5M92.5 34.5 92.5 35.5M92.5 35.5 92.5 36.5M94.5 34.5 94.5 35.5M94.5 35.5 94.5 36.5M23.5 37.5 23.5 36.5M31.5 37.5 30.5 37.5M30.5 37.5 30.5 36.5M30.5 37.5 30.5 38.5M41.5 37.5 42.5 37.5M41.5 36.5 40.5 36.5M40.5 36.5 40.5 37.5M40.5 37.5 40.5 38.5M42.5 39.5 41.5 39.5M44.5 37.5 45.5 37.5M45.5 36.5 46.5 36.5M45.5 36.5 45.5 37.5M46.5 36.5 46.5 37.5M50.5 37.5 50.5 36.5M50.5 37.5 51.5 37.5M50.5 37.5 50.5 38.5M57.5 37.5 57.5 36.5M58.5 37.5 58.5 38.5M63.5 37.5 63.5 36.5M62.5 37.5 62.5 38.5M69.5 37.5 70.5 37.5M70.5 36.5 70.5 37.5M70.5 37.5 70.5 38.5M74.5 37.5 74.5 38.5M78.5 37.5 79.5 37.5M78.5 39.5 79.5 39.5M76.5 39.5 75.5 39.5M81.5 36.5 82.5 36.5M89.5 37.5 90.5 37.5M91.5 36.5 92.5 36.5M90.5 36.5 90.5 37.5M90.5 37.5 90.5 38.5M92.5 37.5 92.5 36.5M92.5 37.5 92.5 38.5M31.5 39.5 30.5 39.5M30.5 38.5 30.5 39.5M30.5 39.5 30.5 40.5M35.5 39.5 36.5 39.5M41.5 39.5 40.5 39.5M40.5 39.5 40.5 38.5M40.5 39.5 40.5 40.5M45.5 39.5 46.5 39.5M57.5 38.5 58.5 38.5M58.5 39.5 58.5 38.5M62.5 39.5 62.5 38.5M63.5 38.5 62.5 38.5M69.5 38.5 69.5 39.5M69.5 39.5 69.5 40.5M74.5 38.5 75.5 38.5M74.5 38.5 74.5 39.5M75.5 39.5 75.5 40.5M75.5 39.5 74.5 39.5M74.5 39.5 74.5 40.5M83.5 39.5 84.5 39.5M84.5 38.5 85.5 38.5M87.5 38.5 88.5 38.5M87.5 40.5 88.5 40.5M88.5 38.5 89.5 38.5M89.5 38.5 90.5 38.5M90.5 39.5 90.5 38.5M90.5 39.5 90.5 40.5M91.5 39.5 92.5 39.5M92.5 38.5 92.5 39.5M92.5 39.5 92.5 40.5M18.5 41.5 18.5 42.5M27.5 41.5 27.5 42.5M31.5 40.5 30.5 40.5M30.5 41.5 30.5 40.5M30.5 41.5 30.5 42.5M33.5 41.5 33.5 40.5M33.5 41.5 34.5 41.5M33.5 41.5 33.5 42.5M40.5 41.5 40.5 40.5M40.5 41.5 40.5 42.5M41.5 40.5 42.5 40.5M42.5 42.5 41.5 42.5M44.5 42.5 45.5 42.5M46.5 41.5 46.5 42.5M51.5 41.5 51.5 40.5M51.5 41.5 52.5 41.5M51.5 41.5 51.5 42.5M52.5 45.5 51.5 45.5M52.5 43.5 51.5 43.5M56.5 44.5 57.5 44.5M56.5 42.5 57.5 42.5M57.5 41.5 57.5 42.5M63.5 41.5 63.5 42.5M68.5 41.5 69.5 41.5M68.5 43.5 69.5 43.5M68.5 45.5 69.5 45.5M64.5 42.5 63.5 42.5M64.5 44.5 63.5 44.5M75.5 40.5 76.5 40.5M74.5 41.5 75.5 41.5M78.5 40.5 79.5 40.5M78.5 42.5 79.5 42.5M83.5 41.5 84.5 41.5M88.5 40.5 88.5 41.5M89.5 40.5 90.5 40.5M90.5 41.5 90.5 40.5M90.5 41.5 90.5 42.5M92.5 41.5 92.5 40.5M92.5 41.5 92.5 42.5M93.5 41.5 94.5 41.5M94.5 40.5 94.5 41.5M94.5 41.5 94.5 42.5M31.5 43.5 30.5 43.5M30.5 42.5 30.5 43.5M30.5 43.5 30.5 44.5M40.5 43.5 40.5 42.5M40.5 43.5 40.5 44.5M40.5 42.5 41.5 42.5M41.5 43.5 42.5 43.5M42.5 45.5 41.5 45.5M44.5 43.5 45.5 43.5M45.5 42.5 46.5 42.5M45.5 42.5 45.5 43.5M46.5 42.5 46.5 43.5M50.5 43.5 50.5 42.5M50.5 43.5 51.5 43.5M50.5 43.5 50.5 44.5M57.5 43.5 57.5 42.5M58.5 43.5 58.5 44.5M63.5 43.5 63.5 42.5M62.5 43.5 62.5 44.5M69.5 43.5 70.5 43.5M70.5 42.5 70.5 43.5M70.5 43.5 70.5 44.5M74.5 43.5 74.5 44.5M78.5 43.5 79.5 43.5M78.5 45.5 79.5 45.5M76.5 45.5 75.5 45.5M83.5 42.5 84.5 42.5M87.5 42.5 88.5 42.5M87.5 44.5 88.5 44.5M85.5 44.5 84.5 44.5M88.5 43.5 88.5 44.5M88.5 42.5 89.5 42.5M89.5 42.5 90.5 42.5M89.5 43.5 90.5 43.5M91.5 42.5 92.5 42.5M90.5 42.5 90.5 43.5M90.5 43.5 90.5 44.5M92.5 43.5 92.5 42.5M92.5 43.5 92.5 44.5M31.5 45.5 30.5 45.5M30.5 44.5 30.5 45.5M30.5 45.5 30.5 46.5M35.5 45.5 36.5 45.5M40.5 44.5 40.5 45.5M40.5 45.5 41.5 45.5M40.5 45.5 40.5 46.5M45.5 45.5 46.5 45.5M57.5 44.5 58.5 44.5M58.5 45.5 58.5 44.5M62.5 45.5 62.5 44.5M63.5 44.5 62.5 44.5M69.5 44.5 69.5 45.5M69.5 45.5 69.5 46.5M75.5 44.5 74.5 44.5M74.5 44.5 74.5 45.5M75.5 45.5 75.5 46.5M75.5 45.5 74.5 45.5M74.5 45.5 74.5 46.5M83.5 45.5 84.5 45.5M88.5 45.5 88.5 44.5M88.5 44.5 89.5 44.5M91.5 44.5 92.5 44.5M91.5 45.5 92.5 45.5M90.5 44.5 90.5 45.5M90.5 45.5 90.5 46.5M92.5 44.5 92.5 45.5M23.5 47.5 23.5 48.5M30.5 47.5 30.5 46.5M30.5 47.5 30.5 48.5M31.5 46.5 30.5 46.5M33.5 47.5 33.5 46.5M33.5 47.5 34.5 47.5M33.5 47.5 33.5 48.5M40.5 47.5 40.5 46.5M40.5 47.5 40.5 48.5M41.5 46.5 42.5 46.5M42.5 48.5 41.5 48.5M44.5 48.5 45.5 48.5M46.5 47.5 46.5 48.5M51.5 47.5 51.5 46.5M51.5 47.5 52.5 47.5M51.5 47.5 51.5 48.5M52.5 51.5 51.5 51.5M52.5 49.5 51.5 49.5M56.5 50.5 57.5 50.5M56.5 48.5 57.5 48.5M57.5 47.5 57.5 48.5M63.5 47.5 63.5 48.5M68.5 47.5 69.5 47.5M68.5 49.5 69.5 49.5M68.5 51.5 69.5 51.5M64.5 48.5 63.5 48.5M64.5 50.5 63.5 50.5M75.5 46.5 76.5 46.5M74.5 47.5 75.5 47.5M78.5 46.5 79.5 46.5M78.5 48.5 79.5 48.5M83.5 47.5 84.5 47.5M89.5 46.5 90.5 46.5M90.5 47.5 90.5 46.5M90.5 47.5 90.5 48.5M93.5 47.5 94.5 47.5M94.5 46.5 94.5 47.5M94.5 47.5 94.5 48.5M30.5 49.5 30.5 48.5M30.5 49.5 31.5 49.5M30.5 49.5 30.5 50.5M41.5 49.5 42.5 49.5M41.5 48.5 40.5 48.5M40.5 48.5 40.5 49.5M40.5 49.5 40.5 50.5M42.5 51.5 41.5 51.5M44.5 49.5 45.5 49.5M45.5 48.5 46.5 48.5M45.5 48.5 45.5 49.5M46.5 49.5 46.5 48.5M50.5 49.5 50.5 48.5M50.5 49.5 51.5 49.5M50.5 49.5 50.5 50.5M57.5 49.5 57.5 48.5M58.5 49.5 58.5 50.5M63.5 49.5 63.5 48.5M62.5 49.5 62.5 50.5M69.5 49.5 70.5 49.5M70.5 48.5 70.5 49.5M70.5 49.5 70.5 50.5M74.5 49.5 74.5 50.5M78.5 49.5 79.5 49.5M78.5 51.5 79.5 51.5M76.5 51.5 75.5 51.5M83.5 48.5 84.5 48.5M87.5 48.5 88.5 48.5M87.5 50.5 88.5 50.5M85.5 50.5 84.5 50.5M89.5 48.5 90.5 48.5M89.5 48.5 88.5 48.5M88.5 49.5 88.5 50.5M89.5 49.5 90.5 49.5M91.5 48.5 92.5 48.5M90.5 48.5 90.5 49.5M90.5 49.5 90.5 50.5M92.5 49.5 92.5 48.5M92.5 49.5 92.5 50.5M31.5 51.5 30.5 51.5M30.5 50.5 30.5 51.5M30.5 51.5 30.5 52.5M35.5 51.5 36.5 51.5M41.5 51.5 40.5 51.5M40.5 51.5 40.5 50.5M40.5 51.5 40.5 52.5M45.5 51.5 46.5 51.5M57.5 50.5 58.5 50.5M58.5 51.5 58.5 50.5M62.5 51.5 62.5 50.5M63.5 50.5 62.5 50.5M69.5 50.5 69.5 51.5M69.5 51.5 69.5 52.5M74.5 50.5 75.5 50.5M74.5 50.5 74.5 51.5M75.5 51.5 75.5 52.5M75.5 51.5 74.5 51.5M74.5 51.5 74.5 52.5M83.5 51.5 84.5 51.5M89.5 50.5 88.5 50.5M88.5 51.5 88.5 50.5M91.5 50.5 92.5 50.5M91.5 51.5 92.5 51.5M90.5 50.5 90.5 51.5M90.5 51.5 90.5 52.5M92.5 50.5 92.5 51.5M92.5 51.5 92.5 52.5M18.5 52.5 18.5 53.5M27.5 53.5 27.5 52.5M30.5 53.5 30.5 52.5M30.5 52.5 31.5 52.5M33.5 53.5 33.5 52.5M33.5 53.5 34.5 53.5M40.5 53.5 40.5 52.5M40.5 53.5 40.5 54.5M41.5 52.5 42.5 52.5M42.5 54.5 41.5 54.5M44.5 52.5 45.5 52.5M45.5 53.5 45.5 52.5M45.5 53.5 46.5 53.5M45.5 53.5 45.5 54.5M46.5 52.5 46.5 53.5M51.5 53.5 51.5 52.5M51.5 53.5 52.5 53.5M51.5 53.5 51.5 54.5M52.5 57.5 51.5 57.5M52.5 55.5 51.5 55.5M56.5 56.5 57.5 56.5M56.5 54.5 57.5 54.5M57.5 53.5 57.5 54.5M63.5 53.5 63.5 54.5M68.5 53.5 69.5 53.5M68.5 55.5 69.5 55.5M68.5 57.5 69.5 57.5M64.5 54.5 63.5 54.5M64.5 56.5 63.5 56.5M75.5 52.5 76.5 52.5M74.5 53.5 75.5 53.5M78.5 52.5 79.5 52.5M78.5 54.5 79.5 54.5M83.5 53.5 84.5 53.5M89.5 52.5 90.5 52.5M90.5 53.5 90.5 52.5M90.5 53.5 90.5 54.5M93.5 53.5 94.5 53.5M92.5 52.5 92.5 53.5M92.5 53.5 92.5 54.5M94.5 52.5 94.5 53.5M94.5 53.5 94.5 54.5M33.5 55.5 32.5 55.5M32.5 55.5 32.5 56.5M41.5 55.5 42.5 55.5M41.5 54.5 40.5 54.5M40.5 54.5 40.5 55.5M40.5 55.5 40.5 56.5M42.5 57.5 41.5 57.5M44.5 55.5 45.5 55.5M45.5 55.5 46.5 55.5M46.5 55.5 46.5 56.5M50.5 55.5 50.5 54.5M50.5 55.5 51.5 55.5M50.5 55.5 50.5 56.5M57.5 55.5 57.5 54.5M58.5 55.5 58.5 56.5M63.5 55.5 63.5 54.5M62.5 55.5 62.5 56.5M69.5 55.5 70.5 55.5M70.5 54.5 70.5 55.5M70.5 55.5 70.5 56.5M74.5 55.5 74.5 56.5M78.5 55.5 79.5 55.5M78.5 57.5 79.5 57.5M76.5 57.5 75.5 57.5M83.5 54.5 84.5 54.5M87.5 54.5 88.5 54.5M87.5 56.5 88.5 56.5M85.5 56.5 84.5 56.5M88.5 54.5 89.5 54.5M88.5 55.5 88.5 56.5M89.5 54.5 90.5 54.5M89.5 55.5 90.5 55.5M91.5 54.5 92.5 54.5M90.5 54.5 90.5 55.5M90.5 55.5 90.5 56.5M92.5 54.5 92.5 55.5M92.5 55.5 92.5 56.5M23.5 57.5 23.5 58.5M30.5 56.5 30.5 57.5M30.5 57.5 31.5 57.5M30.5 57.5 30.5 58.5M32.5 56.5 32.5 57.5M32.5 57.5 32.5 58.5M35.5 57.5 36.5 57.5M41.5 57.5 40.5 57.5M40.5 57.5 40.5 56.5M40.5 57.5 40.5 58.5M45.5 57.5 46.5 57.5M57.5 56.5 58.5 56.5M58.5 57.5 58.5 56.5M62.5 57.5 62.5 56.5M63.5 56.5 62.5 56.5M69.5 56.5 69.5 57.5M69.5 57.5 69.5 58.5M74.5 56.5 75.5 56.5M74.5 56.5 74.5 57.5M75.5 57.5 75.5 58.5M75.5 57.5 74.5 57.5M74.5 57.5 74.5 58.5M83.5 56.5 84.5 56.5M83.5 57.5 84.5 57.5M88.5 56.5 89.5 56.5M88.5 56.5 88.5 57.5M91.5 56.5 92.5 56.5M91.5 57.5 92.5 57.5M90.5 56.5 90.5 57.5M90.5 57.5 90.5 58.5M92.5 56.5 92.5 57.5M92.5 57.5 92.5 58.5M23.5 58.5 24.5 58.5M31.5 58.5 32.5 58.5M33.5 58.5 32.5 58.5M32.5 58.5 32.5 59.5M32.5 59.5 32.5 60.5M41.5 58.5 42.5 58.5M40.5 59.5 40.5 58.5M40.5 59.5 40.5 60.5M42.5 60.5 41.5 60.5M44.5 60.5 45.5 60.5M46.5 59.5 46.5 60.5M51.5 59.5 51.5 58.5M51.5 59.5 52.5 59.5M51.5 59.5 51.5 60.5M52.5 63.5 51.5 63.5M52.5 61.5 51.5 61.5M56.5 62.5 57.5 62.5M56.5 60.5 57.5 60.5M57.5 59.5 57.5 60.5M63.5 59.5 63.5 60.5M68.5 59.5 69.5 59.5M68.5 61.5 69.5 61.5M68.5 63.5 69.5 63.5M64.5 60.5 63.5 60.5M64.5 62.5 63.5 62.5M75.5 58.5 76.5 58.5M74.5 59.5 75.5 59.5M78.5 58.5 79.5 58.5M78.5 60.5 79.5 60.5M83.5 59.5 84.5 59.5M89.5 58.5 90.5 58.5M90.5 59.5 90.5 58.5M90.5 59.5 90.5 60.5M93.5 59.5 94.5 59.5M92.5 58.5 92.5 59.5M92.5 59.5 92.5 60.5M94.5 58.5 94.5 59.5M94.5 59.5 94.5 60.5M33.5 61.5 32.5 61.5M32.5 61.5 32.5 60.5M32.5 61.5 32.5 62.5M41.5 61.5 42.5 61.5M41.5 60.5 40.5 60.5M40.5 60.5 40.5 61.5M40.5 61.5 40.5 62.5M42.5 63.5 41.5 63.5M44.5 61.5 45.5 61.5M45.5 61.5 45.5 60.5M45.5 60.5 46.5 60.5M46.5 61.5 46.5 60.5M50.5 61.5 50.5 60.5M50.5 61.5 51.5 61.5M50.5 61.5 50.5 62.5M57.5 61.5 57.5 60.5M58.5 61.5 58.5 62.5M63.5 61.5 63.5 60.5M62.5 61.5 62.5 62.5M69.5 61.5 70.5 61.5M70.5 60.5 70.5 61.5M70.5 61.5 70.5 62.5M74.5 61.5 74.5 62.5M78.5 61.5 79.5 61.5M78.5 63.5 79.5 63.5M76.5 63.5 75.5 63.5M83.5 60.5 84.5 60.5M87.5 60.5 88.5 60.5M87.5 62.5 88.5 62.5M85.5 62.5 84.5 62.5M88.5 60.5 89.5 60.5M88.5 61.5 88.5 62.5M89.5 60.5 90.5 60.5M89.5 61.5 90.5 61.5M91.5 60.5 92.5 60.5M90.5 60.5 90.5 61.5M90.5 61.5 90.5 62.5M93.5 61.5 92.5 61.5M92.5 60.5 92.5 61.5M92.5 61.5 92.5 62.5M97.5 60.5 96.5 60.5M101.5 60.5 100.5 60.5M18.5 63.5 18.5 64.5M21.5 63.5 22.5 63.5M25.5 63.5 26.5 63.5M27.5 62.5 27.5 63.5M30.5 63.5 30.5 62.5M30.5 63.5 31.5 63.5M30.5 63.5 30.5 64.5M32.5 62.5 32.5 63.5M32.5 63.5 32.5 64.5M35.5 63.5 36.5 63.5M41.5 63.5 40.5 63.5M40.5 63.5 40.5 62.5M40.5 63.5 40.5 64.5M45.5 63.5 46.5 63.5M57.5 62.5 58.5 62.5M58.5 63.5 58.5 62.5M62.5 63.5 62.5 62.5M63.5 62.5 62.5 62.5M69.5 62.5 69.5 63.5M69.5 63.5 69.5 64.5M75.5 62.5 74.5 62.5M74.5 62.5 74.5 63.5M75.5 63.5 75.5 64.5M75.5 63.5 74.5 63.5M74.5 63.5 74.5 64.5M83.5 62.5 84.5 62.5M83.5 63.5 84.5 63.5M88.5 62.5 89.5 62.5M88.5 62.5 88.5 63.5M91.5 62.5 92.5 62.5M91.5 63.5 92.5 63.5M90.5 62.5 90.5 63.5M90.5 63.5 90.5 64.5M92.5 62.5 92.5 63.5M92.5 63.5 92.5 64.5M32.5 65.5 32.5 64.5M32.5 65.5 32.5 66.5M32.5 64.5 33.5 64.5M41.5 64.5 42.5 64.5M40.5 65.5 40.5 64.5M40.5 65.5 40.5 66.5M42.5 66.5 41.5 66.5M44.5 66.5 45.5 66.5M45.5 65.5 45.5 64.5M46.5 65.5 46.5 66.5M51.5 65.5 51.5 64.5M51.5 65.5 52.5 65.5M51.5 65.5 51.5 66.5M52.5 69.5 51.5 69.5M52.5 67.5 51.5 67.5M56.5 68.5 57.5 68.5M56.5 66.5 57.5 66.5M57.5 65.5 57.5 66.5M63.5 65.5 63.5 66.5M68.5 65.5 69.5 65.5M68.5 67.5 69.5 67.5M68.5 69.5 69.5 69.5M64.5 66.5 63.5 66.5M64.5 68.5 63.5 68.5M75.5 64.5 76.5 64.5M75.5 65.5 74.5 65.5M78.5 64.5 79.5 64.5M78.5 66.5 79.5 66.5M83.5 65.5 84.5 65.5M89.5 64.5 90.5 64.5M90.5 65.5 90.5 64.5M90.5 65.5 90.5 66.5M93.5 65.5 94.5 65.5M92.5 64.5 92.5 65.5M92.5 65.5 92.5 66.5M94.5 64.5 94.5 65.5M94.5 65.5 94.5 66.5M32.5 66.5 32.5 67.5M32.5 67.5 33.5 67.5M32.5 67.5 32.5 68.5M41.5 67.5 42.5 67.5M41.5 66.5 40.5 66.5M40.5 66.5 40.5 67.5M40.5 67.5 40.5 68.5M42.5 69.5 41.5 69.5M44.5 67.5 45.5 67.5M45.5 66.5 46.5 66.5M45.5 66.5 45.5 67.5M46.5 67.5 46.5 66.5M50.5 67.5 50.5 66.5M50.5 67.5 51.5 67.5M50.5 67.5 50.5 68.5M57.5 67.5 57.5 66.5M58.5 67.5 58.5 68.5M63.5 67.5 63.5 66.5M62.5 67.5 62.5 68.5M69.5 67.5 70.5 67.5M70.5 66.5 70.5 67.5M70.5 67.5 70.5 68.5M74.5 67.5 74.5 68.5M78.5 67.5 79.5 67.5M78.5 69.5 79.5 69.5M76.5 69.5 75.5 69.5M83.5 66.5 84.5 66.5M87.5 66.5 88.5 66.5M87.5 68.5 88.5 68.5M85.5 68.5 84.5 68.5M88.5 66.5 89.5 66.5M88.5 67.5 88.5 68.5M89.5 66.5 90.5 66.5M89.5 67.5 90.5 67.5M91.5 66.5 92.5 66.5M90.5 66.5 90.5 67.5M90.5 67.5 90.5 68.5M92.5 66.5 92.5 67.5M92.5 67.5 92.5 68.5M30.5 69.5 30.5 68.5M30.5 69.5 31.5 69.5M30.5 69.5 30.5 70.5M32.5 69.5 32.5 68.5M32.5 69.5 32.5 70.5M35.5 69.5 36.5 69.5M41.5 69.5 40.5 69.5M40.5 69.5 40.5 68.5M40.5 69.5 40.5 70.5M45.5 69.5 46.5 69.5M57.5 68.5 58.5 68.5M58.5 69.5 58.5 68.5M62.5 69.5 62.5 68.5M63.5 68.5 62.5 68.5M69.5 68.5 69.5 69.5M69.5 69.5 69.5 70.5M74.5 68.5 75.5 68.5M74.5 68.5 74.5 69.5M75.5 69.5 75.5 70.5M75.5 69.5 74.5 69.5M74.5 69.5 74.5 70.5M83.5 68.5 84.5 68.5M83.5 69.5 84.5 69.5M88.5 68.5 89.5 68.5M88.5 68.5 88.5 69.5M91.5 68.5 92.5 68.5M91.5 69.5 92.5 69.5M90.5 68.5 90.5 69.5M90.5 69.5 90.5 70.5M93.5 68.5 92.5 68.5M92.5 68.5 92.5 69.5M92.5 69.5 92.5 70.5M32.5 71.5 32.5 70.5M32.5 71.5 32.5 72.5M32.5 70.5 33.5 70.5M41.5 70.5 42.5 70.5M40.5 71.5 40.5 70.5M40.5 71.5 40.5 72.5M42.5 72.5 41.5 72.5M44.5 72.5 45.5 72.5M45.5 71.5 45.5 70.5M46.5 71.5 46.5 72.5M51.5 71.5 51.5 70.5M51.5 71.5 52.5 71.5M51.5 71.5 51.5 72.5M52.5 75.5 51.5 75.5M52.5 73.5 51.5 73.5M56.5 74.5 57.5 74.5M56.5 72.5 57.5 72.5M57.5 71.5 57.5 72.5M63.5 71.5 63.5 72.5M68.5 71.5 69.5 71.5M68.5 73.5 69.5 73.5M68.5 75.5 69.5 75.5M64.5 72.5 63.5 72.5M64.5 74.5 63.5 74.5M75.5 70.5 76.5 70.5M74.5 71.5 75.5 71.5M78.5 70.5 79.5 70.5M78.5 72.5 79.5 72.5M83.5 71.5 84.5 71.5M89.5 70.5 90.5 70.5M90.5 70.5 90.5 71.5M90.5 71.5 90.5 72.5M92.5 70.5 92.5 71.5M92.5 71.5 92.5 72.5M93.5 71.5 94.5 71.5M94.5 70.5 94.5 71.5M94.5 71.5 94.5 72.5M27.5 73.5 27.5 74.5M32.5 72.5 32.5 73.5M32.5 73.5 33.5 73.5M32.5 73.5 32.5 74.5M41.5 73.5 42.5 73.5M41.5 72.5 40.5 72.5M40.5 73.5 40.5 72.5M40.5 73.5 40.5 74.5M42.5 75.5 41.5 75.5M44.5 73.5 45.5 73.5M45.5 72.5 46.5 72.5M45.5 72.5 45.5 73.5M46.5 73.5 46.5 72.5M50.5 73.5 50.5 72.5M50.5 73.5 51.5 73.5M50.5 73.5 50.5 74.5M57.5 73.5 57.5 72.5M58.5 73.5 58.5 74.5M63.5 73.5 63.5 72.5M62.5 73.5 62.5 74.5M69.5 73.5 70.5 73.5M70.5 72.5 70.5 73.5M70.5 73.5 70.5 74.5M74.5 73.5 74.5 74.5M78.5 73.5 79.5 73.5M78.5 75.5 79.5 75.5M76.5 75.5 75.5 75.5M83.5 72.5 84.5 72.5M87.5 72.5 88.5 72.5M87.5 74.5 88.5 74.5M85.5 74.5 84.5 74.5M89.5 72.5 90.5 72.5M89.5 72.5 88.5 72.5M88.5 73.5 88.5 74.5M89.5 73.5 90.5 73.5M91.5 72.5 92.5 72.5M90.5 72.5 90.5 73.5M90.5 73.5 90.5 74.5M93.5 72.5 92.5 72.5M30.5 75.5 30.5 74.5M30.5 75.5 31.5 75.5M30.5 75.5 30.5 76.5M32.5 75.5 32.5 74.5M32.5 75.5 32.5 76.5M35.5 75.5 36.5 75.5M41.5 75.5 40.5 75.5M40.5 74.5 40.5 75.5M40.5 75.5 40.5 76.5M45.5 75.5 46.5 75.5M57.5 74.5 58.5 74.5M58.5 75.5 58.5 74.5M62.5 75.5 62.5 74.5M63.5 74.5 62.5 74.5M69.5 74.5 69.5 75.5M69.5 75.5 69.5 76.5M74.5 74.5 75.5 74.5M74.5 74.5 74.5 75.5M75.5 75.5 75.5 76.5M75.5 75.5 74.5 75.5M74.5 75.5 74.5 76.5M83.5 75.5 84.5 75.5M89.5 74.5 88.5 74.5M88.5 75.5 88.5 74.5M91.5 75.5 92.5 75.5M90.5 74.5 90.5 75.5M90.5 75.5 90.5 76.5M92.5 75.5 92.5 76.5M33.5 76.5 32.5 76.5M32.5 76.5 32.5 77.5M32.5 77.5 32.5 78.5M41.5 76.5 42.5 76.5M40.5 77.5 40.5 76.5M40.5 77.5 40.5 78.5M42.5 78.5 41.5 78.5M44.5 78.5 45.5 78.5M45.5 77.5 45.5 76.5M46.5 77.5 46.5 78.5M51.5 77.5 51.5 76.5M51.5 77.5 52.5 77.5M51.5 77.5 51.5 78.5M52.5 81.5 51.5 81.5M52.5 79.5 51.5 79.5M56.5 80.5 57.5 80.5M56.5 78.5 57.5 78.5M57.5 77.5 57.5 78.5M63.5 77.5 63.5 78.5M68.5 77.5 69.5 77.5M68.5 79.5 69.5 79.5M68.5 81.5 69.5 81.5M64.5 78.5 63.5 78.5M64.5 80.5 63.5 80.5M75.5 76.5 76.5 76.5M74.5 77.5 75.5 77.5M78.5 76.5 79.5 76.5M78.5 78.5 79.5 78.5M83.5 77.5 84.5 77.5M89.5 76.5 90.5 76.5M90.5 77.5 90.5 76.5M90.5 77.5 90.5 78.5M93.5 76.5 92.5 76.5M93.5 77.5 94.5 77.5M92.5 77.5 92.5 76.5M92.5 77.5 92.5 78.5M94.5 76.5 94.5 77.5M94.5 77.5 94.5 78.5M32.5 78.5 32.5 79.5M32.5 79.5 33.5 79.5M40.5 79.5 40.5 78.5M40.5 79.5 40.5 80.5M41.5 79.5 42.5 79.5M41.5 78.5 40.5 78.5M42.5 81.5 41.5 81.5M44.5 79.5 45.5 79.5M45.5 78.5 46.5 78.5M45.5 78.5 45.5 79.5M46.5 79.5 46.5 78.5M50.5 79.5 50.5 78.5M50.5 79.5 51.5 79.5M50.5 79.5 50.5 80.5M57.5 79.5 57.5 78.5M58.5 79.5 58.5 80.5M63.5 79.5 63.5 78.5M62.5 79.5 62.5 80.5M69.5 79.5 70.5 79.5M70.5 78.5 70.5 79.5M70.5 79.5 70.5 80.5M74.5 79.5 74.5 80.5M78.5 79.5 79.5 79.5M78.5 81.5 79.5 81.5M76.5 81.5 75.5 81.5M83.5 78.5 84.5 78.5M87.5 78.5 88.5 78.5M87.5 80.5 88.5 80.5M85.5 80.5 84.5 80.5M89.5 78.5 90.5 78.5M89.5 78.5 88.5 78.5M88.5 79.5 88.5 80.5M89.5 79.5 90.5 79.5M91.5 78.5 92.5 78.5M90.5 78.5 90.5 79.5M90.5 79.5 90.5 80.5M92.5 79.5 92.5 78.5M92.5 79.5 92.5 80.5M102.5 79.5 103.5 79.5M102.5 79.5 102.5 80.5M103.5 79.5 104.5 79.5M104.5 79.5 104.5 78.5M17.5 81.5 18.5 81.5M17.5 81.5 17.5 82.5M30.5 80.5 30.5 81.5M31.5 81.5 30.5 81.5M37.5 81.5 38.5 81.5M38.5 81.5 39.5 81.5M38.5 81.5 38.5 82.5M40.5 81.5 40.5 80.5M40.5 81.5 41.5 81.5M40.5 81.5 40.5 82.5M45.5 81.5 46.5 81.5M57.5 80.5 58.5 80.5M58.5 81.5 58.5 80.5M62.5 81.5 62.5 80.5M63.5 80.5 62.5 80.5M69.5 80.5 69.5 81.5M69.5 81.5 69.5 82.5M74.5 80.5 75.5 80.5M74.5 80.5 74.5 81.5M75.5 81.5 75.5 82.5M75.5 81.5 74.5 81.5M74.5 81.5 74.5 82.5M83.5 81.5 84.5 81.5M89.5 80.5 88.5 80.5M88.5 81.5 88.5 80.5M91.5 80.5 92.5 80.5M91.5 81.5 92.5 81.5M90.5 80.5 90.5 81.5M90.5 81.5 90.5 82.5M93.5 81.5 92.5 81.5M92.5 81.5 92.5 80.5M92.5 81.5 92.5 82.5M104.5 81.5 105.5 81.5M105.5 81.5 105.5 82.5M41.5 83.5 42.5 83.5M41.5 83.5 41.5 84.5M40.5 82.5 40.5 83.5M42.5 83.5 42.5 84.5M51.5 83.5 51.5 82.5M51.5 83.5 52.5 83.5M51.5 83.5 51.5 84.5M52.5 87.5 51.5 87.5M52.5 85.5 51.5 85.5M56.5 86.5 57.5 86.5M56.5 84.5 57.5 84.5M57.5 83.5 57.5 84.5M63.5 83.5 63.5 84.5M68.5 83.5 69.5 83.5M68.5 85.5 69.5 85.5M68.5 87.5 69.5 87.5M64.5 84.5 63.5 84.5M64.5 86.5 63.5 86.5M75.5 82.5 76.5 82.5M75.5 83.5 74.5 83.5M78.5 82.5 79.5 82.5M78.5 84.5 79.5 84.5M81.5 83.5 82.5 83.5M87.5 83.5 88.5 83.5M89.5 82.5 90.5 82.5M90.5 83.5 90.5 82.5M90.5 83.5 90.5 84.5M93.5 83.5 94.5 83.5M92.5 83.5 92.5 82.5M92.5 83.5 92.5 84.5M94.5 82.5 94.5 83.5M94.5 83.5 94.5 84.5M17.5 85.5 17.5 86.5M27.5 85.5 27.5 84.5M44.5 86.5 44.5 87.5M50.5 85.5 50.5 84.5M50.5 85.5 51.5 85.5M50.5 85.5 50.5 86.5M57.5 85.5 57.5 84.5M58.5 85.5 58.5 86.5M63.5 85.5 63.5 84.5M62.5 85.5 62.5 86.5M69.5 85.5 70.5 85.5M70.5 84.5 70.5 85.5M70.5 85.5 70.5 86.5M78.5 85.5 79.5 85.5M78.5 87.5 79.5 87.5M76.5 87.5 75.5 87.5M87.5 84.5 88.5 84.5M89.5 85.5 90.5 85.5M91.5 84.5 92.5 84.5M90.5 84.5 90.5 85.5M90.5 85.5 90.5 86.5M39.5 87.5 38.5 87.5M38.5 86.5 38.5 87.5M38.5 87.5 38.5 88.5M43.5 87.5 44.5 87.5M45.5 87.5 46.5 87.5M45.5 87.5 44.5 87.5M44.5 87.5 44.5 88.5M57.5 86.5 58.5 86.5M58.5 87.5 58.5 86.5M62.5 87.5 62.5 86.5M63.5 86.5 62.5 86.5M69.5 86.5 69.5 87.5M69.5 87.5 69.5 88.5M74.5 86.5 74.5 87.5M74.5 87.5 75.5 87.5M74.5 87.5 74.5 88.5M75.5 87.5 75.5 88.5M83.5 87.5 84.5 87.5M91.5 87.5 92.5 87.5M90.5 86.5 90.5 87.5M90.5 87.5 90.5 88.5M92.5 87.5 92.5 88.5M102.5 87.5 102.5 86.5M42.5 90.5 42.5 91.5M46.5 89.5 46.5 90.5M51.5 89.5 51.5 88.5M51.5 89.5 52.5 89.5M51.5 89.5 51.5 90.5M52.5 93.5 51.5 93.5M52.5 91.5 51.5 91.5M56.5 92.5 57.5 92.5M56.5 90.5 57.5 90.5M57.5 89.5 57.5 90.5M63.5 89.5 63.5 90.5M68.5 89.5 69.5 89.5M68.5 91.5 69.5 91.5M68.5 93.5 69.5 93.5M64.5 90.5 63.5 90.5M64.5 92.5 63.5 92.5M75.5 88.5 76.5 88.5M74.5 89.5 75.5 89.5M78.5 88.5 79.5 88.5M78.5 90.5 79.5 90.5M83.5 89.5 84.5 89.5M89.5 88.5 90.5 88.5M90.5 89.5 90.5 88.5M90.5 89.5 90.5 90.5M93.5 89.5 94.5 89.5M92.5 89.5 92.5 88.5M92.5 89.5 92.5 90.5M94.5 88.5 94.5 89.5M94.5 89.5 94.5 90.5M103.5 89.5 104.5 89.5M103.5 89.5 103.5 90.5M104.5 89.5 104.5 88.5M18.5 91.5 18.5 92.5M33.5 91.5 34.5 91.5M34.5 91.5 34.5 90.5M34.5 90.5 35.5 90.5M40.5 91.5 41.5 91.5M41.5 90.5 41.5 91.5M41.5 91.5 42.5 91.5M41.5 91.5 41.5 92.5M42.5 91.5 42.5 92.5M45.5 90.5 46.5 90.5M50.5 91.5 50.5 90.5M50.5 91.5 51.5 91.5M50.5 91.5 50.5 92.5M57.5 91.5 57.5 90.5M58.5 91.5 58.5 92.5M63.5 91.5 63.5 90.5M62.5 91.5 62.5 92.5M69.5 91.5 70.5 91.5M70.5 90.5 70.5 91.5M70.5 91.5 70.5 92.5M74.5 91.5 74.5 92.5M78.5 91.5 79.5 91.5M78.5 93.5 79.5 93.5M76.5 93.5 75.5 93.5M83.5 90.5 84.5 90.5M87.5 90.5 88.5 90.5M87.5 92.5 88.5 92.5M85.5 92.5 84.5 92.5M88.5 90.5 89.5 90.5M88.5 91.5 88.5 92.5M89.5 90.5 90.5 90.5M89.5 91.5 90.5 91.5M91.5 90.5 92.5 90.5M90.5 90.5 90.5 91.5M90.5 91.5 90.5 92.5M93.5 91.5 92.5 91.5M92.5 91.5 92.5 90.5M92.5 91.5 92.5 92.5M104.5 91.5 104.5 92.5M105.5 90.5 105.5 91.5M17.5 93.5 17.5 94.5M18.5 92.5 19.5 92.5M19.5 92.5 20.5 92.5M20.5 93.5 20.5 92.5M39.5 93.5 38.5 93.5M38.5 92.5 38.5 93.5M38.5 93.5 38.5 94.5M40.5 93.5 40.5 94.5M44.5 94.5 44.5 95.5M45.5 93.5 46.5 93.5M57.5 92.5 58.5 92.5M58.5 93.5 58.5 92.5M62.5 93.5 62.5 92.5M63.5 92.5 62.5 92.5M69.5 92.5 69.5 93.5M69.5 93.5 69.5 94.5M74.5 92.5 75.5 92.5M74.5 92.5 74.5 93.5M75.5 93.5 75.5 94.5M75.5 93.5 74.5 93.5M74.5 93.5 74.5 94.5M83.5 93.5 84.5 93.5M88.5 92.5 89.5 92.5M88.5 92.5 88.5 93.5M91.5 92.5 92.5 92.5M91.5 93.5 92.5 93.5M90.5 92.5 90.5 93.5M90.5 93.5 90.5 94.5M92.5 93.5 92.5 92.5M92.5 93.5 92.5 94.5M103.5 93.5 103.5 94.5M27.5 95.5 27.5 96.5M29.5 94.5 30.5 94.5M30.5 95.5 30.5 94.5M38.5 95.5 38.5 94.5M38.5 95.5 39.5 95.5M38.5 95.5 38.5 96.5M43.5 95.5 44.5 95.5M44.5 95.5 44.5 96.5M45.5 95.5 45.5 96.5M51.5 95.5 51.5 94.5M51.5 95.5 52.5 95.5M51.5 95.5 51.5 96.5M52.5 99.5 51.5 99.5M52.5 97.5 51.5 97.5M56.5 98.5 57.5 98.5M56.5 96.5 57.5 96.5M68.5 95.5 69.5 95.5M68.5 97.5 69.5 97.5M68.5 99.5 69.5 99.5M64.5 96.5 63.5 96.5M64.5 98.5 63.5 98.5M75.5 94.5 76.5 94.5M74.5 95.5 75.5 95.5M78.5 94.5 79.5 94.5M78.5 96.5 79.5 96.5M83.5 95.5 84.5 95.5M89.5 94.5 90.5 94.5M90.5 95.5 90.5 94.5M90.5 95.5 90.5 96.5M93.5 95.5 94.5 95.5M92.5 95.5 92.5 94.5M92.5 95.5 92.5 96.5M94.5 94.5 94.5 95.5M101.5 94.5 102.5 94.5M101.5 94.5 101.5 95.5M103.5 94.5 102.5 94.5M20.5 97.5 20.5 98.5M42.5 98.5 42.5 99.5M50.5 97.5 50.5 96.5M50.5 97.5 51.5 97.5M50.5 97.5 50.5 98.5M57.5 97.5 57.5 96.5M63.5 97.5 63.5 96.5M69.5 97.5 70.5 97.5M70.5 96.5 70.5 97.5M70.5 97.5 70.5 98.5M74.5 97.5 74.5 98.5M78.5 97.5 79.5 97.5M78.5 99.5 79.5 99.5M76.5 99.5 75.5 99.5M83.5 96.5 84.5 96.5M87.5 96.5 88.5 96.5M87.5 98.5 88.5 98.5M85.5 98.5 84.5 98.5M89.5 96.5 90.5 96.5M89.5 96.5 88.5 96.5M88.5 97.5 88.5 98.5M89.5 97.5 90.5 97.5M91.5 96.5 92.5 96.5M90.5 96.5 90.5 97.5M90.5 97.5 90.5 98.5M92.5 97.5 92.5 96.5M92.5 97.5 92.5 98.5M102.5 97.5 102.5 98.5M105.5 96.5 105.5 97.5M105.5 97.5 106.5 97.5M106.5 97.5 106.5 98.5M39.5 99.5 38.5 99.5M38.5 98.5 38.5 99.5M41.5 98.5 41.5 99.5M41.5 99.5 42.5 99.5M45.5 99.5 46.5 99.5M57.5 99.5 57.5 100.5M57.5 98.5 58.5 98.5M58.5 99.5 58.5 98.5M63.5 99.5 63.5 98.5M63.5 99.5 63.5 100.5M62.5 99.5 62.5 98.5M63.5 98.5 62.5 98.5M69.5 98.5 69.5 99.5M69.5 99.5 69.5 100.5M74.5 98.5 75.5 98.5M74.5 98.5 74.5 99.5M75.5 99.5 75.5 100.5M75.5 99.5 74.5 99.5M83.5 99.5 84.5 99.5M89.5 98.5 88.5 98.5M91.5 98.5 92.5 98.5M91.5 99.5 92.5 99.5M93.5 98.5 92.5 98.5M92.5 98.5 92.5 99.5M99.5 99.5 100.5 99.5M99.5 99.5 99.5 100.5M105.5 99.5 106.5 99.5M106.5 98.5 106.5 99.5M18.5 101.5 18.5 102.5M29.5 101.5 29.5 102.5M39.5 100.5 40.5 100.5M39.5 100.5 39.5 101.5M45.5 101.5 45.5 100.5M45.5 101.5 46.5 101.5M51.5 100.5 50.5 100.5M50.5 101.5 50.5 102.5M55.5 100.5 55.5 101.5M55.5 100.5 54.5 100.5M55.5 101.5 55.5 102.5M57.5 101.5 57.5 100.5M57.5 100.5 58.5 100.5M58.5 101.5 58.5 102.5M62.5 100.5 63.5 100.5M65.5 101.5 64.5 101.5M67.5 101.5 67.5 100.5M67.5 100.5 68.5 100.5M69.5 101.5 68.5 101.5M70.5 101.5 70.5 102.5M74.5 100.5 75.5 100.5M75.5 101.5 76.5 101.5M87.5 101.5 86.5 101.5M95.5 101.5 96.5 101.5M101.5 101.5 101.5 102.5M19.5 103.5 20.5 103.5M19.5 103.5 19.5 104.5M23.5 102.5 24.5 102.5M25.5 103.5 25.5 104.5M25.5 103.5 24.5 103.5M24.5 102.5 25.5 102.5M30.5 103.5 30.5 102.5M30.5 103.5 31.5 103.5M33.5 102.5 33.5 103.5M33.5 102.5 32.5 102.5M33.5 103.5 34.5 103.5M41.5 103.5 42.5 103.5M51.5 102.5 50.5 102.5M53.5 103.5 52.5 103.5M65.5 102.5 64.5 102.5M66.5 103.5 67.5 103.5M67.5 102.5 67.5 103.5M69.5 103.5 69.5 102.5M69.5 103.5 70.5 103.5M69.5 102.5 70.5 102.5M75.5 103.5 76.5 103.5M75.5 102.5 76.5 102.5M87.5 103.5 86.5 103.5M87.5 102.5 86.5 102.5M95.5 103.5 96.5 103.5M95.5 102.5 96.5 102.5M99.5 103.5 99.5 104.5M101.5 102.5 100.5 102.5M103.5 103.5 104.5 103.5M104.5 102.5 104.5 103.5M17.5 104.5 17.5 105.5M19.5 104.5 19.5 105.5M18.5 104.5 18.5 105.5M20.5 104.5 20.5 105.5M21.5 104.5 22.5 104.5M25.5 104.5 26.5 104.5M27.5 104.5 27.5 105.5M29.5 105.5 29.5 104.5M29.5 105.5 30.5 105.5M30.5 104.5 31.5 104.5M37.5 105.5 38.5 105.5M39.5 104.5 39.5 105.5M41.5 104.5 42.5 104.5M40.5 105.5 40.5 104.5M51.5 105.5 51.5 104.5M57.5 105.5 57.5 104.5M63.5 105.5 63.5 104.5M63.5 105.5 64.5 105.5M62.5 104.5 62.5 105.5M65.5 104.5 66.5 104.5M66.5 105.5 66.5 104.5M69.5 105.5 69.5 104.5M71.5 105.5 72.5 105.5M83.5 105.5 83.5 104.5M83.5 105.5 82.5 105.5M89.5 105.5 89.5 104.5M89.5 104.5 88.5 104.5M90.5 105.5 90.5 104.5M99.5 104.5 100.5 104.5M100.5 104.5 100.5 105.5M101.5 104.5 101.5 105.5M102.5 104.5 102.5 105.5M17.5 115.5 17.5 114.5M18.5 115.5 18.5 114.5M19.5 115.5 19.5 114.5M20.5 115.5 20.5 114.5M23.5 115.5 23.5 114.5M27.5 115.5 27.5 114.5M39.5 115.5 39.5 114.5M40.5 114.5 40.5 115.5M57.5 114.5 57.5 115.5M62.5 115.5 62.5 114.5M89.5 115.5 89.5 114.5M90.5 115.5 90.5 114.5M101.5 114.5 101.5 115.5M100.5 114.5 100.5 115.5M102.5 114.5 102.5 115.5"/><path d="M34.5 20.5 32.5 20.5M34.5 25.5 32.5 25.5M34.5 43.5 32.5 43.5M34.5 49.5 32.5 49.5M32.5 54.5 30.5 54.5M34.5 54.5 32.5 54.5"/><path d=""/></g></g></svg>