<svg baseProfile="tiny" height="300mm" version="1.2" viewBox="0,0,120.0,120.0" width="300.0mm" xmlns="http://www.w3.org/2000/svg" xmlns:ev="http://www.w3.org/2001/xml-events" xmlns:xlink="http://www.w3.org/1999/xlink"><metadata><generated_with>https://piebro.github.io/factorio-blueprint-visualizer/</generated_with><settings>[['meta', {'background': '#dddddd'}], ['bbox', {'deny': ['connected-stuff', 'electric-stuff'], 'fill': '#456990', 'stroke': '#456990', 'stroke-width': 0.8, 'bbox-scale': 1, 'bbox-rx': 0.15, 'bbox-ry': 0.15}], ['default-svg-properties', {'stroke': '#ef767a', 'stroke-width': 0.8, 'stroke-linecap': 'round'}], ['connected-underground-belt', {}], ['connected-pipe-to-ground', {}], ['connected-belt', {}], ['connected-pipe', {}], ['connected-inserter', {}], ['connected-rail', {}]]</settings></metadata><rect fill="#dddddd" height="10000" width="10000" x="-100" y="-100" /><g deny="['connected-stuff', 'electric-stuff']" fill="#456990" stroke="#456990" stroke-width="0.8"><rect height="1" width="1" x="5.0" y="3.0" rx="0.15"  ry="0.15" /><rect height="1" width="1" x="14.0" y="3.0" rx="0.15"  ry="0.15" /><rect height="1" width="1" x="105.0" y="3.0" rx="0.15"  ry="0.15" /><rect height="1" width="1" x="114.0" y="3.0" rx="0.15"  ry="0.15" /><rect height="1" width="1" x="3.0" y="5.0" rx="0.15"  ry="0.15" /><rect height="1" width="1" x="16.0" y="5.0" rx="0.15"  ry="0.15" /><rect height="1" width="1" x="43.0" y="5.0" rx="0.15"  ry="0.15" /><rect height="1" width="1" x="46.0" y="5.0" rx="0.15"  ry="0.15" /><rect height="1" width="1" x="73.0" y="5.0" rx="0.15"  ry="0.15" /><rect height="1" width="1" x="76.0" y="5.0" rx="0.15"  ry="0.15" /><rect height="1" width="1" x="103.0" y="5.0" rx="0.15"  ry="0.15" /><rect height="1" width="1" x="116.0" y="5.0" rx="0.15"  ry="0.15" /><rect height="1" width="1" x="3.0" y="14.0" rx="0.15"  ry="0.15" /><rect height="1" width="1" x="16.0" y="14.0" rx="0.15"  ry="0.15" /><rect height="1" width="1" x="43.0" y="14.0" rx="0.15"  ry="0.15" /><rect height="1" width="1" x="46.0" y="14.0" rx="0.15"  ry="0.15" /><rect height="1" width="1" x="73.0" y="14.0" rx="0.15"  ry="0.15" /><rect height="1" width="1" x="76.0" y="14.0" rx="0.15"  ry="0.15" /><rect height="1" width="1" x="101.0" y="14.0" rx="0.15"  ry="0.15" /><rect height="1" width="1" x="103.0" y="14.0" rx="0.15"  ry="0.15" /><rect height="1" width="1" x="116.0" y="14.0" rx="0.15"  ry="0.15" /><rect height="1" width="1" x="5.0" y="16.0" rx="0.15"  ry="0.15" /><rect height="1" width="1" x="14.0" y="16.0" rx="0.15"  ry="0.15" /><rect height="3" width="3" x="16.0" y="17.0" rx="0.15"  ry="0.15" /><rect height="3" width="3" x="19.0" y="17.0" rx="0.15"  ry="0.15" /><rect height="3" width="3" x="22.0" y="17.0" rx="0.15"  ry="0.15" /><rect height="3" width="3" x="25.0" y="17.0" rx="0.15"  ry="0.15" /><rect height="3" width="3" x="28.0" y="17.0" rx="0.15"  ry="0.15" /><rect height="3" width="3" x="31.0" y="17.0" rx="0.15"  ry="0.15" /><rect height="3" width="3" x="34.0" y="17.0" rx="0.15"  ry="0.15" /><rect height="3" width="3" x="37.0" y="17.0" rx="0.15"  ry="0.15" /><rect height="3" width="3" x="40.0" y="17.0" rx="0.15"  ry="0.15" /><rect height="3" width="3" x="47.0" y="17.0" rx="0.15"  ry="0.15" /><rect height="3" width="3" x="50.0" y="17.0" rx="0.15"  ry="0.15" /><rect height="3" width="3" x="53.0" y="17.0" rx="0.15"  ry="0.15" /><rect height="3" width="3" x="56.0" y="17.0" rx="0.15"  ry="0.15" /><rect height="3" width="3" x="59.0" y="17.0" rx="0.15"  ry="0.15" /><rect height="3" width="3" x="62.0" y="17.0" rx="0.15"  ry="0.15" /><rect height="1" width="1" x="85.0" y="16.0" rx="0.15"  ry="0.15" /><rect height="1" width="1" x="94.0" y="16.0" rx="0.15"  ry="0.15" /><rect height="1" width="1" x="105.0" y="16.0" rx="0.15"  ry="0.15" /><rect height="1" width="1" x="114.0" y="16.0" rx="0.15"  ry="0.15" /><rect height="1" width="1" x="43.0" y="18.0" rx="0.15"  ry="0.15" /><rect height="1" width="1" x="46.0" y="18.0" rx="0.15"  ry="0.15" /><rect height="1" width="1" x="65.0" y="18.0" rx="0.15"  ry="0.15" /><rect height="1" width="1" x="102.0" y="18.0" rx="0.15"  ry="0.15" /><rect height="3" width="3" x="15.0" y="20.0" rx="0.15"  ry="0.15" /><rect height="3" width="3" x="18.0" y="20.0" rx="0.15"  ry="0.15" /><rect height="3" width="3" x="21.0" y="20.0" rx="0.15"  ry="0.15" /><rect height="3" width="3" x="24.0" y="20.0" rx="0.15"  ry="0.15" /><rect height="3" width="3" x="27.0" y="20.0" rx="0.15"  ry="0.15" /><rect height="3" width="3" x="30.0" y="20.0" rx="0.15"  ry="0.15" /><rect height="3" width="3" x="33.0" y="20.0" rx="0.15"  ry="0.15" /><rect height="3" width="3" x="36.0" y="20.0" rx="0.15"  ry="0.15" /><rect height="3" width="3" x="39.0" y="20.0" rx="0.15"  ry="0.15" /><rect height="3" width="3" x="42.0" y="20.0" rx="0.15"  ry="0.15" /><rect height="3" width="3" x="45.0" y="20.0" rx="0.15"  ry="0.15" /><rect height="3" width="3" x="48.0" y="20.0" rx="0.15"  ry="0.15" /><rect height="3" width="3" x="51.0" y="20.0" rx="0.15"  ry="0.15" /><rect height="3" width="3" x="54.0" y="20.0" rx="0.15"  ry="0.15" /><rect height="3" width="3" x="57.0" y="20.0" rx="0.15"  ry="0.15" /><rect height="3" width="3" x="60.0" y="20.0" rx="0.15"  ry="0.15" /><rect height="3" width="3" x="63.0" y="20.0" rx="0.15"  ry="0.15" /><rect height="3" width="3" x="66.0" y="20.0" rx="0.15"  ry="0.15" /><rect height="1" width="1" x="102.0" y="21.0" rx="0.15"  ry="0.15" /><rect height="3" width="3" x="16.0" y="23.0" rx="0.15"  ry="0.15" /><rect height="3" width="3" x="19.0" y="23.0" rx="0.15"  ry="0.15" /><rect height="3" width="3" x="22.0" y="23.0" rx="0.15"  ry="0.15" /><rect height="3" width="3" x="25.0" y="23.0" rx="0.15"  ry="0.15" /><rect height="3" width="3" x="28.0" y="23.0" rx="0.15"  ry="0.15" /><rect height="1" width="1" x="33.0" y="23.0" rx="0.15"  ry="0.15" /><rect height="3" width="3" x="34.0" y="23.0" rx="0.15"  ry="0.15" /><rect height="3" width="3" x="37.0" y="23.0" rx="0.15"  ry="0.15" /><rect height="3" width="3" x="40.0" y="23.0" rx="0.15"  ry="0.15" /><rect height="3" width="3" x="43.0" y="23.0" rx="0.15"  ry="0.15" /><rect height="3" width="3" x="46.0" y="23.0" rx="0.15"  ry="0.15" /><rect height="1" width="1" x="50.0" y="23.0" rx="0.15"  ry="0.15" /><rect height="3" width="3" x="52.0" y="23.0" rx="0.15"  ry="0.15" /><rect height="3" width="3" x="55.0" y="23.0" rx="0.15"  ry="0.15" /><rect height="3" width="3" x="58.0" y="23.0" rx="0.15"  ry="0.15" /><rect height="3" width="3" x="61.0" y="23.0" rx="0.15"  ry="0.15" /><rect height="1" width="1" x="95.0" y="25.0" rx="0.15"  ry="0.15" /><rect height="1" width="1" x="102.0" y="28.0" rx="0.15"  ry="0.15" /><rect height="1" width="1" x="14.0" y="31.0" rx="0.15"  ry="0.15" /><rect height="1" width="1" x="33.0" y="31.0" rx="0.15"  ry="0.15" /><rect height="1" width="1" x="50.0" y="31.0" rx="0.15"  ry="0.15" /><rect height="1" width="1" x="66.0" y="31.0" rx="0.15"  ry="0.15" /><rect height="1" width="1" x="78.0" y="31.0" rx="0.15"  ry="0.15" /><rect height="1" width="1" x="102.0" y="30.0" rx="0.15"  ry="0.15" /><rect height="3" width="3" x="19.0" y="32.0" rx="0.15"  ry="0.15" /><rect height="3" width="3" x="22.0" y="32.0" rx="0.15"  ry="0.15" /><rect height="4" width="4" x="33.0" y="33.0" rx="0.15"  ry="0.15" /><rect height="3" width="3" x="69.0" y="32.0" rx="0.15"  ry="0.15" /><rect height="3" width="3" x="72.0" y="32.0" rx="0.15"  ry="0.15" /><rect height="4" width="4" x="83.0" y="33.0" rx="0.15"  ry="0.15" /><rect height="1" width="1" x="102.0" y="32.0" rx="0.15"  ry="0.15" /><rect height="3" width="3" x="30.0" y="34.0" rx="0.15"  ry="0.15" /><rect height="3" width="3" x="37.0" y="34.0" rx="0.15"  ry="0.15" /><rect height="3" width="3" x="40.0" y="34.0" rx="0.15"  ry="0.15" /><rect height="3" width="3" x="43.0" y="34.0" rx="0.15"  ry="0.15" /><rect height="3" width="3" x="46.0" y="34.0" rx="0.15"  ry="0.15" /><rect height="3" width="3" x="49.0" y="34.0" rx="0.15"  ry="0.15" /><rect height="3" width="3" x="52.0" y="34.0" rx="0.15"  ry="0.15" /><rect height="3" width="3" x="55.0" y="34.0" rx="0.15"  ry="0.15" /><rect height="3" width="3" x="58.0" y="34.0" rx="0.15"  ry="0.15" /><rect height="3" width="3" x="61.0" y="34.0" rx="0.15"  ry="0.15" /><rect height="3" width="3" x="88.0" y="34.0" rx="0.15"  ry="0.15" /><rect height="3" width="3" x="91.0" y="34.0" rx="0.15"  ry="0.15" /><rect height="1" width="1" x="95.0" y="35.0" rx="0.15"  ry="0.15" /><rect height="3" width="3" x="14.0" y="37.0" rx="0.15"  ry="0.15" /><rect height="3" width="3" x="17.0" y="37.0" rx="0.15"  ry="0.15" /><rect height="3" width="3" x="20.0" y="37.0" rx="0.15"  ry="0.15" /><rect height="3" width="3" x="23.0" y="37.0" rx="0.15"  ry="0.15" /><rect height="3" width="3" x="26.0" y="37.0" rx="0.15"  ry="0.15" /><rect height="3" width="3" x="29.0" y="37.0" rx="0.15"  ry="0.15" /><rect height="3" width="3" x="32.0" y="37.0" rx="0.15"  ry="0.15" /><rect height="3" width="3" x="35.0" y="37.0" rx="0.15"  ry="0.15" /><rect height="3" width="3" x="38.0" y="37.0" rx="0.15"  ry="0.15" /><rect height="3" width="3" x="41.0" y="37.0" rx="0.15"  ry="0.15" /><rect height="3" width="3" x="44.0" y="37.0" rx="0.15"  ry="0.15" /><rect height="3" width="3" x="47.0" y="37.0" rx="0.15"  ry="0.15" /><rect height="3" width="3" x="50.0" y="37.0" rx="0.15"  ry="0.15" /><rect height="3" width="3" x="53.0" y="37.0" rx="0.15"  ry="0.15" /><rect height="3" width="3" x="56.0" y="37.0" rx="0.15"  ry="0.15" /><rect height="3" width="3" x="59.0" y="37.0" rx="0.15"  ry="0.15" /><rect height="3" width="3" x="62.0" y="37.0" rx="0.15"  ry="0.15" /><rect height="3" width="3" x="65.0" y="37.0" rx="0.15"  ry="0.15" /><rect height="3" width="3" x="68.0" y="37.0" rx="0.15"  ry="0.15" /><rect height="3" width="3" x="71.0" y="37.0" rx="0.15"  ry="0.15" /><rect height="3" width="3" x="74.0" y="37.0" rx="0.15"  ry="0.15" /><rect height="3" width="3" x="77.0" y="37.0" rx="0.15"  ry="0.15" /><rect height="3" width="3" x="80.0" y="37.0" rx="0.15"  ry="0.15" /><rect height="3" width="3" x="83.0" y="37.0" rx="0.15"  ry="0.15" /><rect height="3" width="3" x="86.0" y="37.0" rx="0.15"  ry="0.15" /><rect height="3" width="3" x="89.0" y="37.0" rx="0.15"  ry="0.15" /><rect height="3" width="3" x="92.0" y="37.0" rx="0.15"  ry="0.15" /><rect height="3" width="3" x="95.0" y="37.0" rx="0.15"  ry="0.15" /><rect height="1" width="1" x="17.0" y="41.0" rx="0.15"  ry="0.15" /><rect height="3" width="3" x="19.0" y="40.0" rx="0.15"  ry="0.15" /><rect height="3" width="3" x="22.0" y="40.0" rx="0.15"  ry="0.15" /><rect height="3" width="3" x="25.0" y="40.0" rx="0.15"  ry="0.15" /><rect height="3" width="3" x="28.0" y="40.0" rx="0.15"  ry="0.15" /><rect height="3" width="3" x="34.0" y="40.0" rx="0.15"  ry="0.15" /><rect height="3" width="3" x="37.0" y="40.0" rx="0.15"  ry="0.15" /><rect height="3" width="3" x="40.0" y="40.0" rx="0.15"  ry="0.15" /><rect height="3" width="3" x="43.0" y="40.0" rx="0.15"  ry="0.15" /><rect height="3" width="3" x="46.0" y="40.0" rx="0.15"  ry="0.15" /><rect height="3" width="3" x="52.0" y="40.0" rx="0.15"  ry="0.15" /><rect height="3" width="3" x="55.0" y="40.0" rx="0.15"  ry="0.15" /><rect height="3" width="3" x="58.0" y="40.0" rx="0.15"  ry="0.15" /><rect height="3" width="3" x="61.0" y="40.0" rx="0.15"  ry="0.15" /><rect height="3" width="3" x="64.0" y="40.0" rx="0.15"  ry="0.15" /><rect height="3" width="3" x="72.0" y="41.0" rx="0.15"  ry="0.15" /><rect height="3" width="3" x="75.0" y="41.0" rx="0.15"  ry="0.15" /><rect height="3" width="3" x="79.0" y="40.0" rx="0.15"  ry="0.15" /><rect height="3" width="3" x="82.0" y="40.0" rx="0.15"  ry="0.15" /><rect height="3" width="3" x="88.0" y="40.0" rx="0.15"  ry="0.15" /><rect height="3" width="3" x="91.0" y="40.0" rx="0.15"  ry="0.15" /><rect height="1" width="1" x="5.0" y="43.0" rx="0.15"  ry="0.15" /><rect height="1" width="1" x="14.0" y="43.0" rx="0.15"  ry="0.15" /><rect height="1" width="1" x="32.0" y="42.0" rx="0.15"  ry="0.15" /><rect height="1" width="1" x="50.0" y="42.0" rx="0.15"  ry="0.15" /><rect height="1" width="1" x="69.0" y="42.0" rx="0.15"  ry="0.15" /><rect height="1" width="1" x="86.0" y="42.0" rx="0.15"  ry="0.15" /><rect height="1" width="1" x="105.0" y="43.0" rx="0.15"  ry="0.15" /><rect height="1" width="1" x="114.0" y="43.0" rx="0.15"  ry="0.15" /><rect height="1" width="1" x="5.0" y="46.0" rx="0.15"  ry="0.15" /><rect height="1" width="1" x="14.0" y="47.0" rx="0.15"  ry="0.15" /><rect height="1" width="1" x="14.0" y="46.0" rx="0.15"  ry="0.15" /><rect height="1" width="1" x="18.0" y="47.0" rx="0.15"  ry="0.15" /><rect height="3" width="3" x="72.0" y="47.0" rx="0.15"  ry="0.15" /><rect height="3" width="3" x="75.0" y="47.0" rx="0.15"  ry="0.15" /><rect height="1" width="1" x="105.0" y="46.0" rx="0.15"  ry="0.15" /><rect height="1" width="1" x="114.0" y="46.0" rx="0.15"  ry="0.15" /><rect height="1" width="1" x="17.0" y="49.0" rx="0.15"  ry="0.15" /><rect height="3" width="3" x="19.0" y="48.0" rx="0.15"  ry="0.15" /><rect height="3" width="3" x="22.0" y="48.0" rx="0.15"  ry="0.15" /><rect height="3" width="3" x="25.0" y="48.0" rx="0.15"  ry="0.15" /><rect height="3" width="3" x="28.0" y="48.0" rx="0.15"  ry="0.15" /><rect height="1" width="1" x="32.0" y="49.0" rx="0.15"  ry="0.15" /><rect height="3" width="3" x="34.0" y="48.0" rx="0.15"  ry="0.15" /><rect height="3" width="3" x="37.0" y="48.0" rx="0.15"  ry="0.15" /><rect height="3" width="3" x="40.0" y="48.0" rx="0.15"  ry="0.15" /><rect height="3" width="3" x="43.0" y="48.0" rx="0.15"  ry="0.15" /><rect height="3" width="3" x="46.0" y="48.0" rx="0.15"  ry="0.15" /><rect height="1" width="1" x="50.0" y="49.0" rx="0.15"  ry="0.15" /><rect height="3" width="3" x="52.0" y="48.0" rx="0.15"  ry="0.15" /><rect height="3" width="3" x="55.0" y="48.0" rx="0.15"  ry="0.15" /><rect height="3" width="3" x="58.0" y="48.0" rx="0.15"  ry="0.15" /><rect height="3" width="3" x="61.0" y="48.0" rx="0.15"  ry="0.15" /><rect height="3" width="3" x="64.0" y="48.0" rx="0.15"  ry="0.15" /><rect height="1" width="1" x="69.0" y="49.0" rx="0.15"  ry="0.15" /><rect height="3" width="3" x="79.0" y="48.0" rx="0.15"  ry="0.15" /><rect height="1" width="1" x="78.0" y="49.0" rx="0.15"  ry="0.15" /><rect height="3" width="3" x="82.0" y="48.0" rx="0.15"  ry="0.15" /><rect height="1" width="1" x="86.0" y="49.0" rx="0.15"  ry="0.15" /><rect height="3" width="3" x="88.0" y="48.0" rx="0.15"  ry="0.15" /><rect height="3" width="3" x="91.0" y="48.0" rx="0.15"  ry="0.15" /><rect height="1" width="1" x="95.0" y="49.0" rx="0.15"  ry="0.15" /><rect height="3" width="3" x="14.0" y="51.0" rx="0.15"  ry="0.15" /><rect height="3" width="3" x="17.0" y="51.0" rx="0.15"  ry="0.15" /><rect height="3" width="3" x="20.0" y="51.0" rx="0.15"  ry="0.15" /><rect height="3" width="3" x="23.0" y="51.0" rx="0.15"  ry="0.15" /><rect height="3" width="3" x="26.0" y="51.0" rx="0.15"  ry="0.15" /><rect height="3" width="3" x="29.0" y="51.0" rx="0.15"  ry="0.15" /><rect height="3" width="3" x="32.0" y="51.0" rx="0.15"  ry="0.15" /><rect height="3" width="3" x="35.0" y="51.0" rx="0.15"  ry="0.15" /><rect height="3" width="3" x="38.0" y="51.0" rx="0.15"  ry="0.15" /><rect height="3" width="3" x="41.0" y="51.0" rx="0.15"  ry="0.15" /><rect height="3" width="3" x="44.0" y="51.0" rx="0.15"  ry="0.15" /><rect height="3" width="3" x="47.0" y="51.0" rx="0.15"  ry="0.15" /><rect height="3" width="3" x="50.0" y="51.0" rx="0.15"  ry="0.15" /><rect height="3" width="3" x="53.0" y="51.0" rx="0.15"  ry="0.15" /><rect height="3" width="3" x="56.0" y="51.0" rx="0.15"  ry="0.15" /><rect height="3" width="3" x="59.0" y="51.0" rx="0.15"  ry="0.15" /><rect height="3" width="3" x="62.0" y="51.0" rx="0.15"  ry="0.15" /><rect height="3" width="3" x="65.0" y="51.0" rx="0.15"  ry="0.15" /><rect height="3" width="3" x="68.0" y="51.0" rx="0.15"  ry="0.15" /><rect height="3" width="3" x="71.0" y="51.0" rx="0.15"  ry="0.15" /><rect height="3" width="3" x="74.0" y="51.0" rx="0.15"  ry="0.15" /><rect height="3" width="3" x="77.0" y="51.0" rx="0.15"  ry="0.15" /><rect height="3" width="3" x="80.0" y="51.0" rx="0.15"  ry="0.15" /><rect height="3" width="3" x="83.0" y="51.0" rx="0.15"  ry="0.15" /><rect height="3" width="3" x="86.0" y="51.0" rx="0.15"  ry="0.15" /><rect height="3" width="3" x="89.0" y="51.0" rx="0.15"  ry="0.15" /><rect height="3" width="3" x="92.0" y="51.0" rx="0.15"  ry="0.15" /><rect height="1" width="1" x="102.0" y="50.0" rx="0.15"  ry="0.15" /><rect height="1" width="1" x="102.0" y="52.0" rx="0.15"  ry="0.15" /><rect height="1" width="1" x="17.0" y="54.0" rx="0.15"  ry="0.15" /><rect height="3" width="3" x="19.0" y="54.0" rx="0.15"  ry="0.15" /><rect height="3" width="3" x="22.0" y="54.0" rx="0.15"  ry="0.15" /><rect height="3" width="3" x="25.0" y="54.0" rx="0.15"  ry="0.15" /><rect height="3" width="3" x="28.0" y="54.0" rx="0.15"  ry="0.15" /><rect height="1" width="1" x="32.0" y="54.0" rx="0.15"  ry="0.15" /><rect height="3" width="3" x="34.0" y="54.0" rx="0.15"  ry="0.15" /><rect height="3" width="3" x="37.0" y="54.0" rx="0.15"  ry="0.15" /><rect height="3" width="3" x="40.0" y="54.0" rx="0.15"  ry="0.15" /><rect height="3" width="3" x="43.0" y="54.0" rx="0.15"  ry="0.15" /><rect height="3" width="3" x="46.0" y="54.0" rx="0.15"  ry="0.15" /><rect height="1" width="1" x="50.0" y="54.0" rx="0.15"  ry="0.15" /><rect height="3" width="3" x="52.0" y="54.0" rx="0.15"  ry="0.15" /><rect height="3" width="3" x="55.0" y="54.0" rx="0.15"  ry="0.15" /><rect height="3" width="3" x="58.0" y="54.0" rx="0.15"  ry="0.15" /><rect height="3" width="3" x="61.0" y="54.0" rx="0.15"  ry="0.15" /><rect height="3" width="3" x="64.0" y="54.0" rx="0.15"  ry="0.15" /><rect height="1" width="1" x="68.0" y="54.0" rx="0.15"  ry="0.15" /><rect height="3" width="3" x="70.0" y="54.0" rx="0.15"  ry="0.15" /><rect height="3" width="3" x="73.0" y="54.0" rx="0.15"  ry="0.15" /><rect height="3" width="3" x="76.0" y="54.0" rx="0.15"  ry="0.15" /><rect height="3" width="3" x="79.0" y="54.0" rx="0.15"  ry="0.15" /><rect height="3" width="3" x="82.0" y="54.0" rx="0.15"  ry="0.15" /><rect height="1" width="1" x="86.0" y="54.0" rx="0.15"  ry="0.15" /><rect height="3" width="3" x="88.0" y="54.0" rx="0.15"  ry="0.15" /><rect height="3" width="3" x="91.0" y="54.0" rx="0.15"  ry="0.15" /><rect height="1" width="1" x="95.0" y="55.0" rx="0.15"  ry="0.15" /><rect height="1" width="1" x="102.0" y="58.0" rx="0.15"  ry="0.15" /><rect height="1" width="1" x="18.0" y="61.0" rx="0.15"  ry="0.15" /><rect height="3" width="3" x="19.0" y="61.0" rx="0.15"  ry="0.15" /><rect height="3" width="3" x="22.0" y="61.0" rx="0.15"  ry="0.15" /><rect height="3" width="3" x="25.0" y="61.0" rx="0.15"  ry="0.15" /><rect height="3" width="3" x="28.0" y="61.0" rx="0.15"  ry="0.15" /><rect height="3" width="3" x="34.0" y="61.0" rx="0.15"  ry="0.15" /><rect height="3" width="3" x="37.0" y="61.0" rx="0.15"  ry="0.15" /><rect height="3" width="3" x="40.0" y="61.0" rx="0.15"  ry="0.15" /><rect height="3" width="3" x="43.0" y="61.0" rx="0.15"  ry="0.15" /><rect height="3" width="3" x="46.0" y="61.0" rx="0.15"  ry="0.15" /><rect height="3" width="3" x="52.0" y="61.0" rx="0.15"  ry="0.15" /><rect height="3" width="3" x="55.0" y="61.0" rx="0.15"  ry="0.15" /><rect height="3" width="3" x="58.0" y="61.0" rx="0.15"  ry="0.15" /><rect height="3" width="3" x="61.0" y="61.0" rx="0.15"  ry="0.15" /><rect height="3" width="3" x="64.0" y="61.0" rx="0.15"  ry="0.15" /><rect height="3" width="3" x="67.0" y="61.0" rx="0.15"  ry="0.15" /><rect height="3" width="3" x="70.0" y="61.0" rx="0.15"  ry="0.15" /><rect height="3" width="3" x="73.0" y="61.0" rx="0.15"  ry="0.15" /><rect height="3" width="3" x="76.0" y="61.0" rx="0.15"  ry="0.15" /><rect height="3" width="3" x="79.0" y="61.0" rx="0.15"  ry="0.15" /><rect height="3" width="3" x="82.0" y="61.0" rx="0.15"  ry="0.15" /><rect height="3" width="3" x="85.0" y="61.0" rx="0.15"  ry="0.15" /><rect height="3" width="3" x="88.0" y="61.0" rx="0.15"  ry="0.15" /><rect height="1" width="1" x="102.0" y="60.0" rx="0.15"  ry="0.15" /><rect height="1" width="1" x="17.0" y="62.0" rx="0.15"  ry="0.15" /><rect height="1" width="1" x="32.0" y="62.0" rx="0.15"  ry="0.15" /><rect height="1" width="1" x="50.0" y="62.0" rx="0.15"  ry="0.15" /><rect height="3" width="3" x="14.0" y="64.0" rx="0.15"  ry="0.15" /><rect height="3" width="3" x="17.0" y="64.0" rx="0.15"  ry="0.15" /><rect height="3" width="3" x="20.0" y="64.0" rx="0.15"  ry="0.15" /><rect height="3" width="3" x="23.0" y="64.0" rx="0.15"  ry="0.15" /><rect height="3" width="3" x="26.0" y="64.0" rx="0.15"  ry="0.15" /><rect height="3" width="3" x="29.0" y="64.0" rx="0.15"  ry="0.15" /><rect height="3" width="3" x="32.0" y="64.0" rx="0.15"  ry="0.15" /><rect height="3" width="3" x="35.0" y="64.0" rx="0.15"  ry="0.15" /><rect height="3" width="3" x="38.0" y="64.0" rx="0.15"  ry="0.15" /><rect height="3" width="3" x="41.0" y="64.0" rx="0.15"  ry="0.15" /><rect height="3" width="3" x="44.0" y="64.0" rx="0.15"  ry="0.15" /><rect height="3" width="3" x="47.0" y="64.0" rx="0.15"  ry="0.15" /><rect height="3" width="3" x="50.0" y="64.0" rx="0.15"  ry="0.15" /><rect height="3" width="3" x="53.0" y="64.0" rx="0.15"  ry="0.15" /><rect height="3" width="3" x="56.0" y="64.0" rx="0.15"  ry="0.15" /><rect height="3" width="3" x="59.0" y="64.0" rx="0.15"  ry="0.15" /><rect height="3" width="3" x="62.0" y="64.0" rx="0.15"  ry="0.15" /><rect height="3" width="3" x="65.0" y="64.0" rx="0.15"  ry="0.15" /><rect height="3" width="3" x="68.0" y="64.0" rx="0.15"  ry="0.15" /><rect height="3" width="3" x="71.0" y="64.0" rx="0.15"  ry="0.15" /><rect height="3" width="3" x="74.0" y="64.0" rx="0.15"  ry="0.15" /><rect height="3" width="3" x="77.0" y="64.0" rx="0.15"  ry="0.15" /><rect height="3" width="3" x="80.0" y="64.0" rx="0.15"  ry="0.15" /><rect height="3" width="3" x="83.0" y="64.0" rx="0.15"  ry="0.15" /><rect height="3" width="3" x="86.0" y="64.0" rx="0.15"  ry="0.15" /><rect height="3" width="3" x="89.0" y="64.0" rx="0.15"  ry="0.15" /><rect height="3" width="3" x="92.0" y="64.0" rx="0.15"  ry="0.15" /><rect height="1" width="1" x="102.0" y="65.0" rx="0.15"  ry="0.15" /><rect height="3" width="3" x="19.0" y="67.0" rx="0.15"  ry="0.15" /><rect height="3" width="3" x="22.0" y="67.0" rx="0.15"  ry="0.15" /><rect height="3" width="3" x="25.0" y="67.0" rx="0.15"  ry="0.15" /><rect height="3" width="3" x="28.0" y="67.0" rx="0.15"  ry="0.15" /><rect height="3" width="3" x="31.0" y="67.0" rx="0.15"  ry="0.15" /><rect height="3" width="3" x="34.0" y="67.0" rx="0.15"  ry="0.15" /><rect height="3" width="3" x="37.0" y="67.0" rx="0.15"  ry="0.15" /><rect height="3" width="3" x="40.0" y="67.0" rx="0.15"  ry="0.15" /><rect height="3" width="3" x="43.0" y="67.0" rx="0.15"  ry="0.15" /><rect height="3" width="3" x="46.0" y="67.0" rx="0.15"  ry="0.15" /><rect height="3" width="3" x="51.0" y="67.0" rx="0.15"  ry="0.15" /><rect height="3" width="3" x="73.0" y="67.0" rx="0.15"  ry="0.15" /><rect height="3" width="3" x="76.0" y="67.0" rx="0.15"  ry="0.15" /><rect height="3" width="3" x="82.0" y="67.0" rx="0.15"  ry="0.15" /><rect height="3" width="3" x="85.0" y="67.0" rx="0.15"  ry="0.15" /><rect height="1" width="1" x="102.0" y="67.0" rx="0.15"  ry="0.15" /><rect height="1" width="1" x="18.0" y="69.0" rx="0.15"  ry="0.15" /><rect height="3" width="3" x="57.0" y="68.0" rx="0.15"  ry="0.15" /><rect height="3" width="3" x="60.0" y="68.0" rx="0.15"  ry="0.15" /><rect height="1" width="1" x="64.0" y="68.0" rx="0.15"  ry="0.15" /><rect height="3" width="3" x="65.0" y="68.0" rx="0.15"  ry="0.15" /><rect height="3" width="3" x="68.0" y="68.0" rx="0.15"  ry="0.15" /><rect height="1" width="1" x="95.0" y="68.0" rx="0.15"  ry="0.15" /><rect height="1" width="1" x="102.0" y="69.0" rx="0.15"  ry="0.15" /><rect height="1" width="1" x="5.0" y="73.0" rx="0.15"  ry="0.15" /><rect height="1" width="1" x="14.0" y="73.0" rx="0.15"  ry="0.15" /><rect height="1" width="1" x="79.0" y="72.0" rx="0.15"  ry="0.15" /><rect height="1" width="1" x="82.0" y="72.0" rx="0.15"  ry="0.15" /><rect height="1" width="1" x="105.0" y="73.0" rx="0.15"  ry="0.15" /><rect height="1" width="1" x="114.0" y="73.0" rx="0.15"  ry="0.15" /><rect height="3" width="3" x="19.0" y="74.0" rx="0.15"  ry="0.15" /><rect height="3" width="3" x="22.0" y="74.0" rx="0.15"  ry="0.15" /><rect height="3" width="3" x="25.0" y="74.0" rx="0.15"  ry="0.15" /><rect height="3" width="3" x="28.0" y="74.0" rx="0.15"  ry="0.15" /><rect height="1" width="1" x="33.0" y="75.0" rx="0.15"  ry="0.15" /><rect height="3" width="3" x="37.0" y="74.0" rx="0.15"  ry="0.15" /><rect height="3" width="3" x="42.0" y="74.0" rx="0.15"  ry="0.15" /><rect height="3" width="3" x="47.0" y="74.0" rx="0.15"  ry="0.15" /><rect height="1" width="1" x="50.0" y="75.0" rx="0.15"  ry="0.15" /><rect height="1" width="1" x="5.0" y="76.0" rx="0.15"  ry="0.15" /><rect height="3" width="3" x="14.0" y="77.0" rx="0.15"  ry="0.15" /><rect height="1" width="1" x="14.0" y="76.0" rx="0.15"  ry="0.15" /><rect height="3" width="3" x="17.0" y="77.0" rx="0.15"  ry="0.15" /><rect height="3" width="3" x="20.0" y="77.0" rx="0.15"  ry="0.15" /><rect height="3" width="3" x="23.0" y="77.0" rx="0.15"  ry="0.15" /><rect height="3" width="3" x="26.0" y="77.0" rx="0.15"  ry="0.15" /><rect height="3" width="3" x="29.0" y="77.0" rx="0.15"  ry="0.15" /><rect height="3" width="3" x="32.0" y="77.0" rx="0.15"  ry="0.15" /><rect height="3" width="3" x="35.0" y="77.0" rx="0.15"  ry="0.15" /><rect height="3" width="3" x="38.0" y="77.0" rx="0.15"  ry="0.15" /><rect height="3" width="3" x="41.0" y="77.0" rx="0.15"  ry="0.15" /><rect height="3" width="3" x="44.0" y="77.0" rx="0.15"  ry="0.15" /><rect height="3" width="3" x="47.0" y="77.0" rx="0.15"  ry="0.15" /><rect height="3" width="3" x="50.0" y="77.0" rx="0.15"  ry="0.15" /><rect height="3" width="3" x="53.0" y="77.0" rx="0.15"  ry="0.15" /><rect height="3" width="3" x="56.0" y="77.0" rx="0.15"  ry="0.15" /><rect height="3" width="3" x="59.0" y="77.0" rx="0.15"  ry="0.15" /><rect height="3" width="3" x="62.0" y="77.0" rx="0.15"  ry="0.15" /><rect height="3" width="3" x="65.0" y="77.0" rx="0.15"  ry="0.15" /><rect height="3" width="3" x="68.0" y="77.0" rx="0.15"  ry="0.15" /><rect height="3" width="3" x="71.0" y="77.0" rx="0.15"  ry="0.15" /><rect height="3" width="3" x="74.0" y="77.0" rx="0.15"  ry="0.15" /><rect height="1" width="1" x="95.0" y="76.0" rx="0.15"  ry="0.15" /><rect height="1" width="1" x="105.0" y="76.0" rx="0.15"  ry="0.15" /><rect height="1" width="1" x="114.0" y="76.0" rx="0.15"  ry="0.15" /><rect height="1" width="1" x="102.0" y="78.0" rx="0.15"  ry="0.15" /><rect height="1" width="1" x="14.0" y="81.0" rx="0.15"  ry="0.15" /><rect height="3" width="3" x="18.0" y="80.0" rx="0.15"  ry="0.15" /><rect height="3" width="3" x="21.0" y="80.0" rx="0.15"  ry="0.15" /><rect height="3" width="3" x="24.0" y="80.0" rx="0.15"  ry="0.15" /><rect height="3" width="3" x="27.0" y="80.0" rx="0.15"  ry="0.15" /><rect height="1" width="1" x="33.0" y="81.0" rx="0.15"  ry="0.15" /><rect height="3" width="3" x="37.0" y="80.0" rx="0.15"  ry="0.15" /><rect height="3" width="3" x="40.0" y="80.0" rx="0.15"  ry="0.15" /><rect height="3" width="3" x="43.0" y="80.0" rx="0.15"  ry="0.15" /><rect height="3" width="3" x="46.0" y="80.0" rx="0.15"  ry="0.15" /><rect height="3" width="3" x="49.0" y="80.0" rx="0.15"  ry="0.15" /><rect height="3" width="3" x="52.0" y="80.0" rx="0.15"  ry="0.15" /><rect height="3" width="3" x="55.0" y="80.0" rx="0.15"  ry="0.15" /><rect height="3" width="3" x="58.0" y="80.0" rx="0.15"  ry="0.15" /><rect height="3" width="3" x="63.0" y="81.0" rx="0.15"  ry="0.15" /><rect height="1" width="1" x="64.0" y="80.0" rx="0.15"  ry="0.15" /><rect height="3" width="3" x="69.0" y="81.0" rx="0.15"  ry="0.15" /><rect height="1" width="1" x="102.0" y="80.0" rx="0.15"  ry="0.15" /><rect height="4" width="4" x="33.0" y="83.0" rx="0.15"  ry="0.15" /><rect height="4" width="4" x="83.0" y="83.0" rx="0.15"  ry="0.15" /><rect height="1" width="1" x="102.0" y="82.0" rx="0.15"  ry="0.15" /><rect height="1" width="1" x="19.0" y="85.0" rx="0.15"  ry="0.15" /><rect height="3" width="3" x="64.0" y="85.0" rx="0.15"  ry="0.15" /><rect height="3" width="3" x="70.0" y="85.0" rx="0.15"  ry="0.15" /><rect height="1" width="1" x="81.0" y="85.0" rx="0.15"  ry="0.15" /><rect height="1" width="1" x="95.0" y="85.0" rx="0.15"  ry="0.15" /><rect height="1" width="1" x="102.0" y="85.0" rx="0.15"  ry="0.15" /><rect height="1" width="1" x="15.0" y="87.0" rx="0.15"  ry="0.15" /><rect height="3" width="3" x="18.0" y="87.0" rx="0.15"  ry="0.15" /><rect height="3" width="3" x="21.0" y="87.0" rx="0.15"  ry="0.15" /><rect height="3" width="3" x="24.0" y="87.0" rx="0.15"  ry="0.15" /><rect height="3" width="3" x="27.0" y="87.0" rx="0.15"  ry="0.15" /><rect height="3" width="3" x="40.0" y="87.0" rx="0.15"  ry="0.15" /><rect height="3" width="3" x="43.0" y="87.0" rx="0.15"  ry="0.15" /><rect height="3" width="3" x="46.0" y="87.0" rx="0.15"  ry="0.15" /><rect height="3" width="3" x="52.0" y="87.0" rx="0.15"  ry="0.15" /><rect height="3" width="3" x="55.0" y="87.0" rx="0.15"  ry="0.15" /><rect height="3" width="3" x="58.0" y="87.0" rx="0.15"  ry="0.15" /><rect height="3" width="3" x="61.0" y="87.0" rx="0.15"  ry="0.15" /><rect height="1" width="1" x="16.0" y="88.0" rx="0.15"  ry="0.15" /><rect height="1" width="1" x="36.0" y="88.0" rx="0.15"  ry="0.15" /><rect height="1" width="1" x="49.0" y="88.0" rx="0.15"  ry="0.15" /><rect height="1" width="1" x="67.0" y="89.0" rx="0.15"  ry="0.15" /><rect height="3" width="3" x="14.0" y="90.0" rx="0.15"  ry="0.15" /><rect height="3" width="3" x="17.0" y="90.0" rx="0.15"  ry="0.15" /><rect height="3" width="3" x="20.0" y="90.0" rx="0.15"  ry="0.15" /><rect height="3" width="3" x="23.0" y="90.0" rx="0.15"  ry="0.15" /><rect height="3" width="3" x="26.0" y="90.0" rx="0.15"  ry="0.15" /><rect height="3" width="3" x="29.0" y="90.0" rx="0.15"  ry="0.15" /><rect height="3" width="3" x="32.0" y="90.0" rx="0.15"  ry="0.15" /><rect height="3" width="3" x="35.0" y="90.0" rx="0.15"  ry="0.15" /><rect height="3" width="3" x="38.0" y="90.0" rx="0.15"  ry="0.15" /><rect height="3" width="3" x="41.0" y="90.0" rx="0.15"  ry="0.15" /><rect height="3" width="3" x="44.0" y="90.0" rx="0.15"  ry="0.15" /><rect height="3" width="3" x="47.0" y="90.0" rx="0.15"  ry="0.15" /><rect height="3" width="3" x="50.0" y="90.0" rx="0.15"  ry="0.15" /><rect height="3" width="3" x="53.0" y="90.0" rx="0.15"  ry="0.15" /><rect height="3" width="3" x="56.0" y="90.0" rx="0.15"  ry="0.15" /><rect height="3" width="3" x="59.0" y="90.0" rx="0.15"  ry="0.15" /><rect height="3" width="3" x="62.0" y="90.0" rx="0.15"  ry="0.15" /><rect height="3" width="3" x="65.0" y="90.0" rx="0.15"  ry="0.15" /><rect height="3" width="3" x="68.0" y="90.0" rx="0.15"  ry="0.15" /><rect height="3" width="3" x="71.0" y="90.0" rx="0.15"  ry="0.15" /><rect height="3" width="3" x="74.0" y="90.0" rx="0.15"  ry="0.15" /><rect height="3" width="3" x="18.0" y="93.0" rx="0.15"  ry="0.15" /><rect height="3" width="3" x="21.0" y="93.0" rx="0.15"  ry="0.15" /><rect height="3" width="3" x="24.0" y="93.0" rx="0.15"  ry="0.15" /><rect height="3" width="3" x="27.0" y="93.0" rx="0.15"  ry="0.15" /><rect height="3" width="3" x="30.0" y="93.0" rx="0.15"  ry="0.15" /><rect height="3" width="3" x="33.0" y="93.0" rx="0.15"  ry="0.15" /><rect height="3" width="3" x="36.0" y="93.0" rx="0.15"  ry="0.15" /><rect height="3" width="3" x="39.0" y="93.0" rx="0.15"  ry="0.15" /><rect height="3" width="3" x="42.0" y="93.0" rx="0.15"  ry="0.15" /><rect height="3" width="3" x="45.0" y="93.0" rx="0.15"  ry="0.15" /><rect height="3" width="3" x="48.0" y="93.0" rx="0.15"  ry="0.15" /><rect height="3" width="3" x="51.0" y="93.0" rx="0.15"  ry="0.15" /><rect height="3" width="3" x="54.0" y="93.0" rx="0.15"  ry="0.15" /><rect height="3" width="3" x="57.0" y="93.0" rx="0.15"  ry="0.15" /><rect height="3" width="3" x="60.0" y="93.0" rx="0.15"  ry="0.15" /><rect height="3" width="3" x="63.0" y="93.0" rx="0.15"  ry="0.15" /><rect height="3" width="3" x="66.0" y="93.0" rx="0.15"  ry="0.15" /><rect height="3" width="3" x="69.0" y="93.0" rx="0.15"  ry="0.15" /><rect height="3" width="3" x="72.0" y="93.0" rx="0.15"  ry="0.15" /><rect height="1" width="1" x="28.0" y="97.0" rx="0.15"  ry="0.15" /><rect height="1" width="1" x="31.0" y="97.0" rx="0.15"  ry="0.15" /><rect height="1" width="1" x="34.0" y="97.0" rx="0.15"  ry="0.15" /><rect height="1" width="1" x="40.0" y="97.0" rx="0.15"  ry="0.15" /><rect height="1" width="1" x="46.0" y="97.0" rx="0.15"  ry="0.15" /><rect height="1" width="1" x="52.0" y="97.0" rx="0.15"  ry="0.15" /><rect height="1" width="1" x="58.0" y="97.0" rx="0.15"  ry="0.15" /><rect height="1" width="1" x="61.0" y="97.0" rx="0.15"  ry="0.15" /><rect height="1" width="1" x="64.0" y="97.0" rx="0.15"  ry="0.15" /><rect height="1" width="1" x="70.0" y="97.0" rx="0.15"  ry="0.15" /><rect height="1" width="1" x="76.0" y="97.0" rx="0.15"  ry="0.15" /><rect height="1" width="1" x="81.0" y="97.0" rx="0.15"  ry="0.15" /><rect height="1" width="1" x="95.0" y="97.0" rx="0.15"  ry="0.15" /><rect height="1" width="1" x="15.0" y="101.0" rx="0.15"  ry="0.15" /><rect height="1" width="1" x="5.0" y="103.0" rx="0.15"  ry="0.15" /><rect height="1" width="1" x="14.0" y="103.0" rx="0.15"  ry="0.15" /><rect height="1" width="1" x="105.0" y="103.0" rx="0.15"  ry="0.15" /><rect height="1" width="1" x="114.0" y="103.0" rx="0.15"  ry="0.15" /><rect height="1" width="1" x="3.0" y="105.0" rx="0.15"  ry="0.15" /><rect height="1" width="1" x="16.0" y="105.0" rx="0.15"  ry="0.15" /><rect height="1" width="1" x="43.0" y="105.0" rx="0.15"  ry="0.15" /><rect height="1" width="1" x="46.0" y="105.0" rx="0.15"  ry="0.15" /><rect height="1" width="1" x="73.0" y="105.0" rx="0.15"  ry="0.15" /><rect height="1" width="1" x="76.0" y="105.0" rx="0.15"  ry="0.15" /><rect height="1" width="1" x="103.0" y="105.0" rx="0.15"  ry="0.15" /><rect height="1" width="1" x="116.0" y="105.0" rx="0.15"  ry="0.15" /><rect height="1" width="1" x="3.0" y="114.0" rx="0.15"  ry="0.15" /><rect height="1" width="1" x="16.0" y="114.0" rx="0.15"  ry="0.15" /><rect height="1" width="1" x="43.0" y="114.0" rx="0.15"  ry="0.15" /><rect height="1" width="1" x="46.0" y="114.0" rx="0.15"  ry="0.15" /><rect height="1" width="1" x="73.0" y="114.0" rx="0.15"  ry="0.15" /><rect height="1" width="1" x="76.0" y="114.0" rx="0.15"  ry="0.15" /><rect height="1" width="1" x="103.0" y="114.0" rx="0.15"  ry="0.15" /><rect height="1" width="1" x="116.0" y="114.0" rx="0.15"  ry="0.15" /><rect height="1" width="1" x="5.0" y="116.0" rx="0.15"  ry="0.15" /><rect height="1" width="1" x="14.0" y="116.0" rx="0.15"  ry="0.15" /><rect height="1" width="1" x="105.0" y="116.0" rx="0.15"  ry="0.15" /><rect height="1" width="1" x="114.0" y="116.0" rx="0.15"  ry="0.15" /></g><g stroke="#ef767a" stroke-width="0.8" stroke-linecap="round"><path d="M19.5 14.5 24.5 14.5M25.5 14.5 30.5 14.5M31.5 14.5 36.5 14.5M37.5 14.5 41.5 14.5M42.5 14.5 47.5 14.5M48.5 14.5 52.5 14.5M53.5 14.5 58.5 14.5M59.5 14.5 64.5 14.5M65.5 14.5 68.5 14.5M69.5 15.5 69.5 19.5M70.5 20.5 75.5 20.5M76.5 20.5 81.5 20.5M82.5 20.5 87.5 20.5M82.5 25.5 77.5 25.5M88.5 25.5 83.5 25.5M93.5 24.5 98.5 24.5M93.5 25.5 89.5 25.5M99.5 25.5 94.5 25.5M69.5 27.5 69.5 22.5M77.5 26.5 72.5 26.5M82.5 26.5 78.5 26.5M87.5 27.5 87.5 31.5M93.5 26.5 88.5 26.5M99.5 26.5 94.5 26.5M19.5 28.5 24.5 28.5M25.5 28.5 30.5 28.5M31.5 28.5 36.5 28.5M37.5 28.5 42.5 28.5M43.5 28.5 48.5 28.5M42.5 29.5 37.5 29.5M48.5 29.5 43.5 29.5M52.5 28.5 57.5 28.5M54.5 29.5 49.5 29.5M58.5 28.5 62.5 28.5M60.5 29.5 55.5 29.5M63.5 28.5 68.5 28.5M69.5 29.5 64.5 29.5M75.5 29.5 70.5 29.5M60.5 30.5 64.5 30.5M65.5 30.5 65.5 25.5M86.5 31.5 90.5 31.5M37.5 32.5 42.5 32.5M43.5 32.5 48.5 32.5M49.5 32.5 54.5 32.5M55.5 32.5 59.5 32.5M80.5 32.5 83.5 32.5M84.5 32.5 87.5 32.5M88.5 32.5 93.5 32.5M101.5 35.5 101.5 39.5M70.5 36.5 70.5 40.5M100.5 39.5 100.5 35.5M70.5 41.5 70.5 43.5M99.5 42.5 99.5 37.5M27.5 44.5 22.5 44.5M33.5 44.5 28.5 44.5M39.5 44.5 34.5 44.5M45.5 44.5 40.5 44.5M51.5 44.5 46.5 44.5M57.5 44.5 52.5 44.5M63.5 44.5 58.5 44.5M68.5 45.5 71.5 45.5M69.5 44.5 64.5 44.5M72.5 45.5 74.5 45.5M83.5 45.5 80.5 45.5M84.5 44.5 79.5 44.5M88.5 45.5 84.5 45.5M92.5 45.5 89.5 45.5M93.5 44.5 88.5 44.5M97.5 44.5 94.5 44.5M100.5 44.5 100.5 40.5M27.5 46.5 22.5 46.5M33.5 46.5 28.5 46.5M39.5 46.5 34.5 46.5M45.5 46.5 40.5 46.5M51.5 46.5 46.5 46.5M57.5 46.5 52.5 46.5M63.5 46.5 58.5 46.5M69.5 46.5 64.5 46.5M81.5 47.5 79.5 47.5M99.5 47.5 99.5 43.5M99.5 46.5 95.5 46.5M95.5 51.5 95.5 48.5M100.5 52.5 100.5 49.5M101.5 52.5 101.5 47.5M67.5 54.5 67.5 49.5M67.5 57.5 67.5 55.5M95.5 56.5 95.5 52.5M96.5 56.5 96.5 61.5M27.5 58.5 22.5 58.5M33.5 58.5 28.5 58.5M39.5 58.5 34.5 58.5M45.5 58.5 40.5 58.5M51.5 58.5 46.5 58.5M57.5 58.5 52.5 58.5M63.5 58.5 58.5 58.5M67.5 58.5 64.5 58.5M66.5 59.5 61.5 59.5M72.5 59.5 67.5 59.5M75.5 58.5 70.5 58.5M78.5 59.5 73.5 59.5M81.5 58.5 76.5 58.5M82.5 59.5 79.5 59.5M87.5 59.5 83.5 59.5M89.5 58.5 85.5 58.5M92.5 59.5 88.5 59.5M98.5 58.5 98.5 54.5M95.5 61.5 95.5 57.5M104.5 60.5 100.5 60.5M95.5 66.5 95.5 62.5M98.5 68.5 98.5 72.5M42.5 71.5 37.5 71.5M48.5 71.5 43.5 71.5M55.5 70.5 50.5 70.5M92.5 71.5 92.5 68.5M26.5 72.5 23.5 72.5M33.5 72.5 29.5 72.5M37.5 72.5 34.5 72.5M40.5 72.5 38.5 72.5M44.5 72.5 41.5 72.5M57.5 72.5 62.5 72.5M63.5 72.5 65.5 72.5M66.5 72.5 70.5 72.5M78.5 72.5 83.5 72.5M86.5 72.5 91.5 72.5M91.5 73.5 91.5 78.5M98.5 73.5 93.5 73.5M64.5 74.5 60.5 74.5M64.5 75.5 59.5 75.5M71.5 74.5 66.5 74.5M75.5 74.5 75.5 71.5M76.5 74.5 76.5 71.5M84.5 74.5 84.5 71.5M85.5 74.5 85.5 71.5M45.5 76.5 41.5 76.5M51.5 76.5 46.5 76.5M58.5 76.5 53.5 76.5M62.5 76.5 62.5 81.5M65.5 76.5 60.5 76.5M69.5 76.5 66.5 76.5M74.5 76.5 70.5 76.5M79.5 76.5 75.5 76.5M97.5 77.5 97.5 73.5M104.5 78.5 100.5 78.5M66.5 80.5 62.5 80.5M72.5 80.5 72.5 75.5M79.5 81.5 74.5 81.5M85.5 81.5 80.5 81.5M91.5 81.5 86.5 81.5M72.5 83.5 72.5 81.5M26.5 85.5 21.5 85.5M26.5 84.5 21.5 84.5M31.5 85.5 27.5 85.5M31.5 84.5 27.5 84.5M37.5 85.5 32.5 85.5M37.5 84.5 32.5 84.5M42.5 84.5 38.5 84.5M42.5 85.5 38.5 85.5M48.5 84.5 43.5 84.5M48.5 85.5 43.5 85.5M54.5 85.5 49.5 85.5M54.5 84.5 49.5 84.5M60.5 85.5 55.5 85.5M60.5 84.5 55.5 84.5M76.5 86.5 74.5 86.5M71.5 88.5 66.5 88.5M77.5 88.5 72.5 88.5M21.5 98.5 26.5 98.5M27.5 98.5 32.5 98.5M33.5 98.5 38.5 98.5M39.5 98.5 44.5 98.5M45.5 98.5 50.5 98.5M51.5 98.5 56.5 98.5M57.5 98.5 62.5 98.5M63.5 98.5 68.5 98.5M69.5 98.5 74.5 98.5M19.5 101.5 19.5 99.5M21.5 14.5 17.5 14.5M27.5 14.5 22.5 14.5M33.5 14.5 28.5 14.5M39.5 14.5 34.5 14.5M55.5 14.5 50.5 14.5M61.5 14.5 56.5 14.5M66.5 14.5 62.5 14.5M71.5 14.5 67.5 14.5M72.5 20.5 72.5 15.5M85.5 21.5 78.5 21.5M93.5 21.5 86.5 21.5M104.5 21.5 100.5 21.5M87.5 22.5 80.5 22.5M95.5 22.5 88.5 22.5M72.5 27.5 66.5 27.5M89.5 26.5 83.5 26.5M97.5 26.5 91.5 26.5M101.5 27.5 101.5 34.5M21.5 28.5 16.5 28.5M27.5 28.5 22.5 28.5M31.5 29.5 31.5 32.5M33.5 28.5 28.5 28.5M39.5 28.5 34.5 28.5M45.5 28.5 40.5 28.5M54.5 28.5 47.5 28.5M60.5 28.5 55.5 28.5M64.5 28.5 61.5 28.5M65.5 29.5 58.5 29.5M70.5 28.5 70.5 35.5M72.5 29.5 68.5 29.5M72.5 28.5 67.5 28.5M79.5 29.5 73.5 29.5M79.5 28.5 73.5 28.5M87.5 28.5 80.5 28.5M87.5 29.5 80.5 29.5M92.5 29.5 88.5 29.5M95.5 28.5 88.5 28.5M25.5 31.5 18.5 31.5M31.5 30.5 24.5 30.5M39.5 30.5 32.5 30.5M47.5 30.5 40.5 30.5M55.5 30.5 48.5 30.5M62.5 30.5 62.5 32.5M66.5 30.5 59.5 30.5M75.5 31.5 68.5 31.5M79.5 30.5 74.5 30.5M87.5 30.5 80.5 30.5M88.5 31.5 82.5 31.5M93.5 30.5 88.5 30.5M104.5 30.5 100.5 30.5M45.5 32.5 40.5 32.5M51.5 32.5 46.5 32.5M57.5 32.5 52.5 32.5M89.5 32.5 82.5 32.5M96.5 32.5 96.5 25.5M97.5 32.5 97.5 28.5M104.5 33.5 100.5 33.5M25.5 35.5 18.5 35.5M75.5 35.5 68.5 35.5M94.5 35.5 94.5 28.5M95.5 34.5 95.5 41.5M96.5 35.5 96.5 42.5M98.5 34.5 98.5 27.5M100.5 34.5 100.5 27.5M17.5 36.5 17.5 43.5M66.5 36.5 71.5 36.5M67.5 36.5 67.5 43.5M101.5 41.5 101.5 48.5M19.5 44.5 24.5 44.5M25.5 44.5 30.5 44.5M31.5 44.5 36.5 44.5M35.5 45.5 29.5 45.5M37.5 44.5 42.5 44.5M48.5 44.5 43.5 44.5M53.5 45.5 47.5 45.5M54.5 44.5 49.5 44.5M60.5 44.5 55.5 44.5M66.5 44.5 61.5 44.5M73.5 45.5 76.5 45.5M78.5 44.5 72.5 44.5M90.5 44.5 83.5 44.5M96.5 44.5 96.5 49.5M24.5 46.5 19.5 46.5M30.5 46.5 25.5 46.5M36.5 46.5 31.5 46.5M42.5 46.5 37.5 46.5M48.5 46.5 43.5 46.5M54.5 46.5 49.5 46.5M60.5 46.5 55.5 46.5M65.5 46.5 61.5 46.5M68.5 46.5 66.5 46.5M77.5 46.5 71.5 46.5M78.5 47.5 71.5 47.5M85.5 46.5 78.5 46.5M94.5 46.5 87.5 46.5M16.5 48.5 16.5 55.5M97.5 48.5 97.5 41.5M96.5 50.5 96.5 57.5M98.5 50.5 98.5 46.5M97.5 56.5 97.5 49.5M98.5 56.5 98.5 51.5M24.5 58.5 19.5 58.5M30.5 58.5 25.5 58.5M36.5 58.5 31.5 58.5M42.5 58.5 37.5 58.5M48.5 58.5 43.5 58.5M54.5 58.5 49.5 58.5M60.5 58.5 55.5 58.5M65.5 58.5 61.5 58.5M69.5 59.5 65.5 59.5M72.5 58.5 66.5 58.5M74.5 59.5 71.5 59.5M78.5 58.5 73.5 58.5M80.5 59.5 77.5 59.5M84.5 59.5 81.5 59.5M86.5 58.5 79.5 58.5M90.5 59.5 86.5 59.5M94.5 58.5 87.5 58.5M96.5 59.5 96.5 66.5M16.5 60.5 16.5 67.5M17.5 61.5 17.5 68.5M98.5 61.5 98.5 57.5M97.5 63.5 97.5 57.5M100.5 63.5 100.5 57.5M95.5 64.5 95.5 59.5M97.5 64.5 97.5 71.5M104.5 65.5 100.5 65.5M54.5 67.5 50.5 67.5M88.5 67.5 81.5 67.5M96.5 67.5 96.5 74.5M98.5 66.5 98.5 62.5M104.5 67.5 100.5 67.5M16.5 68.5 16.5 74.5M63.5 69.5 56.5 69.5M71.5 69.5 64.5 69.5M79.5 68.5 72.5 68.5M79.5 69.5 72.5 69.5M88.5 69.5 81.5 69.5M96.5 68.5 91.5 68.5M98.5 69.5 91.5 69.5M104.5 69.5 100.5 69.5M45.5 71.5 40.5 71.5M50.5 71.5 46.5 71.5M55.5 71.5 51.5 71.5M63.5 71.5 56.5 71.5M63.5 70.5 56.5 70.5M71.5 70.5 64.5 70.5M78.5 71.5 73.5 71.5M79.5 70.5 72.5 70.5M82.5 71.5 87.5 71.5M88.5 70.5 81.5 70.5M94.5 71.5 94.5 76.5M95.5 71.5 95.5 65.5M98.5 70.5 95.5 70.5M100.5 71.5 100.5 64.5M104.5 70.5 100.5 70.5M24.5 72.5 19.5 72.5M30.5 72.5 25.5 72.5M36.5 72.5 31.5 72.5M42.5 72.5 39.5 72.5M44.5 73.5 37.5 73.5M49.5 72.5 43.5 72.5M52.5 73.5 45.5 73.5M55.5 72.5 50.5 72.5M60.5 72.5 67.5 72.5M73.5 73.5 66.5 73.5M17.5 75.5 17.5 82.5M16.5 75.5 16.5 81.5M61.5 75.5 55.5 75.5M90.5 75.5 83.5 75.5M95.5 75.5 91.5 75.5M71.5 76.5 64.5 76.5M80.5 76.5 73.5 76.5M90.5 76.5 83.5 76.5M93.5 77.5 86.5 77.5M77.5 79.5 77.5 74.5M84.5 78.5 84.5 81.5M90.5 78.5 90.5 71.5M76.5 81.5 76.5 76.5M84.5 80.5 78.5 80.5M92.5 80.5 85.5 80.5M97.5 80.5 97.5 75.5M99.5 80.5 93.5 80.5M104.5 80.5 100.5 80.5M83.5 82.5 77.5 82.5M23.5 84.5 18.5 84.5M29.5 84.5 24.5 84.5M45.5 84.5 40.5 84.5M51.5 84.5 46.5 84.5M57.5 84.5 52.5 84.5M91.5 84.5 91.5 77.5M99.5 85.5 92.5 85.5M104.5 85.5 100.5 85.5M15.5 86.5 15.5 93.5M17.5 87.5 17.5 93.5M16.5 86.5 16.5 93.5M38.5 86.5 31.5 86.5M76.5 87.5 69.5 87.5M18.5 99.5 23.5 99.5M18.5 98.5 23.5 98.5M24.5 99.5 29.5 99.5M24.5 98.5 29.5 98.5M30.5 99.5 35.5 99.5M30.5 98.5 35.5 98.5M36.5 98.5 41.5 98.5M36.5 99.5 41.5 99.5M42.5 98.5 47.5 98.5M42.5 99.5 47.5 99.5M48.5 98.5 53.5 98.5M48.5 99.5 53.5 99.5M54.5 98.5 59.5 98.5M54.5 99.5 59.5 99.5M60.5 98.5 65.5 98.5M60.5 99.5 65.5 99.5M66.5 98.5 71.5 98.5M66.5 99.5 71.5 99.5M49.5 14.5 40.5 14.5M104.5 19.5 100.5 19.5M104.5 18.5 100.5 18.5M114.5 19.5 105.5 19.5M114.5 18.5 105.5 18.5M114.5 21.5 105.5 21.5M114.5 30.5 105.5 30.5M104.5 32.5 100.5 32.5M114.5 33.5 105.5 33.5M114.5 32.5 105.5 32.5M81.5 36.5 81.5 45.5M85.5 41.5 85.5 32.5M77.5 44.5 77.5 36.5M114.5 60.5 105.5 60.5M114.5 65.5 105.5 65.5M114.5 67.5 105.5 67.5M114.5 69.5 105.5 69.5M114.5 70.5 105.5 70.5M114.5 78.5 105.5 78.5M114.5 80.5 105.5 80.5M104.5 83.5 100.5 83.5M104.5 82.5 100.5 82.5M114.5 83.5 105.5 83.5M114.5 82.5 105.5 82.5M114.5 85.5 105.5 85.5"/><path d="M71.5 49.5 71.5 41.5M77.5 50.5 85.5 50.5M86.5 50.5 94.5 50.5M95.5 50.5 99.5 50.5M100.5 50.5 104.5 50.5M105.5 50.5 114.5 50.5M98.5 52.5 104.5 52.5M105.5 52.5 114.5 52.5M97.5 61.5 97.5 53.5M61.5 67.5 66.5 67.5M94.5 69.5 95.5 69.5M97.5 69.5 97.5 62.5M56.5 75.5 56.5 68.5M93.5 75.5 93.5 70.5M57.5 76.5 67.5 76.5M68.5 76.5 77.5 76.5M78.5 76.5 88.5 76.5M89.5 76.5 92.5 76.5"/><path d="M17.5 15.5 16.5 15.5M18.5 14.5 19.5 14.5M18.5 15.5 17.5 15.5M19.5 15.5 18.5 15.5M20.5 15.5 19.5 15.5M21.5 15.5 20.5 15.5M22.5 14.5 21.5 14.5M22.5 15.5 21.5 15.5M23.5 15.5 22.5 15.5M24.5 14.5 25.5 14.5M24.5 15.5 23.5 15.5M25.5 15.5 24.5 15.5M26.5 15.5 25.5 15.5M27.5 15.5 26.5 15.5M28.5 14.5 27.5 14.5M28.5 15.5 27.5 15.5M29.5 15.5 28.5 15.5M30.5 14.5 31.5 14.5M30.5 15.5 29.5 15.5M31.5 15.5 30.5 15.5M32.5 15.5 31.5 15.5M33.5 15.5 32.5 15.5M34.5 14.5 33.5 14.5M34.5 15.5 33.5 15.5M35.5 15.5 34.5 15.5M36.5 14.5 37.5 14.5M36.5 15.5 35.5 15.5M37.5 15.5 36.5 15.5M38.5 15.5 37.5 15.5M39.5 15.5 38.5 15.5M40.5 15.5 39.5 15.5M41.5 15.5 40.5 15.5M40.5 14.5 39.5 14.5M41.5 14.5 42.5 14.5M42.5 15.5 41.5 15.5M43.5 15.5 42.5 15.5M46.5 15.5 46.5 16.5M47.5 15.5 46.5 15.5M47.5 14.5 48.5 14.5M48.5 15.5 47.5 15.5M49.5 15.5 48.5 15.5M50.5 14.5 49.5 14.5M50.5 15.5 49.5 15.5M51.5 15.5 50.5 15.5M52.5 14.5 53.5 14.5M52.5 15.5 51.5 15.5M53.5 15.5 52.5 15.5M54.5 15.5 53.5 15.5M55.5 15.5 54.5 15.5M56.5 14.5 55.5 14.5M56.5 15.5 55.5 15.5M57.5 15.5 56.5 15.5M58.5 14.5 59.5 14.5M58.5 15.5 57.5 15.5M59.5 15.5 58.5 15.5M60.5 15.5 59.5 15.5M61.5 15.5 60.5 15.5M62.5 14.5 61.5 14.5M62.5 15.5 61.5 15.5M63.5 15.5 62.5 15.5M64.5 14.5 65.5 14.5M64.5 15.5 63.5 15.5M65.5 15.5 64.5 15.5M67.5 14.5 66.5 14.5M66.5 15.5 65.5 15.5M67.5 15.5 66.5 15.5M69.5 14.5 69.5 15.5M68.5 14.5 69.5 14.5M68.5 15.5 67.5 15.5M72.5 15.5 72.5 14.5M72.5 14.5 71.5 14.5M43.5 16.5 43.5 15.5M44.5 16.5 43.5 16.5M45.5 16.5 44.5 16.5M46.5 16.5 45.5 16.5M68.5 16.5 68.5 15.5M68.5 17.5 68.5 16.5M69.5 19.5 69.5 20.5M69.5 18.5 68.5 18.5M68.5 18.5 68.5 17.5M71.5 19.5 71.5 20.5M71.5 18.5 70.5 18.5M70.5 18.5 69.5 18.5M73.5 19.5 72.5 19.5M72.5 19.5 71.5 19.5M73.5 18.5 72.5 18.5M72.5 18.5 71.5 18.5M75.5 19.5 74.5 19.5M74.5 19.5 73.5 19.5M75.5 18.5 74.5 18.5M74.5 18.5 73.5 18.5M77.5 19.5 76.5 19.5M76.5 19.5 75.5 19.5M77.5 18.5 76.5 18.5M76.5 18.5 75.5 18.5M79.5 19.5 78.5 19.5M78.5 19.5 77.5 19.5M79.5 18.5 78.5 18.5M78.5 18.5 77.5 18.5M81.5 18.5 80.5 18.5M81.5 19.5 80.5 19.5M80.5 19.5 79.5 19.5M80.5 18.5 79.5 18.5M83.5 18.5 82.5 18.5M82.5 18.5 81.5 18.5M83.5 19.5 82.5 19.5M82.5 19.5 81.5 19.5M85.5 18.5 84.5 18.5M84.5 18.5 83.5 18.5M85.5 19.5 84.5 19.5M84.5 19.5 83.5 19.5M87.5 18.5 86.5 18.5M86.5 18.5 85.5 18.5M87.5 19.5 86.5 19.5M86.5 19.5 85.5 19.5M89.5 18.5 88.5 18.5M88.5 18.5 87.5 18.5M89.5 19.5 88.5 19.5M88.5 19.5 87.5 19.5M91.5 19.5 90.5 19.5M90.5 19.5 89.5 19.5M91.5 18.5 90.5 18.5M90.5 18.5 89.5 18.5M93.5 18.5 92.5 18.5M93.5 19.5 92.5 19.5M92.5 19.5 91.5 19.5M92.5 18.5 91.5 18.5M95.5 18.5 94.5 18.5M94.5 18.5 93.5 18.5M95.5 19.5 94.5 19.5M94.5 19.5 93.5 19.5M97.5 18.5 96.5 18.5M96.5 18.5 95.5 18.5M97.5 19.5 96.5 19.5M96.5 19.5 95.5 19.5M99.5 19.5 98.5 19.5M99.5 19.5 98.5 18.5M99.5 18.5 98.5 19.5M99.5 18.5 98.5 18.5M98.5 18.5 97.5 18.5M98.5 19.5 97.5 19.5M100.5 19.5 99.5 19.5M100.5 18.5 99.5 18.5M105.5 19.5 104.5 19.5M105.5 18.5 104.5 18.5M115.5 19.5 114.5 19.5M115.5 18.5 114.5 18.5M116.5 19.5 115.5 19.5M116.5 18.5 115.5 18.5M69.5 20.5 70.5 20.5M69.5 21.5 69.5 20.5M71.5 21.5 71.5 22.5M71.5 20.5 71.5 21.5M72.5 21.5 72.5 20.5M73.5 21.5 72.5 21.5M75.5 20.5 76.5 20.5M75.5 21.5 74.5 21.5M74.5 21.5 73.5 21.5M77.5 21.5 76.5 21.5M76.5 21.5 75.5 21.5M78.5 21.5 77.5 21.5M81.5 20.5 82.5 20.5M86.5 21.5 85.5 21.5M87.5 20.5 88.5 20.5M89.5 20.5 89.5 21.5M89.5 21.5 90.5 21.5M88.5 20.5 89.5 20.5M90.5 21.5 90.5 22.5M90.5 20.5 90.5 21.5M94.5 21.5 93.5 21.5M94.5 20.5 94.5 21.5M95.5 20.5 94.5 20.5M96.5 21.5 96.5 22.5M97.5 21.5 96.5 21.5M96.5 20.5 95.5 20.5M97.5 20.5 96.5 20.5M99.5 21.5 98.5 21.5M98.5 21.5 97.5 21.5M98.5 21.5 97.5 20.5M98.5 20.5 97.5 21.5M98.5 20.5 97.5 20.5M100.5 21.5 99.5 21.5M105.5 21.5 104.5 21.5M115.5 21.5 114.5 21.5M116.5 21.5 115.5 21.5M65.5 23.5 64.5 23.5M64.5 23.5 64.5 24.5M67.5 23.5 66.5 23.5M66.5 23.5 65.5 23.5M69.5 23.5 68.5 23.5M69.5 22.5 69.5 21.5M68.5 23.5 67.5 23.5M71.5 22.5 71.5 23.5M71.5 23.5 70.5 23.5M70.5 23.5 69.5 23.5M73.5 23.5 73.5 24.5M73.5 22.5 73.5 23.5M75.5 22.5 74.5 22.5M74.5 22.5 73.5 22.5M76.5 22.5 75.5 22.5M77.5 22.5 76.5 22.5M78.5 22.5 77.5 22.5M79.5 22.5 78.5 22.5M80.5 22.5 79.5 22.5M88.5 22.5 87.5 22.5M90.5 23.5 90.5 24.5M90.5 22.5 90.5 23.5M94.5 22.5 94.5 21.5M94.5 23.5 94.5 22.5M95.5 23.5 94.5 23.5M96.5 22.5 95.5 22.5M96.5 23.5 96.5 22.5M65.5 24.5 66.5 24.5M65.5 25.5 65.5 24.5M64.5 25.5 64.5 26.5M64.5 24.5 64.5 25.5M66.5 25.5 66.5 26.5M66.5 24.5 66.5 25.5M73.5 24.5 73.5 25.5M73.5 25.5 73.5 26.5M76.5 25.5 76.5 26.5M77.5 25.5 76.5 25.5M83.5 25.5 82.5 25.5M89.5 25.5 88.5 25.5M91.5 24.5 92.5 24.5M90.5 24.5 91.5 24.5M92.5 24.5 93.5 24.5M95.5 24.5 95.5 23.5M95.5 24.5 96.5 23.5M96.5 24.5 95.5 23.5M96.5 24.5 96.5 23.5M94.5 25.5 93.5 25.5M96.5 25.5 96.5 24.5M99.5 24.5 100.5 24.5M98.5 24.5 99.5 24.5M101.5 25.5 101.5 26.5M101.5 24.5 101.5 25.5M100.5 24.5 101.5 24.5M100.5 25.5 99.5 25.5M18.5 27.5 17.5 27.5M19.5 27.5 18.5 27.5M20.5 27.5 19.5 27.5M21.5 27.5 20.5 27.5M22.5 27.5 21.5 27.5M23.5 27.5 22.5 27.5M24.5 27.5 23.5 27.5M25.5 27.5 24.5 27.5M26.5 27.5 25.5 27.5M27.5 27.5 26.5 27.5M28.5 27.5 27.5 27.5M29.5 27.5 28.5 27.5M30.5 27.5 29.5 27.5M31.5 27.5 30.5 27.5M32.5 27.5 31.5 27.5M33.5 27.5 32.5 27.5M34.5 27.5 33.5 27.5M35.5 27.5 34.5 27.5M36.5 27.5 35.5 27.5M37.5 27.5 36.5 27.5M38.5 27.5 37.5 27.5M39.5 27.5 38.5 27.5M40.5 27.5 39.5 27.5M41.5 27.5 40.5 27.5M42.5 27.5 41.5 27.5M43.5 27.5 42.5 27.5M44.5 27.5 43.5 27.5M45.5 27.5 44.5 27.5M46.5 27.5 45.5 27.5M47.5 27.5 46.5 27.5M48.5 27.5 47.5 27.5M49.5 27.5 48.5 27.5M50.5 27.5 49.5 27.5M51.5 27.5 50.5 27.5M52.5 27.5 51.5 27.5M53.5 27.5 52.5 27.5M54.5 27.5 53.5 27.5M55.5 27.5 54.5 27.5M56.5 27.5 55.5 27.5M57.5 27.5 56.5 27.5M58.5 27.5 57.5 27.5M59.5 27.5 58.5 27.5M60.5 27.5 59.5 27.5M61.5 27.5 60.5 27.5M62.5 27.5 61.5 27.5M63.5 27.5 62.5 27.5M65.5 27.5 65.5 28.5M64.5 27.5 63.5 27.5M64.5 26.5 64.5 27.5M66.5 27.5 65.5 27.5M67.5 26.5 68.5 26.5M66.5 26.5 67.5 26.5M69.5 26.5 70.5 26.5M68.5 26.5 69.5 26.5M70.5 27.5 70.5 28.5M70.5 26.5 70.5 27.5M71.5 26.5 70.5 26.5M73.5 27.5 72.5 27.5M73.5 26.5 73.5 27.5M72.5 26.5 71.5 26.5M76.5 27.5 76.5 28.5M76.5 26.5 76.5 27.5M78.5 26.5 77.5 26.5M83.5 26.5 82.5 26.5M87.5 26.5 87.5 27.5M88.5 27.5 88.5 26.5M89.5 27.5 88.5 27.5M88.5 26.5 87.5 26.5M90.5 27.5 89.5 27.5M90.5 27.5 89.5 26.5M90.5 26.5 89.5 27.5M90.5 26.5 89.5 26.5M91.5 26.5 90.5 26.5M93.5 27.5 93.5 28.5M94.5 27.5 93.5 27.5M94.5 26.5 93.5 26.5M96.5 27.5 96.5 28.5M97.5 27.5 96.5 27.5M98.5 26.5 97.5 26.5M98.5 27.5 98.5 26.5M99.5 27.5 99.5 26.5M101.5 26.5 101.5 27.5M100.5 26.5 100.5 25.5M100.5 27.5 100.5 26.5M18.5 28.5 19.5 28.5M22.5 28.5 21.5 28.5M24.5 28.5 25.5 28.5M28.5 28.5 27.5 28.5M30.5 28.5 31.5 28.5M33.5 29.5 32.5 29.5M32.5 29.5 31.5 29.5M34.5 29.5 33.5 29.5M34.5 28.5 33.5 28.5M36.5 28.5 37.5 28.5M36.5 29.5 36.5 30.5M37.5 29.5 36.5 29.5M40.5 28.5 39.5 28.5M42.5 28.5 43.5 28.5M43.5 29.5 42.5 29.5M47.5 28.5 46.5 28.5M46.5 28.5 45.5 28.5M49.5 28.5 50.5 28.5M48.5 28.5 49.5 28.5M49.5 29.5 48.5 29.5M51.5 28.5 52.5 28.5M50.5 28.5 51.5 28.5M55.5 28.5 54.5 28.5M55.5 29.5 54.5 29.5M57.5 28.5 58.5 28.5M57.5 29.5 57.5 30.5M58.5 29.5 57.5 29.5M61.5 28.5 60.5 28.5M61.5 29.5 60.5 29.5M63.5 30.5 62.5 30.5M63.5 30.5 62.5 29.5M63.5 29.5 62.5 30.5M63.5 29.5 62.5 29.5M62.5 28.5 63.5 28.5M62.5 29.5 61.5 29.5M65.5 28.5 64.5 28.5M64.5 29.5 63.5 29.5M66.5 29.5 65.5 29.5M66.5 28.5 66.5 29.5M67.5 28.5 66.5 28.5M67.5 29.5 67.5 30.5M69.5 28.5 69.5 27.5M68.5 28.5 69.5 28.5M68.5 29.5 67.5 29.5M70.5 29.5 69.5 29.5M73.5 29.5 72.5 29.5M73.5 28.5 72.5 28.5M76.5 29.5 75.5 29.5M76.5 28.5 76.5 29.5M80.5 28.5 79.5 28.5M80.5 29.5 79.5 29.5M81.5 28.5 80.5 28.5M81.5 29.5 81.5 28.5M88.5 28.5 87.5 28.5M88.5 29.5 87.5 29.5M93.5 29.5 92.5 29.5M93.5 28.5 93.5 29.5M94.5 29.5 94.5 30.5M95.5 29.5 94.5 29.5M94.5 28.5 94.5 27.5M96.5 28.5 95.5 28.5M96.5 29.5 96.5 28.5M97.5 29.5 96.5 29.5M97.5 28.5 97.5 27.5M99.5 28.5 99.5 27.5M99.5 29.5 99.5 28.5M98.5 30.5 97.5 30.5M98.5 30.5 97.5 29.5M98.5 29.5 97.5 30.5M98.5 29.5 97.5 29.5M100.5 28.5 99.5 28.5M17.5 31.5 17.5 32.5M18.5 31.5 17.5 31.5M21.5 30.5 20.5 30.5M20.5 30.5 19.5 30.5M23.5 30.5 22.5 30.5M22.5 30.5 21.5 30.5M24.5 30.5 23.5 30.5M27.5 31.5 26.5 31.5M26.5 31.5 25.5 31.5M29.5 31.5 28.5 31.5M28.5 31.5 28.5 32.5M31.5 31.5 30.5 31.5M30.5 32.5 29.5 32.5M30.5 32.5 29.5 31.5M30.5 31.5 29.5 32.5M30.5 31.5 29.5 31.5M32.5 31.5 31.5 31.5M32.5 30.5 31.5 30.5M35.5 30.5 34.5 30.5M34.5 30.5 34.5 29.5M36.5 30.5 35.5 30.5M37.5 30.5 36.5 30.5M40.5 30.5 39.5 30.5M48.5 30.5 47.5 30.5M57.5 30.5 56.5 30.5M56.5 30.5 55.5 30.5M59.5 30.5 58.5 30.5M58.5 30.5 58.5 31.5M58.5 31.5 58.5 32.5M60.5 31.5 60.5 30.5M61.5 31.5 62.5 31.5M63.5 31.5 64.5 31.5M63.5 31.5 64.5 32.5M63.5 32.5 64.5 31.5M63.5 32.5 64.5 32.5M62.5 31.5 63.5 31.5M64.5 30.5 65.5 30.5M65.5 31.5 65.5 32.5M64.5 31.5 65.5 31.5M67.5 30.5 66.5 30.5M67.5 31.5 67.5 32.5M68.5 31.5 67.5 31.5M71.5 30.5 70.5 30.5M70.5 30.5 69.5 30.5M73.5 30.5 72.5 30.5M72.5 30.5 71.5 30.5M74.5 30.5 73.5 30.5M77.5 31.5 76.5 31.5M76.5 31.5 75.5 31.5M81.5 30.5 81.5 29.5M81.5 31.5 81.5 30.5M80.5 30.5 79.5 30.5M82.5 31.5 81.5 31.5M85.5 31.5 86.5 31.5M87.5 31.5 87.5 32.5M88.5 30.5 87.5 30.5M89.5 31.5 88.5 31.5M90.5 31.5 91.5 31.5M94.5 30.5 93.5 30.5M94.5 31.5 94.5 30.5M95.5 31.5 94.5 31.5M95.5 30.5 95.5 29.5M96.5 31.5 95.5 31.5M97.5 31.5 96.5 31.5M96.5 30.5 95.5 30.5M97.5 30.5 96.5 30.5M98.5 32.5 97.5 32.5M98.5 32.5 97.5 31.5M98.5 31.5 97.5 32.5M98.5 31.5 97.5 31.5M99.5 30.5 98.5 30.5M100.5 30.5 99.5 30.5M105.5 30.5 104.5 30.5M115.5 30.5 114.5 30.5M116.5 30.5 115.5 30.5M17.5 33.5 17.5 34.5M17.5 33.5 16.5 34.5M16.5 33.5 17.5 34.5M16.5 33.5 16.5 34.5M17.5 32.5 17.5 33.5M26.5 33.5 26.5 34.5M27.5 33.5 27.5 32.5M27.5 32.5 27.5 31.5M26.5 32.5 26.5 31.5M29.5 32.5 29.5 33.5M28.5 32.5 29.5 32.5M29.5 33.5 29.5 34.5M32.5 32.5 32.5 31.5M40.5 32.5 39.5 32.5M42.5 32.5 43.5 32.5M46.5 32.5 45.5 32.5M48.5 32.5 49.5 32.5M52.5 32.5 51.5 32.5M54.5 32.5 55.5 32.5M59.5 32.5 60.5 32.5M58.5 32.5 57.5 32.5M61.5 32.5 61.5 31.5M60.5 32.5 60.5 31.5M64.5 32.5 64.5 33.5M64.5 33.5 64.5 34.5M65.5 32.5 64.5 32.5M67.5 32.5 67.5 33.5M67.5 33.5 67.5 34.5M67.5 33.5 66.5 34.5M66.5 33.5 67.5 34.5M66.5 33.5 66.5 34.5M76.5 33.5 76.5 34.5M77.5 32.5 77.5 31.5M77.5 33.5 77.5 32.5M76.5 32.5 76.5 31.5M79.5 32.5 80.5 32.5M79.5 33.5 79.5 32.5M81.5 33.5 81.5 34.5M81.5 32.5 81.5 33.5M82.5 32.5 81.5 32.5M83.5 32.5 84.5 32.5M85.5 32.5 85.5 31.5M87.5 32.5 88.5 32.5M90.5 32.5 89.5 32.5M91.5 32.5 90.5 32.5M92.5 32.5 91.5 32.5M93.5 32.5 94.5 32.5M95.5 33.5 95.5 34.5M94.5 33.5 95.5 33.5M94.5 32.5 94.5 33.5M96.5 33.5 96.5 32.5M97.5 34.5 96.5 34.5M97.5 34.5 96.5 33.5M97.5 33.5 96.5 34.5M97.5 33.5 96.5 33.5M98.5 33.5 97.5 33.5M99.5 33.5 98.5 33.5M99.5 33.5 98.5 32.5M99.5 32.5 98.5 33.5M99.5 32.5 98.5 32.5M100.5 32.5 99.5 32.5M100.5 33.5 99.5 33.5M105.5 33.5 104.5 33.5M105.5 32.5 104.5 32.5M115.5 32.5 114.5 32.5M115.5 33.5 114.5 33.5M116.5 32.5 115.5 32.5M116.5 33.5 115.5 33.5M15.5 34.5 15.5 35.5M15.5 35.5 16.5 35.5M18.5 34.5 18.5 35.5M18.5 34.5 17.5 35.5M17.5 34.5 18.5 35.5M17.5 34.5 17.5 35.5M16.5 34.5 15.5 34.5M17.5 35.5 17.5 36.5M16.5 35.5 17.5 35.5M18.5 35.5 17.5 35.5M26.5 35.5 25.5 35.5M26.5 34.5 26.5 35.5M29.5 34.5 29.5 35.5M29.5 35.5 29.5 36.5M64.5 34.5 64.5 35.5M64.5 35.5 64.5 36.5M65.5 34.5 65.5 35.5M65.5 35.5 66.5 35.5M68.5 34.5 68.5 35.5M68.5 34.5 67.5 35.5M67.5 34.5 68.5 35.5M67.5 34.5 67.5 35.5M66.5 34.5 65.5 34.5M67.5 35.5 67.5 36.5M66.5 35.5 67.5 35.5M68.5 35.5 67.5 35.5M70.5 35.5 70.5 36.5M76.5 35.5 75.5 35.5M76.5 34.5 76.5 35.5M77.5 34.5 77.5 35.5M77.5 35.5 78.5 35.5M79.5 34.5 79.5 33.5M79.5 35.5 79.5 34.5M78.5 35.5 79.5 35.5M81.5 34.5 81.5 35.5M81.5 35.5 81.5 36.5M96.5 34.5 96.5 35.5M98.5 35.5 98.5 34.5M99.5 35.5 98.5 35.5M101.5 34.5 101.5 35.5M100.5 35.5 100.5 34.5M19.5 36.5 18.5 36.5M18.5 36.5 18.5 35.5M23.5 36.5 22.5 36.5M22.5 36.5 21.5 36.5M25.5 36.5 24.5 36.5M24.5 36.5 23.5 36.5M27.5 36.5 26.5 36.5M26.5 36.5 25.5 36.5M28.5 36.5 27.5 36.5M29.5 36.5 28.5 36.5M64.5 36.5 65.5 36.5M65.5 36.5 66.5 36.5M69.5 36.5 68.5 36.5M68.5 36.5 68.5 35.5M71.5 36.5 72.5 36.5M77.5 36.5 77.5 35.5M94.5 36.5 94.5 35.5M95.5 36.5 94.5 36.5M96.5 36.5 95.5 36.5M97.5 36.5 96.5 36.5M99.5 36.5 99.5 35.5M99.5 37.5 99.5 36.5M98.5 37.5 98.5 36.5M98.5 36.5 97.5 36.5M98.5 39.5 98.5 38.5M98.5 38.5 98.5 37.5M101.5 39.5 101.5 40.5M70.5 40.5 70.5 41.5M95.5 41.5 95.5 42.5M97.5 41.5 97.5 40.5M97.5 40.5 98.5 40.5M99.5 41.5 99.5 40.5M98.5 41.5 99.5 41.5M98.5 40.5 98.5 39.5M99.5 40.5 98.5 40.5M101.5 40.5 101.5 41.5M100.5 40.5 100.5 39.5M17.5 43.5 17.5 44.5M67.5 43.5 67.5 44.5M70.5 43.5 70.5 44.5M85.5 42.5 85.5 41.5M85.5 43.5 85.5 42.5M86.5 44.5 85.5 44.5M86.5 44.5 85.5 43.5M86.5 43.5 85.5 44.5M86.5 43.5 85.5 43.5M95.5 43.5 95.5 44.5M95.5 42.5 95.5 43.5M97.5 43.5 97.5 44.5M97.5 43.5 96.5 44.5M96.5 43.5 97.5 44.5M96.5 43.5 96.5 44.5M96.5 42.5 96.5 43.5M99.5 43.5 99.5 42.5M98.5 42.5 98.5 41.5M98.5 43.5 98.5 42.5M17.5 44.5 18.5 44.5M17.5 45.5 16.5 45.5M16.5 45.5 16.5 46.5M18.5 44.5 19.5 44.5M19.5 45.5 18.5 45.5M18.5 45.5 17.5 45.5M21.5 45.5 20.5 45.5M20.5 45.5 19.5 45.5M23.5 45.5 22.5 45.5M22.5 45.5 21.5 45.5M22.5 44.5 21.5 44.5M25.5 45.5 24.5 45.5M24.5 45.5 23.5 45.5M24.5 44.5 25.5 44.5M27.5 45.5 26.5 45.5M26.5 45.5 25.5 45.5M29.5 45.5 28.5 45.5M28.5 45.5 27.5 45.5M28.5 44.5 27.5 44.5M30.5 44.5 31.5 44.5M34.5 44.5 33.5 44.5M37.5 45.5 36.5 45.5M36.5 45.5 35.5 45.5M36.5 44.5 37.5 44.5M39.5 45.5 38.5 45.5M38.5 45.5 37.5 45.5M41.5 45.5 40.5 45.5M40.5 45.5 39.5 45.5M40.5 44.5 39.5 44.5M43.5 45.5 42.5 45.5M42.5 45.5 41.5 45.5M45.5 45.5 44.5 45.5M44.5 45.5 43.5 45.5M47.5 45.5 46.5 45.5M46.5 45.5 45.5 45.5M46.5 44.5 45.5 44.5M49.5 44.5 48.5 44.5M52.5 44.5 51.5 44.5M55.5 45.5 54.5 45.5M54.5 45.5 53.5 45.5M55.5 44.5 54.5 44.5M57.5 45.5 56.5 45.5M56.5 45.5 55.5 45.5M59.5 45.5 58.5 45.5M58.5 45.5 57.5 45.5M58.5 44.5 57.5 44.5M61.5 45.5 60.5 45.5M60.5 45.5 59.5 45.5M61.5 44.5 60.5 44.5M63.5 45.5 62.5 45.5M62.5 45.5 61.5 45.5M65.5 45.5 64.5 45.5M64.5 45.5 63.5 45.5M64.5 44.5 63.5 44.5M67.5 45.5 68.5 45.5M67.5 44.5 66.5 44.5M71.5 45.5 72.5 45.5M71.5 44.5 71.5 45.5M70.5 44.5 69.5 44.5M72.5 44.5 71.5 44.5M74.5 45.5 75.5 45.5M75.5 45.5 76.5 45.5M77.5 45.5 77.5 44.5M76.5 45.5 77.5 45.5M78.5 45.5 77.5 45.5M79.5 44.5 78.5 44.5M81.5 45.5 81.5 46.5M80.5 44.5 81.5 44.5M81.5 44.5 82.5 44.5M82.5 44.5 82.5 45.5M82.5 45.5 82.5 46.5M83.5 44.5 82.5 44.5M84.5 45.5 83.5 45.5M85.5 44.5 84.5 44.5M87.5 44.5 86.5 44.5M89.5 45.5 88.5 45.5M88.5 44.5 87.5 44.5M91.5 44.5 90.5 44.5M93.5 45.5 92.5 45.5M94.5 45.5 93.5 45.5M95.5 45.5 94.5 45.5M95.5 44.5 95.5 45.5M94.5 44.5 93.5 44.5M97.5 45.5 97.5 44.5M97.5 45.5 98.5 44.5M98.5 45.5 97.5 44.5M98.5 45.5 98.5 44.5M98.5 44.5 98.5 43.5M100.5 45.5 100.5 44.5M101.5 45.5 100.5 45.5M16.5 47.5 16.5 48.5M16.5 46.5 16.5 47.5M22.5 46.5 21.5 46.5M25.5 46.5 24.5 46.5M28.5 46.5 27.5 46.5M31.5 46.5 30.5 46.5M34.5 46.5 33.5 46.5M37.5 46.5 36.5 46.5M40.5 46.5 39.5 46.5M43.5 46.5 42.5 46.5M46.5 46.5 45.5 46.5M49.5 46.5 48.5 46.5M52.5 46.5 51.5 46.5M55.5 46.5 54.5 46.5M58.5 46.5 57.5 46.5M61.5 46.5 60.5 46.5M64.5 46.5 63.5 46.5M67.5 46.5 67.5 45.5M67.5 47.5 67.5 46.5M66.5 46.5 65.5 46.5M69.5 47.5 68.5 47.5M68.5 47.5 68.5 46.5M70.5 47.5 69.5 47.5M71.5 47.5 70.5 47.5M70.5 46.5 69.5 46.5M71.5 46.5 70.5 46.5M79.5 47.5 78.5 47.5M78.5 46.5 77.5 46.5M82.5 46.5 82.5 47.5M82.5 46.5 81.5 47.5M81.5 46.5 82.5 47.5M81.5 46.5 81.5 47.5M82.5 47.5 81.5 47.5M86.5 46.5 85.5 46.5M87.5 46.5 86.5 46.5M95.5 47.5 96.5 47.5M95.5 46.5 94.5 46.5M97.5 47.5 98.5 47.5M96.5 47.5 97.5 47.5M98.5 47.5 98.5 48.5M98.5 46.5 98.5 45.5M100.5 47.5 100.5 46.5M101.5 46.5 101.5 45.5M101.5 47.5 101.5 46.5M100.5 46.5 99.5 46.5M67.5 49.5 67.5 48.5M67.5 48.5 67.5 47.5M68.5 48.5 68.5 47.5M95.5 48.5 95.5 47.5M97.5 49.5 97.5 48.5M96.5 49.5 96.5 50.5M99.5 48.5 99.5 47.5M98.5 48.5 99.5 48.5M100.5 48.5 100.5 47.5M100.5 49.5 100.5 48.5M101.5 49.5 100.5 49.5M101.5 48.5 101.5 49.5M98.5 51.5 98.5 50.5M101.5 50.5 101.5 49.5M95.5 52.5 95.5 51.5M99.5 53.5 100.5 53.5M98.5 53.5 99.5 53.5M100.5 53.5 100.5 52.5M101.5 53.5 101.5 52.5M16.5 55.5 16.5 56.5M67.5 55.5 67.5 54.5M96.5 55.5 96.5 56.5M97.5 55.5 96.5 55.5M97.5 55.5 96.5 54.5M97.5 54.5 96.5 55.5M97.5 54.5 96.5 54.5M96.5 54.5 95.5 54.5M98.5 54.5 98.5 53.5M98.5 55.5 97.5 55.5M99.5 55.5 98.5 55.5M100.5 54.5 101.5 54.5M101.5 54.5 101.5 53.5M100.5 55.5 100.5 54.5M100.5 55.5 101.5 54.5M101.5 55.5 100.5 54.5M101.5 55.5 101.5 54.5M16.5 57.5 16.5 58.5M16.5 56.5 16.5 57.5M68.5 58.5 67.5 58.5M68.5 58.5 67.5 57.5M68.5 57.5 67.5 58.5M68.5 57.5 67.5 57.5M95.5 57.5 95.5 56.5M96.5 57.5 96.5 58.5M97.5 57.5 97.5 56.5M99.5 56.5 99.5 55.5M99.5 56.5 100.5 55.5M100.5 56.5 99.5 55.5M100.5 56.5 100.5 55.5M98.5 57.5 98.5 56.5M100.5 57.5 100.5 56.5M16.5 59.5 16.5 60.5M16.5 58.5 16.5 59.5M17.5 59.5 17.5 60.5M18.5 59.5 17.5 59.5M19.5 59.5 18.5 59.5M20.5 59.5 19.5 59.5M21.5 59.5 20.5 59.5M22.5 59.5 21.5 59.5M23.5 59.5 22.5 59.5M22.5 58.5 21.5 58.5M24.5 59.5 23.5 59.5M25.5 59.5 24.5 59.5M25.5 58.5 24.5 58.5M26.5 59.5 25.5 59.5M27.5 59.5 26.5 59.5M28.5 59.5 27.5 59.5M29.5 59.5 28.5 59.5M28.5 58.5 27.5 58.5M30.5 59.5 29.5 59.5M31.5 59.5 30.5 59.5M31.5 58.5 30.5 58.5M32.5 59.5 31.5 59.5M33.5 59.5 32.5 59.5M34.5 59.5 33.5 59.5M35.5 59.5 34.5 59.5M34.5 58.5 33.5 58.5M36.5 59.5 35.5 59.5M37.5 59.5 36.5 59.5M37.5 58.5 36.5 58.5M38.5 59.5 37.5 59.5M39.5 59.5 38.5 59.5M40.5 59.5 39.5 59.5M41.5 59.5 40.5 59.5M40.5 58.5 39.5 58.5M42.5 59.5 41.5 59.5M43.5 59.5 42.5 59.5M43.5 58.5 42.5 58.5M44.5 59.5 43.5 59.5M45.5 59.5 44.5 59.5M46.5 59.5 45.5 59.5M47.5 59.5 46.5 59.5M46.5 58.5 45.5 58.5M48.5 59.5 47.5 59.5M49.5 59.5 48.5 59.5M49.5 58.5 48.5 58.5M50.5 59.5 49.5 59.5M51.5 59.5 50.5 59.5M52.5 59.5 51.5 59.5M53.5 59.5 52.5 59.5M52.5 58.5 51.5 58.5M54.5 59.5 53.5 59.5M55.5 59.5 54.5 59.5M55.5 58.5 54.5 58.5M56.5 59.5 55.5 59.5M57.5 59.5 56.5 59.5M58.5 59.5 57.5 59.5M59.5 59.5 58.5 59.5M58.5 58.5 57.5 58.5M61.5 58.5 60.5 58.5M62.5 59.5 61.5 59.5M63.5 59.5 62.5 59.5M64.5 59.5 63.5 59.5M65.5 59.5 64.5 59.5M64.5 58.5 63.5 58.5M66.5 58.5 65.5 58.5M67.5 59.5 66.5 59.5M69.5 58.5 68.5 58.5M70.5 59.5 69.5 59.5M71.5 59.5 70.5 59.5M70.5 58.5 69.5 58.5M73.5 58.5 72.5 58.5M73.5 59.5 72.5 59.5M75.5 59.5 74.5 59.5M76.5 59.5 75.5 59.5M77.5 59.5 76.5 59.5M76.5 58.5 75.5 58.5M79.5 58.5 78.5 58.5M79.5 59.5 78.5 59.5M81.5 59.5 80.5 59.5M83.5 59.5 82.5 59.5M82.5 58.5 81.5 58.5M83.5 58.5 82.5 58.5M85.5 59.5 84.5 59.5M84.5 58.5 83.5 58.5M85.5 58.5 84.5 58.5M86.5 59.5 85.5 59.5M87.5 58.5 86.5 58.5M88.5 59.5 87.5 59.5M91.5 59.5 90.5 59.5M93.5 59.5 92.5 59.5M92.5 58.5 93.5 58.5M93.5 58.5 93.5 59.5M95.5 58.5 94.5 58.5M95.5 59.5 95.5 58.5M97.5 59.5 97.5 60.5M97.5 58.5 97.5 59.5M97.5 58.5 96.5 59.5M96.5 58.5 97.5 59.5M96.5 58.5 96.5 59.5M98.5 59.5 98.5 58.5M99.5 59.5 98.5 59.5M99.5 58.5 99.5 59.5M100.5 58.5 99.5 58.5M17.5 60.5 17.5 61.5M91.5 60.5 91.5 59.5M93.5 60.5 93.5 59.5M92.5 60.5 91.5 60.5M92.5 61.5 92.5 60.5M94.5 60.5 93.5 60.5M95.5 60.5 94.5 60.5M96.5 60.5 95.5 60.5M97.5 60.5 96.5 60.5M96.5 61.5 96.5 62.5M99.5 60.5 99.5 59.5M100.5 60.5 99.5 60.5M105.5 60.5 104.5 60.5M115.5 60.5 114.5 60.5M116.5 60.5 115.5 60.5M92.5 63.5 92.5 62.5M93.5 63.5 92.5 63.5M95.5 62.5 95.5 61.5M95.5 63.5 94.5 63.5M94.5 63.5 93.5 63.5M96.5 63.5 95.5 63.5M96.5 62.5 96.5 63.5M98.5 62.5 98.5 61.5M98.5 64.5 97.5 64.5M98.5 64.5 97.5 63.5M98.5 63.5 97.5 64.5M98.5 63.5 97.5 63.5M95.5 65.5 95.5 64.5M97.5 65.5 97.5 66.5M99.5 65.5 98.5 65.5M99.5 65.5 98.5 64.5M99.5 64.5 98.5 65.5M99.5 64.5 98.5 64.5M98.5 65.5 97.5 65.5M100.5 65.5 99.5 65.5M100.5 64.5 100.5 63.5M105.5 65.5 104.5 65.5M115.5 65.5 114.5 65.5M116.5 65.5 115.5 65.5M16.5 67.5 16.5 68.5M49.5 67.5 49.5 68.5M50.5 67.5 49.5 67.5M55.5 67.5 54.5 67.5M80.5 67.5 80.5 68.5M81.5 67.5 80.5 67.5M89.5 67.5 88.5 67.5M90.5 68.5 89.5 68.5M90.5 68.5 89.5 67.5M90.5 67.5 89.5 68.5M90.5 67.5 89.5 67.5M93.5 67.5 94.5 67.5M92.5 67.5 93.5 67.5M95.5 67.5 95.5 66.5M94.5 67.5 95.5 67.5M97.5 66.5 97.5 67.5M97.5 67.5 97.5 68.5M96.5 66.5 96.5 67.5M98.5 67.5 98.5 66.5M99.5 68.5 98.5 68.5M99.5 68.5 98.5 67.5M99.5 67.5 98.5 68.5M99.5 67.5 98.5 67.5M100.5 67.5 99.5 67.5M105.5 67.5 104.5 67.5M115.5 67.5 114.5 67.5M116.5 67.5 115.5 67.5M17.5 69.5 17.5 70.5M17.5 68.5 17.5 69.5M49.5 68.5 49.5 69.5M55.5 68.5 55.5 67.5M55.5 69.5 55.5 68.5M56.5 69.5 55.5 69.5M64.5 69.5 63.5 69.5M71.5 68.5 71.5 67.5M72.5 68.5 71.5 68.5M72.5 69.5 71.5 69.5M80.5 68.5 79.5 68.5M80.5 69.5 79.5 69.5M81.5 69.5 80.5 69.5M89.5 68.5 89.5 67.5M89.5 69.5 88.5 69.5M91.5 68.5 90.5 68.5M90.5 69.5 89.5 69.5M91.5 69.5 90.5 69.5M92.5 68.5 92.5 67.5M97.5 68.5 96.5 68.5M99.5 70.5 98.5 70.5M99.5 70.5 98.5 69.5M99.5 69.5 98.5 70.5M99.5 69.5 98.5 69.5M100.5 69.5 99.5 69.5M105.5 69.5 104.5 69.5M115.5 69.5 114.5 69.5M116.5 69.5 115.5 69.5M17.5 71.5 17.5 72.5M16.5 71.5 17.5 71.5M16.5 70.5 16.5 71.5M17.5 70.5 16.5 70.5M18.5 71.5 17.5 71.5M19.5 71.5 18.5 71.5M20.5 71.5 19.5 71.5M21.5 71.5 20.5 71.5M22.5 71.5 21.5 71.5M23.5 71.5 22.5 71.5M24.5 71.5 23.5 71.5M25.5 71.5 24.5 71.5M26.5 71.5 25.5 71.5M27.5 71.5 26.5 71.5M29.5 71.5 28.5 71.5M28.5 71.5 27.5 71.5M30.5 71.5 29.5 71.5M31.5 71.5 30.5 71.5M32.5 71.5 31.5 71.5M33.5 71.5 32.5 71.5M34.5 71.5 33.5 71.5M35.5 71.5 34.5 71.5M40.5 71.5 39.5 71.5M43.5 71.5 42.5 71.5M46.5 71.5 45.5 71.5M49.5 71.5 48.5 71.5M49.5 70.5 49.5 71.5M51.5 71.5 50.5 71.5M50.5 70.5 49.5 70.5M53.5 71.5 53.5 72.5M54.5 71.5 54.5 72.5M54.5 70.5 54.5 71.5M56.5 71.5 55.5 71.5M56.5 70.5 55.5 70.5M64.5 71.5 63.5 71.5M64.5 70.5 63.5 70.5M72.5 70.5 71.5 70.5M79.5 71.5 78.5 71.5M80.5 71.5 79.5 71.5M81.5 71.5 82.5 71.5M80.5 70.5 79.5 70.5M81.5 70.5 80.5 70.5M89.5 70.5 88.5 70.5M90.5 70.5 89.5 70.5M90.5 71.5 90.5 70.5M95.5 70.5 94.5 70.5M94.5 70.5 94.5 71.5M97.5 71.5 97.5 72.5M100.5 70.5 99.5 70.5M105.5 70.5 104.5 70.5M115.5 70.5 114.5 70.5M116.5 70.5 115.5 70.5M17.5 72.5 17.5 73.5M17.5 73.5 17.5 74.5M20.5 72.5 19.5 72.5M21.5 72.5 20.5 72.5M23.5 72.5 22.5 72.5M22.5 72.5 21.5 72.5M25.5 72.5 24.5 72.5M27.5 72.5 26.5 72.5M29.5 72.5 28.5 72.5M28.5 72.5 27.5 72.5M31.5 72.5 30.5 72.5M34.5 72.5 33.5 72.5M36.5 73.5 36.5 72.5M37.5 73.5 36.5 73.5M38.5 72.5 37.5 72.5M39.5 72.5 38.5 72.5M41.5 72.5 40.5 72.5M43.5 72.5 42.5 72.5M45.5 73.5 44.5 73.5M45.5 72.5 44.5 72.5M46.5 72.5 45.5 72.5M47.5 72.5 46.5 72.5M50.5 72.5 49.5 72.5M53.5 72.5 53.5 73.5M53.5 73.5 52.5 73.5M54.5 72.5 54.5 73.5M54.5 73.5 53.5 73.5M56.5 73.5 56.5 72.5M56.5 72.5 55.5 72.5M59.5 72.5 60.5 72.5M59.5 73.5 59.5 72.5M58.5 73.5 59.5 73.5M60.5 73.5 59.5 73.5M61.5 73.5 60.5 73.5M62.5 72.5 63.5 72.5M65.5 73.5 64.5 73.5M65.5 72.5 66.5 72.5M64.5 72.5 64.5 71.5M64.5 73.5 64.5 72.5M66.5 73.5 65.5 73.5M67.5 72.5 68.5 72.5M71.5 72.5 71.5 73.5M71.5 73.5 72.5 73.5M70.5 73.5 71.5 73.5M70.5 72.5 71.5 72.5M73.5 72.5 74.5 72.5M72.5 72.5 73.5 72.5M72.5 73.5 72.5 72.5M74.5 73.5 73.5 73.5M75.5 73.5 74.5 73.5M75.5 72.5 76.5 72.5M74.5 72.5 75.5 72.5M76.5 73.5 75.5 73.5M77.5 73.5 76.5 73.5M77.5 72.5 78.5 72.5M76.5 72.5 77.5 72.5M81.5 73.5 81.5 72.5M80.5 72.5 80.5 71.5M80.5 72.5 81.5 71.5M81.5 72.5 80.5 71.5M81.5 72.5 81.5 71.5M83.5 72.5 84.5 72.5M85.5 72.5 86.5 72.5M84.5 72.5 85.5 72.5M91.5 72.5 92.5 72.5M92.5 72.5 92.5 71.5M92.5 73.5 91.5 73.5M93.5 73.5 92.5 73.5M95.5 72.5 95.5 71.5M96.5 72.5 95.5 72.5M97.5 72.5 96.5 72.5M97.5 73.5 97.5 72.5M98.5 72.5 98.5 73.5M100.5 72.5 100.5 71.5M100.5 73.5 100.5 72.5M17.5 74.5 17.5 75.5M16.5 74.5 16.5 75.5M55.5 74.5 56.5 74.5M54.5 74.5 55.5 74.5M54.5 75.5 54.5 74.5M55.5 75.5 54.5 75.5M57.5 75.5 57.5 74.5M56.5 74.5 56.5 73.5M57.5 74.5 56.5 74.5M58.5 74.5 58.5 73.5M59.5 74.5 58.5 74.5M58.5 75.5 57.5 75.5M59.5 75.5 58.5 75.5M61.5 74.5 61.5 73.5M60.5 74.5 59.5 74.5M62.5 75.5 61.5 75.5M62.5 75.5 61.5 74.5M62.5 74.5 61.5 75.5M62.5 74.5 61.5 74.5M63.5 76.5 62.5 76.5M63.5 76.5 62.5 75.5M63.5 75.5 62.5 76.5M63.5 75.5 62.5 75.5M65.5 75.5 64.5 75.5M65.5 75.5 64.5 74.5M65.5 74.5 64.5 75.5M65.5 74.5 64.5 74.5M66.5 74.5 65.5 74.5M72.5 74.5 71.5 74.5M72.5 75.5 72.5 74.5M75.5 75.5 75.5 74.5M75.5 75.5 76.5 74.5M76.5 75.5 75.5 74.5M76.5 75.5 76.5 74.5M77.5 75.5 78.5 75.5M77.5 74.5 77.5 73.5M79.5 75.5 79.5 76.5M78.5 75.5 79.5 75.5M80.5 75.5 79.5 75.5M81.5 75.5 80.5 75.5M81.5 74.5 81.5 73.5M82.5 75.5 81.5 75.5M82.5 75.5 81.5 74.5M82.5 74.5 81.5 75.5M82.5 74.5 81.5 74.5M83.5 75.5 82.5 75.5M84.5 75.5 84.5 74.5M84.5 75.5 85.5 74.5M85.5 75.5 84.5 74.5M85.5 75.5 85.5 74.5M91.5 75.5 90.5 75.5M97.5 74.5 98.5 74.5M97.5 75.5 97.5 74.5M96.5 75.5 95.5 75.5M96.5 74.5 96.5 75.5M99.5 74.5 100.5 74.5M98.5 74.5 99.5 74.5M100.5 74.5 100.5 73.5M46.5 76.5 45.5 76.5M52.5 76.5 51.5 76.5M53.5 76.5 52.5 76.5M59.5 76.5 58.5 76.5M60.5 76.5 59.5 76.5M64.5 76.5 63.5 76.5M66.5 76.5 65.5 76.5M70.5 76.5 69.5 76.5M72.5 76.5 71.5 76.5M73.5 76.5 72.5 76.5M75.5 76.5 74.5 76.5M76.5 76.5 76.5 75.5M81.5 76.5 80.5 76.5M82.5 76.5 81.5 76.5M83.5 76.5 82.5 76.5M84.5 77.5 84.5 78.5M84.5 76.5 84.5 75.5M85.5 77.5 84.5 77.5M85.5 77.5 84.5 76.5M85.5 76.5 84.5 77.5M85.5 76.5 84.5 76.5M86.5 77.5 85.5 77.5M91.5 76.5 90.5 76.5M91.5 77.5 91.5 76.5M94.5 77.5 93.5 77.5M94.5 76.5 94.5 77.5M90.5 79.5 90.5 78.5M91.5 79.5 91.5 80.5M91.5 78.5 91.5 79.5M97.5 78.5 97.5 77.5M98.5 78.5 97.5 78.5M99.5 78.5 98.5 78.5M100.5 78.5 99.5 78.5M105.5 78.5 104.5 78.5M115.5 78.5 114.5 78.5M116.5 78.5 115.5 78.5M16.5 81.5 16.5 82.5M61.5 81.5 61.5 82.5M61.5 80.5 61.5 81.5M62.5 81.5 62.5 82.5M62.5 80.5 61.5 80.5M67.5 81.5 67.5 80.5M67.5 80.5 66.5 80.5M72.5 81.5 72.5 80.5M73.5 81.5 73.5 82.5M74.5 81.5 73.5 81.5M77.5 80.5 77.5 79.5M78.5 80.5 77.5 80.5M80.5 81.5 79.5 81.5M84.5 81.5 84.5 82.5M85.5 80.5 84.5 80.5M86.5 81.5 85.5 81.5M90.5 81.5 90.5 80.5M90.5 80.5 90.5 79.5M91.5 80.5 91.5 81.5M93.5 80.5 92.5 80.5M97.5 81.5 97.5 80.5M98.5 82.5 97.5 82.5M98.5 82.5 97.5 81.5M98.5 81.5 97.5 82.5M98.5 81.5 97.5 81.5M100.5 80.5 99.5 80.5M105.5 80.5 104.5 80.5M115.5 80.5 114.5 80.5M116.5 80.5 115.5 80.5M15.5 83.5 15.5 84.5M15.5 82.5 15.5 83.5M17.5 82.5 17.5 83.5M16.5 82.5 15.5 82.5M17.5 83.5 16.5 83.5M16.5 83.5 16.5 84.5M61.5 83.5 61.5 84.5M61.5 82.5 61.5 83.5M62.5 83.5 62.5 84.5M62.5 82.5 62.5 83.5M67.5 82.5 67.5 81.5M67.5 83.5 67.5 82.5M77.5 82.5 76.5 82.5M76.5 82.5 76.5 81.5M84.5 82.5 83.5 82.5M91.5 82.5 90.5 82.5M90.5 82.5 90.5 81.5M93.5 82.5 92.5 82.5M92.5 82.5 91.5 82.5M95.5 82.5 94.5 82.5M94.5 82.5 93.5 82.5M96.5 82.5 95.5 82.5M97.5 82.5 96.5 82.5M97.5 83.5 97.5 84.5M98.5 83.5 97.5 83.5M99.5 83.5 98.5 83.5M99.5 83.5 98.5 82.5M99.5 82.5 98.5 83.5M99.5 82.5 98.5 82.5M100.5 83.5 99.5 83.5M100.5 82.5 99.5 82.5M105.5 83.5 104.5 83.5M105.5 82.5 104.5 82.5M115.5 82.5 114.5 82.5M115.5 83.5 114.5 83.5M116.5 82.5 115.5 82.5M116.5 83.5 115.5 83.5M15.5 85.5 15.5 86.5M15.5 84.5 15.5 85.5M16.5 85.5 16.5 86.5M16.5 84.5 16.5 85.5M17.5 85.5 17.5 86.5M17.5 84.5 17.5 85.5M18.5 84.5 17.5 84.5M21.5 85.5 20.5 85.5M21.5 84.5 20.5 84.5M24.5 84.5 23.5 84.5M27.5 84.5 26.5 84.5M27.5 85.5 26.5 85.5M30.5 84.5 29.5 84.5M30.5 85.5 30.5 84.5M32.5 85.5 31.5 85.5M32.5 84.5 31.5 84.5M39.5 85.5 39.5 86.5M39.5 84.5 39.5 85.5M38.5 85.5 37.5 85.5M38.5 84.5 37.5 84.5M40.5 84.5 39.5 84.5M43.5 84.5 42.5 84.5M43.5 85.5 42.5 85.5M46.5 84.5 45.5 84.5M49.5 85.5 48.5 85.5M49.5 84.5 48.5 84.5M52.5 84.5 51.5 84.5M55.5 85.5 54.5 85.5M55.5 84.5 54.5 84.5M58.5 84.5 57.5 84.5M61.5 85.5 60.5 85.5M61.5 84.5 60.5 84.5M63.5 85.5 62.5 85.5M63.5 84.5 63.5 85.5M62.5 85.5 61.5 85.5M62.5 84.5 63.5 84.5M67.5 84.5 67.5 83.5M68.5 85.5 68.5 84.5M68.5 84.5 67.5 84.5M73.5 85.5 73.5 84.5M72.5 84.5 72.5 83.5M73.5 84.5 72.5 84.5M91.5 85.5 91.5 84.5M92.5 85.5 91.5 85.5M97.5 85.5 97.5 86.5M97.5 84.5 97.5 85.5M100.5 85.5 99.5 85.5M105.5 85.5 104.5 85.5M115.5 85.5 114.5 85.5M116.5 85.5 115.5 85.5M17.5 86.5 17.5 87.5M31.5 86.5 30.5 86.5M30.5 86.5 30.5 85.5M39.5 86.5 38.5 86.5M68.5 86.5 68.5 85.5M68.5 87.5 68.5 86.5M69.5 87.5 68.5 87.5M73.5 86.5 73.5 85.5M74.5 86.5 73.5 86.5M77.5 87.5 76.5 87.5M77.5 87.5 76.5 86.5M77.5 86.5 76.5 87.5M77.5 86.5 76.5 86.5M79.5 87.5 78.5 87.5M78.5 88.5 77.5 88.5M78.5 88.5 77.5 87.5M78.5 87.5 77.5 88.5M78.5 87.5 77.5 87.5M80.5 87.5 79.5 87.5M81.5 87.5 80.5 87.5M82.5 87.5 81.5 87.5M83.5 87.5 82.5 87.5M84.5 87.5 83.5 87.5M85.5 87.5 84.5 87.5M86.5 87.5 85.5 87.5M87.5 87.5 86.5 87.5M88.5 87.5 87.5 87.5M89.5 87.5 88.5 87.5M90.5 87.5 89.5 87.5M91.5 87.5 90.5 87.5M92.5 87.5 91.5 87.5M93.5 87.5 92.5 87.5M95.5 87.5 94.5 87.5M94.5 87.5 93.5 87.5M96.5 87.5 95.5 87.5M97.5 87.5 96.5 87.5M97.5 86.5 97.5 87.5M65.5 88.5 65.5 89.5M66.5 88.5 65.5 88.5M72.5 88.5 71.5 88.5M15.5 93.5 15.5 94.5M16.5 93.5 16.5 94.5M17.5 93.5 17.5 94.5M15.5 95.5 15.5 96.5M15.5 94.5 15.5 95.5M17.5 94.5 17.5 95.5M17.5 95.5 17.5 96.5M16.5 95.5 16.5 96.5M16.5 94.5 16.5 95.5M15.5 97.5 15.5 98.5M15.5 96.5 15.5 97.5M17.5 96.5 17.5 97.5M16.5 96.5 16.5 97.5M16.5 97.5 16.5 98.5M17.5 97.5 17.5 98.5M15.5 99.5 15.5 100.5M15.5 98.5 15.5 99.5M16.5 99.5 17.5 99.5M17.5 99.5 18.5 99.5M16.5 98.5 16.5 99.5M17.5 98.5 18.5 98.5M19.5 98.5 20.5 98.5M19.5 99.5 19.5 98.5M20.5 98.5 21.5 98.5M21.5 99.5 22.5 99.5M20.5 99.5 21.5 99.5M22.5 99.5 22.5 100.5M23.5 99.5 24.5 99.5M23.5 98.5 24.5 98.5M25.5 99.5 26.5 99.5M27.5 99.5 28.5 99.5M26.5 99.5 27.5 99.5M26.5 98.5 27.5 98.5M28.5 99.5 28.5 100.5M29.5 99.5 30.5 99.5M29.5 98.5 30.5 98.5M31.5 99.5 32.5 99.5M32.5 99.5 33.5 99.5M33.5 99.5 34.5 99.5M32.5 98.5 33.5 98.5M35.5 98.5 36.5 98.5M35.5 99.5 36.5 99.5M34.5 99.5 34.5 100.5M37.5 99.5 38.5 99.5M38.5 98.5 39.5 98.5M38.5 99.5 39.5 99.5M39.5 99.5 40.5 99.5M41.5 98.5 42.5 98.5M41.5 99.5 42.5 99.5M40.5 99.5 40.5 100.5M43.5 99.5 44.5 99.5M44.5 98.5 45.5 98.5M44.5 99.5 45.5 99.5M45.5 99.5 46.5 99.5M47.5 98.5 48.5 98.5M47.5 99.5 48.5 99.5M46.5 99.5 46.5 100.5M49.5 99.5 50.5 99.5M50.5 98.5 51.5 98.5M50.5 99.5 51.5 99.5M51.5 99.5 52.5 99.5M53.5 98.5 54.5 98.5M53.5 99.5 54.5 99.5M52.5 99.5 52.5 100.5M55.5 99.5 56.5 99.5M56.5 98.5 57.5 98.5M56.5 99.5 57.5 99.5M57.5 99.5 58.5 99.5M59.5 98.5 60.5 98.5M59.5 99.5 60.5 99.5M58.5 99.5 58.5 100.5M61.5 99.5 62.5 99.5M62.5 98.5 63.5 98.5M62.5 99.5 63.5 99.5M63.5 99.5 64.5 99.5M65.5 98.5 66.5 98.5M65.5 99.5 66.5 99.5M64.5 99.5 64.5 100.5M67.5 99.5 68.5 99.5M68.5 98.5 69.5 98.5M68.5 99.5 69.5 99.5M69.5 99.5 70.5 99.5M71.5 98.5 72.5 98.5M71.5 99.5 72.5 99.5M70.5 99.5 70.5 100.5M73.5 99.5 74.5 99.5M15.5 100.5 16.5 100.5M17.5 101.5 17.5 102.5M17.5 100.5 18.5 100.5M16.5 100.5 17.5 100.5M19.5 100.5 20.5 100.5M18.5 100.5 19.5 100.5M20.5 100.5 20.5 99.5M23.5 100.5 24.5 100.5M22.5 100.5 23.5 100.5M25.5 100.5 25.5 99.5M24.5 100.5 25.5 100.5M29.5 100.5 30.5 100.5M28.5 100.5 29.5 100.5M31.5 100.5 31.5 99.5M30.5 100.5 31.5 100.5M34.5 100.5 35.5 100.5M35.5 100.5 36.5 100.5M36.5 100.5 37.5 100.5M37.5 100.5 37.5 99.5M40.5 100.5 41.5 100.5M41.5 100.5 42.5 100.5M42.5 100.5 43.5 100.5M43.5 100.5 43.5 99.5M46.5 100.5 47.5 100.5M47.5 100.5 48.5 100.5M48.5 100.5 49.5 100.5M49.5 100.5 49.5 99.5M52.5 100.5 53.5 100.5M53.5 100.5 54.5 100.5M54.5 100.5 55.5 100.5M55.5 100.5 55.5 99.5M58.5 100.5 59.5 100.5M59.5 100.5 60.5 100.5M60.5 100.5 61.5 100.5M61.5 100.5 61.5 99.5M64.5 100.5 65.5 100.5M65.5 100.5 66.5 100.5M66.5 100.5 67.5 100.5M67.5 100.5 67.5 99.5M70.5 100.5 71.5 100.5M71.5 100.5 72.5 100.5M72.5 100.5 73.5 100.5M73.5 100.5 73.5 99.5M15.5 103.5 16.5 103.5M17.5 102.5 18.5 102.5M17.5 103.5 17.5 102.5M16.5 103.5 17.5 103.5M19.5 102.5 19.5 101.5M18.5 102.5 19.5 102.5"/><path d="M71.5 41.5 71.5 40.5M71.5 40.5 72.5 40.5M72.5 40.5 73.5 40.5M73.5 41.5 73.5 40.5M73.5 40.5 74.5 40.5M76.5 41.5 76.5 40.5M75.5 40.5 76.5 40.5M75.5 40.5 74.5 40.5M73.5 49.5 73.5 50.5M76.5 49.5 76.5 50.5M71.5 49.5 71.5 50.5M71.5 50.5 72.5 50.5M72.5 50.5 73.5 50.5M73.5 50.5 74.5 50.5M75.5 50.5 76.5 50.5M75.5 50.5 74.5 50.5M77.5 50.5 76.5 50.5M85.5 50.5 86.5 50.5M94.5 50.5 95.5 50.5M99.5 50.5 100.5 50.5M105.5 50.5 104.5 50.5M115.5 50.5 114.5 50.5M97.5 52.5 98.5 52.5M97.5 52.5 97.5 53.5M105.5 52.5 104.5 52.5M115.5 52.5 114.5 52.5M97.5 61.5 97.5 62.5M57.5 67.5 58.5 67.5M57.5 67.5 57.5 68.5M57.5 67.5 56.5 67.5M56.5 67.5 56.5 68.5M58.5 67.5 59.5 67.5M59.5 67.5 60.5 67.5M59.5 67.5 59.5 68.5M61.5 67.5 60.5 67.5M60.5 67.5 60.5 68.5M66.5 67.5 67.5 67.5M67.5 67.5 68.5 67.5M67.5 67.5 67.5 68.5M68.5 67.5 68.5 68.5M93.5 69.5 94.5 69.5M93.5 69.5 93.5 70.5M95.5 69.5 96.5 69.5M96.5 69.5 96.5 70.5M97.5 69.5 97.5 70.5M96.5 70.5 97.5 70.5M56.5 75.5 56.5 76.5M93.5 75.5 93.5 76.5M56.5 76.5 57.5 76.5M67.5 76.5 68.5 76.5M77.5 76.5 78.5 76.5M89.5 76.5 88.5 76.5M93.5 76.5 92.5 76.5"/><path d="M16.5 15.5 16.5 17.5M17.5 14.5 17.5 18.5M19.5 18.5 19.5 14.5M18.5 18.5 18.5 14.5M20.5 15.5 20.5 17.5M21.5 14.5 21.5 18.5M23.5 15.5 23.5 17.5M22.5 14.5 22.5 18.5M25.5 18.5 25.5 14.5M24.5 18.5 24.5 14.5M26.5 15.5 26.5 17.5M27.5 14.5 27.5 18.5M29.5 15.5 29.5 17.5M28.5 14.5 28.5 18.5M31.5 18.5 31.5 14.5M30.5 18.5 30.5 14.5M32.5 15.5 32.5 17.5M33.5 14.5 33.5 18.5M35.5 15.5 35.5 17.5M34.5 14.5 34.5 18.5M37.5 18.5 37.5 14.5M36.5 18.5 36.5 14.5M38.5 15.5 38.5 17.5M39.5 14.5 39.5 18.5M41.5 15.5 41.5 17.5M40.5 14.5 40.5 18.5M42.5 18.5 42.5 14.5M47.5 18.5 47.5 14.5M48.5 15.5 48.5 17.5M49.5 14.5 49.5 18.5M51.5 15.5 51.5 17.5M50.5 14.5 50.5 18.5M53.5 18.5 53.5 14.5M52.5 18.5 52.5 14.5M54.5 15.5 54.5 17.5M55.5 14.5 55.5 18.5M57.5 15.5 57.5 17.5M56.5 14.5 56.5 18.5M59.5 18.5 59.5 14.5M58.5 18.5 58.5 14.5M60.5 15.5 60.5 17.5M61.5 14.5 61.5 18.5M63.5 15.5 63.5 17.5M62.5 14.5 62.5 18.5M64.5 18.5 64.5 14.5M17.5 27.5 17.5 25.5M16.5 28.5 16.5 24.5M19.5 24.5 19.5 28.5M18.5 24.5 18.5 28.5M20.5 27.5 20.5 25.5M21.5 28.5 21.5 24.5M23.5 27.5 23.5 25.5M22.5 28.5 22.5 24.5M24.5 24.5 24.5 28.5M25.5 24.5 25.5 28.5M26.5 27.5 26.5 25.5M27.5 28.5 27.5 24.5M29.5 27.5 29.5 25.5M28.5 28.5 28.5 24.5M30.5 24.5 30.5 28.5M35.5 27.5 35.5 25.5M34.5 28.5 34.5 24.5M36.5 24.5 36.5 28.5M37.5 24.5 37.5 28.5M38.5 27.5 38.5 25.5M39.5 28.5 39.5 24.5M41.5 27.5 41.5 25.5M40.5 28.5 40.5 24.5M42.5 24.5 42.5 28.5M43.5 24.5 43.5 28.5M44.5 27.5 44.5 25.5M45.5 28.5 45.5 24.5M47.5 27.5 47.5 25.5M46.5 28.5 46.5 24.5M48.5 24.5 48.5 28.5M53.5 27.5 53.5 25.5M52.5 24.5 52.5 28.5M55.5 28.5 55.5 24.5M54.5 28.5 54.5 24.5M56.5 27.5 56.5 25.5M57.5 24.5 57.5 28.5M59.5 27.5 59.5 25.5M58.5 24.5 58.5 28.5M61.5 28.5 61.5 24.5M60.5 28.5 60.5 24.5M62.5 27.5 62.5 25.5M63.5 24.5 63.5 28.5M19.5 30.5 19.5 32.5M21.5 30.5 21.5 32.5M20.5 30.5 20.5 32.5M23.5 30.5 23.5 32.5M22.5 30.5 22.5 32.5M24.5 30.5 24.5 32.5M69.5 30.5 69.5 32.5M71.5 30.5 71.5 32.5M70.5 30.5 70.5 32.5M73.5 30.5 73.5 32.5M72.5 30.5 72.5 32.5M74.5 30.5 74.5 32.5M19.5 32.5 17.5 32.5M19.5 33.5 17.5 33.5M24.5 32.5 26.5 32.5M24.5 33.5 26.5 33.5M30.5 34.5 30.5 32.5M31.5 32.5 31.5 34.5M32.5 34.5 32.5 32.5M37.5 34.5 37.5 32.5M39.5 32.5 39.5 34.5M40.5 32.5 40.5 34.5M42.5 34.5 42.5 32.5M43.5 34.5 43.5 32.5M45.5 32.5 45.5 34.5M46.5 32.5 46.5 34.5M49.5 34.5 49.5 32.5M48.5 34.5 48.5 32.5M51.5 32.5 51.5 34.5M52.5 32.5 52.5 34.5M55.5 34.5 55.5 32.5M54.5 34.5 54.5 32.5M57.5 32.5 57.5 34.5M58.5 32.5 58.5 34.5M60.5 34.5 60.5 32.5M61.5 34.5 61.5 32.5M63.5 34.5 63.5 32.5M62.5 32.5 62.5 34.5M69.5 32.5 67.5 32.5M69.5 33.5 67.5 33.5M74.5 32.5 76.5 32.5M74.5 33.5 76.5 33.5M89.5 34.5 89.5 32.5M88.5 32.5 88.5 34.5M91.5 31.5 91.5 35.5M90.5 31.5 90.5 35.5M92.5 34.5 92.5 32.5M93.5 32.5 93.5 34.5M19.5 34.5 19.5 36.5M21.5 36.5 21.5 34.5M22.5 36.5 22.5 34.5M24.5 34.5 26.5 34.5M69.5 34.5 69.5 36.5M71.5 36.5 71.5 34.5M72.5 36.5 72.5 34.5M74.5 34.5 76.5 34.5M19.5 44.5 19.5 42.5M20.5 41.5 20.5 45.5M21.5 44.5 21.5 42.5M23.5 41.5 23.5 45.5M22.5 44.5 22.5 42.5M25.5 44.5 25.5 42.5M24.5 44.5 24.5 42.5M26.5 41.5 26.5 45.5M27.5 44.5 27.5 42.5M29.5 41.5 29.5 45.5M28.5 44.5 28.5 42.5M30.5 44.5 30.5 42.5M35.5 41.5 35.5 45.5M34.5 44.5 34.5 42.5M37.5 44.5 37.5 42.5M36.5 44.5 36.5 42.5M38.5 41.5 38.5 45.5M39.5 44.5 39.5 42.5M41.5 41.5 41.5 45.5M40.5 44.5 40.5 42.5M43.5 44.5 43.5 42.5M42.5 44.5 42.5 42.5M44.5 41.5 44.5 45.5M45.5 44.5 45.5 42.5M47.5 41.5 47.5 45.5M46.5 44.5 46.5 42.5M48.5 44.5 48.5 42.5M53.5 41.5 53.5 45.5M52.5 44.5 52.5 42.5M55.5 44.5 55.5 42.5M54.5 44.5 54.5 42.5M56.5 41.5 56.5 45.5M57.5 44.5 57.5 42.5M59.5 41.5 59.5 45.5M58.5 44.5 58.5 42.5M61.5 44.5 61.5 42.5M60.5 44.5 60.5 42.5M62.5 41.5 62.5 45.5M63.5 44.5 63.5 42.5M65.5 41.5 65.5 45.5M64.5 44.5 64.5 42.5M66.5 44.5 66.5 42.5M79.5 44.5 79.5 42.5M81.5 42.5 81.5 44.5M80.5 45.5 80.5 41.5M82.5 42.5 82.5 44.5M83.5 45.5 83.5 41.5M84.5 44.5 84.5 42.5M88.5 44.5 88.5 42.5M89.5 45.5 89.5 41.5M91.5 42.5 91.5 44.5M90.5 42.5 90.5 44.5M93.5 44.5 93.5 42.5M92.5 45.5 92.5 41.5M73.5 43.5 73.5 45.5M75.5 45.5 75.5 43.5M74.5 45.5 74.5 43.5M76.5 43.5 76.5 45.5M14.5 47.5 16.5 47.5M18.5 47.5 16.5 47.5M19.5 46.5 19.5 48.5M21.5 46.5 21.5 48.5M20.5 49.5 20.5 45.5M22.5 46.5 22.5 48.5M23.5 49.5 23.5 45.5M24.5 46.5 24.5 48.5M25.5 46.5 25.5 48.5M27.5 46.5 27.5 48.5M26.5 49.5 26.5 45.5M28.5 46.5 28.5 48.5M29.5 49.5 29.5 45.5M30.5 46.5 30.5 48.5M34.5 46.5 34.5 48.5M35.5 49.5 35.5 45.5M36.5 46.5 36.5 48.5M37.5 46.5 37.5 48.5M39.5 46.5 39.5 48.5M38.5 49.5 38.5 45.5M40.5 46.5 40.5 48.5M41.5 49.5 41.5 45.5M42.5 46.5 42.5 48.5M43.5 46.5 43.5 48.5M45.5 46.5 45.5 48.5M44.5 49.5 44.5 45.5M46.5 46.5 46.5 48.5M47.5 49.5 47.5 45.5M48.5 46.5 48.5 48.5M52.5 46.5 52.5 48.5M53.5 49.5 53.5 45.5M54.5 46.5 54.5 48.5M55.5 46.5 55.5 48.5M57.5 46.5 57.5 48.5M56.5 49.5 56.5 45.5M58.5 46.5 58.5 48.5M59.5 49.5 59.5 45.5M61.5 46.5 61.5 48.5M60.5 46.5 60.5 48.5M63.5 46.5 63.5 48.5M62.5 49.5 62.5 45.5M64.5 46.5 64.5 48.5M65.5 49.5 65.5 45.5M66.5 46.5 66.5 48.5M73.5 47.5 73.5 45.5M75.5 45.5 75.5 47.5M74.5 45.5 74.5 47.5M76.5 47.5 76.5 45.5M79.5 44.5 79.5 48.5M80.5 48.5 80.5 44.5M80.5 45.5 80.5 49.5M83.5 48.5 83.5 44.5M83.5 45.5 83.5 49.5M84.5 44.5 84.5 48.5M88.5 44.5 88.5 48.5M89.5 45.5 89.5 49.5M91.5 48.5 91.5 44.5M90.5 48.5 90.5 44.5M93.5 44.5 93.5 48.5M92.5 45.5 92.5 49.5M95.5 54.5 93.5 54.5M19.5 58.5 19.5 56.5M20.5 55.5 20.5 59.5M21.5 58.5 21.5 56.5M23.5 55.5 23.5 59.5M22.5 58.5 22.5 56.5M25.5 58.5 25.5 56.5M24.5 58.5 24.5 56.5M26.5 55.5 26.5 59.5M27.5 58.5 27.5 56.5M29.5 55.5 29.5 59.5M28.5 58.5 28.5 56.5M30.5 58.5 30.5 56.5M35.5 55.5 35.5 59.5M34.5 58.5 34.5 56.5M37.5 58.5 37.5 56.5M36.5 58.5 36.5 56.5M38.5 55.5 38.5 59.5M39.5 58.5 39.5 56.5M41.5 55.5 41.5 59.5M40.5 58.5 40.5 56.5M42.5 58.5 42.5 56.5M43.5 58.5 43.5 56.5M44.5 55.5 44.5 59.5M45.5 58.5 45.5 56.5M47.5 55.5 47.5 59.5M46.5 58.5 46.5 56.5M48.5 58.5 48.5 56.5M53.5 55.5 53.5 59.5M52.5 58.5 52.5 56.5M55.5 58.5 55.5 56.5M54.5 58.5 54.5 56.5M56.5 55.5 56.5 59.5M57.5 58.5 57.5 56.5M59.5 55.5 59.5 59.5M58.5 58.5 58.5 56.5M61.5 59.5 61.5 55.5M60.5 58.5 60.5 56.5M62.5 59.5 62.5 55.5M63.5 56.5 63.5 58.5M65.5 59.5 65.5 55.5M64.5 56.5 64.5 58.5M66.5 59.5 66.5 55.5M71.5 59.5 71.5 55.5M70.5 56.5 70.5 58.5M73.5 59.5 73.5 55.5M72.5 59.5 72.5 55.5M74.5 59.5 74.5 55.5M75.5 56.5 75.5 58.5M77.5 59.5 77.5 55.5M76.5 56.5 76.5 58.5M79.5 59.5 79.5 55.5M78.5 59.5 78.5 55.5M80.5 59.5 80.5 55.5M81.5 56.5 81.5 58.5M83.5 59.5 83.5 55.5M82.5 56.5 82.5 58.5M84.5 59.5 84.5 55.5M89.5 56.5 89.5 58.5M88.5 59.5 88.5 55.5M90.5 59.5 90.5 55.5M93.5 56.5 93.5 58.5M92.5 56.5 92.5 58.5M18.5 61.5 18.5 59.5M19.5 58.5 19.5 62.5M20.5 61.5 20.5 59.5M21.5 58.5 21.5 62.5M23.5 61.5 23.5 59.5M22.5 58.5 22.5 62.5M24.5 58.5 24.5 62.5M25.5 58.5 25.5 62.5M26.5 61.5 26.5 59.5M27.5 58.5 27.5 62.5M29.5 61.5 29.5 59.5M28.5 58.5 28.5 62.5M30.5 58.5 30.5 62.5M35.5 61.5 35.5 59.5M34.5 58.5 34.5 62.5M36.5 58.5 36.5 62.5M37.5 58.5 37.5 62.5M38.5 61.5 38.5 59.5M39.5 58.5 39.5 62.5M41.5 61.5 41.5 59.5M40.5 58.5 40.5 62.5M43.5 58.5 43.5 62.5M42.5 58.5 42.5 62.5M44.5 61.5 44.5 59.5M45.5 58.5 45.5 62.5M47.5 61.5 47.5 59.5M46.5 58.5 46.5 62.5M48.5 58.5 48.5 62.5M53.5 61.5 53.5 59.5M52.5 58.5 52.5 62.5M55.5 58.5 55.5 62.5M54.5 58.5 54.5 62.5M56.5 61.5 56.5 59.5M57.5 58.5 57.5 62.5M59.5 61.5 59.5 59.5M58.5 58.5 58.5 62.5M61.5 59.5 61.5 61.5M60.5 58.5 60.5 62.5M62.5 59.5 62.5 61.5M63.5 62.5 63.5 58.5M65.5 59.5 65.5 61.5M64.5 62.5 64.5 58.5M67.5 59.5 67.5 61.5M66.5 59.5 66.5 61.5M69.5 59.5 69.5 61.5M68.5 62.5 68.5 58.5M71.5 59.5 71.5 61.5M70.5 62.5 70.5 58.5M73.5 59.5 73.5 61.5M72.5 59.5 72.5 61.5M74.5 59.5 74.5 61.5M75.5 62.5 75.5 58.5M77.5 59.5 77.5 61.5M76.5 62.5 76.5 58.5M79.5 59.5 79.5 61.5M78.5 59.5 78.5 61.5M80.5 59.5 80.5 61.5M81.5 62.5 81.5 58.5M83.5 59.5 83.5 61.5M82.5 62.5 82.5 58.5M84.5 59.5 84.5 61.5M85.5 62.5 85.5 58.5M86.5 59.5 86.5 61.5M87.5 59.5 87.5 61.5M90.5 61.5 92.5 61.5M90.5 61.5 90.5 59.5M92.5 62.5 90.5 62.5M92.5 63.5 90.5 63.5M71.5 67.5 73.5 67.5M80.5 67.5 78.5 67.5M49.5 69.5 51.5 69.5M49.5 68.5 51.5 68.5M55.5 69.5 53.5 69.5M55.5 68.5 53.5 68.5M80.5 68.5 82.5 68.5M89.5 68.5 87.5 68.5M18.5 69.5 18.5 71.5M19.5 72.5 19.5 68.5M21.5 69.5 21.5 71.5M20.5 72.5 20.5 68.5M22.5 69.5 22.5 71.5M23.5 72.5 23.5 68.5M25.5 72.5 25.5 68.5M24.5 72.5 24.5 68.5M27.5 69.5 27.5 71.5M26.5 72.5 26.5 68.5M28.5 69.5 28.5 71.5M29.5 72.5 29.5 68.5M31.5 72.5 31.5 68.5M30.5 72.5 30.5 68.5M32.5 69.5 32.5 71.5M33.5 72.5 33.5 68.5M35.5 69.5 35.5 71.5M34.5 72.5 34.5 68.5M37.5 71.5 37.5 69.5M36.5 72.5 36.5 68.5M38.5 68.5 38.5 72.5M39.5 71.5 39.5 69.5M41.5 68.5 41.5 72.5M40.5 71.5 40.5 69.5M43.5 71.5 43.5 69.5M42.5 71.5 42.5 69.5M44.5 68.5 44.5 72.5M45.5 71.5 45.5 69.5M47.5 68.5 47.5 72.5M46.5 71.5 46.5 69.5M48.5 71.5 48.5 69.5M53.5 69.5 53.5 71.5M57.5 70.5 57.5 72.5M59.5 72.5 59.5 70.5M60.5 72.5 60.5 70.5M62.5 70.5 62.5 72.5M65.5 70.5 65.5 72.5M67.5 72.5 67.5 70.5M68.5 72.5 68.5 70.5M70.5 70.5 70.5 72.5M73.5 71.5 73.5 69.5M74.5 68.5 74.5 72.5M75.5 71.5 75.5 69.5M77.5 68.5 77.5 72.5M76.5 71.5 76.5 69.5M78.5 71.5 78.5 69.5M82.5 71.5 82.5 69.5M83.5 68.5 83.5 72.5M85.5 71.5 85.5 69.5M84.5 71.5 84.5 69.5M86.5 68.5 86.5 72.5M87.5 71.5 87.5 69.5M19.5 72.5 19.5 74.5M21.5 75.5 21.5 71.5M20.5 72.5 20.5 74.5M22.5 75.5 22.5 71.5M23.5 72.5 23.5 74.5M24.5 72.5 24.5 74.5M25.5 72.5 25.5 74.5M27.5 75.5 27.5 71.5M26.5 72.5 26.5 74.5M28.5 75.5 28.5 71.5M29.5 72.5 29.5 74.5M30.5 72.5 30.5 74.5M38.5 74.5 38.5 72.5M39.5 72.5 39.5 74.5M43.5 72.5 43.5 74.5M42.5 72.5 42.5 74.5M47.5 74.5 47.5 72.5M49.5 72.5 49.5 74.5M42.5 75.5 38.5 75.5M43.5 75.5 39.5 75.5M43.5 75.5 47.5 75.5M44.5 75.5 48.5 75.5M41.5 76.5 39.5 76.5M51.5 76.5 49.5 76.5M65.5 81.5 67.5 81.5M69.5 81.5 67.5 81.5M18.5 82.5 18.5 84.5M21.5 84.5 21.5 82.5M20.5 84.5 20.5 82.5M23.5 82.5 23.5 84.5M24.5 82.5 24.5 84.5M27.5 84.5 27.5 82.5M26.5 84.5 26.5 82.5M29.5 82.5 29.5 84.5M37.5 84.5 37.5 82.5M39.5 82.5 39.5 84.5M40.5 82.5 40.5 84.5M43.5 84.5 43.5 82.5M42.5 84.5 42.5 82.5M45.5 82.5 45.5 84.5M46.5 82.5 46.5 84.5M49.5 84.5 49.5 82.5M48.5 84.5 48.5 82.5M51.5 82.5 51.5 84.5M52.5 82.5 52.5 84.5M54.5 84.5 54.5 82.5M55.5 84.5 55.5 82.5M57.5 82.5 57.5 84.5M58.5 82.5 58.5 84.5M60.5 84.5 60.5 82.5M67.5 82.5 65.5 82.5M67.5 82.5 69.5 82.5M73.5 82.5 71.5 82.5M19.5 85.5 17.5 85.5M65.5 85.5 65.5 83.5M64.5 85.5 64.5 83.5M68.5 85.5 66.5 85.5M68.5 85.5 70.5 85.5M70.5 85.5 70.5 83.5M71.5 85.5 71.5 83.5M15.5 87.5 17.5 87.5M18.5 88.5 18.5 84.5M20.5 85.5 20.5 87.5M21.5 85.5 21.5 87.5M23.5 88.5 23.5 84.5M24.5 88.5 24.5 84.5M27.5 85.5 27.5 87.5M26.5 85.5 26.5 87.5M29.5 88.5 29.5 84.5M40.5 88.5 40.5 84.5M42.5 85.5 42.5 87.5M43.5 85.5 43.5 87.5M45.5 88.5 45.5 84.5M46.5 88.5 46.5 84.5M48.5 85.5 48.5 87.5M52.5 88.5 52.5 84.5M55.5 85.5 55.5 87.5M54.5 85.5 54.5 87.5M57.5 88.5 57.5 84.5M58.5 88.5 58.5 84.5M61.5 87.5 61.5 85.5M60.5 85.5 60.5 87.5M62.5 87.5 62.5 85.5M68.5 86.5 66.5 86.5M68.5 86.5 70.5 86.5M65.5 89.5 63.5 89.5M65.5 88.5 63.5 88.5M18.5 99.5 18.5 95.5M18.5 98.5 18.5 94.5M21.5 98.5 21.5 94.5M21.5 99.5 21.5 95.5M20.5 99.5 20.5 95.5M20.5 98.5 20.5 94.5M23.5 98.5 23.5 94.5M23.5 99.5 23.5 95.5M24.5 99.5 24.5 95.5M24.5 98.5 24.5 94.5M26.5 98.5 26.5 94.5M26.5 99.5 26.5 95.5M27.5 99.5 27.5 95.5M27.5 98.5 27.5 94.5M29.5 98.5 29.5 94.5M29.5 99.5 29.5 95.5M30.5 99.5 30.5 95.5M30.5 98.5 30.5 94.5M32.5 98.5 32.5 94.5M32.5 99.5 32.5 95.5M33.5 99.5 33.5 95.5M33.5 98.5 33.5 94.5M35.5 99.5 35.5 95.5M35.5 98.5 35.5 94.5M36.5 98.5 36.5 94.5M36.5 99.5 36.5 95.5M39.5 98.5 39.5 94.5M39.5 99.5 39.5 95.5M38.5 99.5 38.5 95.5M38.5 98.5 38.5 94.5M41.5 99.5 41.5 95.5M41.5 98.5 41.5 94.5M42.5 98.5 42.5 94.5M42.5 99.5 42.5 95.5M45.5 98.5 45.5 94.5M45.5 99.5 45.5 95.5M44.5 99.5 44.5 95.5M44.5 98.5 44.5 94.5M47.5 99.5 47.5 95.5M47.5 98.5 47.5 94.5M48.5 98.5 48.5 94.5M48.5 99.5 48.5 95.5M51.5 98.5 51.5 94.5M51.5 99.5 51.5 95.5M50.5 99.5 50.5 95.5M50.5 98.5 50.5 94.5M53.5 99.5 53.5 95.5M53.5 98.5 53.5 94.5M54.5 98.5 54.5 94.5M54.5 99.5 54.5 95.5M57.5 98.5 57.5 94.5M57.5 99.5 57.5 95.5M56.5 99.5 56.5 95.5M56.5 98.5 56.5 94.5M59.5 99.5 59.5 95.5M59.5 98.5 59.5 94.5M60.5 98.5 60.5 94.5M60.5 99.5 60.5 95.5M63.5 98.5 63.5 94.5M63.5 99.5 63.5 95.5M62.5 99.5 62.5 95.5M62.5 98.5 62.5 94.5M65.5 99.5 65.5 95.5M65.5 98.5 65.5 94.5M66.5 98.5 66.5 94.5M66.5 99.5 66.5 95.5M69.5 98.5 69.5 94.5M69.5 99.5 69.5 95.5M68.5 99.5 68.5 95.5M68.5 98.5 68.5 94.5M71.5 99.5 71.5 95.5M71.5 98.5 71.5 94.5M72.5 98.5 72.5 94.5M72.5 99.5 72.5 95.5M74.5 99.5 74.5 95.5M74.5 98.5 74.5 94.5M15.5 101.5 17.5 101.5M15.5 101.5 15.5 103.5"/><path d=""/></g></svg>