<svg baseProfile="tiny" height="300mm" version="1.2" viewBox="0,0,120.0,120.0" width="300.0mm" xmlns="http://www.w3.org/2000/svg" xmlns:ev="http://www.w3.org/2001/xml-events" xmlns:xlink="http://www.w3.org/1999/xlink"><metadata><generated_with>https://piebro.github.io/factorio-blueprint-visualizer/</generated_with><settings>[['meta', {'background': '#e9c46a'}], ['default-svg-properties', {'stroke': '#2a9d8f', 'stroke-width': 0.8, 'stroke-linecap': 'round'}], ['connected-underground-belt', {}], ['connected-belt', {}], ['connected-rail', {}], ['bbox', {'deny': ['connected-stuff', 'beacon'], 'fill': '#264653', 'stroke': '#e9c46a', 'stroke-width': 0.2, 'bbox-scale': 1, 'bbox-rx': 0, 'bbox-ry': 0}], ['connected-inserter', {'stroke': '#264653', 'stroke-width': 0.8, 'stroke-linecap': 'square'}]]</settings></metadata><rect fill="#e9c46a" height="10000" width="10000" x="-100" y="-100" /><g stroke="#2a9d8f" stroke-width="0.8" stroke-linecap="round"><path d="M69.5 14.5 64.5 14.5M76.5 14.5 71.5 14.5M83.5 14.5 78.5 14.5M90.5 14.5 85.5 14.5M96.5 14.5 91.5 14.5M79.5 19.5 74.5 19.5M86.5 19.5 81.5 19.5M93.5 19.5 88.5 19.5M104.5 19.5 100.5 19.5M30.5 20.5 25.5 20.5M37.5 20.5 32.5 20.5M44.5 20.5 39.5 20.5M51.5 20.5 46.5 20.5M58.5 20.5 53.5 20.5M65.5 20.5 60.5 20.5M72.5 20.5 67.5 20.5M80.5 20.5 77.5 20.5M86.5 20.5 81.5 20.5M90.5 20.5 87.5 20.5M96.5 20.5 91.5 20.5M94.5 23.5 94.5 20.5M23.5 26.5 18.5 26.5M30.5 26.5 25.5 26.5M37.5 26.5 32.5 26.5M44.5 26.5 39.5 26.5M51.5 26.5 46.5 26.5M58.5 26.5 53.5 26.5M65.5 26.5 60.5 26.5M72.5 26.5 67.5 26.5M81.5 27.5 76.5 27.5M87.5 27.5 82.5 27.5M93.5 27.5 88.5 27.5M77.5 29.5 77.5 31.5M81.5 29.5 78.5 29.5M87.5 28.5 82.5 28.5M88.5 29.5 93.5 29.5M93.5 28.5 88.5 28.5M94.5 29.5 94.5 24.5M98.5 28.5 94.5 28.5M104.5 29.5 100.5 29.5M98.5 31.5 98.5 26.5M104.5 31.5 100.5 31.5M23.5 32.5 18.5 32.5M30.5 32.5 25.5 32.5M37.5 32.5 32.5 32.5M44.5 32.5 39.5 32.5M51.5 32.5 46.5 32.5M58.5 32.5 53.5 32.5M65.5 32.5 60.5 32.5M72.5 32.5 67.5 32.5M78.5 32.5 73.5 32.5M99.5 32.5 96.5 32.5M104.5 33.5 100.5 33.5M87.5 35.5 87.5 30.5M96.5 34.5 96.5 29.5M97.5 35.5 97.5 38.5M98.5 37.5 98.5 32.5M104.5 36.5 100.5 36.5M86.5 38.5 86.5 43.5M87.5 39.5 87.5 36.5M93.5 38.5 93.5 33.5M96.5 39.5 94.5 39.5M98.5 38.5 95.5 38.5M104.5 38.5 100.5 38.5M86.5 41.5 82.5 41.5M92.5 41.5 87.5 41.5M96.5 40.5 96.5 35.5M104.5 40.5 100.5 40.5M14.5 42.5 14.5 47.5M19.5 43.5 17.5 43.5M26.5 43.5 21.5 43.5M33.5 43.5 28.5 43.5M40.5 43.5 35.5 43.5M47.5 43.5 42.5 43.5M54.5 43.5 49.5 43.5M59.5 43.5 56.5 43.5M68.5 43.5 64.5 43.5M75.5 43.5 71.5 43.5M82.5 43.5 78.5 43.5M89.5 43.5 85.5 43.5M16.5 44.5 16.5 47.5M65.5 44.5 65.5 49.5M73.5 45.5 73.5 49.5M79.5 44.5 74.5 44.5M86.5 44.5 81.5 44.5M98.5 44.5 98.5 46.5M104.5 47.5 100.5 47.5M19.5 49.5 17.5 49.5M26.5 49.5 22.5 49.5M33.5 49.5 29.5 49.5M40.5 49.5 36.5 49.5M47.5 49.5 43.5 49.5M54.5 49.5 50.5 49.5M65.5 48.5 60.5 48.5M72.5 48.5 67.5 48.5M79.5 48.5 74.5 48.5M86.5 48.5 81.5 48.5M93.5 48.5 88.5 48.5M98.5 48.5 94.5 48.5M62.5 51.5 62.5 54.5M73.5 50.5 73.5 54.5M104.5 50.5 100.5 50.5M60.5 54.5 60.5 51.5M73.5 55.5 73.5 59.5M95.5 55.5 95.5 50.5M97.5 54.5 97.5 50.5M104.5 55.5 100.5 55.5M67.5 57.5 72.5 57.5M74.5 57.5 79.5 57.5M81.5 57.5 86.5 57.5M88.5 57.5 93.5 57.5M23.5 59.5 18.5 59.5M30.5 59.5 25.5 59.5M37.5 59.5 32.5 59.5M44.5 59.5 39.5 59.5M51.5 59.5 46.5 59.5M60.5 59.5 60.5 55.5M66.5 58.5 66.5 63.5M104.5 58.5 100.5 58.5M19.5 60.5 22.5 60.5M26.5 60.5 29.5 60.5M33.5 60.5 36.5 60.5M40.5 60.5 43.5 60.5M47.5 60.5 50.5 60.5M73.5 60.5 73.5 65.5M60.5 65.5 55.5 65.5M62.5 64.5 67.5 64.5M65.5 65.5 65.5 69.5M68.5 64.5 72.5 64.5M74.5 64.5 79.5 64.5M81.5 64.5 86.5 64.5M88.5 64.5 93.5 64.5M64.5 67.5 64.5 71.5M23.5 70.5 18.5 70.5M30.5 70.5 25.5 70.5M37.5 70.5 32.5 70.5M44.5 70.5 39.5 70.5M51.5 70.5 46.5 70.5M58.5 70.5 53.5 70.5M65.5 70.5 65.5 75.5M15.5 72.5 15.5 77.5M14.5 72.5 14.5 77.5M16.5 72.5 16.5 77.5M63.5 72.5 58.5 72.5M23.5 76.5 18.5 76.5M30.5 76.5 25.5 76.5M37.5 76.5 32.5 76.5M44.5 76.5 39.5 76.5M51.5 76.5 46.5 76.5M58.5 76.5 53.5 76.5M65.5 76.5 60.5 76.5M15.5 89.5 19.5 89.5M16.5 88.5 19.5 88.5M20.5 89.5 25.5 89.5M20.5 88.5 25.5 88.5M26.5 88.5 31.5 88.5M26.5 89.5 31.5 89.5M32.5 89.5 37.5 89.5M32.5 88.5 37.5 88.5M38.5 89.5 43.5 89.5M38.5 88.5 43.5 88.5M44.5 88.5 49.5 88.5M44.5 89.5 49.5 89.5M50.5 89.5 55.5 89.5M50.5 88.5 55.5 88.5M56.5 89.5 61.5 89.5M56.5 88.5 61.5 88.5M62.5 88.5 67.5 88.5M62.5 89.5 67.5 89.5M68.5 88.5 73.5 88.5M68.5 89.5 73.5 89.5M74.5 89.5 79.5 89.5M74.5 88.5 79.5 88.5M113.5 19.5 106.5 19.5M34.5 20.5 28.5 20.5M41.5 20.5 35.5 20.5M48.5 20.5 42.5 20.5M55.5 20.5 49.5 20.5M62.5 20.5 56.5 20.5M69.5 20.5 63.5 20.5M74.5 20.5 70.5 20.5M78.5 20.5 75.5 20.5M82.5 20.5 79.5 20.5M88.5 20.5 85.5 20.5M92.5 20.5 89.5 20.5M104.5 21.5 100.5 21.5M113.5 21.5 106.5 21.5M95.5 23.5 95.5 29.5M97.5 24.5 97.5 17.5M75.5 28.5 75.5 35.5M113.5 29.5 106.5 29.5M93.5 31.5 93.5 35.5M113.5 31.5 106.5 31.5M27.5 32.5 21.5 32.5M34.5 32.5 28.5 32.5M41.5 32.5 35.5 32.5M48.5 32.5 42.5 32.5M55.5 32.5 49.5 32.5M62.5 32.5 56.5 32.5M69.5 32.5 63.5 32.5M77.5 32.5 70.5 32.5M87.5 32.5 80.5 32.5M95.5 32.5 88.5 32.5M113.5 33.5 106.5 33.5M97.5 34.5 97.5 27.5M86.5 37.5 80.5 37.5M93.5 36.5 93.5 40.5M98.5 36.5 98.5 43.5M113.5 36.5 106.5 36.5M23.5 38.5 18.5 38.5M30.5 38.5 25.5 38.5M37.5 38.5 32.5 38.5M44.5 38.5 39.5 38.5M51.5 38.5 46.5 38.5M58.5 38.5 53.5 38.5M65.5 38.5 60.5 38.5M72.5 38.5 67.5 38.5M78.5 38.5 73.5 38.5M94.5 38.5 88.5 38.5M113.5 38.5 106.5 38.5M28.5 41.5 22.5 41.5M35.5 41.5 29.5 41.5M42.5 41.5 36.5 41.5M49.5 41.5 43.5 41.5M56.5 41.5 50.5 41.5M63.5 41.5 57.5 41.5M70.5 41.5 64.5 41.5M76.5 41.5 71.5 41.5M113.5 40.5 106.5 40.5M72.5 43.5 66.5 43.5M80.5 43.5 73.5 43.5M113.5 47.5 106.5 47.5M23.5 48.5 18.5 48.5M30.5 48.5 25.5 48.5M37.5 48.5 32.5 48.5M44.5 48.5 39.5 48.5M51.5 48.5 46.5 48.5M58.5 48.5 53.5 48.5M69.5 49.5 63.5 49.5M76.5 49.5 70.5 49.5M83.5 49.5 77.5 49.5M90.5 49.5 84.5 49.5M94.5 49.5 91.5 49.5M96.5 48.5 96.5 41.5M27.5 50.5 21.5 50.5M34.5 50.5 28.5 50.5M41.5 50.5 35.5 50.5M48.5 50.5 42.5 50.5M55.5 50.5 49.5 50.5M59.5 50.5 56.5 50.5M76.5 50.5 70.5 50.5M83.5 50.5 77.5 50.5M90.5 50.5 84.5 50.5M98.5 50.5 91.5 50.5M113.5 50.5 106.5 50.5M62.5 55.5 62.5 62.5M113.5 55.5 106.5 55.5M76.5 56.5 71.5 56.5M83.5 56.5 77.5 56.5M89.5 56.5 84.5 56.5M98.5 56.5 92.5 56.5M104.5 56.5 100.5 56.5M113.5 56.5 106.5 56.5M64.5 59.5 64.5 66.5M74.5 58.5 67.5 58.5M83.5 58.5 77.5 58.5M90.5 58.5 84.5 58.5M98.5 58.5 91.5 58.5M113.5 58.5 106.5 58.5M27.5 61.5 21.5 61.5M34.5 61.5 28.5 61.5M41.5 61.5 35.5 61.5M48.5 61.5 42.5 61.5M52.5 60.5 59.5 60.5M52.5 61.5 49.5 61.5M65.5 61.5 58.5 61.5M27.5 70.5 21.5 70.5M34.5 70.5 28.5 70.5M41.5 70.5 35.5 70.5M48.5 70.5 42.5 70.5M55.5 70.5 49.5 70.5M63.5 70.5 56.5 70.5M18.5 88.5 22.5 88.5M18.5 89.5 22.5 89.5M23.5 89.5 28.5 89.5M23.5 88.5 28.5 88.5M29.5 89.5 34.5 89.5M29.5 88.5 34.5 88.5M35.5 88.5 40.5 88.5M35.5 89.5 40.5 89.5M41.5 88.5 46.5 88.5M41.5 89.5 46.5 89.5M47.5 88.5 52.5 88.5M47.5 89.5 52.5 89.5M53.5 88.5 58.5 88.5M53.5 89.5 58.5 89.5M59.5 88.5 64.5 88.5M59.5 89.5 64.5 89.5M65.5 89.5 70.5 89.5M65.5 88.5 70.5 88.5M71.5 89.5 76.5 89.5M71.5 88.5 76.5 88.5"/><path d="M63.5 14.5 62.5 14.5M64.5 14.5 63.5 14.5M71.5 14.5 70.5 14.5M70.5 14.5 69.5 14.5M77.5 14.5 76.5 14.5M78.5 14.5 77.5 14.5M85.5 14.5 84.5 14.5M84.5 14.5 83.5 14.5M91.5 14.5 90.5 14.5M97.5 14.5 96.5 14.5M97.5 15.5 97.5 14.5M97.5 16.5 97.5 15.5M97.5 17.5 97.5 16.5M31.5 20.5 30.5 20.5M31.5 19.5 30.5 20.5M73.5 19.5 73.5 20.5M74.5 19.5 73.5 19.5M81.5 19.5 80.5 19.5M80.5 19.5 79.5 19.5M87.5 19.5 86.5 19.5M88.5 19.5 87.5 19.5M94.5 19.5 93.5 19.5M97.5 19.5 97.5 20.5M99.5 19.5 98.5 19.5M98.5 19.5 97.5 19.5M100.5 19.5 99.5 19.5M105.5 19.5 104.5 19.5M106.5 19.5 105.5 19.5M114.5 19.5 113.5 19.5M115.5 19.5 114.5 19.5M116.5 19.5 115.5 19.5M28.5 20.5 27.5 20.5M32.5 20.5 31.5 20.5M35.5 20.5 34.5 20.5M39.5 20.5 38.5 20.5M38.5 20.5 37.5 20.5M42.5 20.5 41.5 20.5M45.5 20.5 44.5 20.5M46.5 20.5 45.5 20.5M49.5 20.5 48.5 20.5M53.5 20.5 52.5 20.5M52.5 20.5 51.5 20.5M56.5 20.5 55.5 20.5M59.5 20.5 58.5 20.5M60.5 20.5 59.5 20.5M63.5 20.5 62.5 20.5M67.5 20.5 66.5 20.5M66.5 20.5 65.5 20.5M70.5 20.5 69.5 20.5M73.5 20.5 72.5 20.5M75.5 20.5 74.5 20.5M77.5 20.5 76.5 20.5M76.5 20.5 75.5 20.5M79.5 20.5 78.5 20.5M81.5 20.5 80.5 20.5M83.5 20.5 82.5 20.5M85.5 20.5 84.5 20.5M84.5 20.5 83.5 20.5M87.5 20.5 86.5 20.5M89.5 20.5 88.5 20.5M91.5 20.5 90.5 20.5M94.5 20.5 94.5 19.5M97.5 21.5 97.5 20.5M97.5 20.5 96.5 20.5M98.5 22.5 97.5 22.5M98.5 22.5 97.5 21.5M98.5 21.5 97.5 22.5M98.5 21.5 97.5 21.5M99.5 21.5 98.5 21.5M100.5 21.5 99.5 21.5M105.5 21.5 104.5 21.5M106.5 21.5 105.5 21.5M114.5 21.5 113.5 21.5M115.5 21.5 114.5 21.5M116.5 21.5 115.5 21.5M95.5 22.5 95.5 23.5M97.5 22.5 96.5 22.5M96.5 22.5 95.5 22.5M94.5 24.5 94.5 23.5M97.5 25.5 97.5 24.5M96.5 25.5 97.5 25.5M98.5 25.5 97.5 25.5M15.5 27.5 15.5 28.5M15.5 26.5 15.5 27.5M16.5 26.5 15.5 26.5M17.5 26.5 16.5 26.5M18.5 26.5 17.5 26.5M25.5 26.5 24.5 26.5M24.5 26.5 23.5 26.5M31.5 26.5 30.5 26.5M32.5 26.5 31.5 26.5M39.5 26.5 38.5 26.5M38.5 26.5 37.5 26.5M45.5 26.5 44.5 26.5M46.5 26.5 45.5 26.5M53.5 26.5 52.5 26.5M52.5 26.5 51.5 26.5M59.5 26.5 58.5 26.5M60.5 26.5 59.5 26.5M67.5 26.5 66.5 26.5M66.5 26.5 65.5 26.5M75.5 27.5 75.5 28.5M76.5 27.5 75.5 27.5M82.5 27.5 81.5 27.5M88.5 27.5 87.5 27.5M95.5 27.5 94.5 27.5M94.5 27.5 93.5 27.5M96.5 27.5 95.5 27.5M96.5 26.5 96.5 25.5M97.5 26.5 96.5 26.5M97.5 27.5 97.5 26.5M98.5 26.5 98.5 25.5M15.5 29.5 15.5 30.5M15.5 28.5 15.5 29.5M78.5 29.5 77.5 29.5M81.5 28.5 81.5 29.5M82.5 28.5 81.5 28.5M87.5 29.5 88.5 29.5M86.5 29.5 87.5 29.5M88.5 28.5 87.5 28.5M93.5 29.5 94.5 29.5M95.5 29.5 95.5 30.5M94.5 28.5 93.5 28.5M96.5 28.5 96.5 27.5M96.5 29.5 96.5 28.5M98.5 29.5 98.5 28.5M99.5 29.5 98.5 29.5M100.5 29.5 99.5 29.5M105.5 29.5 104.5 29.5M106.5 29.5 105.5 29.5M114.5 29.5 113.5 29.5M115.5 29.5 114.5 29.5M116.5 29.5 115.5 29.5M15.5 31.5 15.5 32.5M15.5 30.5 15.5 31.5M77.5 31.5 77.5 32.5M86.5 30.5 86.5 29.5M87.5 30.5 87.5 29.5M93.5 30.5 93.5 31.5M95.5 30.5 94.5 30.5M94.5 30.5 93.5 30.5M99.5 31.5 99.5 32.5M98.5 30.5 98.5 29.5M100.5 31.5 99.5 31.5M105.5 31.5 104.5 31.5M106.5 31.5 105.5 31.5M115.5 31.5 114.5 31.5M114.5 31.5 113.5 31.5M116.5 31.5 115.5 31.5M15.5 33.5 15.5 34.5M15.5 32.5 15.5 33.5M18.5 32.5 17.5 32.5M21.5 32.5 20.5 32.5M25.5 32.5 24.5 32.5M24.5 32.5 23.5 32.5M28.5 32.5 27.5 32.5M31.5 32.5 30.5 32.5M32.5 32.5 31.5 32.5M35.5 32.5 34.5 32.5M39.5 32.5 38.5 32.5M38.5 32.5 37.5 32.5M42.5 32.5 41.5 32.5M45.5 32.5 44.5 32.5M46.5 32.5 45.5 32.5M49.5 32.5 48.5 32.5M53.5 32.5 52.5 32.5M52.5 32.5 51.5 32.5M56.5 32.5 55.5 32.5M59.5 32.5 58.5 32.5M60.5 32.5 59.5 32.5M63.5 32.5 62.5 32.5M67.5 32.5 66.5 32.5M66.5 32.5 65.5 32.5M70.5 32.5 69.5 32.5M73.5 32.5 72.5 32.5M79.5 32.5 78.5 32.5M80.5 32.5 79.5 32.5M88.5 32.5 87.5 32.5M93.5 33.5 93.5 32.5M96.5 32.5 95.5 32.5M98.5 32.5 98.5 31.5M99.5 33.5 99.5 32.5M100.5 33.5 99.5 33.5M105.5 33.5 104.5 33.5M106.5 33.5 105.5 33.5M115.5 33.5 114.5 33.5M114.5 33.5 113.5 33.5M116.5 33.5 115.5 33.5M15.5 35.5 15.5 36.5M15.5 34.5 15.5 35.5M77.5 35.5 77.5 36.5M76.5 35.5 77.5 35.5M93.5 35.5 93.5 36.5M96.5 35.5 96.5 34.5M98.5 35.5 97.5 35.5M98.5 35.5 97.5 34.5M98.5 34.5 97.5 35.5M98.5 34.5 97.5 34.5M99.5 36.5 98.5 36.5M99.5 36.5 98.5 35.5M99.5 35.5 98.5 36.5M99.5 35.5 98.5 35.5M15.5 37.5 15.5 38.5M15.5 36.5 15.5 37.5M77.5 37.5 77.5 38.5M77.5 36.5 77.5 37.5M79.5 37.5 79.5 38.5M80.5 37.5 79.5 37.5M87.5 38.5 86.5 38.5M87.5 38.5 86.5 37.5M87.5 37.5 86.5 38.5M87.5 37.5 86.5 37.5M87.5 36.5 87.5 35.5M99.5 38.5 98.5 38.5M99.5 38.5 98.5 37.5M99.5 37.5 98.5 38.5M99.5 37.5 98.5 37.5M100.5 36.5 99.5 36.5M105.5 36.5 104.5 36.5M106.5 36.5 105.5 36.5M114.5 36.5 113.5 36.5M115.5 36.5 114.5 36.5M116.5 36.5 115.5 36.5M15.5 39.5 15.5 40.5M15.5 38.5 15.5 39.5M18.5 38.5 17.5 38.5M24.5 38.5 23.5 38.5M25.5 38.5 24.5 38.5M31.5 38.5 30.5 38.5M32.5 38.5 31.5 38.5M39.5 38.5 38.5 38.5M38.5 38.5 37.5 38.5M45.5 38.5 44.5 38.5M46.5 38.5 45.5 38.5M53.5 38.5 52.5 38.5M52.5 38.5 51.5 38.5M59.5 38.5 58.5 38.5M60.5 38.5 59.5 38.5M67.5 38.5 66.5 38.5M66.5 38.5 65.5 38.5M73.5 38.5 72.5 38.5M77.5 38.5 77.5 39.5M77.5 39.5 77.5 40.5M79.5 38.5 78.5 38.5M79.5 39.5 79.5 38.5M88.5 38.5 87.5 38.5M93.5 39.5 93.5 38.5M94.5 39.5 93.5 39.5M95.5 38.5 94.5 38.5M97.5 38.5 97.5 39.5M97.5 39.5 96.5 39.5M100.5 38.5 99.5 38.5M105.5 38.5 104.5 38.5M106.5 38.5 105.5 38.5M114.5 38.5 113.5 38.5M115.5 38.5 114.5 38.5M116.5 38.5 115.5 38.5M14.5 41.5 14.5 42.5M15.5 41.5 14.5 41.5M15.5 40.5 15.5 41.5M22.5 41.5 21.5 41.5M29.5 41.5 28.5 41.5M36.5 41.5 35.5 41.5M43.5 41.5 42.5 41.5M50.5 41.5 49.5 41.5M57.5 41.5 56.5 41.5M64.5 41.5 63.5 41.5M71.5 41.5 70.5 41.5M77.5 41.5 76.5 41.5M77.5 40.5 77.5 41.5M79.5 40.5 79.5 39.5M79.5 41.5 79.5 40.5M80.5 41.5 79.5 41.5M81.5 42.5 80.5 42.5M81.5 42.5 80.5 41.5M81.5 41.5 80.5 42.5M81.5 41.5 80.5 41.5M82.5 41.5 81.5 41.5M87.5 41.5 86.5 41.5M93.5 41.5 92.5 41.5M93.5 40.5 93.5 41.5M96.5 41.5 96.5 40.5M97.5 41.5 97.5 42.5M97.5 40.5 97.5 39.5M98.5 41.5 97.5 41.5M98.5 40.5 97.5 40.5M99.5 41.5 98.5 41.5M99.5 41.5 98.5 40.5M99.5 40.5 98.5 41.5M99.5 40.5 98.5 40.5M100.5 40.5 99.5 40.5M105.5 40.5 104.5 40.5M106.5 40.5 105.5 40.5M115.5 40.5 114.5 40.5M114.5 40.5 113.5 40.5M116.5 40.5 115.5 40.5M17.5 43.5 16.5 43.5M16.5 43.5 16.5 44.5M20.5 43.5 19.5 43.5M21.5 43.5 20.5 43.5M27.5 43.5 26.5 43.5M28.5 43.5 27.5 43.5M35.5 43.5 34.5 43.5M34.5 43.5 33.5 43.5M41.5 43.5 40.5 43.5M42.5 43.5 41.5 43.5M49.5 43.5 48.5 43.5M48.5 43.5 47.5 43.5M55.5 43.5 54.5 43.5M56.5 43.5 55.5 43.5M61.5 43.5 60.5 43.5M60.5 44.5 59.5 43.5M60.5 43.5 59.5 43.5M63.5 43.5 62.5 43.5M62.5 43.5 61.5 43.5M65.5 43.5 65.5 44.5M64.5 43.5 63.5 43.5M66.5 43.5 65.5 43.5M69.5 43.5 68.5 43.5M71.5 43.5 70.5 43.5M70.5 43.5 69.5 43.5M73.5 43.5 72.5 43.5M77.5 43.5 76.5 43.5M76.5 43.5 75.5 43.5M79.5 43.5 79.5 42.5M79.5 42.5 80.5 42.5M78.5 43.5 77.5 43.5M80.5 42.5 80.5 43.5M83.5 43.5 82.5 43.5M85.5 43.5 84.5 43.5M84.5 43.5 83.5 43.5M86.5 43.5 86.5 44.5M91.5 43.5 90.5 43.5M90.5 43.5 89.5 43.5M93.5 42.5 93.5 43.5M93.5 43.5 92.5 43.5M92.5 43.5 91.5 43.5M95.5 42.5 94.5 42.5M95.5 43.5 94.5 43.5M94.5 43.5 94.5 42.5M94.5 42.5 93.5 42.5M97.5 42.5 97.5 43.5M97.5 43.5 96.5 43.5M98.5 43.5 98.5 44.5M73.5 44.5 73.5 45.5M74.5 44.5 73.5 44.5M80.5 44.5 79.5 44.5M81.5 44.5 80.5 44.5M14.5 47.5 14.5 48.5M16.5 47.5 16.5 48.5M98.5 46.5 98.5 47.5M98.5 47.5 99.5 47.5M99.5 47.5 99.5 48.5M100.5 47.5 99.5 47.5M105.5 47.5 104.5 47.5M106.5 47.5 105.5 47.5M114.5 47.5 113.5 47.5M115.5 47.5 114.5 47.5M116.5 47.5 115.5 47.5M14.5 49.5 14.5 50.5M14.5 48.5 14.5 49.5M15.5 49.5 15.5 50.5M15.5 48.5 15.5 49.5M16.5 48.5 15.5 48.5M16.5 49.5 16.5 48.5M17.5 49.5 16.5 49.5M21.5 49.5 20.5 49.5M20.5 49.5 19.5 49.5M22.5 49.5 21.5 49.5M25.5 48.5 24.5 48.5M24.5 48.5 23.5 48.5M27.5 49.5 26.5 49.5M29.5 49.5 28.5 49.5M28.5 49.5 27.5 49.5M31.5 48.5 30.5 48.5M32.5 48.5 31.5 48.5M35.5 49.5 34.5 49.5M34.5 49.5 33.5 49.5M36.5 49.5 35.5 49.5M39.5 48.5 38.5 48.5M38.5 48.5 37.5 48.5M41.5 49.5 40.5 49.5M43.5 49.5 42.5 49.5M42.5 49.5 41.5 49.5M45.5 48.5 44.5 48.5M46.5 48.5 45.5 48.5M49.5 49.5 48.5 49.5M48.5 49.5 47.5 49.5M50.5 49.5 49.5 49.5M53.5 48.5 52.5 48.5M52.5 48.5 51.5 48.5M55.5 49.5 54.5 49.5M57.5 49.5 56.5 49.5M56.5 49.5 55.5 49.5M59.5 48.5 58.5 48.5M60.5 48.5 59.5 48.5M63.5 49.5 62.5 49.5M65.5 49.5 65.5 50.5M67.5 48.5 66.5 48.5M66.5 48.5 65.5 48.5M70.5 49.5 69.5 49.5M73.5 49.5 73.5 50.5M73.5 48.5 72.5 48.5M74.5 48.5 73.5 48.5M77.5 49.5 76.5 49.5M81.5 48.5 80.5 48.5M80.5 48.5 79.5 48.5M84.5 49.5 83.5 49.5M87.5 48.5 86.5 48.5M88.5 48.5 87.5 48.5M91.5 49.5 90.5 49.5M95.5 49.5 94.5 49.5M94.5 48.5 93.5 48.5M96.5 49.5 96.5 48.5M97.5 49.5 96.5 49.5M99.5 48.5 98.5 48.5M15.5 51.5 15.5 52.5M14.5 51.5 14.5 52.5M14.5 50.5 14.5 51.5M15.5 50.5 15.5 51.5M21.5 50.5 20.5 50.5M28.5 50.5 27.5 50.5M35.5 50.5 34.5 50.5M42.5 50.5 41.5 50.5M49.5 50.5 48.5 50.5M56.5 50.5 55.5 50.5M60.5 50.5 59.5 50.5M60.5 51.5 60.5 50.5M62.5 50.5 62.5 51.5M63.5 50.5 62.5 50.5M65.5 50.5 64.5 50.5M64.5 50.5 63.5 50.5M70.5 50.5 69.5 50.5M77.5 50.5 76.5 50.5M84.5 50.5 83.5 50.5M91.5 50.5 90.5 50.5M95.5 50.5 95.5 49.5M97.5 50.5 97.5 49.5M99.5 50.5 98.5 50.5M100.5 50.5 99.5 50.5M105.5 50.5 104.5 50.5M106.5 50.5 105.5 50.5M114.5 50.5 113.5 50.5M115.5 50.5 114.5 50.5M116.5 50.5 115.5 50.5M14.5 53.5 14.5 54.5M15.5 53.5 15.5 54.5M15.5 52.5 15.5 53.5M14.5 52.5 14.5 53.5M15.5 55.5 15.5 56.5M14.5 55.5 14.5 56.5M14.5 54.5 14.5 55.5M15.5 54.5 15.5 55.5M60.5 55.5 60.5 54.5M62.5 54.5 62.5 55.5M73.5 54.5 73.5 55.5M95.5 54.5 95.5 53.5M95.5 54.5 96.5 53.5M96.5 54.5 95.5 53.5M96.5 54.5 96.5 53.5M97.5 55.5 97.5 54.5M96.5 55.5 96.5 54.5M98.5 55.5 97.5 55.5M99.5 56.5 98.5 56.5M99.5 56.5 98.5 55.5M99.5 55.5 98.5 56.5M99.5 55.5 98.5 55.5M100.5 55.5 99.5 55.5M105.5 55.5 104.5 55.5M106.5 55.5 105.5 55.5M114.5 55.5 113.5 55.5M115.5 55.5 114.5 55.5M116.5 55.5 115.5 55.5M14.5 57.5 14.5 58.5M14.5 56.5 14.5 57.5M15.5 57.5 15.5 58.5M15.5 56.5 15.5 57.5M65.5 56.5 65.5 57.5M65.5 57.5 65.5 58.5M67.5 56.5 66.5 56.5M66.5 57.5 65.5 57.5M66.5 57.5 65.5 56.5M66.5 56.5 65.5 57.5M66.5 56.5 65.5 56.5M69.5 57.5 69.5 58.5M69.5 56.5 68.5 56.5M68.5 56.5 67.5 56.5M70.5 57.5 69.5 57.5M70.5 57.5 69.5 56.5M70.5 56.5 69.5 57.5M70.5 56.5 69.5 56.5M71.5 56.5 70.5 56.5M73.5 57.5 74.5 57.5M72.5 57.5 73.5 57.5M77.5 56.5 76.5 56.5M79.5 57.5 80.5 57.5M80.5 57.5 81.5 57.5M84.5 56.5 83.5 56.5M87.5 57.5 88.5 57.5M86.5 57.5 87.5 57.5M91.5 56.5 90.5 56.5M90.5 56.5 89.5 56.5M93.5 57.5 94.5 57.5M92.5 56.5 91.5 56.5M95.5 57.5 95.5 56.5M95.5 56.5 95.5 55.5M95.5 56.5 96.5 55.5M96.5 56.5 95.5 55.5M96.5 56.5 96.5 55.5M94.5 57.5 95.5 57.5M100.5 56.5 99.5 56.5M105.5 56.5 104.5 56.5M106.5 56.5 105.5 56.5M114.5 56.5 113.5 56.5M115.5 56.5 114.5 56.5M116.5 56.5 115.5 56.5M14.5 59.5 14.5 60.5M14.5 58.5 14.5 59.5M15.5 59.5 15.5 60.5M15.5 58.5 15.5 59.5M25.5 59.5 24.5 59.5M24.5 59.5 23.5 59.5M31.5 59.5 30.5 59.5M32.5 59.5 31.5 59.5M39.5 59.5 38.5 59.5M38.5 59.5 37.5 59.5M45.5 59.5 44.5 59.5M46.5 59.5 45.5 59.5M53.5 58.5 53.5 59.5M53.5 59.5 52.5 59.5M52.5 59.5 51.5 59.5M55.5 58.5 54.5 58.5M55.5 59.5 55.5 58.5M54.5 58.5 53.5 58.5M65.5 59.5 65.5 60.5M65.5 58.5 65.5 59.5M65.5 58.5 64.5 59.5M64.5 58.5 65.5 59.5M64.5 58.5 64.5 59.5M67.5 58.5 66.5 58.5M69.5 58.5 70.5 58.5M70.5 58.5 70.5 57.5M73.5 59.5 73.5 60.5M75.5 58.5 74.5 58.5M76.5 58.5 75.5 58.5M77.5 58.5 76.5 58.5M84.5 58.5 83.5 58.5M91.5 58.5 90.5 58.5M99.5 58.5 98.5 58.5M100.5 58.5 99.5 58.5M105.5 58.5 104.5 58.5M106.5 58.5 105.5 58.5M114.5 58.5 113.5 58.5M115.5 58.5 114.5 58.5M116.5 58.5 115.5 58.5M14.5 61.5 14.5 62.5M14.5 60.5 14.5 61.5M15.5 61.5 15.5 62.5M15.5 60.5 15.5 61.5M18.5 60.5 19.5 60.5M21.5 61.5 20.5 61.5M23.5 60.5 24.5 60.5M22.5 60.5 23.5 60.5M25.5 60.5 26.5 60.5M24.5 60.5 25.5 60.5M29.5 60.5 30.5 60.5M28.5 61.5 27.5 61.5M31.5 60.5 32.5 60.5M30.5 60.5 31.5 60.5M32.5 60.5 33.5 60.5M35.5 61.5 34.5 61.5M37.5 60.5 38.5 60.5M36.5 60.5 37.5 60.5M39.5 60.5 40.5 60.5M38.5 60.5 39.5 60.5M43.5 60.5 44.5 60.5M42.5 61.5 41.5 61.5M45.5 60.5 46.5 60.5M44.5 60.5 45.5 60.5M46.5 60.5 47.5 60.5M49.5 61.5 48.5 61.5M51.5 60.5 52.5 60.5M50.5 60.5 51.5 60.5M53.5 61.5 52.5 61.5M59.5 60.5 60.5 60.5M60.5 60.5 60.5 59.5M65.5 60.5 65.5 61.5M14.5 63.5 14.5 64.5M14.5 62.5 14.5 63.5M15.5 63.5 15.5 64.5M15.5 62.5 15.5 63.5M53.5 62.5 53.5 61.5M53.5 63.5 53.5 62.5M55.5 63.5 54.5 63.5M54.5 63.5 54.5 64.5M62.5 63.5 62.5 64.5M62.5 63.5 61.5 64.5M61.5 63.5 62.5 64.5M61.5 63.5 61.5 64.5M62.5 62.5 62.5 63.5M66.5 63.5 66.5 64.5M14.5 65.5 14.5 66.5M14.5 64.5 14.5 65.5M15.5 65.5 15.5 66.5M15.5 64.5 15.5 65.5M53.5 64.5 53.5 63.5M55.5 65.5 54.5 65.5M54.5 65.5 54.5 64.5M54.5 64.5 53.5 64.5M61.5 64.5 61.5 65.5M61.5 65.5 60.5 65.5M65.5 64.5 65.5 65.5M66.5 64.5 65.5 64.5M67.5 64.5 68.5 64.5M73.5 65.5 73.5 66.5M73.5 64.5 74.5 64.5M72.5 64.5 73.5 64.5M79.5 64.5 80.5 64.5M80.5 64.5 81.5 64.5M87.5 64.5 88.5 64.5M86.5 64.5 87.5 64.5M14.5 67.5 14.5 68.5M14.5 66.5 14.5 67.5M15.5 67.5 15.5 68.5M15.5 66.5 15.5 67.5M64.5 66.5 64.5 67.5M71.5 66.5 70.5 66.5M72.5 66.5 71.5 66.5M73.5 66.5 72.5 66.5M14.5 69.5 14.5 70.5M14.5 68.5 14.5 69.5M15.5 69.5 15.5 70.5M15.5 68.5 15.5 69.5M65.5 69.5 65.5 70.5M64.5 69.5 64.5 70.5M64.5 68.5 64.5 69.5M15.5 71.5 15.5 72.5M14.5 71.5 14.5 72.5M14.5 70.5 14.5 71.5M15.5 70.5 15.5 71.5M16.5 71.5 16.5 72.5M16.5 70.5 16.5 71.5M17.5 70.5 16.5 70.5M18.5 70.5 17.5 70.5M21.5 70.5 20.5 70.5M25.5 70.5 24.5 70.5M24.5 70.5 23.5 70.5M28.5 70.5 27.5 70.5M31.5 70.5 30.5 70.5M32.5 70.5 31.5 70.5M35.5 70.5 34.5 70.5M39.5 70.5 38.5 70.5M38.5 70.5 37.5 70.5M42.5 70.5 41.5 70.5M45.5 70.5 44.5 70.5M46.5 70.5 45.5 70.5M49.5 70.5 48.5 70.5M53.5 70.5 52.5 70.5M52.5 70.5 51.5 70.5M56.5 70.5 55.5 70.5M64.5 71.5 64.5 72.5M64.5 70.5 63.5 70.5M58.5 72.5 57.5 72.5M64.5 72.5 63.5 72.5M65.5 75.5 65.5 76.5M15.5 77.5 15.5 78.5M14.5 77.5 14.5 78.5M16.5 77.5 16.5 78.5M25.5 76.5 24.5 76.5M24.5 76.5 23.5 76.5M31.5 76.5 30.5 76.5M32.5 76.5 31.5 76.5M39.5 76.5 38.5 76.5M38.5 76.5 37.5 76.5M45.5 76.5 44.5 76.5M46.5 76.5 45.5 76.5M53.5 76.5 52.5 76.5M52.5 76.5 51.5 76.5M59.5 76.5 58.5 76.5M60.5 76.5 59.5 76.5M15.5 79.5 15.5 80.5M15.5 78.5 15.5 79.5M14.5 79.5 14.5 80.5M14.5 78.5 14.5 79.5M16.5 79.5 16.5 80.5M16.5 78.5 16.5 79.5M15.5 81.5 15.5 82.5M15.5 80.5 15.5 81.5M14.5 81.5 14.5 82.5M14.5 80.5 14.5 81.5M16.5 81.5 16.5 82.5M16.5 80.5 16.5 81.5M15.5 83.5 15.5 84.5M15.5 82.5 15.5 83.5M14.5 83.5 14.5 84.5M14.5 82.5 14.5 83.5M16.5 83.5 16.5 84.5M16.5 82.5 16.5 83.5M15.5 85.5 15.5 86.5M15.5 84.5 15.5 85.5M14.5 85.5 14.5 86.5M14.5 84.5 14.5 85.5M16.5 85.5 16.5 86.5M16.5 84.5 16.5 85.5M15.5 87.5 15.5 88.5M15.5 86.5 15.5 87.5M14.5 87.5 14.5 88.5M14.5 86.5 14.5 87.5M17.5 87.5 17.5 88.5M16.5 86.5 16.5 87.5M16.5 87.5 17.5 87.5M15.5 88.5 16.5 88.5M14.5 89.5 15.5 89.5M14.5 88.5 14.5 89.5M17.5 88.5 18.5 88.5M17.5 89.5 18.5 89.5M19.5 88.5 20.5 88.5M19.5 89.5 20.5 89.5M22.5 89.5 23.5 89.5M22.5 88.5 23.5 88.5M25.5 89.5 26.5 89.5M25.5 88.5 26.5 88.5M28.5 89.5 29.5 89.5M28.5 88.5 29.5 88.5M31.5 88.5 32.5 88.5M31.5 89.5 32.5 89.5M34.5 88.5 35.5 88.5M34.5 89.5 35.5 89.5M37.5 89.5 38.5 89.5M37.5 88.5 38.5 88.5M40.5 88.5 41.5 88.5M40.5 89.5 41.5 89.5M43.5 89.5 44.5 89.5M43.5 88.5 44.5 88.5M46.5 88.5 47.5 88.5M46.5 89.5 47.5 89.5M49.5 88.5 50.5 88.5M49.5 89.5 50.5 89.5M52.5 88.5 53.5 88.5M52.5 89.5 53.5 89.5M55.5 89.5 56.5 89.5M55.5 88.5 56.5 88.5M58.5 89.5 59.5 89.5M58.5 88.5 59.5 88.5M61.5 89.5 62.5 89.5M61.5 88.5 62.5 88.5M64.5 89.5 65.5 89.5M64.5 88.5 65.5 88.5M67.5 89.5 68.5 89.5M67.5 88.5 68.5 88.5M70.5 89.5 71.5 89.5M70.5 88.5 71.5 88.5M73.5 88.5 74.5 88.5M73.5 89.5 74.5 89.5M76.5 89.5 77.5 89.5M76.5 88.5 77.5 88.5M16.5 90.5 17.5 90.5M17.5 90.5 17.5 89.5"/><path d=""/><g deny="['connected-stuff', 'beacon']" fill="#264653" stroke="#e9c46a" stroke-width="0.2"><rect height="1" width="1" x="5.0" y="3.0" rx="0"  ry="0" /><rect height="1" width="1" x="14.0" y="3.0" rx="0"  ry="0" /><rect height="1" width="1" x="105.0" y="3.0" rx="0"  ry="0" /><rect height="1" width="1" x="114.0" y="3.0" rx="0"  ry="0" /><rect height="1" width="1" x="3.0" y="5.0" rx="0"  ry="0" /><rect height="2" width="2" x="4.0" y="4.0" rx="0"  ry="0" /><rect height="2" width="2" x="14.0" y="4.0" rx="0"  ry="0" /><rect height="1" width="1" x="16.0" y="5.0" rx="0"  ry="0" /><rect height="1" width="1" x="43.0" y="5.0" rx="0"  ry="0" /><rect height="2" width="2" x="44.0" y="4.0" rx="0"  ry="0" /><rect height="1" width="1" x="46.0" y="5.0" rx="0"  ry="0" /><rect height="1" width="1" x="73.0" y="5.0" rx="0"  ry="0" /><rect height="2" width="2" x="74.0" y="4.0" rx="0"  ry="0" /><rect height="1" width="1" x="76.0" y="5.0" rx="0"  ry="0" /><rect height="1" width="1" x="103.0" y="5.0" rx="0"  ry="0" /><rect height="2" width="2" x="104.0" y="4.0" rx="0"  ry="0" /><rect height="2" width="2" x="114.0" y="4.0" rx="0"  ry="0" /><rect height="1" width="1" x="116.0" y="5.0" rx="0"  ry="0" /><rect height="1" width="1" x="3.0" y="14.0" rx="0"  ry="0" /><rect height="2" width="2" x="4.0" y="14.0" rx="0"  ry="0" /><rect height="2" width="2" x="14.0" y="14.0" rx="0"  ry="0" /><rect height="1" width="1" x="16.0" y="14.0" rx="0"  ry="0" /><rect height="1" width="1" x="43.0" y="14.0" rx="0"  ry="0" /><rect height="2" width="2" x="44.0" y="14.0" rx="0"  ry="0" /><rect height="1" width="1" x="46.0" y="14.0" rx="0"  ry="0" /><rect height="1" width="1" x="59.0" y="14.0" rx="0"  ry="0" /><rect height="1" width="1" x="66.0" y="14.0" rx="0"  ry="0" /><rect height="1" width="1" x="73.0" y="14.0" rx="0"  ry="0" /><rect height="2" width="2" x="74.0" y="14.0" rx="0"  ry="0" /><rect height="1" width="1" x="80.0" y="14.0" rx="0"  ry="0" /><rect height="1" width="1" x="87.0" y="14.0" rx="0"  ry="0" /><rect height="1" width="1" x="94.0" y="14.0" rx="0"  ry="0" /><rect height="1" width="1" x="103.0" y="14.0" rx="0"  ry="0" /><rect height="2" width="2" x="104.0" y="14.0" rx="0"  ry="0" /><rect height="2" width="2" x="114.0" y="14.0" rx="0"  ry="0" /><rect height="1" width="1" x="116.0" y="14.0" rx="0"  ry="0" /><rect height="1" width="1" x="5.0" y="16.0" rx="0"  ry="0" /><rect height="1" width="1" x="14.0" y="16.0" rx="0"  ry="0" /><rect height="1" width="1" x="59.0" y="17.0" rx="0"  ry="0" /><rect height="3" width="3" x="60.0" y="16.0" rx="0"  ry="0" /><rect height="3" width="3" x="63.0" y="16.0" rx="0"  ry="0" /><rect height="3" width="3" x="67.0" y="16.0" rx="0"  ry="0" /><rect height="1" width="1" x="66.0" y="17.0" rx="0"  ry="0" /><rect height="3" width="3" x="70.0" y="16.0" rx="0"  ry="0" /><rect height="1" width="1" x="73.0" y="17.0" rx="0"  ry="0" /><rect height="3" width="3" x="74.0" y="16.0" rx="0"  ry="0" /><rect height="3" width="3" x="77.0" y="16.0" rx="0"  ry="0" /><rect height="3" width="3" x="81.0" y="16.0" rx="0"  ry="0" /><rect height="1" width="1" x="80.0" y="17.0" rx="0"  ry="0" /><rect height="3" width="3" x="84.0" y="16.0" rx="0"  ry="0" /><rect height="1" width="1" x="87.0" y="17.0" rx="0"  ry="0" /><rect height="3" width="3" x="88.0" y="16.0" rx="0"  ry="0" /><rect height="3" width="3" x="91.0" y="16.0" rx="0"  ry="0" /><rect height="1" width="1" x="94.0" y="17.0" rx="0"  ry="0" /><rect height="1" width="1" x="105.0" y="16.0" rx="0"  ry="0" /><rect height="1" width="1" x="114.0" y="16.0" rx="0"  ry="0" /><rect height="1" width="1" x="24.0" y="18.0" rx="0"  ry="0" /><rect height="1" width="1" x="29.0" y="19.0" rx="0"  ry="0" /><rect height="1" width="1" x="31.0" y="18.0" rx="0"  ry="0" /><rect height="1" width="1" x="59.0" y="18.0" rx="0"  ry="0" /><rect height="1" width="1" x="66.0" y="18.0" rx="0"  ry="0" /><rect height="1" width="1" x="73.0" y="18.0" rx="0"  ry="0" /><rect height="1" width="1" x="80.0" y="18.0" rx="0"  ry="0" /><rect height="1" width="1" x="87.0" y="18.0" rx="0"  ry="0" /><rect height="1" width="1" x="94.0" y="18.0" rx="0"  ry="0" /><rect height="1" width="1" x="102.0" y="19.0" rx="0"  ry="0" /><rect height="1" width="1" x="73.0" y="21.0" rx="0"  ry="0" /><rect height="1" width="1" x="80.0" y="21.0" rx="0"  ry="0" /><rect height="1" width="1" x="87.0" y="21.0" rx="0"  ry="0" /><rect height="1" width="1" x="94.0" y="21.0" rx="0"  ry="0" /><rect height="1" width="1" x="102.0" y="21.0" rx="0"  ry="0" /><rect height="1" width="1" x="17.0" y="23.0" rx="0"  ry="0" /><rect height="3" width="3" x="25.0" y="22.0" rx="0"  ry="0" /><rect height="1" width="1" x="24.0" y="22.0" rx="0"  ry="0" /><rect height="1" width="1" x="24.0" y="23.0" rx="0"  ry="0" /><rect height="3" width="3" x="28.0" y="22.0" rx="0"  ry="0" /><rect height="1" width="1" x="31.0" y="23.0" rx="0"  ry="0" /><rect height="1" width="1" x="31.0" y="22.0" rx="0"  ry="0" /><rect height="3" width="3" x="32.0" y="22.0" rx="0"  ry="0" /><rect height="3" width="3" x="35.0" y="22.0" rx="0"  ry="0" /><rect height="3" width="3" x="39.0" y="22.0" rx="0"  ry="0" /><rect height="1" width="1" x="38.0" y="23.0" rx="0"  ry="0" /><rect height="3" width="3" x="42.0" y="22.0" rx="0"  ry="0" /><rect height="1" width="1" x="45.0" y="23.0" rx="0"  ry="0" /><rect height="1" width="1" x="45.0" y="22.0" rx="0"  ry="0" /><rect height="3" width="3" x="46.0" y="22.0" rx="0"  ry="0" /><rect height="3" width="3" x="49.0" y="22.0" rx="0"  ry="0" /><rect height="3" width="3" x="53.0" y="22.0" rx="0"  ry="0" /><rect height="1" width="1" x="52.0" y="23.0" rx="0"  ry="0" /><rect height="1" width="1" x="52.0" y="22.0" rx="0"  ry="0" /><rect height="3" width="3" x="56.0" y="22.0" rx="0"  ry="0" /><rect height="1" width="1" x="59.0" y="23.0" rx="0"  ry="0" /><rect height="1" width="1" x="59.0" y="22.0" rx="0"  ry="0" /><rect height="3" width="3" x="60.0" y="22.0" rx="0"  ry="0" /><rect height="3" width="3" x="63.0" y="22.0" rx="0"  ry="0" /><rect height="3" width="3" x="67.0" y="22.0" rx="0"  ry="0" /><rect height="1" width="1" x="66.0" y="23.0" rx="0"  ry="0" /><rect height="1" width="1" x="66.0" y="22.0" rx="0"  ry="0" /><rect height="3" width="3" x="70.0" y="22.0" rx="0"  ry="0" /><rect height="1" width="1" x="73.0" y="23.0" rx="0"  ry="0" /><rect height="1" width="1" x="73.0" y="22.0" rx="0"  ry="0" /><rect height="3" width="3" x="77.0" y="22.0" rx="0"  ry="0" /><rect height="3" width="3" x="81.0" y="22.0" rx="0"  ry="0" /><rect height="1" width="1" x="80.0" y="22.0" rx="0"  ry="0" /><rect height="3" width="3" x="84.0" y="22.0" rx="0"  ry="0" /><rect height="1" width="1" x="87.0" y="22.0" rx="0"  ry="0" /><rect height="3" width="3" x="88.0" y="22.0" rx="0"  ry="0" /><rect height="3" width="3" x="91.0" y="22.0" rx="0"  ry="0" /><rect height="1" width="1" x="94.0" y="22.0" rx="0"  ry="0" /><rect height="1" width="1" x="16.0" y="24.0" rx="0"  ry="0" /><rect height="1" width="1" x="24.0" y="24.0" rx="0"  ry="0" /><rect height="1" width="1" x="31.0" y="24.0" rx="0"  ry="0" /><rect height="1" width="1" x="45.0" y="24.0" rx="0"  ry="0" /><rect height="1" width="1" x="52.0" y="24.0" rx="0"  ry="0" /><rect height="1" width="1" x="59.0" y="24.0" rx="0"  ry="0" /><rect height="1" width="1" x="66.0" y="24.0" rx="0"  ry="0" /><rect height="1" width="1" x="73.0" y="24.0" rx="0"  ry="0" /><rect height="1" width="1" x="73.0" y="26.0" rx="0"  ry="0" /><rect height="3" width="3" x="77.0" y="26.0" rx="0"  ry="0" /><rect height="1" width="1" x="80.0" y="26.0" rx="0"  ry="0" /><rect height="3" width="3" x="83.0" y="26.0" rx="0"  ry="0" /><rect height="1" width="1" x="87.0" y="26.0" rx="0"  ry="0" /><rect height="3" width="3" x="89.0" y="26.0" rx="0"  ry="0" /><rect height="1" width="1" x="94.0" y="26.0" rx="0"  ry="0" /><rect height="1" width="1" x="16.0" y="28.0" rx="0"  ry="0" /><rect height="1" width="1" x="17.0" y="28.0" rx="0"  ry="0" /><rect height="1" width="1" x="17.0" y="29.0" rx="0"  ry="0" /><rect height="3" width="3" x="18.0" y="28.0" rx="0"  ry="0" /><rect height="3" width="3" x="21.0" y="28.0" rx="0"  ry="0" /><rect height="3" width="3" x="25.0" y="28.0" rx="0"  ry="0" /><rect height="1" width="1" x="24.0" y="29.0" rx="0"  ry="0" /><rect height="1" width="1" x="24.0" y="28.0" rx="0"  ry="0" /><rect height="3" width="3" x="28.0" y="28.0" rx="0"  ry="0" /><rect height="1" width="1" x="31.0" y="29.0" rx="0"  ry="0" /><rect height="1" width="1" x="31.0" y="28.0" rx="0"  ry="0" /><rect height="3" width="3" x="39.0" y="28.0" rx="0"  ry="0" /><rect height="1" width="1" x="38.0" y="29.0" rx="0"  ry="0" /><rect height="1" width="1" x="38.0" y="28.0" rx="0"  ry="0" /><rect height="3" width="3" x="42.0" y="28.0" rx="0"  ry="0" /><rect height="1" width="1" x="45.0" y="29.0" rx="0"  ry="0" /><rect height="1" width="1" x="45.0" y="28.0" rx="0"  ry="0" /><rect height="3" width="3" x="46.0" y="28.0" rx="0"  ry="0" /><rect height="3" width="3" x="49.0" y="28.0" rx="0"  ry="0" /><rect height="3" width="3" x="53.0" y="28.0" rx="0"  ry="0" /><rect height="1" width="1" x="52.0" y="29.0" rx="0"  ry="0" /><rect height="1" width="1" x="52.0" y="28.0" rx="0"  ry="0" /><rect height="3" width="3" x="56.0" y="28.0" rx="0"  ry="0" /><rect height="1" width="1" x="59.0" y="29.0" rx="0"  ry="0" /><rect height="1" width="1" x="59.0" y="28.0" rx="0"  ry="0" /><rect height="3" width="3" x="60.0" y="28.0" rx="0"  ry="0" /><rect height="3" width="3" x="63.0" y="28.0" rx="0"  ry="0" /><rect height="3" width="3" x="67.0" y="28.0" rx="0"  ry="0" /><rect height="1" width="1" x="66.0" y="29.0" rx="0"  ry="0" /><rect height="1" width="1" x="66.0" y="28.0" rx="0"  ry="0" /><rect height="3" width="3" x="70.0" y="28.0" rx="0"  ry="0" /><rect height="1" width="1" x="73.0" y="29.0" rx="0"  ry="0" /><rect height="1" width="1" x="73.0" y="28.0" rx="0"  ry="0" /><rect height="1" width="1" x="102.0" y="29.0" rx="0"  ry="0" /><rect height="1" width="1" x="17.0" y="30.0" rx="0"  ry="0" /><rect height="1" width="1" x="24.0" y="30.0" rx="0"  ry="0" /><rect height="1" width="1" x="31.0" y="30.0" rx="0"  ry="0" /><rect height="1" width="1" x="38.0" y="30.0" rx="0"  ry="0" /><rect height="1" width="1" x="45.0" y="30.0" rx="0"  ry="0" /><rect height="1" width="1" x="52.0" y="30.0" rx="0"  ry="0" /><rect height="1" width="1" x="59.0" y="30.0" rx="0"  ry="0" /><rect height="1" width="1" x="66.0" y="30.0" rx="0"  ry="0" /><rect height="1" width="1" x="73.0" y="30.0" rx="0"  ry="0" /><rect height="3" width="3" x="74.0" y="31.0" rx="0"  ry="0" /><rect height="3" width="3" x="89.0" y="30.0" rx="0"  ry="0" /><rect height="1" width="1" x="102.0" y="31.0" rx="0"  ry="0" /><rect height="4" width="4" x="33.0" y="33.0" rx="0"  ry="0" /><rect height="1" width="1" x="81.0" y="32.0" rx="0"  ry="0" /><rect height="4" width="4" x="83.0" y="33.0" rx="0"  ry="0" /><rect height="1" width="1" x="86.0" y="32.0" rx="0"  ry="0" /><rect height="1" width="1" x="87.0" y="33.0" rx="0"  ry="0" /><rect height="3" width="3" x="89.0" y="33.0" rx="0"  ry="0" /><rect height="1" width="1" x="94.0" y="33.0" rx="0"  ry="0" /><rect height="1" width="1" x="97.0" y="32.0" rx="0"  ry="0" /><rect height="1" width="1" x="102.0" y="33.0" rx="0"  ry="0" /><rect height="1" width="1" x="17.0" y="35.0" rx="0"  ry="0" /><rect height="3" width="3" x="18.0" y="34.0" rx="0"  ry="0" /><rect height="3" width="3" x="21.0" y="34.0" rx="0"  ry="0" /><rect height="3" width="3" x="25.0" y="34.0" rx="0"  ry="0" /><rect height="1" width="1" x="24.0" y="35.0" rx="0"  ry="0" /><rect height="3" width="3" x="28.0" y="34.0" rx="0"  ry="0" /><rect height="1" width="1" x="31.0" y="35.0" rx="0"  ry="0" /><rect height="3" width="3" x="39.0" y="34.0" rx="0"  ry="0" /><rect height="1" width="1" x="38.0" y="35.0" rx="0"  ry="0" /><rect height="3" width="3" x="42.0" y="34.0" rx="0"  ry="0" /><rect height="1" width="1" x="45.0" y="35.0" rx="0"  ry="0" /><rect height="3" width="3" x="46.0" y="34.0" rx="0"  ry="0" /><rect height="3" width="3" x="49.0" y="34.0" rx="0"  ry="0" /><rect height="3" width="3" x="53.0" y="34.0" rx="0"  ry="0" /><rect height="1" width="1" x="52.0" y="35.0" rx="0"  ry="0" /><rect height="3" width="3" x="56.0" y="34.0" rx="0"  ry="0" /><rect height="1" width="1" x="59.0" y="35.0" rx="0"  ry="0" /><rect height="3" width="3" x="60.0" y="34.0" rx="0"  ry="0" /><rect height="3" width="3" x="63.0" y="34.0" rx="0"  ry="0" /><rect height="3" width="3" x="67.0" y="34.0" rx="0"  ry="0" /><rect height="1" width="1" x="66.0" y="35.0" rx="0"  ry="0" /><rect height="3" width="3" x="70.0" y="34.0" rx="0"  ry="0" /><rect height="1" width="1" x="73.0" y="35.0" rx="0"  ry="0" /><rect height="1" width="1" x="80.0" y="35.0" rx="0"  ry="0" /><rect height="1" width="1" x="17.0" y="36.0" rx="0"  ry="0" /><rect height="1" width="1" x="24.0" y="36.0" rx="0"  ry="0" /><rect height="1" width="1" x="31.0" y="36.0" rx="0"  ry="0" /><rect height="1" width="1" x="38.0" y="36.0" rx="0"  ry="0" /><rect height="1" width="1" x="45.0" y="36.0" rx="0"  ry="0" /><rect height="1" width="1" x="52.0" y="36.0" rx="0"  ry="0" /><rect height="1" width="1" x="59.0" y="36.0" rx="0"  ry="0" /><rect height="1" width="1" x="66.0" y="36.0" rx="0"  ry="0" /><rect height="1" width="1" x="73.0" y="36.0" rx="0"  ry="0" /><rect height="3" width="3" x="74.0" y="37.0" rx="0"  ry="0" /><rect height="1" width="1" x="81.0" y="37.0" rx="0"  ry="0" /><rect height="3" width="3" x="89.0" y="36.0" rx="0"  ry="0" /><rect height="1" width="1" x="97.0" y="37.0" rx="0"  ry="0" /><rect height="1" width="1" x="102.0" y="36.0" rx="0"  ry="0" /><rect height="1" width="1" x="17.0" y="39.0" rx="0"  ry="0" /><rect height="3" width="3" x="19.0" y="38.0" rx="0"  ry="0" /><rect height="1" width="1" x="24.0" y="39.0" rx="0"  ry="0" /><rect height="3" width="3" x="26.0" y="38.0" rx="0"  ry="0" /><rect height="1" width="1" x="31.0" y="39.0" rx="0"  ry="0" /><rect height="1" width="1" x="38.0" y="39.0" rx="0"  ry="0" /><rect height="3" width="3" x="40.0" y="38.0" rx="0"  ry="0" /><rect height="1" width="1" x="45.0" y="39.0" rx="0"  ry="0" /><rect height="3" width="3" x="47.0" y="38.0" rx="0"  ry="0" /><rect height="1" width="1" x="52.0" y="39.0" rx="0"  ry="0" /><rect height="3" width="3" x="54.0" y="38.0" rx="0"  ry="0" /><rect height="1" width="1" x="59.0" y="39.0" rx="0"  ry="0" /><rect height="3" width="3" x="61.0" y="38.0" rx="0"  ry="0" /><rect height="1" width="1" x="66.0" y="39.0" rx="0"  ry="0" /><rect height="3" width="3" x="68.0" y="38.0" rx="0"  ry="0" /><rect height="1" width="1" x="73.0" y="39.0" rx="0"  ry="0" /><rect height="3" width="3" x="89.0" y="39.0" rx="0"  ry="0" /><rect height="1" width="1" x="102.0" y="38.0" rx="0"  ry="0" /><rect height="1" width="1" x="16.0" y="41.0" rx="0"  ry="0" /><rect height="3" width="3" x="23.0" y="40.0" rx="0"  ry="0" /><rect height="3" width="3" x="30.0" y="40.0" rx="0"  ry="0" /><rect height="3" width="3" x="44.0" y="40.0" rx="0"  ry="0" /><rect height="3" width="3" x="51.0" y="40.0" rx="0"  ry="0" /><rect height="3" width="3" x="58.0" y="40.0" rx="0"  ry="0" /><rect height="3" width="3" x="65.0" y="40.0" rx="0"  ry="0" /><rect height="3" width="3" x="72.0" y="40.0" rx="0"  ry="0" /><rect height="1" width="1" x="80.0" y="40.0" rx="0"  ry="0" /><rect height="1" width="1" x="87.0" y="40.0" rx="0"  ry="0" /><rect height="1" width="1" x="94.0" y="40.0" rx="0"  ry="0" /><rect height="1" width="1" x="102.0" y="40.0" rx="0"  ry="0" /><rect height="1" width="1" x="5.0" y="43.0" rx="0"  ry="0" /><rect height="1" width="1" x="14.0" y="43.0" rx="0"  ry="0" /><rect height="1" width="1" x="102.0" y="42.0" rx="0"  ry="0" /><rect height="1" width="1" x="105.0" y="43.0" rx="0"  ry="0" /><rect height="1" width="1" x="114.0" y="43.0" rx="0"  ry="0" /><rect height="2" width="2" x="4.0" y="44.0" rx="0"  ry="0" /><rect height="2" width="2" x="14.0" y="44.0" rx="0"  ry="0" /><rect height="1" width="1" x="17.0" y="44.0" rx="0"  ry="0" /><rect height="1" width="1" x="17.0" y="45.0" rx="0"  ry="0" /><rect height="3" width="3" x="18.0" y="44.0" rx="0"  ry="0" /><rect height="3" width="3" x="21.0" y="44.0" rx="0"  ry="0" /><rect height="3" width="3" x="25.0" y="44.0" rx="0"  ry="0" /><rect height="1" width="1" x="24.0" y="44.0" rx="0"  ry="0" /><rect height="1" width="1" x="24.0" y="45.0" rx="0"  ry="0" /><rect height="3" width="3" x="28.0" y="44.0" rx="0"  ry="0" /><rect height="1" width="1" x="31.0" y="44.0" rx="0"  ry="0" /><rect height="1" width="1" x="31.0" y="45.0" rx="0"  ry="0" /><rect height="3" width="3" x="32.0" y="44.0" rx="0"  ry="0" /><rect height="3" width="3" x="35.0" y="44.0" rx="0"  ry="0" /><rect height="3" width="3" x="39.0" y="44.0" rx="0"  ry="0" /><rect height="1" width="1" x="38.0" y="44.0" rx="0"  ry="0" /><rect height="1" width="1" x="38.0" y="45.0" rx="0"  ry="0" /><rect height="3" width="3" x="42.0" y="44.0" rx="0"  ry="0" /><rect height="1" width="1" x="45.0" y="44.0" rx="0"  ry="0" /><rect height="1" width="1" x="45.0" y="45.0" rx="0"  ry="0" /><rect height="3" width="3" x="46.0" y="44.0" rx="0"  ry="0" /><rect height="3" width="3" x="49.0" y="44.0" rx="0"  ry="0" /><rect height="3" width="3" x="53.0" y="44.0" rx="0"  ry="0" /><rect height="1" width="1" x="52.0" y="44.0" rx="0"  ry="0" /><rect height="1" width="1" x="52.0" y="45.0" rx="0"  ry="0" /><rect height="3" width="3" x="56.0" y="44.0" rx="0"  ry="0" /><rect height="1" width="1" x="59.0" y="44.0" rx="0"  ry="0" /><rect height="1" width="1" x="59.0" y="45.0" rx="0"  ry="0" /><rect height="3" width="3" x="60.0" y="45.0" rx="0"  ry="0" /><rect height="3" width="3" x="63.0" y="45.0" rx="0"  ry="0" /><rect height="3" width="3" x="67.0" y="45.0" rx="0"  ry="0" /><rect height="3" width="3" x="70.0" y="45.0" rx="0"  ry="0" /><rect height="3" width="3" x="74.0" y="45.0" rx="0"  ry="0" /><rect height="3" width="3" x="77.0" y="45.0" rx="0"  ry="0" /><rect height="3" width="3" x="81.0" y="45.0" rx="0"  ry="0" /><rect height="3" width="3" x="84.0" y="45.0" rx="0"  ry="0" /><rect height="3" width="3" x="88.0" y="45.0" rx="0"  ry="0" /><rect height="3" width="3" x="91.0" y="45.0" rx="0"  ry="0" /><rect height="3" width="3" x="95.0" y="45.0" rx="0"  ry="0" /><rect height="2" width="2" x="104.0" y="44.0" rx="0"  ry="0" /><rect height="2" width="2" x="114.0" y="44.0" rx="0"  ry="0" /><rect height="1" width="1" x="5.0" y="46.0" rx="0"  ry="0" /><rect height="1" width="1" x="14.0" y="46.0" rx="0"  ry="0" /><rect height="1" width="1" x="59.0" y="46.0" rx="0"  ry="0" /><rect height="1" width="1" x="59.0" y="47.0" rx="0"  ry="0" /><rect height="1" width="1" x="66.0" y="46.0" rx="0"  ry="0" /><rect height="1" width="1" x="66.0" y="47.0" rx="0"  ry="0" /><rect height="1" width="1" x="73.0" y="47.0" rx="0"  ry="0" /><rect height="1" width="1" x="73.0" y="46.0" rx="0"  ry="0" /><rect height="1" width="1" x="80.0" y="47.0" rx="0"  ry="0" /><rect height="1" width="1" x="80.0" y="46.0" rx="0"  ry="0" /><rect height="1" width="1" x="87.0" y="47.0" rx="0"  ry="0" /><rect height="1" width="1" x="87.0" y="46.0" rx="0"  ry="0" /><rect height="1" width="1" x="94.0" y="47.0" rx="0"  ry="0" /><rect height="1" width="1" x="94.0" y="46.0" rx="0"  ry="0" /><rect height="1" width="1" x="102.0" y="47.0" rx="0"  ry="0" /><rect height="1" width="1" x="105.0" y="46.0" rx="0"  ry="0" /><rect height="1" width="1" x="114.0" y="46.0" rx="0"  ry="0" /><rect height="1" width="1" x="16.0" y="51.0" rx="0"  ry="0" /><rect height="1" width="1" x="95.0" y="51.0" rx="0"  ry="0" /><rect height="1" width="1" x="96.0" y="51.0" rx="0"  ry="0" /><rect height="1" width="1" x="102.0" y="50.0" rx="0"  ry="0" /><rect height="1" width="1" x="17.0" y="53.0" rx="0"  ry="0" /><rect height="3" width="3" x="18.0" y="52.0" rx="0"  ry="0" /><rect height="3" width="3" x="21.0" y="52.0" rx="0"  ry="0" /><rect height="3" width="3" x="25.0" y="52.0" rx="0"  ry="0" /><rect height="1" width="1" x="24.0" y="53.0" rx="0"  ry="0" /><rect height="3" width="3" x="28.0" y="52.0" rx="0"  ry="0" /><rect height="1" width="1" x="31.0" y="53.0" rx="0"  ry="0" /><rect height="3" width="3" x="32.0" y="52.0" rx="0"  ry="0" /><rect height="3" width="3" x="35.0" y="52.0" rx="0"  ry="0" /><rect height="3" width="3" x="39.0" y="52.0" rx="0"  ry="0" /><rect height="1" width="1" x="38.0" y="53.0" rx="0"  ry="0" /><rect height="3" width="3" x="42.0" y="52.0" rx="0"  ry="0" /><rect height="1" width="1" x="45.0" y="53.0" rx="0"  ry="0" /><rect height="3" width="3" x="46.0" y="52.0" rx="0"  ry="0" /><rect height="3" width="3" x="49.0" y="52.0" rx="0"  ry="0" /><rect height="3" width="3" x="53.0" y="52.0" rx="0"  ry="0" /><rect height="1" width="1" x="52.0" y="53.0" rx="0"  ry="0" /><rect height="3" width="3" x="56.0" y="52.0" rx="0"  ry="0" /><rect height="1" width="1" x="59.0" y="53.0" rx="0"  ry="0" /><rect height="3" width="3" x="67.0" y="52.0" rx="0"  ry="0" /><rect height="1" width="1" x="66.0" y="52.0" rx="0"  ry="0" /><rect height="1" width="1" x="66.0" y="53.0" rx="0"  ry="0" /><rect height="3" width="3" x="70.0" y="52.0" rx="0"  ry="0" /><rect height="1" width="1" x="73.0" y="53.0" rx="0"  ry="0" /><rect height="1" width="1" x="73.0" y="52.0" rx="0"  ry="0" /><rect height="3" width="3" x="74.0" y="52.0" rx="0"  ry="0" /><rect height="3" width="3" x="77.0" y="52.0" rx="0"  ry="0" /><rect height="3" width="3" x="81.0" y="52.0" rx="0"  ry="0" /><rect height="1" width="1" x="80.0" y="53.0" rx="0"  ry="0" /><rect height="1" width="1" x="80.0" y="52.0" rx="0"  ry="0" /><rect height="3" width="3" x="84.0" y="52.0" rx="0"  ry="0" /><rect height="1" width="1" x="87.0" y="53.0" rx="0"  ry="0" /><rect height="1" width="1" x="87.0" y="52.0" rx="0"  ry="0" /><rect height="3" width="3" x="88.0" y="52.0" rx="0"  ry="0" /><rect height="3" width="3" x="91.0" y="52.0" rx="0"  ry="0" /><rect height="1" width="1" x="94.0" y="53.0" rx="0"  ry="0" /><rect height="1" width="1" x="94.0" y="52.0" rx="0"  ry="0" /><rect height="1" width="1" x="17.0" y="54.0" rx="0"  ry="0" /><rect height="3" width="3" x="18.0" y="55.0" rx="0"  ry="0" /><rect height="3" width="3" x="21.0" y="55.0" rx="0"  ry="0" /><rect height="3" width="3" x="25.0" y="55.0" rx="0"  ry="0" /><rect height="1" width="1" x="24.0" y="54.0" rx="0"  ry="0" /><rect height="3" width="3" x="28.0" y="55.0" rx="0"  ry="0" /><rect height="1" width="1" x="31.0" y="54.0" rx="0"  ry="0" /><rect height="3" width="3" x="32.0" y="55.0" rx="0"  ry="0" /><rect height="3" width="3" x="35.0" y="55.0" rx="0"  ry="0" /><rect height="3" width="3" x="39.0" y="55.0" rx="0"  ry="0" /><rect height="1" width="1" x="38.0" y="54.0" rx="0"  ry="0" /><rect height="3" width="3" x="42.0" y="55.0" rx="0"  ry="0" /><rect height="1" width="1" x="45.0" y="54.0" rx="0"  ry="0" /><rect height="3" width="3" x="46.0" y="55.0" rx="0"  ry="0" /><rect height="3" width="3" x="49.0" y="55.0" rx="0"  ry="0" /><rect height="1" width="1" x="52.0" y="54.0" rx="0"  ry="0" /><rect height="1" width="1" x="59.0" y="54.0" rx="0"  ry="0" /><rect height="1" width="1" x="17.0" y="56.0" rx="0"  ry="0" /><rect height="1" width="1" x="17.0" y="57.0" rx="0"  ry="0" /><rect height="1" width="1" x="24.0" y="56.0" rx="0"  ry="0" /><rect height="1" width="1" x="24.0" y="57.0" rx="0"  ry="0" /><rect height="1" width="1" x="31.0" y="56.0" rx="0"  ry="0" /><rect height="1" width="1" x="31.0" y="57.0" rx="0"  ry="0" /><rect height="1" width="1" x="38.0" y="56.0" rx="0"  ry="0" /><rect height="1" width="1" x="38.0" y="57.0" rx="0"  ry="0" /><rect height="1" width="1" x="45.0" y="56.0" rx="0"  ry="0" /><rect height="1" width="1" x="45.0" y="57.0" rx="0"  ry="0" /><rect height="1" width="1" x="52.0" y="56.0" rx="0"  ry="0" /><rect height="1" width="1" x="52.0" y="57.0" rx="0"  ry="0" /><rect height="3" width="3" x="57.0" y="57.0" rx="0"  ry="0" /><rect height="1" width="1" x="59.0" y="56.0" rx="0"  ry="0" /><rect height="1" width="1" x="102.0" y="56.0" rx="0"  ry="0" /><rect height="1" width="1" x="102.0" y="58.0" rx="0"  ry="0" /><rect height="3" width="3" x="54.0" y="60.0" rx="0"  ry="0" /><rect height="1" width="1" x="59.0" y="61.0" rx="0"  ry="0" /><rect height="3" width="3" x="67.0" y="60.0" rx="0"  ry="0" /><rect height="1" width="1" x="66.0" y="61.0" rx="0"  ry="0" /><rect height="3" width="3" x="70.0" y="60.0" rx="0"  ry="0" /><rect height="1" width="1" x="73.0" y="61.0" rx="0"  ry="0" /><rect height="3" width="3" x="74.0" y="60.0" rx="0"  ry="0" /><rect height="3" width="3" x="77.0" y="60.0" rx="0"  ry="0" /><rect height="3" width="3" x="81.0" y="60.0" rx="0"  ry="0" /><rect height="1" width="1" x="80.0" y="61.0" rx="0"  ry="0" /><rect height="3" width="3" x="84.0" y="60.0" rx="0"  ry="0" /><rect height="1" width="1" x="87.0" y="61.0" rx="0"  ry="0" /><rect height="3" width="3" x="88.0" y="60.0" rx="0"  ry="0" /><rect height="3" width="3" x="91.0" y="60.0" rx="0"  ry="0" /><rect height="1" width="1" x="94.0" y="61.0" rx="0"  ry="0" /><rect height="1" width="1" x="17.0" y="63.0" rx="0"  ry="0" /><rect height="3" width="3" x="18.0" y="63.0" rx="0"  ry="0" /><rect height="3" width="3" x="21.0" y="63.0" rx="0"  ry="0" /><rect height="3" width="3" x="25.0" y="63.0" rx="0"  ry="0" /><rect height="1" width="1" x="24.0" y="63.0" rx="0"  ry="0" /><rect height="3" width="3" x="28.0" y="63.0" rx="0"  ry="0" /><rect height="1" width="1" x="31.0" y="63.0" rx="0"  ry="0" /><rect height="3" width="3" x="32.0" y="63.0" rx="0"  ry="0" /><rect height="3" width="3" x="35.0" y="63.0" rx="0"  ry="0" /><rect height="3" width="3" x="39.0" y="63.0" rx="0"  ry="0" /><rect height="1" width="1" x="38.0" y="63.0" rx="0"  ry="0" /><rect height="3" width="3" x="42.0" y="63.0" rx="0"  ry="0" /><rect height="1" width="1" x="45.0" y="63.0" rx="0"  ry="0" /><rect height="3" width="3" x="46.0" y="63.0" rx="0"  ry="0" /><rect height="3" width="3" x="49.0" y="63.0" rx="0"  ry="0" /><rect height="1" width="1" x="52.0" y="63.0" rx="0"  ry="0" /><rect height="3" width="3" x="57.0" y="63.0" rx="0"  ry="0" /><rect height="1" width="1" x="66.0" y="62.0" rx="0"  ry="0" /><rect height="1" width="1" x="73.0" y="62.0" rx="0"  ry="0" /><rect height="1" width="1" x="80.0" y="62.0" rx="0"  ry="0" /><rect height="1" width="1" x="87.0" y="62.0" rx="0"  ry="0" /><rect height="1" width="1" x="94.0" y="62.0" rx="0"  ry="0" /><rect height="1" width="1" x="17.0" y="64.0" rx="0"  ry="0" /><rect height="1" width="1" x="17.0" y="65.0" rx="0"  ry="0" /><rect height="1" width="1" x="24.0" y="64.0" rx="0"  ry="0" /><rect height="1" width="1" x="24.0" y="65.0" rx="0"  ry="0" /><rect height="1" width="1" x="31.0" y="64.0" rx="0"  ry="0" /><rect height="1" width="1" x="31.0" y="65.0" rx="0"  ry="0" /><rect height="1" width="1" x="38.0" y="64.0" rx="0"  ry="0" /><rect height="1" width="1" x="38.0" y="65.0" rx="0"  ry="0" /><rect height="1" width="1" x="45.0" y="64.0" rx="0"  ry="0" /><rect height="1" width="1" x="45.0" y="65.0" rx="0"  ry="0" /><rect height="1" width="1" x="52.0" y="64.0" rx="0"  ry="0" /><rect height="1" width="1" x="52.0" y="65.0" rx="0"  ry="0" /><rect height="1" width="1" x="17.0" y="67.0" rx="0"  ry="0" /><rect height="3" width="3" x="18.0" y="66.0" rx="0"  ry="0" /><rect height="3" width="3" x="21.0" y="66.0" rx="0"  ry="0" /><rect height="3" width="3" x="25.0" y="66.0" rx="0"  ry="0" /><rect height="1" width="1" x="24.0" y="67.0" rx="0"  ry="0" /><rect height="3" width="3" x="28.0" y="66.0" rx="0"  ry="0" /><rect height="1" width="1" x="31.0" y="67.0" rx="0"  ry="0" /><rect height="3" width="3" x="32.0" y="66.0" rx="0"  ry="0" /><rect height="3" width="3" x="35.0" y="66.0" rx="0"  ry="0" /><rect height="3" width="3" x="39.0" y="66.0" rx="0"  ry="0" /><rect height="1" width="1" x="38.0" y="67.0" rx="0"  ry="0" /><rect height="3" width="3" x="42.0" y="66.0" rx="0"  ry="0" /><rect height="1" width="1" x="45.0" y="67.0" rx="0"  ry="0" /><rect height="3" width="3" x="46.0" y="66.0" rx="0"  ry="0" /><rect height="3" width="3" x="49.0" y="66.0" rx="0"  ry="0" /><rect height="3" width="3" x="53.0" y="66.0" rx="0"  ry="0" /><rect height="1" width="1" x="52.0" y="67.0" rx="0"  ry="0" /><rect height="3" width="3" x="56.0" y="66.0" rx="0"  ry="0" /><rect height="1" width="1" x="59.0" y="67.0" rx="0"  ry="0" /><rect height="3" width="3" x="60.0" y="66.0" rx="0"  ry="0" /><rect height="3" width="3" x="66.0" y="66.0" rx="0"  ry="0" /><rect height="1" width="1" x="17.0" y="68.0" rx="0"  ry="0" /><rect height="1" width="1" x="24.0" y="68.0" rx="0"  ry="0" /><rect height="1" width="1" x="31.0" y="68.0" rx="0"  ry="0" /><rect height="1" width="1" x="38.0" y="68.0" rx="0"  ry="0" /><rect height="1" width="1" x="45.0" y="68.0" rx="0"  ry="0" /><rect height="1" width="1" x="52.0" y="68.0" rx="0"  ry="0" /><rect height="1" width="1" x="59.0" y="68.0" rx="0"  ry="0" /><rect height="1" width="1" x="66.0" y="69.0" rx="0"  ry="0" /><rect height="3" width="3" x="60.0" y="70.0" rx="0"  ry="0" /><rect height="3" width="3" x="66.0" y="70.0" rx="0"  ry="0" /><rect height="1" width="1" x="5.0" y="73.0" rx="0"  ry="0" /><rect height="1" width="1" x="14.0" y="73.0" rx="0"  ry="0" /><rect height="1" width="1" x="17.0" y="72.0" rx="0"  ry="0" /><rect height="1" width="1" x="17.0" y="73.0" rx="0"  ry="0" /><rect height="3" width="3" x="18.0" y="72.0" rx="0"  ry="0" /><rect height="3" width="3" x="21.0" y="72.0" rx="0"  ry="0" /><rect height="1" width="1" x="24.0" y="73.0" rx="0"  ry="0" /><rect height="3" width="3" x="25.0" y="72.0" rx="0"  ry="0" /><rect height="1" width="1" x="24.0" y="72.0" rx="0"  ry="0" /><rect height="3" width="3" x="28.0" y="72.0" rx="0"  ry="0" /><rect height="1" width="1" x="31.0" y="73.0" rx="0"  ry="0" /><rect height="1" width="1" x="31.0" y="72.0" rx="0"  ry="0" /><rect height="3" width="3" x="32.0" y="72.0" rx="0"  ry="0" /><rect height="3" width="3" x="35.0" y="72.0" rx="0"  ry="0" /><rect height="1" width="1" x="38.0" y="73.0" rx="0"  ry="0" /><rect height="3" width="3" x="39.0" y="72.0" rx="0"  ry="0" /><rect height="1" width="1" x="38.0" y="72.0" rx="0"  ry="0" /><rect height="3" width="3" x="42.0" y="72.0" rx="0"  ry="0" /><rect height="1" width="1" x="45.0" y="73.0" rx="0"  ry="0" /><rect height="1" width="1" x="45.0" y="72.0" rx="0"  ry="0" /><rect height="3" width="3" x="46.0" y="72.0" rx="0"  ry="0" /><rect height="3" width="3" x="49.0" y="72.0" rx="0"  ry="0" /><rect height="1" width="1" x="52.0" y="72.0" rx="0"  ry="0" /><rect height="1" width="1" x="52.0" y="73.0" rx="0"  ry="0" /><rect height="3" width="3" x="53.0" y="72.0" rx="0"  ry="0" /><rect height="1" width="1" x="59.0" y="73.0" rx="0"  ry="0" /><rect height="1" width="1" x="59.0" y="72.0" rx="0"  ry="0" /><rect height="1" width="1" x="105.0" y="73.0" rx="0"  ry="0" /><rect height="1" width="1" x="114.0" y="73.0" rx="0"  ry="0" /><rect height="2" width="2" x="4.0" y="74.0" rx="0"  ry="0" /><rect height="2" width="2" x="14.0" y="74.0" rx="0"  ry="0" /><rect height="1" width="1" x="17.0" y="74.0" rx="0"  ry="0" /><rect height="1" width="1" x="24.0" y="74.0" rx="0"  ry="0" /><rect height="1" width="1" x="31.0" y="74.0" rx="0"  ry="0" /><rect height="1" width="1" x="38.0" y="74.0" rx="0"  ry="0" /><rect height="1" width="1" x="45.0" y="74.0" rx="0"  ry="0" /><rect height="1" width="1" x="52.0" y="74.0" rx="0"  ry="0" /><rect height="1" width="1" x="59.0" y="74.0" rx="0"  ry="0" /><rect height="2" width="2" x="104.0" y="74.0" rx="0"  ry="0" /><rect height="2" width="2" x="114.0" y="74.0" rx="0"  ry="0" /><rect height="1" width="1" x="5.0" y="76.0" rx="0"  ry="0" /><rect height="1" width="1" x="14.0" y="76.0" rx="0"  ry="0" /><rect height="3" width="3" x="20.0" y="77.0" rx="0"  ry="0" /><rect height="3" width="3" x="23.0" y="77.0" rx="0"  ry="0" /><rect height="3" width="3" x="26.0" y="77.0" rx="0"  ry="0" /><rect height="3" width="3" x="29.0" y="77.0" rx="0"  ry="0" /><rect height="3" width="3" x="38.0" y="77.0" rx="0"  ry="0" /><rect height="3" width="3" x="41.0" y="77.0" rx="0"  ry="0" /><rect height="3" width="3" x="44.0" y="77.0" rx="0"  ry="0" /><rect height="3" width="3" x="47.0" y="77.0" rx="0"  ry="0" /><rect height="3" width="3" x="50.0" y="77.0" rx="0"  ry="0" /><rect height="3" width="3" x="53.0" y="77.0" rx="0"  ry="0" /><rect height="3" width="3" x="56.0" y="77.0" rx="0"  ry="0" /><rect height="3" width="3" x="59.0" y="77.0" rx="0"  ry="0" /><rect height="3" width="3" x="62.0" y="77.0" rx="0"  ry="0" /><rect height="3" width="3" x="65.0" y="77.0" rx="0"  ry="0" /><rect height="3" width="3" x="68.0" y="77.0" rx="0"  ry="0" /><rect height="3" width="3" x="71.0" y="77.0" rx="0"  ry="0" /><rect height="3" width="3" x="74.0" y="77.0" rx="0"  ry="0" /><rect height="3" width="3" x="77.0" y="77.0" rx="0"  ry="0" /><rect height="1" width="1" x="105.0" y="76.0" rx="0"  ry="0" /><rect height="1" width="1" x="114.0" y="76.0" rx="0"  ry="0" /><rect height="1" width="1" x="21.0" y="81.0" rx="0"  ry="0" /><rect height="1" width="1" x="21.0" y="80.0" rx="0"  ry="0" /><rect height="1" width="1" x="27.0" y="81.0" rx="0"  ry="0" /><rect height="1" width="1" x="27.0" y="80.0" rx="0"  ry="0" /><rect height="1" width="1" x="39.0" y="81.0" rx="0"  ry="0" /><rect height="1" width="1" x="39.0" y="80.0" rx="0"  ry="0" /><rect height="1" width="1" x="45.0" y="80.0" rx="0"  ry="0" /><rect height="1" width="1" x="45.0" y="81.0" rx="0"  ry="0" /><rect height="1" width="1" x="51.0" y="80.0" rx="0"  ry="0" /><rect height="1" width="1" x="51.0" y="81.0" rx="0"  ry="0" /><rect height="1" width="1" x="57.0" y="81.0" rx="0"  ry="0" /><rect height="1" width="1" x="57.0" y="80.0" rx="0"  ry="0" /><rect height="1" width="1" x="63.0" y="80.0" rx="0"  ry="0" /><rect height="1" width="1" x="63.0" y="81.0" rx="0"  ry="0" /><rect height="1" width="1" x="69.0" y="80.0" rx="0"  ry="0" /><rect height="1" width="1" x="69.0" y="81.0" rx="0"  ry="0" /><rect height="1" width="1" x="75.0" y="81.0" rx="0"  ry="0" /><rect height="1" width="1" x="75.0" y="80.0" rx="0"  ry="0" /><rect height="1" width="1" x="81.0" y="80.0" rx="0"  ry="0" /><rect height="1" width="1" x="81.0" y="81.0" rx="0"  ry="0" /><rect height="3" width="3" x="20.0" y="83.0" rx="0"  ry="0" /><rect height="3" width="3" x="23.0" y="83.0" rx="0"  ry="0" /><rect height="3" width="3" x="26.0" y="83.0" rx="0"  ry="0" /><rect height="3" width="3" x="29.0" y="83.0" rx="0"  ry="0" /><rect height="4" width="4" x="33.0" y="83.0" rx="0"  ry="0" /><rect height="3" width="3" x="38.0" y="83.0" rx="0"  ry="0" /><rect height="3" width="3" x="41.0" y="83.0" rx="0"  ry="0" /><rect height="3" width="3" x="44.0" y="83.0" rx="0"  ry="0" /><rect height="3" width="3" x="47.0" y="83.0" rx="0"  ry="0" /><rect height="3" width="3" x="50.0" y="83.0" rx="0"  ry="0" /><rect height="3" width="3" x="53.0" y="83.0" rx="0"  ry="0" /><rect height="3" width="3" x="56.0" y="83.0" rx="0"  ry="0" /><rect height="3" width="3" x="59.0" y="83.0" rx="0"  ry="0" /><rect height="3" width="3" x="62.0" y="83.0" rx="0"  ry="0" /><rect height="3" width="3" x="65.0" y="83.0" rx="0"  ry="0" /><rect height="3" width="3" x="68.0" y="83.0" rx="0"  ry="0" /><rect height="3" width="3" x="71.0" y="83.0" rx="0"  ry="0" /><rect height="3" width="3" x="74.0" y="83.0" rx="0"  ry="0" /><rect height="3" width="3" x="77.0" y="83.0" rx="0"  ry="0" /><rect height="4" width="4" x="83.0" y="83.0" rx="0"  ry="0" /><rect height="1" width="1" x="16.0" y="89.0" rx="0"  ry="0" /><rect height="1" width="1" x="21.0" y="89.0" rx="0"  ry="0" /><rect height="1" width="1" x="24.0" y="89.0" rx="0"  ry="0" /><rect height="1" width="1" x="27.0" y="89.0" rx="0"  ry="0" /><rect height="1" width="1" x="30.0" y="89.0" rx="0"  ry="0" /><rect height="1" width="1" x="33.0" y="89.0" rx="0"  ry="0" /><rect height="1" width="1" x="36.0" y="89.0" rx="0"  ry="0" /><rect height="1" width="1" x="39.0" y="89.0" rx="0"  ry="0" /><rect height="1" width="1" x="42.0" y="89.0" rx="0"  ry="0" /><rect height="1" width="1" x="45.0" y="89.0" rx="0"  ry="0" /><rect height="1" width="1" x="48.0" y="89.0" rx="0"  ry="0" /><rect height="1" width="1" x="51.0" y="89.0" rx="0"  ry="0" /><rect height="1" width="1" x="54.0" y="89.0" rx="0"  ry="0" /><rect height="1" width="1" x="57.0" y="89.0" rx="0"  ry="0" /><rect height="1" width="1" x="60.0" y="89.0" rx="0"  ry="0" /><rect height="1" width="1" x="63.0" y="89.0" rx="0"  ry="0" /><rect height="1" width="1" x="66.0" y="89.0" rx="0"  ry="0" /><rect height="1" width="1" x="69.0" y="89.0" rx="0"  ry="0" /><rect height="1" width="1" x="72.0" y="89.0" rx="0"  ry="0" /><rect height="1" width="1" x="75.0" y="89.0" rx="0"  ry="0" /><rect height="1" width="1" x="78.0" y="89.0" rx="0"  ry="0" /><rect height="1" width="1" x="81.0" y="89.0" rx="0"  ry="0" /><rect height="1" width="1" x="84.0" y="89.0" rx="0"  ry="0" /><rect height="1" width="1" x="14.0" y="91.0" rx="0"  ry="0" /><rect height="1" width="1" x="14.0" y="90.0" rx="0"  ry="0" /><rect height="3" width="3" x="20.0" y="92.0" rx="0"  ry="0" /><rect height="3" width="3" x="23.0" y="92.0" rx="0"  ry="0" /><rect height="3" width="3" x="26.0" y="92.0" rx="0"  ry="0" /><rect height="3" width="3" x="29.0" y="92.0" rx="0"  ry="0" /><rect height="3" width="3" x="32.0" y="92.0" rx="0"  ry="0" /><rect height="3" width="3" x="35.0" y="92.0" rx="0"  ry="0" /><rect height="3" width="3" x="38.0" y="92.0" rx="0"  ry="0" /><rect height="3" width="3" x="41.0" y="92.0" rx="0"  ry="0" /><rect height="3" width="3" x="44.0" y="92.0" rx="0"  ry="0" /><rect height="3" width="3" x="47.0" y="92.0" rx="0"  ry="0" /><rect height="3" width="3" x="50.0" y="92.0" rx="0"  ry="0" /><rect height="3" width="3" x="53.0" y="92.0" rx="0"  ry="0" /><rect height="3" width="3" x="56.0" y="92.0" rx="0"  ry="0" /><rect height="3" width="3" x="59.0" y="92.0" rx="0"  ry="0" /><rect height="3" width="3" x="62.0" y="92.0" rx="0"  ry="0" /><rect height="3" width="3" x="65.0" y="92.0" rx="0"  ry="0" /><rect height="3" width="3" x="68.0" y="92.0" rx="0"  ry="0" /><rect height="3" width="3" x="71.0" y="92.0" rx="0"  ry="0" /><rect height="3" width="3" x="74.0" y="92.0" rx="0"  ry="0" /><rect height="3" width="3" x="77.0" y="92.0" rx="0"  ry="0" /><rect height="1" width="1" x="21.0" y="96.0" rx="0"  ry="0" /><rect height="1" width="1" x="21.0" y="97.0" rx="0"  ry="0" /><rect height="1" width="1" x="27.0" y="96.0" rx="0"  ry="0" /><rect height="1" width="1" x="27.0" y="97.0" rx="0"  ry="0" /><rect height="1" width="1" x="33.0" y="97.0" rx="0"  ry="0" /><rect height="1" width="1" x="33.0" y="96.0" rx="0"  ry="0" /><rect height="1" width="1" x="39.0" y="96.0" rx="0"  ry="0" /><rect height="1" width="1" x="39.0" y="97.0" rx="0"  ry="0" /><rect height="1" width="1" x="45.0" y="97.0" rx="0"  ry="0" /><rect height="1" width="1" x="45.0" y="96.0" rx="0"  ry="0" /><rect height="1" width="1" x="51.0" y="97.0" rx="0"  ry="0" /><rect height="1" width="1" x="51.0" y="96.0" rx="0"  ry="0" /><rect height="1" width="1" x="57.0" y="97.0" rx="0"  ry="0" /><rect height="1" width="1" x="57.0" y="96.0" rx="0"  ry="0" /><rect height="1" width="1" x="63.0" y="97.0" rx="0"  ry="0" /><rect height="1" width="1" x="63.0" y="96.0" rx="0"  ry="0" /><rect height="1" width="1" x="69.0" y="97.0" rx="0"  ry="0" /><rect height="1" width="1" x="69.0" y="96.0" rx="0"  ry="0" /><rect height="1" width="1" x="75.0" y="96.0" rx="0"  ry="0" /><rect height="1" width="1" x="75.0" y="97.0" rx="0"  ry="0" /><rect height="1" width="1" x="81.0" y="97.0" rx="0"  ry="0" /><rect height="1" width="1" x="81.0" y="96.0" rx="0"  ry="0" /><rect height="3" width="3" x="20.0" y="98.0" rx="0"  ry="0" /><rect height="3" width="3" x="23.0" y="98.0" rx="0"  ry="0" /><rect height="3" width="3" x="26.0" y="98.0" rx="0"  ry="0" /><rect height="3" width="3" x="29.0" y="98.0" rx="0"  ry="0" /><rect height="3" width="3" x="32.0" y="98.0" rx="0"  ry="0" /><rect height="3" width="3" x="35.0" y="98.0" rx="0"  ry="0" /><rect height="3" width="3" x="38.0" y="98.0" rx="0"  ry="0" /><rect height="3" width="3" x="41.0" y="98.0" rx="0"  ry="0" /><rect height="3" width="3" x="44.0" y="98.0" rx="0"  ry="0" /><rect height="3" width="3" x="47.0" y="98.0" rx="0"  ry="0" /><rect height="3" width="3" x="50.0" y="98.0" rx="0"  ry="0" /><rect height="3" width="3" x="53.0" y="98.0" rx="0"  ry="0" /><rect height="3" width="3" x="56.0" y="98.0" rx="0"  ry="0" /><rect height="3" width="3" x="59.0" y="98.0" rx="0"  ry="0" /><rect height="3" width="3" x="62.0" y="98.0" rx="0"  ry="0" /><rect height="3" width="3" x="65.0" y="98.0" rx="0"  ry="0" /><rect height="3" width="3" x="68.0" y="98.0" rx="0"  ry="0" /><rect height="3" width="3" x="71.0" y="98.0" rx="0"  ry="0" /><rect height="3" width="3" x="74.0" y="98.0" rx="0"  ry="0" /><rect height="3" width="3" x="77.0" y="98.0" rx="0"  ry="0" /><rect height="1" width="1" x="5.0" y="103.0" rx="0"  ry="0" /><rect height="1" width="1" x="14.0" y="103.0" rx="0"  ry="0" /><rect height="1" width="1" x="105.0" y="103.0" rx="0"  ry="0" /><rect height="1" width="1" x="114.0" y="103.0" rx="0"  ry="0" /><rect height="1" width="1" x="3.0" y="105.0" rx="0"  ry="0" /><rect height="2" width="2" x="4.0" y="104.0" rx="0"  ry="0" /><rect height="2" width="2" x="14.0" y="104.0" rx="0"  ry="0" /><rect height="1" width="1" x="16.0" y="105.0" rx="0"  ry="0" /><rect height="1" width="1" x="43.0" y="105.0" rx="0"  ry="0" /><rect height="2" width="2" x="44.0" y="104.0" rx="0"  ry="0" /><rect height="1" width="1" x="46.0" y="105.0" rx="0"  ry="0" /><rect height="1" width="1" x="73.0" y="105.0" rx="0"  ry="0" /><rect height="2" width="2" x="74.0" y="104.0" rx="0"  ry="0" /><rect height="1" width="1" x="76.0" y="105.0" rx="0"  ry="0" /><rect height="1" width="1" x="103.0" y="105.0" rx="0"  ry="0" /><rect height="2" width="2" x="104.0" y="104.0" rx="0"  ry="0" /><rect height="2" width="2" x="114.0" y="104.0" rx="0"  ry="0" /><rect height="1" width="1" x="116.0" y="105.0" rx="0"  ry="0" /><rect height="1" width="1" x="3.0" y="114.0" rx="0"  ry="0" /><rect height="2" width="2" x="4.0" y="114.0" rx="0"  ry="0" /><rect height="2" width="2" x="14.0" y="114.0" rx="0"  ry="0" /><rect height="1" width="1" x="16.0" y="114.0" rx="0"  ry="0" /><rect height="1" width="1" x="43.0" y="114.0" rx="0"  ry="0" /><rect height="2" width="2" x="44.0" y="114.0" rx="0"  ry="0" /><rect height="1" width="1" x="46.0" y="114.0" rx="0"  ry="0" /><rect height="1" width="1" x="73.0" y="114.0" rx="0"  ry="0" /><rect height="2" width="2" x="74.0" y="114.0" rx="0"  ry="0" /><rect height="1" width="1" x="76.0" y="114.0" rx="0"  ry="0" /><rect height="1" width="1" x="103.0" y="114.0" rx="0"  ry="0" /><rect height="2" width="2" x="104.0" y="114.0" rx="0"  ry="0" /><rect height="2" width="2" x="114.0" y="114.0" rx="0"  ry="0" /><rect height="1" width="1" x="116.0" y="114.0" rx="0"  ry="0" /><rect height="1" width="1" x="5.0" y="116.0" rx="0"  ry="0" /><rect height="1" width="1" x="14.0" y="116.0" rx="0"  ry="0" /><rect height="1" width="1" x="105.0" y="116.0" rx="0"  ry="0" /><rect height="1" width="1" x="114.0" y="116.0" rx="0"  ry="0" /></g><path stroke="#264653" stroke-width="0.8" stroke-linecap="square" d="M63.5 14.5 63.5 16.5M62.5 14.5 62.5 16.5M69.5 14.5 69.5 16.5M70.5 14.5 70.5 16.5M77.5 14.5 77.5 16.5M76.5 14.5 76.5 16.5M83.5 14.5 83.5 16.5M84.5 14.5 84.5 16.5M91.5 14.5 91.5 16.5M90.5 14.5 90.5 16.5M31.5 19.5 29.5 19.5M63.5 18.5 63.5 20.5M62.5 18.5 62.5 20.5M69.5 18.5 69.5 20.5M70.5 18.5 70.5 20.5M75.5 18.5 75.5 20.5M78.5 18.5 78.5 20.5M82.5 18.5 82.5 20.5M85.5 18.5 85.5 20.5M89.5 18.5 89.5 20.5M92.5 18.5 92.5 20.5M25.5 20.5 25.5 22.5M27.5 20.5 27.5 22.5M28.5 20.5 28.5 22.5M30.5 20.5 30.5 22.5M32.5 20.5 32.5 22.5M35.5 20.5 35.5 22.5M34.5 20.5 34.5 22.5M37.5 20.5 37.5 22.5M39.5 20.5 39.5 22.5M41.5 20.5 41.5 22.5M42.5 20.5 42.5 22.5M44.5 20.5 44.5 22.5M46.5 20.5 46.5 22.5M49.5 20.5 49.5 22.5M48.5 20.5 48.5 22.5M51.5 20.5 51.5 22.5M53.5 20.5 53.5 22.5M55.5 20.5 55.5 22.5M56.5 20.5 56.5 22.5M58.5 20.5 58.5 22.5M60.5 20.5 60.5 22.5M63.5 20.5 63.5 22.5M62.5 20.5 62.5 22.5M65.5 20.5 65.5 22.5M67.5 20.5 67.5 22.5M69.5 20.5 69.5 22.5M70.5 20.5 70.5 22.5M72.5 20.5 72.5 22.5M77.5 20.5 77.5 22.5M78.5 22.5 78.5 20.5M81.5 20.5 81.5 22.5M82.5 22.5 82.5 20.5M85.5 22.5 85.5 20.5M86.5 20.5 86.5 22.5M89.5 22.5 89.5 20.5M91.5 20.5 91.5 22.5M90.5 20.5 90.5 22.5M92.5 22.5 92.5 20.5M16.5 24.5 16.5 26.5M25.5 24.5 25.5 26.5M30.5 24.5 30.5 26.5M32.5 24.5 32.5 26.5M37.5 24.5 37.5 26.5M39.5 24.5 39.5 26.5M44.5 24.5 44.5 26.5M46.5 24.5 46.5 26.5M51.5 24.5 51.5 26.5M53.5 24.5 53.5 26.5M58.5 24.5 58.5 26.5M60.5 24.5 60.5 26.5M65.5 24.5 65.5 26.5M67.5 24.5 67.5 26.5M72.5 24.5 72.5 26.5M78.5 26.5 78.5 24.5M83.5 26.5 83.5 24.5M84.5 26.5 84.5 24.5M91.5 26.5 91.5 24.5M90.5 26.5 90.5 24.5M16.5 28.5 16.5 26.5M18.5 28.5 18.5 26.5M23.5 28.5 23.5 26.5M25.5 28.5 25.5 26.5M30.5 28.5 30.5 26.5M39.5 28.5 39.5 26.5M44.5 28.5 44.5 26.5M46.5 28.5 46.5 26.5M51.5 28.5 51.5 26.5M53.5 28.5 53.5 26.5M58.5 28.5 58.5 26.5M60.5 28.5 60.5 26.5M65.5 28.5 65.5 26.5M67.5 28.5 67.5 26.5M72.5 28.5 72.5 26.5M81.5 27.5 79.5 27.5M87.5 27.5 85.5 27.5M93.5 27.5 91.5 27.5M18.5 32.5 18.5 30.5M21.5 32.5 21.5 30.5M20.5 32.5 20.5 30.5M23.5 32.5 23.5 30.5M25.5 32.5 25.5 30.5M27.5 32.5 27.5 30.5M28.5 32.5 28.5 30.5M30.5 32.5 30.5 30.5M39.5 32.5 39.5 30.5M41.5 32.5 41.5 30.5M42.5 32.5 42.5 30.5M44.5 32.5 44.5 30.5M46.5 32.5 46.5 30.5M49.5 32.5 49.5 30.5M48.5 32.5 48.5 30.5M51.5 32.5 51.5 30.5M53.5 32.5 53.5 30.5M55.5 32.5 55.5 30.5M56.5 32.5 56.5 30.5M58.5 32.5 58.5 30.5M60.5 32.5 60.5 30.5M63.5 32.5 63.5 30.5M62.5 32.5 62.5 30.5M65.5 32.5 65.5 30.5M67.5 32.5 67.5 30.5M69.5 32.5 69.5 30.5M70.5 32.5 70.5 30.5M72.5 32.5 72.5 30.5M89.5 30.5 87.5 30.5M93.5 31.5 91.5 31.5M19.5 34.5 19.5 30.5M18.5 32.5 18.5 34.5M23.5 32.5 23.5 34.5M22.5 34.5 22.5 30.5M25.5 32.5 25.5 34.5M26.5 34.5 26.5 30.5M29.5 34.5 29.5 30.5M30.5 32.5 30.5 34.5M39.5 32.5 39.5 34.5M40.5 34.5 40.5 30.5M43.5 34.5 43.5 30.5M44.5 32.5 44.5 34.5M47.5 34.5 47.5 30.5M46.5 32.5 46.5 34.5M51.5 32.5 51.5 34.5M50.5 34.5 50.5 30.5M53.5 32.5 53.5 34.5M54.5 34.5 54.5 30.5M57.5 34.5 57.5 30.5M58.5 32.5 58.5 34.5M61.5 34.5 61.5 30.5M60.5 32.5 60.5 34.5M65.5 32.5 65.5 34.5M64.5 34.5 64.5 30.5M67.5 32.5 67.5 34.5M68.5 34.5 68.5 30.5M71.5 34.5 71.5 30.5M72.5 32.5 72.5 34.5M93.5 33.5 91.5 33.5M93.5 32.5 91.5 32.5M75.5 35.5 75.5 33.5M76.5 33.5 76.5 35.5M89.5 35.5 87.5 35.5M93.5 35.5 91.5 35.5M18.5 38.5 18.5 36.5M20.5 38.5 20.5 36.5M21.5 38.5 21.5 36.5M23.5 38.5 23.5 36.5M25.5 38.5 25.5 36.5M27.5 38.5 27.5 36.5M28.5 38.5 28.5 36.5M30.5 38.5 30.5 36.5M39.5 38.5 39.5 36.5M41.5 38.5 41.5 36.5M42.5 38.5 42.5 36.5M44.5 38.5 44.5 36.5M46.5 38.5 46.5 36.5M48.5 38.5 48.5 36.5M49.5 38.5 49.5 36.5M51.5 38.5 51.5 36.5M53.5 38.5 53.5 36.5M55.5 38.5 55.5 36.5M56.5 38.5 56.5 36.5M58.5 38.5 58.5 36.5M60.5 38.5 60.5 36.5M62.5 38.5 62.5 36.5M63.5 38.5 63.5 36.5M65.5 38.5 65.5 36.5M67.5 38.5 67.5 36.5M69.5 38.5 69.5 36.5M70.5 38.5 70.5 36.5M72.5 38.5 72.5 36.5M75.5 35.5 75.5 37.5M76.5 37.5 76.5 35.5M89.5 36.5 87.5 36.5M93.5 36.5 91.5 36.5M23.5 38.5 21.5 38.5M23.5 38.5 23.5 40.5M30.5 38.5 28.5 38.5M30.5 38.5 30.5 40.5M44.5 38.5 42.5 38.5M44.5 38.5 44.5 40.5M51.5 38.5 51.5 40.5M51.5 38.5 49.5 38.5M58.5 38.5 56.5 38.5M58.5 38.5 58.5 40.5M65.5 38.5 65.5 40.5M65.5 38.5 63.5 38.5M72.5 38.5 70.5 38.5M72.5 38.5 72.5 40.5M89.5 39.5 87.5 39.5M93.5 39.5 91.5 39.5M93.5 38.5 91.5 38.5M23.5 40.5 21.5 40.5M28.5 41.5 24.5 41.5M30.5 40.5 28.5 40.5M35.5 41.5 31.5 41.5M44.5 40.5 42.5 40.5M49.5 41.5 45.5 41.5M51.5 40.5 49.5 40.5M56.5 41.5 52.5 41.5M58.5 40.5 56.5 40.5M63.5 41.5 59.5 41.5M65.5 40.5 63.5 40.5M70.5 41.5 66.5 41.5M72.5 40.5 70.5 40.5M76.5 41.5 74.5 41.5M93.5 40.5 91.5 40.5M16.5 41.5 16.5 43.5M61.5 43.5 61.5 45.5M63.5 45.5 63.5 43.5M62.5 45.5 62.5 43.5M64.5 43.5 64.5 45.5M69.5 45.5 69.5 43.5M68.5 43.5 68.5 45.5M71.5 43.5 71.5 45.5M70.5 45.5 70.5 43.5M75.5 43.5 75.5 45.5M77.5 45.5 77.5 43.5M76.5 45.5 76.5 43.5M78.5 43.5 78.5 45.5M83.5 45.5 83.5 43.5M82.5 43.5 82.5 45.5M85.5 43.5 85.5 45.5M84.5 45.5 84.5 43.5M89.5 43.5 89.5 45.5M91.5 45.5 91.5 43.5M90.5 45.5 90.5 43.5M92.5 43.5 92.5 45.5M95.5 45.5 95.5 43.5M97.5 43.5 97.5 45.5M96.5 43.5 96.5 45.5M18.5 48.5 18.5 46.5M21.5 45.5 21.5 49.5M20.5 45.5 20.5 49.5M23.5 48.5 23.5 46.5M25.5 48.5 25.5 46.5M27.5 45.5 27.5 49.5M28.5 45.5 28.5 49.5M30.5 48.5 30.5 46.5M32.5 48.5 32.5 46.5M35.5 45.5 35.5 49.5M34.5 45.5 34.5 49.5M37.5 48.5 37.5 46.5M39.5 48.5 39.5 46.5M41.5 45.5 41.5 49.5M42.5 45.5 42.5 49.5M44.5 48.5 44.5 46.5M46.5 48.5 46.5 46.5M49.5 45.5 49.5 49.5M48.5 45.5 48.5 49.5M51.5 48.5 51.5 46.5M53.5 48.5 53.5 46.5M55.5 45.5 55.5 49.5M56.5 45.5 56.5 49.5M58.5 48.5 58.5 46.5M21.5 50.5 21.5 46.5M20.5 50.5 20.5 46.5M27.5 50.5 27.5 46.5M28.5 50.5 28.5 46.5M35.5 50.5 35.5 46.5M34.5 50.5 34.5 46.5M41.5 50.5 41.5 46.5M42.5 50.5 42.5 46.5M49.5 50.5 49.5 46.5M48.5 50.5 48.5 46.5M55.5 50.5 55.5 46.5M56.5 50.5 56.5 46.5M63.5 49.5 63.5 47.5M62.5 49.5 62.5 47.5M69.5 49.5 69.5 47.5M70.5 49.5 70.5 47.5M77.5 49.5 77.5 47.5M76.5 49.5 76.5 47.5M83.5 49.5 83.5 47.5M84.5 49.5 84.5 47.5M91.5 49.5 91.5 47.5M90.5 49.5 90.5 47.5M16.5 51.5 16.5 49.5M19.5 53.5 19.5 49.5M18.5 48.5 18.5 52.5M21.5 50.5 21.5 52.5M20.5 50.5 20.5 52.5M23.5 48.5 23.5 52.5M22.5 53.5 22.5 49.5M25.5 48.5 25.5 52.5M27.5 50.5 27.5 52.5M26.5 53.5 26.5 49.5M29.5 53.5 29.5 49.5M28.5 50.5 28.5 52.5M30.5 48.5 30.5 52.5M33.5 53.5 33.5 49.5M32.5 48.5 32.5 52.5M35.5 50.5 35.5 52.5M34.5 50.5 34.5 52.5M37.5 48.5 37.5 52.5M36.5 53.5 36.5 49.5M39.5 48.5 39.5 52.5M41.5 50.5 41.5 52.5M40.5 53.5 40.5 49.5M43.5 53.5 43.5 49.5M42.5 50.5 42.5 52.5M44.5 48.5 44.5 52.5M47.5 53.5 47.5 49.5M46.5 48.5 46.5 52.5M49.5 50.5 49.5 52.5M48.5 50.5 48.5 52.5M51.5 48.5 51.5 52.5M50.5 53.5 50.5 49.5M53.5 48.5 53.5 52.5M55.5 50.5 55.5 52.5M54.5 53.5 54.5 49.5M57.5 53.5 57.5 49.5M56.5 50.5 56.5 52.5M58.5 48.5 58.5 52.5M69.5 50.5 69.5 52.5M70.5 50.5 70.5 52.5M77.5 50.5 77.5 52.5M76.5 50.5 76.5 52.5M83.5 50.5 83.5 52.5M84.5 50.5 84.5 52.5M91.5 50.5 91.5 52.5M90.5 50.5 90.5 52.5M95.5 53.5 95.5 51.5M96.5 53.5 96.5 51.5M67.5 53.5 67.5 57.5M69.5 56.5 69.5 54.5M70.5 56.5 70.5 54.5M72.5 53.5 72.5 57.5M74.5 53.5 74.5 57.5M77.5 56.5 77.5 54.5M76.5 56.5 76.5 54.5M79.5 53.5 79.5 57.5M81.5 53.5 81.5 57.5M83.5 56.5 83.5 54.5M84.5 56.5 84.5 54.5M86.5 53.5 86.5 57.5M88.5 53.5 88.5 57.5M91.5 56.5 91.5 54.5M90.5 56.5 90.5 54.5M93.5 53.5 93.5 57.5M19.5 56.5 19.5 60.5M18.5 59.5 18.5 57.5M21.5 61.5 21.5 57.5M20.5 61.5 20.5 57.5M23.5 59.5 23.5 57.5M22.5 56.5 22.5 60.5M25.5 59.5 25.5 57.5M27.5 61.5 27.5 57.5M26.5 56.5 26.5 60.5M29.5 56.5 29.5 60.5M28.5 61.5 28.5 57.5M30.5 59.5 30.5 57.5M33.5 56.5 33.5 60.5M32.5 59.5 32.5 57.5M35.5 61.5 35.5 57.5M34.5 61.5 34.5 57.5M37.5 59.5 37.5 57.5M36.5 56.5 36.5 60.5M39.5 59.5 39.5 57.5M41.5 61.5 41.5 57.5M40.5 56.5 40.5 60.5M43.5 56.5 43.5 60.5M42.5 61.5 42.5 57.5M44.5 59.5 44.5 57.5M47.5 56.5 47.5 60.5M46.5 59.5 46.5 57.5M49.5 61.5 49.5 57.5M48.5 61.5 48.5 57.5M51.5 59.5 51.5 57.5M50.5 56.5 50.5 60.5M54.5 60.5 54.5 58.5M57.5 59.5 55.5 59.5M69.5 58.5 69.5 60.5M70.5 58.5 70.5 60.5M74.5 61.5 74.5 57.5M77.5 58.5 77.5 60.5M76.5 58.5 76.5 60.5M79.5 61.5 79.5 57.5M81.5 61.5 81.5 57.5M83.5 58.5 83.5 60.5M84.5 58.5 84.5 60.5M86.5 61.5 86.5 57.5M88.5 61.5 88.5 57.5M91.5 58.5 91.5 60.5M90.5 58.5 90.5 60.5M93.5 61.5 93.5 57.5M18.5 59.5 18.5 63.5M23.5 59.5 23.5 63.5M25.5 59.5 25.5 63.5M30.5 59.5 30.5 63.5M32.5 59.5 32.5 63.5M37.5 59.5 37.5 63.5M39.5 59.5 39.5 63.5M44.5 59.5 44.5 63.5M46.5 59.5 46.5 63.5M51.5 59.5 51.5 63.5M58.5 61.5 56.5 61.5M58.5 61.5 58.5 59.5M19.5 64.5 19.5 60.5M21.5 61.5 21.5 63.5M20.5 61.5 20.5 63.5M22.5 64.5 22.5 60.5M27.5 61.5 27.5 63.5M26.5 64.5 26.5 60.5M29.5 64.5 29.5 60.5M28.5 61.5 28.5 63.5M33.5 64.5 33.5 60.5M35.5 61.5 35.5 63.5M34.5 61.5 34.5 63.5M36.5 64.5 36.5 60.5M41.5 61.5 41.5 63.5M40.5 64.5 40.5 60.5M43.5 64.5 43.5 60.5M42.5 61.5 42.5 63.5M47.5 64.5 47.5 60.5M49.5 61.5 49.5 63.5M48.5 61.5 48.5 63.5M50.5 64.5 50.5 60.5M57.5 63.5 55.5 63.5M58.5 61.5 58.5 63.5M67.5 62.5 67.5 64.5M72.5 62.5 72.5 64.5M74.5 64.5 74.5 62.5M79.5 64.5 79.5 62.5M81.5 64.5 81.5 62.5M86.5 64.5 86.5 62.5M88.5 64.5 88.5 62.5M93.5 64.5 93.5 62.5M64.5 67.5 62.5 67.5M64.5 67.5 66.5 67.5M70.5 66.5 68.5 66.5M17.5 68.5 17.5 70.5M18.5 68.5 18.5 70.5M21.5 70.5 21.5 68.5M20.5 70.5 20.5 68.5M23.5 68.5 23.5 70.5M25.5 68.5 25.5 70.5M27.5 70.5 27.5 68.5M28.5 70.5 28.5 68.5M30.5 68.5 30.5 70.5M32.5 68.5 32.5 70.5M35.5 70.5 35.5 68.5M34.5 70.5 34.5 68.5M37.5 68.5 37.5 70.5M39.5 68.5 39.5 70.5M41.5 70.5 41.5 68.5M42.5 70.5 42.5 68.5M44.5 68.5 44.5 70.5M46.5 68.5 46.5 70.5M49.5 70.5 49.5 68.5M48.5 70.5 48.5 68.5M51.5 68.5 51.5 70.5M53.5 68.5 53.5 70.5M55.5 70.5 55.5 68.5M56.5 70.5 56.5 68.5M58.5 68.5 58.5 70.5M61.5 70.5 61.5 68.5M62.5 68.5 64.5 68.5M66.5 68.5 64.5 68.5M67.5 70.5 67.5 68.5M17.5 72.5 17.5 70.5M18.5 72.5 18.5 70.5M23.5 72.5 23.5 70.5M25.5 72.5 25.5 70.5M30.5 72.5 30.5 70.5M32.5 72.5 32.5 70.5M37.5 72.5 37.5 70.5M39.5 72.5 39.5 70.5M44.5 72.5 44.5 70.5M46.5 72.5 46.5 70.5M51.5 72.5 51.5 70.5M64.5 71.5 62.5 71.5M64.5 71.5 66.5 71.5M57.5 72.5 55.5 72.5M18.5 76.5 18.5 74.5M23.5 76.5 23.5 74.5M25.5 76.5 25.5 74.5M30.5 76.5 30.5 74.5M32.5 76.5 32.5 74.5M37.5 76.5 37.5 74.5M39.5 76.5 39.5 74.5M44.5 76.5 44.5 74.5M46.5 76.5 46.5 74.5M51.5 76.5 51.5 74.5M53.5 74.5 53.5 76.5M23.5 83.5 23.5 79.5M22.5 83.5 22.5 79.5M29.5 83.5 29.5 79.5M28.5 83.5 28.5 79.5M41.5 83.5 41.5 79.5M40.5 83.5 40.5 79.5M47.5 83.5 47.5 79.5M46.5 83.5 46.5 79.5M53.5 83.5 53.5 79.5M52.5 83.5 52.5 79.5M59.5 83.5 59.5 79.5M58.5 83.5 58.5 79.5M65.5 83.5 65.5 79.5M64.5 83.5 64.5 79.5M71.5 83.5 71.5 79.5M70.5 83.5 70.5 79.5M77.5 83.5 77.5 79.5M76.5 83.5 76.5 79.5M20.5 88.5 20.5 84.5M20.5 89.5 20.5 85.5M23.5 89.5 23.5 85.5M23.5 88.5 23.5 84.5M22.5 88.5 22.5 84.5M22.5 89.5 22.5 85.5M25.5 88.5 25.5 84.5M25.5 89.5 25.5 85.5M26.5 89.5 26.5 85.5M26.5 88.5 26.5 84.5M29.5 88.5 29.5 84.5M29.5 89.5 29.5 85.5M28.5 88.5 28.5 84.5M28.5 89.5 28.5 85.5M31.5 88.5 31.5 84.5M31.5 89.5 31.5 85.5M38.5 88.5 38.5 84.5M38.5 89.5 38.5 85.5M41.5 89.5 41.5 85.5M41.5 88.5 41.5 84.5M40.5 88.5 40.5 84.5M40.5 89.5 40.5 85.5M43.5 89.5 43.5 85.5M43.5 88.5 43.5 84.5M44.5 89.5 44.5 85.5M44.5 88.5 44.5 84.5M47.5 88.5 47.5 84.5M47.5 89.5 47.5 85.5M46.5 89.5 46.5 85.5M46.5 88.5 46.5 84.5M49.5 89.5 49.5 85.5M49.5 88.5 49.5 84.5M50.5 88.5 50.5 84.5M50.5 89.5 50.5 85.5M53.5 89.5 53.5 85.5M53.5 88.5 53.5 84.5M52.5 89.5 52.5 85.5M52.5 88.5 52.5 84.5M55.5 88.5 55.5 84.5M55.5 89.5 55.5 85.5M56.5 89.5 56.5 85.5M56.5 88.5 56.5 84.5M59.5 89.5 59.5 85.5M59.5 88.5 59.5 84.5M58.5 88.5 58.5 84.5M58.5 89.5 58.5 85.5M61.5 89.5 61.5 85.5M61.5 88.5 61.5 84.5M62.5 89.5 62.5 85.5M62.5 88.5 62.5 84.5M65.5 89.5 65.5 85.5M65.5 88.5 65.5 84.5M64.5 89.5 64.5 85.5M64.5 88.5 64.5 84.5M67.5 88.5 67.5 84.5M67.5 89.5 67.5 85.5M68.5 88.5 68.5 84.5M68.5 89.5 68.5 85.5M71.5 89.5 71.5 85.5M71.5 88.5 71.5 84.5M70.5 88.5 70.5 84.5M70.5 89.5 70.5 85.5M73.5 89.5 73.5 85.5M73.5 88.5 73.5 84.5M74.5 88.5 74.5 84.5M74.5 89.5 74.5 85.5M77.5 89.5 77.5 85.5M77.5 88.5 77.5 84.5M76.5 88.5 76.5 84.5M76.5 89.5 76.5 85.5M79.5 88.5 79.5 84.5M79.5 89.5 79.5 85.5M14.5 90.5 16.5 90.5M20.5 88.5 20.5 92.5M20.5 89.5 20.5 93.5M23.5 88.5 23.5 92.5M23.5 89.5 23.5 93.5M22.5 89.5 22.5 93.5M22.5 88.5 22.5 92.5M25.5 88.5 25.5 92.5M25.5 89.5 25.5 93.5M26.5 89.5 26.5 93.5M26.5 88.5 26.5 92.5M29.5 89.5 29.5 93.5M29.5 88.5 29.5 92.5M28.5 88.5 28.5 92.5M28.5 89.5 28.5 93.5M31.5 89.5 31.5 93.5M31.5 88.5 31.5 92.5M32.5 88.5 32.5 92.5M32.5 89.5 32.5 93.5M35.5 88.5 35.5 92.5M35.5 89.5 35.5 93.5M34.5 89.5 34.5 93.5M34.5 88.5 34.5 92.5M37.5 89.5 37.5 93.5M37.5 88.5 37.5 92.5M38.5 88.5 38.5 92.5M38.5 89.5 38.5 93.5M41.5 88.5 41.5 92.5M41.5 89.5 41.5 93.5M40.5 88.5 40.5 92.5M40.5 89.5 40.5 93.5M43.5 89.5 43.5 93.5M43.5 88.5 43.5 92.5M44.5 89.5 44.5 93.5M44.5 88.5 44.5 92.5M47.5 89.5 47.5 93.5M47.5 88.5 47.5 92.5M46.5 88.5 46.5 92.5M46.5 89.5 46.5 93.5M49.5 89.5 49.5 93.5M49.5 88.5 49.5 92.5M50.5 88.5 50.5 92.5M50.5 89.5 50.5 93.5M53.5 88.5 53.5 92.5M53.5 89.5 53.5 93.5M52.5 89.5 52.5 93.5M52.5 88.5 52.5 92.5M55.5 88.5 55.5 92.5M55.5 89.5 55.5 93.5M56.5 89.5 56.5 93.5M56.5 88.5 56.5 92.5M59.5 88.5 59.5 92.5M59.5 89.5 59.5 93.5M58.5 89.5 58.5 93.5M58.5 88.5 58.5 92.5M61.5 88.5 61.5 92.5M61.5 89.5 61.5 93.5M62.5 89.5 62.5 93.5M62.5 88.5 62.5 92.5M65.5 89.5 65.5 93.5M65.5 88.5 65.5 92.5M64.5 88.5 64.5 92.5M64.5 89.5 64.5 93.5M67.5 88.5 67.5 92.5M67.5 89.5 67.5 93.5M68.5 89.5 68.5 93.5M68.5 88.5 68.5 92.5M71.5 88.5 71.5 92.5M71.5 89.5 71.5 93.5M70.5 89.5 70.5 93.5M70.5 88.5 70.5 92.5M73.5 89.5 73.5 93.5M73.5 88.5 73.5 92.5M74.5 88.5 74.5 92.5M74.5 89.5 74.5 93.5M77.5 88.5 77.5 92.5M77.5 89.5 77.5 93.5M76.5 89.5 76.5 93.5M76.5 88.5 76.5 92.5M79.5 89.5 79.5 93.5M79.5 88.5 79.5 92.5M23.5 94.5 23.5 98.5M22.5 94.5 22.5 98.5M29.5 94.5 29.5 98.5M28.5 94.5 28.5 98.5M35.5 94.5 35.5 98.5M34.5 94.5 34.5 98.5M41.5 94.5 41.5 98.5M40.5 94.5 40.5 98.5M47.5 94.5 47.5 98.5M46.5 94.5 46.5 98.5M53.5 94.5 53.5 98.5M52.5 94.5 52.5 98.5M59.5 94.5 59.5 98.5M58.5 94.5 58.5 98.5M65.5 94.5 65.5 98.5M64.5 94.5 64.5 98.5M71.5 94.5 71.5 98.5M70.5 94.5 70.5 98.5M77.5 94.5 77.5 98.5M76.5 94.5 76.5 98.5"/></g></svg>